<?xml version="1.0" encoding="utf-8"?>
<!-- Generator: Adobe Illustrator 20.0.0, SVG Export Plug-In . SVG Version: 6.00 Build 0)  -->
<svg version="1.1" id="圖層_1" xmlns="http://www.w3.org/2000/svg" xmlns:xlink="http://www.w3.org/1999/xlink" x="0px" y="0px"
	 viewBox="0 0 70 70" style="enable-background:new 0 0 70 70;" xml:space="preserve">
<style type="text/css">
	.st0{fill:#FFFFFF;}
</style>
<g>
	<g>
		<g>
			<path class="st0" d="M42.5,40.9l-4.4-11.8c-1.3,0.3-2.7,0.7-4.1,0.7c-1.3,0-2.5-0.7-3.7-1L25.8,41L42.5,40.9z"/>
		</g>
		<g>
			<path class="st0" d="M32.2,3.6c0.1,0.3,0.2,0.3,0.4,0.2c1.1-0.4,2.1-0.5,3.2-0.2c0.3,0.1,0.7,0.4,0.9,0.2C37,3.6,37,3.2,37.1,2.9
				c0,0,0,0,0-0.1c0.1-0.1,0-0.2-0.1-0.2c-0.8-0.2-1.6-0.4-2.5-0.4c-0.8,0.1-1.6,0.3-2.5,0.4c-0.2,0-0.1,0.2-0.1,0.3
				C32.1,3.1,32.2,3.4,32.2,3.6z"/>
		</g>
		<g>
			<path class="st0" d="M45.6,6.5c-1.2-0.2-2.5-0.4-3.7-0.5c-1.1-0.1-2.2-0.3-3.3-0.4c-0.7-0.1-1.5-0.1-2.2-0.2
				c-1.1-0.1-2.2-0.1-3.2,0c-1.3,0.1-2.7,0.2-4,0.4c-1.2,0.2-2.4,0.3-3.6,0.5c-1.4,0.2-2.9,0.4-4.3,0.7c-1,0.2-1.9,0.3-2.9,0.5
				c-0.2,0-0.2,0.1-0.2,0.3c0.9,2,1.9,4.1,2.8,6.2c0.1,0.3,0.3,0.3,0.6,0.3c1.4-0.3,2.8-0.6,4.1-0.9c1.7-0.3,3.4-0.6,5-0.9
				c1-0.1,2.1-0.3,3.1-0.3c1.5-0.1,3,0.1,4.5,0.3c1.5,0.2,3,0.5,4.5,0.7c1.7,0.3,3.4,0.7,5.1,1.1c0.2,0,0.3,0,0.4-0.2
				c0.6-1.3,1.2-2.6,1.7-3.8c0.4-0.9,0.8-1.7,1.2-2.6c-1.1-0.2-2.1-0.3-3.1-0.5C47.2,6.8,46.4,6.7,45.6,6.5z"/>
		</g>
		<g>
			<path class="st0" d="M43.7,15.2c-1.4-0.3-2.8-0.5-4.3-0.8c-1.6-0.2-3.2-0.5-4.7-0.5c-0.6,0-1.1,0-1.5,0.1c-1,0.1-2,0.2-3,0.4
				c-1.6,0.2-3.2,0.5-4.8,0.9c-0.2,0-0.3,0.1-0.4,0.4c-0.4,1.5-0.6,3.1-0.3,4.6c0.4,2.3,1.5,4.3,3.4,5.9c2.6,2.2,5.5,2.9,8.8,2.1
				c2.2-0.5,4.1-1.7,5.5-3.5c1.3-1.6,2-3.4,2.1-5.4c0.1-1.2,0-2.4-0.4-3.6C44.1,15.3,44,15.2,43.7,15.2z"/>
		</g>
	</g>
	<g>
		<polygon class="st0" points="8.9,59.9 6.3,57.3 21.1,45 45.1,45 60.4,28.5 63.3,30.9 46.8,48 22.6,48 		"/>
	</g>
	<g>
		<path class="st0" d="M36.4,68.6c-8.4,0-16-4.6-20.1-12.7l3.3-2.6l0.6,1.3c3.1,6.1,9.3,9.9,16.2,9.9c10,0,18.2-8.2,18.2-18.2
			c0-1.3-0.1-2.2-0.3-3.5l3.3-3.4l0.5,2.2c0.3,1.5,0.5,3,0.5,4.6C58.6,58.6,48.7,68.6,36.4,68.6z"/>
	</g>
</g>
</svg>
