<?xml version="1.0" encoding="utf-8"?>
<!-- Generator: Adobe Illustrator 16.0.0, SVG Export Plug-In . SVG Version: 6.00 Build 0)  -->
<!DOCTYPE svg PUBLIC "-//W3C//DTD SVG 1.1//EN" "http://www.w3.org/Graphics/SVG/1.1/DTD/svg11.dtd">
<svg version="1.1" id="圖層_1" xmlns="http://www.w3.org/2000/svg" xmlns:xlink="http://www.w3.org/1999/xlink" x="0px" y="0px"
	 width="70px" height="70px" viewBox="0 0 70 70" enable-background="new 0 0 70 70" xml:space="preserve">
<path fill="#FFFFFF" d="M49.243,2.943H20.757c-3.357,0-6.104,2.746-6.104,6.104v52.901c0,3.357,2.747,6.104,6.104,6.104h28.486
	c3.356,0,6.104-2.746,6.104-6.104V9.046C55.347,5.689,52.6,2.943,49.243,2.943L49.243,2.943z M26.862,5.995h16.277v2.034H26.862
	V5.995z M35,63.982c-2.248,0-4.07-1.822-4.07-4.07c0-2.246,1.822-4.068,4.07-4.068s4.07,1.822,4.07,4.068
	C39.07,62.16,37.248,63.982,35,63.982L35,63.982z M51.277,51.773H18.723V11.081h32.554V51.773z M51.277,51.773"/>
</svg>