<?xml version="1.0" encoding="utf-8"?>
<!-- Generator: Adobe Illustrator 16.0.0, SVG Export Plug-In . SVG Version: 6.00 Build 0)  -->
<!DOCTYPE svg PUBLIC "-//W3C//DTD SVG 1.1//EN" "http://www.w3.org/Graphics/SVG/1.1/DTD/svg11.dtd">
<svg version="1.1" id="圖層_1" xmlns="http://www.w3.org/2000/svg" xmlns:xlink="http://www.w3.org/1999/xlink" x="0px" y="0px"
	 width="69.99px" height="70px" viewBox="0 0 69.99 70" enable-background="new 0 0 69.99 70" xml:space="preserve">
<g>
	<path fill="#F7F8F8" d="M50.133,43.229c-0.743-0.365-1.479-0.758-2.189-1.184c-0.339-0.202-0.505-0.165-0.729,0.163
		c-1.973,2.907-2.73,6.2-3.026,9.661c0.841-0.836,1.697-1.657,2.52-2.514c1.521-1.584,2.768-3.362,3.684-5.367
		C50.563,43.607,50.512,43.415,50.133,43.229z"/>
	<path fill="#F7F8F8" d="M68.425,6.223c-0.505,0.059-0.794,0.424-0.95,1.288c-0.029,0.136-0.053,0.37-0.029,0.609
		c0.054,0.553,0.307,0.708,0.804,0.467c0.465-0.228,0.822-0.585,1.083-1.024c0.182-0.302,0.169-0.625-0.035-0.923
		C69.088,6.336,68.804,6.182,68.425,6.223z"/>
	<path fill="#F7F8F8" d="M62.405,23.208v33.806H15.606V20.172h43.083c0.244-0.43,0.498-0.875,0.763-1.343
		c0.312-0.548,0.619-1.097,0.931-1.645H12.618v0.368c0.111,0.112,0.22,0.231,0.319,0.379c0,16.869,0,23.333,0,40.201
		c-0.102-0.132-0.208-0.246-0.319-0.354v1.31c0.116,0.103,0.22,0.229,0.28,0.401c0.01,0.027,0.018,0.056,0.023,0.085
		c0.029,0.139,0.021,0.288-0.007,0.427h52.478V17.56c-0.4,0.731-0.799,1.465-1.181,2.207C63.621,20.919,63.012,22.063,62.405,23.208
		z"/>
	<path fill="#F7F8F8" d="M59.802,20.172c-1.08,1.871-2.204,3.818-3.973,6.938c-2.547,4.493-5.091,8.986-7.647,13.473
		c-0.18,0.312-0.128,0.435,0.174,0.589c0.726,0.373,1.433,0.782,2.147,1.178c0.56,0.307,0.559,0.305,0.85-0.244
		c3.173-5.991,3.386-6.6,6.561-12.59c1.496-2.823,2.994-5.645,4.492-8.468v-0.874L59.802,20.172L59.802,20.172z"/>
	<path fill="#F7F8F8" d="M67.07,12.253c0.049-0.092,0.098-0.184,0.125-0.239c0.062-0.218-0.071-0.271-0.189-0.337
		c-0.508-0.277-1.021-0.543-1.519-0.84c-0.216-0.129-0.305-0.073-0.411,0.122c-0.27,0.495-0.559,0.98-0.836,1.469
		c-1.11,1.959-1.965,3.451-2.715,4.757h2.929C65.326,15.542,66.198,13.897,67.07,12.253z"/>
	<path fill="#F7F8F8" d="M62.405,20.172v0.874c0.683-1.287,1.366-2.574,2.049-3.861h-2.929c-0.617,1.073-1.166,2.022-1.724,2.987
		H62.405z"/>
	<path fill="#F7F8F8" d="M68.838,5.673c-0.638-0.119-1.251,0.145-1.521,0.735c-0.318,0.699-0.452,1.446-0.284,2.21
		c0.121,0.555,0.496,0.776,1.031,0.573c0.785-0.296,1.427-0.805,1.8-1.568C70.256,6.82,69.72,5.838,68.838,5.673z M69.331,7.563
		c-0.261,0.438-0.618,0.796-1.083,1.024c-0.497,0.241-0.75,0.086-0.804-0.467c-0.022-0.239,0-0.473,0.029-0.609
		c0.156-0.863,0.445-1.229,0.95-1.288c0.38-0.042,0.663,0.113,0.871,0.417C69.5,6.937,69.512,7.261,69.331,7.563z"/>
	<path fill="#F7F8F8" d="M67.864,9.862c-0.295-0.169-0.598-0.325-0.896-0.489c-0.676-0.371-0.665-0.368-0.998,0.314
		c-0.083,0.172-0.078,0.265,0.088,0.353c0.456,0.244,0.911,0.494,1.365,0.743c0.09,0.048,0.181,0.134,0.261-0.007
		c0.125-0.22,0.245-0.441,0.369-0.668C68.104,9.947,67.956,9.915,67.864,9.862z"/>
	<polygon fill="#F7F8F8" points="23.774,29.394 22.047,27.668 20.64,29.077 23.774,32.209 29,26.984 27.592,25.576 	"/>
	<polygon fill="#F7F8F8" points="23.774,39.352 22.047,37.625 20.64,39.033 23.774,42.167 29,36.941 27.592,35.533 	"/>
	<polygon fill="#F7F8F8" points="23.774,49.309 22.047,47.583 20.64,48.991 23.774,52.124 29,46.898 27.592,45.49 	"/>
	<path fill="#F7F8F8" d="M11.249,16.8c-3.275-0.95-6.547-0.97-9.813,0.119c-0.482,0.159-1.44,0.848-1.44,0.848v40.708
		c0.078-0.592,0.474-0.813,0.801-1.011c0.83-0.51,1.714-0.719,2.603-0.871c2.07-0.35,4.144-0.343,6.216-0.004
		c0.725,0.119,1.442,0.313,2.144,0.614c0.31,0.133,0.597,0.322,0.86,0.576V17.553C12.21,17.142,11.737,16.941,11.249,16.8z"/>
	<path fill="#F7F8F8" d="M12.938,58.133c0-16.869,0-23.332,0-40.201c-0.1-0.148-0.208-0.268-0.319-0.379v40.226
		C12.729,57.887,12.835,58.001,12.938,58.133z"/>
	<path fill="#F7F8F8" d="M12.618,59.088c-0.101-0.088-0.211-0.156-0.312-0.212c-0.176-0.093-0.351-0.181-0.528-0.261
		c-0.355-0.161-0.715-0.293-1.08-0.402c-0.746-0.224-1.504-0.35-2.264-0.416c-0.761-0.066-1.522-0.078-2.281-0.074
		c-1.534,0.008-3.064,0.176-4.563,0.735c-0.199,0.074-0.395,0.172-0.587,0.278c-0.342,0.19-0.978,0.545-0.892,1.236
		c0.045,0.346,0.342,0.545,0.532,0.682c0.72,0.521,1.502,0.699,2.28,0.889c0.479,0.117,0.969,0.161,1.453,0.236
		c0.004-0.073,0.014-0.146,0.016-0.219c0.013-1.035,0.034-1.095,0.717-1.299c0.905-0.271,1.813-0.268,2.721,0.006
		c0.631,0.191,0.656,0.258,0.666,1.186c0,0.109,0.008,0.221,0.014,0.33c1.285-0.149,2.564-0.331,3.776-1.063
		c0.106-0.063,0.207-0.142,0.301-0.236c0.109-0.105,0.284-0.274,0.325-0.465c0.001-0.006,0.001-0.014,0.002-0.02h-0.297V59.088z"/>
	<path fill="#F7F8F8" d="M12.922,59.574c-0.006-0.029-0.014-0.059-0.023-0.085c-0.061-0.173-0.164-0.3-0.28-0.401v0.913h0.297
		C12.943,59.861,12.951,59.713,12.922,59.574z"/>
	<path fill="#F7F8F8" d="M4.079,15.16c1.591-0.203,3.18-0.237,4.771-0.006c0-0.513-0.024-1.027,0.002-1.539
		c0.028-0.57-0.167-0.854-0.506-0.987c-0.356-0.14-0.717-0.26-1.081-0.314c-0.359-0.055-0.715-0.036-1.071-0.013
		c-0.338,0.021-0.679,0.06-1.017,0.125c-0.25,0.047-0.535,0.127-0.768,0.284c-0.23,0.157-0.348,0.354-0.334,0.751
		C4.097,14.025,4.079,14.594,4.079,15.16z"/>
	<path fill="#F7F8F8" d="M8.021,62.991C6.978,62.559,5.934,62.546,4.894,63c-0.189,0.083-0.387,0.195-0.436,0.541
		c0.165,0.434,0.474,0.537,0.756,0.632c0.653,0.218,1.323,0.222,1.98,0.112c0.393-0.068,0.771-0.128,1.117-0.432
		C8.648,63.557,8.25,63.088,8.021,62.991z"/>
</g>
</svg>