<?xml version="1.0" encoding="utf-8"?>
<!-- Generator: Adobe Illustrator 16.0.0, SVG Export Plug-In . SVG Version: 6.00 Build 0)  -->
<!DOCTYPE svg PUBLIC "-//W3C//DTD SVG 1.1//EN" "http://www.w3.org/Graphics/SVG/1.1/DTD/svg11.dtd">
<svg version="1.1" id="圖層_1" xmlns="http://www.w3.org/2000/svg" xmlns:xlink="http://www.w3.org/1999/xlink" x="0px" y="0px"
	 width="69.99px" height="70px" viewBox="0 0 69.99 70" enable-background="new 0 0 69.99 70" xml:space="preserve">
<g>
	<g>
		<path fill-rule="evenodd" clip-rule="evenodd" fill="#F7F8F8" d="M34.382,38.629c-4.922-0.144-10.389-0.692-16.308-3.012
			c-2.128-0.833-4.143-2.42-5.468-4.398c-0.639-0.956,0.727-5.547,5.072-9.941c4.342-4.393,11.645-6.598,16.497-6.688
			c4.582-0.087,13.074,1.696,17.912,6.769c4.48,4.699,5.577,12.066,5.173,12.353c-1.509,1.045-3.04,1.507-4.341,1.975
			C47.253,37.736,41.543,38.642,34.382,38.629z"/>
	</g>
	<path fill-rule="evenodd" clip-rule="evenodd" fill="#F7F8F8" d="M9.384,29.784c-2.502-1.315-3.962-3.421-4.424-6.164
		c-0.797-4.736,2.314-9.139,7.048-9.979c3.258-0.578,5.979,0.511,8.178,2.943c0.152,0.166,0.241,0.383,0.358,0.579
		c-1.417,0.735-2.884,1.375-4.176,2.331c-3.308,2.455-5.576,5.63-6.762,9.576C9.531,29.311,9.458,29.55,9.384,29.784z"/>
	<path fill-rule="evenodd" clip-rule="evenodd" fill="#F7F8F8" d="M60.466,30.515c2.589-1.143,4.182-3.146,4.826-5.853
		c1.112-4.673-1.697-9.27-6.363-10.425c-3.216-0.793-6,0.111-8.36,2.392c-0.161,0.153-0.263,0.366-0.394,0.552
		c1.365,0.83,2.788,1.566,4.011,2.605c3.137,2.671,5.188,5.988,6.106,10.003C60.351,30.035,60.411,30.278,60.466,30.515z"/>
	<polygon fill-rule="evenodd" clip-rule="evenodd" fill="#F7F8F8" points="5.807,49.693 0.437,47.912 6.668,32.091 9.361,32.984 	
		"/>
	<polygon fill-rule="evenodd" clip-rule="evenodd" fill="#F7F8F8" points="64.233,49.693 69.604,47.912 63.372,32.091 60.68,32.984 
			"/>
	<g>
		<path fill="#F7F8F8" d="M34.536,56.251c-9.563,0-17.342-7.779-17.342-17.342s7.779-17.342,17.342-17.342
			c9.562,0,17.344,7.779,17.344,17.342S44.098,56.251,34.536,56.251z M34.536,23.99c-8.226,0-14.918,6.693-14.918,14.919
			c0,8.227,6.692,14.919,14.918,14.919c8.228,0,14.921-6.692,14.921-14.919C49.457,30.684,42.764,23.99,34.536,23.99z"/>
	</g>
</g>
</svg>
