<?xml version="1.0" encoding="utf-8"?>
<!-- Generator: Adobe Illustrator 16.0.0, SVG Export Plug-In . SVG Version: 6.00 Build 0)  -->
<!DOCTYPE svg PUBLIC "-//W3C//DTD SVG 1.1//EN" "http://www.w3.org/Graphics/SVG/1.1/DTD/svg11.dtd">
<svg version="1.1" id="圖層_1" xmlns="http://www.w3.org/2000/svg" xmlns:xlink="http://www.w3.org/1999/xlink" x="0px" y="0px"
	 width="69.99px" height="70px" viewBox="0 0 69.99 70" enable-background="new 0 0 69.99 70" xml:space="preserve">
<g>
	<path fill-rule="evenodd" clip-rule="evenodd" fill="#FFFFFF" d="M49,70H21V30h28V70z M46,33H24v34h22V33z"/>
	<rect x="25" y="34" fill-rule="evenodd" clip-rule="evenodd" fill="#FFFFFF" width="20" height="32"/>
	<path fill-rule="evenodd" clip-rule="evenodd" fill="#FFFFFF" d="M37.006,0.053c0.416,0.042,0.824,0.115,1.214,0.278
		c0.555,0.234,0.718,0.676,0.675,1.218c-0.067,0.855-0.2,1.705-0.266,2.56c-0.068,0.903-0.101,1.809-0.126,2.714
		c-0.031,1.058,0.041,2.113,0.144,3.167c0.059,0.601,0.145,1.194,0.311,1.774c0.125,0.436,0.284,0.852,0.604,1.194
		c0.774,0.829,1.552,1.654,2.308,2.501c0.736,0.826,1.398,1.711,1.882,2.714c0.471,0.974,0.699,1.995,0.603,3.083
		c-0.078,0.884-0.341,1.706-0.778,2.473c-0.702,1.229-1.709,2.151-2.923,2.858c-0.313,0.184-0.331,0.294-0.092,0.574
		c0.012,0.013,0.021,0.026,0.033,0.037c0.244,0.228,0.494,0.448,0.73,0.682c0.188,0.187,0.381,0.374,0.535,0.587
		c0.193,0.271,0.125,0.485-0.186,0.611c-0.212,0.087-0.438,0.15-0.663,0.193c-0.931,0.178-1.875,0.209-2.818,0.224
		c-1.282,0.02-2.564,0.005-3.847,0.006c-1.613,0-3.229,0.045-4.836-0.156c-0.356-0.045-0.713-0.122-1.056-0.23
		c-0.423-0.134-0.483-0.384-0.221-0.74c0.008-0.01,0.015-0.021,0.024-0.029c0.156-0.16,0.309-0.322,0.469-0.479
		c0.265-0.259,0.547-0.502,0.797-0.773c0.194-0.209,0.156-0.337-0.089-0.478c-1.022-0.587-1.906-1.332-2.593-2.295
		c-0.618-0.866-1.016-1.819-1.137-2.881c-0.016-0.138-0.035-0.274-0.053-0.411c0-0.177,0-0.354,0-0.532
		c0.01-0.045,0.025-0.088,0.028-0.134c0.029-0.521,0.149-1.022,0.324-1.512c0.357-0.996,0.931-1.866,1.58-2.691
		c0.774-0.98,1.651-1.871,2.5-2.784c0.243-0.262,0.501-0.522,0.68-0.826c0.355-0.604,0.471-1.292,0.559-1.978
		c0.075-0.584,0.132-1.172,0.154-1.76c0.034-0.926,0.055-1.854,0.039-2.781c-0.013-0.782-0.077-1.564-0.139-2.344
		c-0.049-0.604-0.131-1.204-0.192-1.808c-0.022-0.211-0.047-0.427-0.031-0.637c0.035-0.459,0.286-0.767,0.717-0.934
		c0.372-0.144,0.759-0.214,1.154-0.255C33.229,0.031,36.799,0.031,37.006,0.053z"/>
</g>
</svg>
