<?xml version="1.0" encoding="utf-8"?>
<!-- Generator: Adobe Illustrator 16.0.0, SVG Export Plug-In . SVG Version: 6.00 Build 0)  -->
<!DOCTYPE svg PUBLIC "-//W3C//DTD SVG 1.1//EN" "http://www.w3.org/Graphics/SVG/1.1/DTD/svg11.dtd">
<svg version="1.1" id="圖層_1" xmlns="http://www.w3.org/2000/svg" xmlns:xlink="http://www.w3.org/1999/xlink" x="0px" y="0px"
	 width="70px" height="70px" viewBox="0 0 70 70" enable-background="new 0 0 70 70" xml:space="preserve">
<g>
	<path fill-rule="evenodd" clip-rule="evenodd" fill="#FFFFFF" d="M50.755,32.087c3.398,1.64,9.248,2.427,14.235-1.507
		c-0.352,3.372,2.364,8.453,2.364,8.453s-3.977-1.107-7.754-0.695c-4.387,0.481-10.206,3.703-14.769,3.49
		c-6.673-0.312-11.876-3.185-15.476-8.927c-1.798-2.874-2.757-6.082-4.012-9.17c-0.547-1.347-1.137-2.668-1.992-3.856
		c-0.996-1.38-1.878-1.608-3.567-1.631c-1.108,0.101-2.818,1.509-2.818,1.509s1.433-2.887,1.758-3.41
		c3.092-4.972,7.735-4.664,11.844-1.381c1.095,0.874,2.089,1.872,3.17,2.771c1.441,1.199,3.265,2.728,4.394,1.216
		c1.754-2.349,3.086-5.768,5.741-7.951c4.042-3.499,7.067-4.238,12.17-5.466c3.726-0.894,6.932-1.148,10.736-0.941
		c0.653,0.038,2.551,0.411,3.22,0.673c-4.186,3.202-6.844,6.642-8.184,11.336c-1.312,3.198-1.129,6.887-3.222,9.729
		c-2.235,3.037-4.81,3.533-8.389,4.548c-0.221,0.063-0.438,0.137-0.655,0.207C49.547,31.224,50.212,31.825,50.755,32.087z"/>
	<g>
		<path fill-rule="evenodd" clip-rule="evenodd" fill="#FFFFFF" d="M25.155,51.509c-0.913,2.885-1.794,5.675-2.682,8.46
			c-0.371,1.171-0.707,1.35-1.861,0.992c-1.37-0.426-2.744-0.862-4.114-1.292c-1.494-0.468-1.629-0.723-1.167-2.186
			c0.747-2.38,1.494-4.755,2.301-7.316c-1.91,1.208-3.647,2.311-5.39,3.413c-1.146,0.729-1.492,0.646-2.239-0.536
			c-0.77-1.213-1.54-2.425-2.309-3.634c-0.726-1.147-0.644-1.505,0.526-2.246c2.045-1.293,4.092-2.589,6.254-3.957
			c-0.271-0.19-0.482-0.335-0.699-0.482c-4.481-3.052-7.914-5.381-12.391-8.437c-1.047-0.72-1.505-1.771-1.359-3.162
			c0.39-3.731,2.602-6.338,5.57-6.838c3.341-0.563,4.458,0.789,5.66,1.829c4.436,3.847,5.958,5.133,10.373,9.008
			c0.57,0.5,0.825,0.501,1.258-0.124c0.57-0.836,1.026-0.863,1.844-0.242c1.688,1.281,3.364,2.577,5.04,3.875
			c0.923,0.714,1.007,1.137,0.258,2.025c-0.426,0.503-0.354,0.72,0.175,1.077c2.822,1.889,12.839,8.574,14.394,9.563
			c-2.902-0.882-6.107,0.521-7.871,2.539c-2.431,2.786-1.764,5.181-1.399,6.683c-2.731-2.338-5.428-4.915-8.146-7.271
			C26.527,52.683,25.869,52.12,25.155,51.509z M27.99,39.886c-0.131-0.106-0.238-0.195-0.35-0.283
			c-1.076-0.824-2.161-1.638-3.219-2.487c-0.294-0.239-0.431-0.188-0.65,0.095c-2.02,2.647-4.05,5.29-6.099,7.92
			c-0.273,0.354-0.169,0.491,0.127,0.707c1.066,0.795,2.125,1.597,3.155,2.433c0.329,0.271,0.475,0.209,0.712-0.103
			c2.001-2.626,4.021-5.241,6.034-7.865C27.804,40.175,27.893,40.03,27.99,39.886z M20.489,58.749
			c0.312-0.046,0.293-0.304,0.354-0.506c0.806-2.539,1.608-5.085,2.406-7.632c0.078-0.243,0.342-0.563,0-0.741
			c-0.361-0.194-0.449,0.239-0.604,0.43c-0.783,0.942-1.11,0.996-2.102,0.243c-0.112-0.084-0.232-0.163-0.336-0.259
			c-0.302-0.273-0.397-0.114-0.498,0.194c-0.705,2.28-1.427,4.557-2.144,6.834c-0.059,0.179-0.213,0.422,0.044,0.513
			C18.562,58.156,19.535,58.449,20.489,58.749z M14.833,45.435c-1.581,0.999-3.096,1.973-4.629,2.919
			c-0.375,0.231-0.515,0.41-0.206,0.832c0.436,0.59,0.812,1.221,1.169,1.859c0.245,0.437,0.466,0.517,0.905,0.217
			c0.827-0.586,1.701-1.103,2.55-1.646c0.84-0.532,1.672-1.067,2.505-1.6C16.384,47.065,15.025,46.853,14.833,45.435z"/>
		<g>
			<path fill="#FFFFFF" d="M48.157,63.177c-1.068,1.327-2.835,2.3-4.928,2.3c-3.791,0-6.804-2.889-6.804-6.674
				c0-3.714,3.049-6.637,6.691-6.637c3.272,0,6.143,2.224,6.143,5.237c0,3.235-2.651,5.002-4.267,5.002
				c-0.625,0-1.104-0.368-1.141-1.063h-0.036c-0.515,0.551-1.286,1.063-2.172,1.063c-1.431,0-2.461-1.25-2.461-2.684
				c0-2.242,1.471-4.633,3.934-4.633c0.808,0,1.579,0.406,2.059,1.326l0.296-0.961h1.249l-1.213,4.45
				c-0.147,0.59-0.22,1.289,0.219,1.289c1.179,0,2.318-1.729,2.318-3.311c0-2.866-2.242-4.558-4.928-4.558
				c-3.122,0-5.366,2.463-5.366,5.553c0,3.125,2.427,5.443,5.515,5.443c1.617,0,3.16-0.737,4.154-1.878L48.157,63.177z
				 M40.654,59.392c0,0.992,0.588,1.691,1.469,1.691c1.436,0,2.505-1.84,2.505-3.015c0-0.882-0.665-1.691-1.437-1.691
				C41.685,56.377,40.654,58.213,40.654,59.392z"/>
		</g>
	</g>
	<polygon fill-rule="evenodd" clip-rule="evenodd" fill="#FFFFFF" points="38.535,45.537 36.839,44.587 38.638,41.835
		40.438,42.143 	"/>
	<polygon fill-rule="evenodd" clip-rule="evenodd" fill="#FFFFFF" points="34.644,43.591 32.946,42.641 34.746,39.89 36.168,40.873
			"/>
</g>
</svg>