<?xml version="1.0" encoding="utf-8"?>
<!-- Generator: Adobe Illustrator 19.0.0, SVG Export Plug-In . SVG Version: 6.00 Build 0)  -->
<svg version="1.1" id="圖層_1" xmlns="http://www.w3.org/2000/svg" xmlns:xlink="http://www.w3.org/1999/xlink" x="0px" y="0px"
	 viewBox="0 0 70 70" style="enable-background:new 0 0 70 70;" xml:space="preserve">
<style type="text/css">
	.st0{fill:none;}
	.st1{fill:#FFFFFF;}
</style>
<g>
	<path class="st0" d="M25.7,39.1c-0.2,0.9-0.4,1.8-0.4,2.7c0,5.7,4.6,10.3,10.2,10.3c5.7,0,10.3-4.6,10.3-10.3
		c0-0.9-0.1-1.9-0.4-2.7c-3.3,0.3-7.8,0.7-9.8,0.7C33.6,39.8,29,39.4,25.7,39.1z"/>
	<path class="st1" d="M35.6,22.1c6.3,0,10.2,1.2,13.2,4.9c0.1-1.4,0.1-2.5,0.1-2.9c0-6.5-2.7-10.5-13.3-10.5
		c-9.9,0-13.3,4-13.3,10.5c0,0.6,0,1.7,0.1,3C25.1,23.5,29.4,22.1,35.6,22.1z"/>
	<path class="st1" d="M19.1,33.4l-12.4,1c-2.2,0.1-2.5,1.6-2.7,2.3c-0.3,1.3-0.9,3.9-0.9,5.2c0,1,1.3,1.7,2.5,1.4
		c3.4-0.9,11.3-3.3,15.3-4.5C19.9,37.1,19.3,35.6,19.1,33.4z"/>
	<path class="st1" d="M51.9,33.4l12.4,1c2.2,0.1,2.5,1.6,2.7,2.3c0.3,1.3,0.9,3.9,0.9,5.2c0,1-1.3,1.7-2.5,1.4
		c-3.4-0.9-11.3-3.3-15.3-4.5C51,37.1,51.6,35.6,51.9,33.4z"/>
	<path class="st1" d="M35.6,23.6c-7.8,0-14.4,2.9-14.7,9.9c0,0.1,0,0.3,0,0.4c0,1.7,0.6,4.8,0.7,4.8c0,0,1,0.1,2.4,0.3
		c-0.2,0.9-0.4,1.9-0.4,2.9c0,6.6,5.3,11.9,11.9,11.9c6.6,0,11.9-5.3,11.9-11.9c0-1-0.1-2-0.4-2.9c1.5-0.2,2.5-0.3,2.5-0.3
		c0,0,0.7-3.8,0.7-4.9c0-0.2,0-0.3,0-0.4C50,26.3,43.5,23.6,35.6,23.6z M39,28.7c0,0.7-0.6,1.3-1.3,1.3h-2.5c-0.7,0-1.3-0.6-1.3-1.3
		v-0.5c0-0.7,0.6-1.3,1.3-1.3h2.5c0.7,0,1.3,0.6,1.3,1.3V28.7z M45.8,41.8c0,5.7-4.6,10.3-10.3,10.3c-5.7,0-10.2-4.6-10.2-10.3
		c0-1,0.1-1.9,0.4-2.7c3.3,0.3,7.8,0.7,9.9,0.7c2,0,6.5-0.4,9.8-0.7C45.7,40,45.8,40.9,45.8,41.8z"/>
	<path class="st1" d="M17.9,26.7c1,1.7,1.6,4.4,1.6,4.4s-2-1.8-3-3.6c-1-1.7-1-2.4-0.6-2.6C16.3,24.7,16.9,25,17.9,26.7z"/>
	<path class="st1" d="M53.3,26.7c-1,1.7-1.6,4.4-1.6,4.4s2-1.8,3-3.6c1-1.7,1-2.4,0.6-2.6C54.9,24.7,54.3,25,53.3,26.7z"/>
</g>
</svg>
