<?xml version="1.0" encoding="utf-8"?>
<!-- Generator: Adobe Illustrator 19.0.0, SVG Export Plug-In . SVG Version: 6.00 Build 0)  -->
<svg version="1.1" id="圖層_1" xmlns="http://www.w3.org/2000/svg" xmlns:xlink="http://www.w3.org/1999/xlink" x="0px" y="0px"
	 viewBox="0 0 70 70" style="enable-background:new 0 0 70 70;" xml:space="preserve">
<style type="text/css">
	.st0{fill:none;}
	.st1{fill:#FFFFFF;}
</style>
<g>
	<path class="st0" d="M38.2,22.9c-6.8-0.9-13.7,0.9-15.4,4c-1.7,3.2,2.4,6.5,9.2,7.5c6.8,0.9,13.7-0.9,15.4-4
		C49.1,27.2,45,23.8,38.2,22.9z M37.8,28.8c-0.4,0.7-1.8,1-3.2,0.8c-1.4-0.2-2.3-0.9-1.9-1.6c0.4-0.7,1.8-1,3.2-0.8
		C37.3,27.5,38.2,28.2,37.8,28.8z"/>
	<path id="XMLID_21_" class="st0" d="M26.8,16.4l-1.2,2.2l5.1,0.7C31.4,18.2,29.6,16.8,26.8,16.4z"/>
	<path id="XMLID_20_" class="st0" d="M59.9,24.8l-5-0.7l-1.3,2.4C55.5,26.8,59.2,26.1,59.9,24.8z"/>
	<path id="XMLID_19_" class="st0" d="M10.2,32l5.1,0.7l1.1-2.1C14,30.3,10.6,31.2,10.2,32z"/>
	<path id="XMLID_18_" class="st0" d="M39.1,37.6c-0.6,1,1,2.8,4,3.2l1.3-2.5L39.1,37.6z"/>
	<path class="st1" d="M1.3,31.1l14.6,2l3.5-6.4C10.9,25.6,3.1,27.9,1.3,31.1z M15.3,32.7L10.2,32c0.4-0.8,3.8-1.7,6.2-1.4L15.3,32.7
		z"/>
	<path class="st1" d="M28.2,12.2l-3.6,6.7l14.4,2C41.1,16.9,35.1,13.2,28.2,12.2z M30.7,19.3l-5.1-0.7l1.2-2.2
		C29.6,16.8,31.4,18.2,30.7,19.3z"/>
	<path class="st1" d="M68,25.4l-13.6-1.9l-3.7,6.9C58.4,31.4,66.2,28.6,68,25.4z M54.9,24.1l5,0.7c-0.7,1.3-4.3,2-6.3,1.7L54.9,24.1
		z"/>
	<path class="st1" d="M24.4,19.3l-7.6,14L46,37.4l7.6-14L24.4,19.3z M32,34.4c-6.8-0.9-10.9-4.3-9.2-7.5c1.7-3.2,8.6-5,15.4-4
		c6.8,0.9,10.9,4.3,9.2,7.5C45.7,33.5,38.8,35.3,32,34.4z"/>
	<path id="XMLID_9_" class="st1" d="M35.9,27.3c-1.4-0.2-2.9,0.2-3.2,0.8c-0.4,0.7,0.5,1.4,1.9,1.6c1.4,0.2,2.9-0.2,3.2-0.8
		C38.2,28.2,37.3,27.5,35.9,27.3z"/>
	<path class="st1" d="M30.9,36c-1.9,3.6,4.2,7.6,11,8.6l3.5-6.5L30.9,36z M39.1,37.6l5.3,0.7l-1.3,2.5
		C40.1,40.4,38.5,38.6,39.1,37.6z"/>
	<path id="XMLID_6_" class="st1" d="M31,38.9v13.2c1,2.8,5.7,5.4,11,6.2l0,0V45.1l0.1,0.1C36.6,44.4,32,41.7,31,38.9z"/>
	<polygon id="XMLID_5_" class="st1" points="43,57.6 46,51.8 46,38.7 43,44.6 	"/>
	<polygon id="XMLID_4_" class="st1" points="47,51.2 50,44.3 50,31.3 47,38.1 	"/>
	<polygon id="XMLID_3_" class="st1" points="17,50 30,51.9 30,36 17,34.2 	"/>
	<polygon id="XMLID_2_" class="st1" points="2,47.8 16,49.9 16,34 2,31.9 	"/>
	<path id="XMLID_1_" class="st1" d="M51,30.8V44c8,1.1,16-1.8,17-5V25.8C67,29.1,59,31.9,51,30.8z"/>
</g>
</svg>