<?xml version="1.0" encoding="utf-8"?>
<!-- Generator: Adobe Illustrator 16.0.0, SVG Export Plug-In . SVG Version: 6.00 Build 0)  -->
<!DOCTYPE svg PUBLIC "-//W3C//DTD SVG 1.1//EN" "http://www.w3.org/Graphics/SVG/1.1/DTD/svg11.dtd">
<svg version="1.1" id="圖層_1" xmlns="http://www.w3.org/2000/svg" xmlns:xlink="http://www.w3.org/1999/xlink" x="0px" y="0px"
	 width="70px" height="70px" viewBox="0 0 70 70" enable-background="new 0 0 70 70" xml:space="preserve">
<g>
	<path fill="#FFFFFF" d="M20.318,25.461v38.348c0,0.996,0.366,1.864,1.097,2.594c0.716,0.716,1.567,1.077,2.546,1.089
		c0.979-0.012,1.83-0.373,2.546-1.089c0.731-0.73,1.098-1.599,1.098-2.594V25.461c1.094-0.38,5.202-4.042,5.202-5.217V4.823
		c0-0.499-0.184-0.931-0.547-1.296c-0.365-0.367-0.798-0.548-1.296-0.548c-0.503,0-0.936,0.182-1.297,0.548
		c-0.366,0.365-0.551,0.798-0.551,1.296v11.994c0,0.498-0.181,0.931-0.547,1.296c-0.365,0.366-0.798,0.547-1.297,0.547
		c-0.498,0-0.93-0.182-1.297-0.547c-0.364-0.366-0.546-0.798-0.546-1.296V4.823c0-0.499-0.185-0.931-0.547-1.296
		c-0.365-0.367-0.798-0.548-1.296-0.548c-0.502,0-0.934,0.182-1.301,0.548c-0.362,0.365-0.546,0.798-0.546,1.296v11.994
		c0,0.498-0.182,0.931-0.547,1.296c-0.366,0.366-0.798,0.547-1.296,0.547c-0.5,0-0.932-0.182-1.297-0.547
		c-0.365-0.366-0.547-0.798-0.547-1.296V4.823c0-0.499-0.184-0.931-0.55-1.296c-0.361-0.367-0.796-0.548-1.296-0.548
		s-0.932,0.182-1.297,0.548c-0.362,0.365-0.547,0.798-0.547,1.296v15.421C14.358,21.42,19.222,25.077,20.318,25.461L20.318,25.461z"
		/>
	<path fill="#1D1D1B" d="M24.009,67.496c-0.018,0-0.034-0.004-0.048-0.004c-0.015,0-0.03,0.004-0.047,0.004H24.009z"/>
	<path fill="#FFFFFF" d="M43.156,34.672h4.187v29.894c0,0.998,0.365,1.863,1.098,2.594c0.717,0.716,1.566,1.078,2.545,1.09
		c0.979-0.012,1.829-0.374,2.55-1.09c0.728-0.73,1.095-1.597,1.095-2.594V3.308c0-0.498-0.182-0.93-0.547-1.296
		c-0.367-0.362-0.799-0.547-1.298-0.547H51.46c-2.539,0-4.707,0.905-6.516,2.708c-1.806,1.807-2.711,3.979-2.711,6.518v23.06
		c0,0.25,0.094,0.469,0.277,0.649C42.692,34.58,42.906,34.672,43.156,34.672L43.156,34.672z"/>
	<rect x="14.358" y="1.464" fill="none" width="36.774" height="67.155"/>
</g>
</svg>