<?xml version="1.0" encoding="utf-8"?>
<!-- Generator: Adobe Illustrator 16.0.0, SVG Export Plug-In . SVG Version: 6.00 Build 0)  -->
<!DOCTYPE svg PUBLIC "-//W3C//DTD SVG 1.1//EN" "http://www.w3.org/Graphics/SVG/1.1/DTD/svg11.dtd">
<svg version="1.1" id="圖層_1" xmlns="http://www.w3.org/2000/svg" xmlns:xlink="http://www.w3.org/1999/xlink" x="0px" y="0px"
	 width="70px" height="70px" viewBox="0 0 70 70" enable-background="new 0 0 70 70" xml:space="preserve">
<g>
	<g>
		<g>
			<path fill-rule="evenodd" clip-rule="evenodd" fill="#FFFFFF" d="M52.563,27.995c0.134,0.29,0.295,0.5,0.468,0.706
				c0.349,0.42,0.846,0.533,1.25,0.273c0.464-0.296,0.593-0.761,0.354-1.276c-0.096-0.212-0.229-0.399-0.386-0.569
				c-0.136-0.149-0.181-0.225,0.076-0.294c0.333-0.085,0.656-0.213,0.911-0.467c0.301-0.298,0.371-0.582,0.21-0.963
				c-0.147-0.349-0.434-0.491-0.8-0.507c-0.303-0.016-0.593,0.043-0.872,0.151c-0.205,0.079-0.315,0.11-0.248-0.198
				c0.079-0.36,0.037-0.729-0.152-1.063c-0.18-0.316-0.559-0.501-0.932-0.439c-0.387,0.062-0.677,0.25-0.794,0.655
				c-0.085,0.302-0.063,0.609-0.052,0.915c0.006,0.187-0.044,0.212-0.213,0.141c-0.364-0.151-0.74-0.254-1.144-0.156
				c-0.386,0.094-0.574,0.373-0.65,0.73c-0.07,0.325,0.083,0.575,0.335,0.772c0.261,0.205,0.556,0.352,0.874,0.424
				c0.282,0.064,0.194,0.149,0.057,0.275c-0.187,0.17-0.349,0.36-0.463,0.587c-0.229,0.457-0.165,0.763,0.234,1.125
				c0.368,0.336,0.832,0.388,1.214,0.147C52.186,28.747,52.353,28.4,52.563,27.995z M41.431,22.4L36,29.995V42h0.09l0.005-11.325
				l4.434,5.163l4.284-5.749l3.536-0.082l0.667-1.345L50.093,30h5.037l0.69-1.002l0.766,0.886l3.248,0.083l4.297,6.412l4.748-5.717
				L68.825,42H70V29.997l-6.727-7.69L41.431,22.4z"/>
		</g>
		<g>
			<path fill="#FFFFFF" d="M59.337,37.731c0.57,0,1.127-0.067,1.664-0.231c-0.914-3.263-3.943-5.736-7.643-6.054
				C53.956,35.239,56.514,37.731,59.337,37.731z"/>
			<path fill="#FFFFFF" d="M46.209,37.716c2.81,0,5.281-2.413,5.774-6.28c-3.75,0.227-6.86,2.662-7.841,5.926
				C44.8,37.627,45.492,37.716,46.209,37.716z"/>
			<path fill="#FFFFFF" d="M59.337,39.055c-2.856,0-5.453-2.457-6.68-5.479c-1.166,3.003-3.618,5.479-6.448,5.479
				c-0.798,0-1.589-0.135-2.34-0.414c-0.035,0.3-0.058,0.603-0.058,0.91c0,4.49,3.922,8.143,8.74,8.143
				c4.821,0,8.74-3.652,8.74-8.143c0-0.261-0.017-0.518-0.042-0.772C60.63,38.961,59.992,39.055,59.337,39.055z"/>
		</g>
	</g>
	<g>
		<path fill-rule="evenodd" clip-rule="evenodd" fill="#FFFFFF" d="M15.773,33.547c-0.532,0.021-0.972,0.027-1.411,0.059
			c-0.916,0.067-1.824,0.191-2.73,0.336c-1.46,0.231-3.229,0.588-4.681,0.893c-0.196,0.042-0.314,0.116-0.375,0.337
			C6.177,36.627,6.21,38.311,6.47,39.8c0.392,2.244,1.432,4.013,3.105,5.486c2.368,2.088,5.227,2.864,8.239,2.146
			c2.054-0.491,3.891-1.676,5.197-3.386c1.153-1.511,1.8-3.222,1.942-5.148c0.085-1.177,0.006-2.521-0.303-3.659
			c-0.065-0.248-0.187-0.351-0.419-0.399c-1.303-0.261-2.799-0.609-4.11-0.821C18.648,33.78,17.175,33.558,15.773,33.547z"/>
		<path fill-rule="evenodd" clip-rule="evenodd" fill="#FFFFFF" d="M31.378,26.922c-0.972-0.17-2.391-0.454-3.322-0.609
			c-0.773-0.13-1.547-0.252-2.319-0.37c-1.141-0.174-2.282-0.355-3.426-0.516c-1.012-0.142-2.025-0.263-3.04-0.387
			c-0.683-0.084-1.367-0.138-2.053-0.202c-0.991-0.098-1.984-0.105-2.974-0.022c-1.216,0.103-2.433,0.223-3.643,0.399
			c-1.096,0.161-2.196,0.283-3.292,0.446c-1.319,0.202-2.638,0.424-3.956,0.644c-0.895,0.147-2.079,0.399-2.973,0.548
			C0.2,26.882,0.16,26.939,0.24,27.125c0.861,1.966,1.718,4.809,2.562,6.783c0.114,0.265,0.248,0.317,0.512,0.253
			c1.265-0.303,2.822-0.685,4.096-0.954c1.53-0.328,3.073-0.612,4.622-0.838c0.953-0.139,1.91-0.267,2.874-0.306
			c1.39-0.057,2.766,0.085,4.143,0.276c1.39,0.195,2.77,0.446,4.148,0.717c1.557,0.307,3.591,0.779,5.135,1.155
			c0.171,0.043,0.272-0.002,0.352-0.19C29.208,32.785,31,27.792,31.378,26.922z"/>
		<path fill-rule="evenodd" clip-rule="evenodd" fill="#FFFFFF" d="M15.658,22.307c-0.759,0.079-1.513,0.256-2.266,0.426
			c-0.14,0.032-0.106,0.15-0.08,0.242c0.064,0.222,0.156,0.433,0.203,0.656c0.052,0.25,0.142,0.314,0.39,0.225
			c0.972-0.346,1.958-0.485,2.974-0.173c0.274,0.082,0.613,0.334,0.822,0.16c0.195-0.163,0.214-0.556,0.312-0.849
			c0.007-0.02,0.007-0.039,0.017-0.057c0.058-0.127,0.005-0.187-0.114-0.208C17.17,22.566,16.428,22.383,15.658,22.307z"/>
	</g>
</g>
</svg>