<?xml version="1.0" encoding="utf-8"?>
<!-- Generator: Adobe Illustrator 16.0.0, SVG Export Plug-In . SVG Version: 6.00 Build 0)  -->
<!DOCTYPE svg PUBLIC "-//W3C//DTD SVG 1.1//EN" "http://www.w3.org/Graphics/SVG/1.1/DTD/svg11.dtd">
<svg version="1.1" id="圖層_1" xmlns="http://www.w3.org/2000/svg" xmlns:xlink="http://www.w3.org/1999/xlink" x="0px" y="0px"
	 width="70px" height="70px" viewBox="0 0 70 70" enable-background="new 0 0 70 70" xml:space="preserve">
<g>
	<path fill-rule="evenodd" clip-rule="evenodd" fill="#F7F8F8" d="M58.341,59H12.589c0,0,0.633,0.282,1.427-0.069
		C14.813,58.579,15,58.487,15,58.487V14h41v44.228c0,0,0.088,0.208,1.114,0.706C57.771,59.253,58.341,59,58.341,59z"/>
	<g>
		<path fill-rule="evenodd" clip-rule="evenodd" fill="#F7F8F8" d="M11.756,12.728c0,15.328,0,28.7,0,44.027
			c-0.311-0.404-0.673-0.672-1.071-0.844c-0.637-0.273-1.288-0.449-1.947-0.558c-1.882-0.308-3.765-0.315-5.646,0.004
			c-0.807,0.138-1.608,0.327-2.363,0.79C0.43,56.329,0.072,56.528,0,57.067V12.577c0,0,0.871-0.624,1.309-0.769
			c2.968-0.991,5.939-0.972,8.915-0.108C10.786,11.863,11.334,12.099,11.756,12.728z"/>
		<path fill-rule="evenodd" clip-rule="evenodd" fill="#F7F8F8" d="M11.743,58.066c0.028,0.131,0.021,0.272-0.007,0.404
			c-0.037,0.172-0.197,0.327-0.296,0.422c-0.085,0.087-0.177,0.155-0.274,0.214c-1.1,0.665-2.262,0.829-3.43,0.966
			c-0.004-0.099-0.013-0.199-0.013-0.299c-0.007-0.843-0.031-0.902-0.604-1.077c-0.823-0.247-1.65-0.252-2.473-0.004
			c-0.618,0.186-0.637,0.238-0.649,1.179c-0.001,0.066-0.01,0.132-0.013,0.198C3.543,60,3.099,59.962,2.662,59.854
			c-0.706-0.17-1.417-0.334-2.07-0.806c-0.171-0.126-0.441-0.306-0.484-0.619c-0.079-0.63,0.499-0.951,0.811-1.124
			c0.176-0.097,0.352-0.185,0.533-0.254c1.359-0.508,2.75-0.66,4.143-0.668c0.692-0.001,1.382,0.008,2.072,0.067
			c0.69,0.062,1.38,0.175,2.057,0.38c0.331,0.098,0.656,0.218,0.98,0.364c0.161,0.072,0.321,0.151,0.48,0.238
			c0.196,0.106,0.436,0.265,0.538,0.557C11.73,58.014,11.739,58.04,11.743,58.066z"/>
		<path fill-rule="evenodd" clip-rule="evenodd" fill="#F7F8F8" d="M8.043,10.203c-1.443-0.211-2.888-0.179-4.332,0.006
			c0-0.514,0.015-1.031-0.003-1.544C3.694,8.306,3.802,8.126,4.01,7.983c0.211-0.142,0.469-0.215,0.697-0.258
			c0.308-0.06,0.615-0.094,0.924-0.114c0.324-0.021,0.646-0.038,0.972,0.01C6.935,7.673,7.263,7.78,7.585,7.909
			c0.309,0.122,0.486,0.378,0.46,0.897C8.021,9.27,8.042,9.737,8.043,10.203z"/>
		<path fill-rule="evenodd" clip-rule="evenodd" fill="#F7F8F8" d="M4.056,61.669c0.044-0.313,0.223-0.414,0.394-0.49
			c0.946-0.412,1.893-0.401,2.841-0.008c0.209,0.087,0.57,0.512,0.265,0.782c-0.313,0.277-0.658,0.331-1.014,0.392
			c-0.597,0.1-1.206,0.097-1.799-0.1C4.485,62.157,4.205,62.063,4.056,61.669z"/>
	</g>
	<g>
		<path fill-rule="evenodd" clip-rule="evenodd" fill="#F7F8F8" d="M69.995,12.728c0,15.328,0,28.7,0,44.027
			c-0.312-0.404-0.672-0.672-1.07-0.844c-0.639-0.273-1.288-0.449-1.949-0.558c-1.881-0.308-3.765-0.315-5.645,0.004
			c-0.808,0.138-1.608,0.327-2.363,0.79c-0.299,0.182-0.656,0.381-0.729,0.92V12.577c0,0,0.87-0.624,1.309-0.769
			c2.967-0.991,5.939-0.972,8.915-0.108C69.024,11.863,69.573,12.099,69.995,12.728z"/>
		<path fill-rule="evenodd" clip-rule="evenodd" fill="#F7F8F8" d="M69.982,58.066c0.027,0.131,0.021,0.272-0.008,0.404
			c-0.036,0.172-0.197,0.327-0.296,0.422c-0.086,0.087-0.177,0.155-0.273,0.214c-1.101,0.665-2.263,0.829-3.432,0.966
			c-0.003-0.099-0.012-0.199-0.012-0.299c-0.007-0.843-0.03-0.902-0.604-1.077c-0.823-0.247-1.649-0.252-2.473-0.004
			c-0.618,0.186-0.64,0.238-0.651,1.179c0,0.066-0.009,0.132-0.012,0.198c-0.44-0.069-0.885-0.107-1.321-0.216
			c-0.706-0.17-1.416-0.334-2.07-0.806c-0.173-0.126-0.44-0.306-0.483-0.619c-0.079-0.63,0.498-0.951,0.811-1.124
			c0.174-0.097,0.352-0.185,0.533-0.254c1.359-0.508,2.75-0.66,4.144-0.668c0.689-0.001,1.382,0.008,2.071,0.067
			c0.688,0.062,1.379,0.175,2.058,0.38c0.331,0.098,0.656,0.218,0.979,0.364c0.16,0.072,0.321,0.151,0.479,0.238
			c0.196,0.106,0.437,0.265,0.539,0.557C69.969,58.014,69.977,58.04,69.982,58.066z"/>
		<path fill-rule="evenodd" clip-rule="evenodd" fill="#F7F8F8" d="M66.283,10.203c-1.443-0.211-2.888-0.179-4.333,0.006
			c0-0.514,0.015-1.031-0.004-1.544c-0.014-0.359,0.094-0.539,0.303-0.682c0.212-0.142,0.47-0.215,0.698-0.258
			c0.306-0.06,0.615-0.094,0.924-0.114c0.324-0.021,0.646-0.038,0.972,0.01c0.331,0.051,0.659,0.158,0.981,0.287
			c0.308,0.122,0.486,0.378,0.46,0.897C66.261,9.27,66.281,9.737,66.283,10.203z"/>
		<path fill-rule="evenodd" clip-rule="evenodd" fill="#F7F8F8" d="M62.295,61.669c0.044-0.313,0.223-0.414,0.395-0.49
			c0.946-0.412,1.893-0.401,2.841-0.008c0.209,0.087,0.569,0.512,0.265,0.782c-0.313,0.277-0.657,0.331-1.014,0.392
			c-0.597,0.1-1.206,0.097-1.799-0.1C62.725,62.157,62.444,62.063,62.295,61.669z"/>
	</g>
</g>
</svg>
