<?xml version="1.0" encoding="utf-8"?>
<!-- Generator: Adobe Illustrator 16.0.0, SVG Export Plug-In . SVG Version: 6.00 Build 0)  -->
<!DOCTYPE svg PUBLIC "-//W3C//DTD SVG 1.1//EN" "http://www.w3.org/Graphics/SVG/1.1/DTD/svg11.dtd">
<svg version="1.1" id="圖層_1" xmlns="http://www.w3.org/2000/svg" xmlns:xlink="http://www.w3.org/1999/xlink" x="0px" y="0px"
	 width="70px" height="70px" viewBox="0 0 70 70" enable-background="new 0 0 70 70" xml:space="preserve">
<g>
	<g>
		<path fill="#FFFFFF" d="M32.321,41.074c-1.658-1.184-4.837-4.027-4.837-5.715c0-1.971,0.564-2.957,3.517-5.27
			c3.042-2.394,5.21-5.713,5.21-9.603c0-4.643-2.088-9.148-5.945-10.641h5.832l4.14-2.957h-18.42
			c-8.219,0-15.987,6.251-15.987,13.488c0,7.374,5.628,13.348,14.02,13.348l1.686-0.057c-0.531,1.042-0.929,2.224-0.929,3.435
			c0,2.049,1.102,3.746,2.51,5.098l-3.21,0.029c-10.194,0-18.05,6.496-18.05,13.234c0,6.645,8.617,10.813,18.807,10.813
			c11.658,0,18.082-6.617,18.082-13.264C38.745,47.691,37.196,44.502,32.321,41.074z M22.497,31.867
			c-4.73-0.145-9.236-5.326-10.049-11.545c-0.824-6.223,2.362-10.982,7.093-10.845c4.727,0.145,9.232,5.157,10.056,11.348
			C30.41,27.08,27.225,32.004,22.497,31.867z M20.635,63.348c-7.037,0-12.133-4.477-12.133-9.834c0-5.258,6.308-9.65,13.373-9.574
			c1.637,0,3.189,0.281,4.564,0.74c3.827,2.646,6.589,4.166,7.353,7.209c0.166,0.619,0.222,1.266,0.222,1.887
			C34.014,59.154,30.576,63.348,20.635,63.348z"/>
	</g>
	<polygon fill="#FFFFFF" points="56.626,29.554 56.626,41.074 50.853,41.074 50.853,29.554 39.309,29.554 39.309,23.701 
		50.853,23.701 50.853,12.151 56.626,12.151 56.626,23.701 68.143,23.701 68.143,29.554 	"/>
</g>
</svg>
