<?xml version="1.0" encoding="utf-8"?>
<!-- Generator: Adobe Illustrator 16.0.0, SVG Export Plug-In . SVG Version: 6.00 Build 0)  -->
<!DOCTYPE svg PUBLIC "-//W3C//DTD SVG 1.1//EN" "http://www.w3.org/Graphics/SVG/1.1/DTD/svg11.dtd">
<svg version="1.1" id="圖層_1" xmlns="http://www.w3.org/2000/svg" xmlns:xlink="http://www.w3.org/1999/xlink" x="0px" y="0px"
	 width="69.99px" height="70px" viewBox="0 0 69.99 70" enable-background="new 0 0 69.99 70" xml:space="preserve">
<g>
	<g>
		<path fill-rule="evenodd" clip-rule="evenodd" fill="#F7F8F8" d="M10,55.712c-6,0-9.175-4.664-9.175-10.417
			C0.825,39.545,4,34.88,10,34.88V55.712z"/>
		<path fill-rule="evenodd" clip-rule="evenodd" fill="#F7F8F8" d="M11,54.315c0,0.769-0.179,1.396-1,1.396
			c-0.825,0-1-0.628-1-1.396V36.277c0-0.77,0.175-1.397,1-1.397c0.821,0,1,0.627,1,1.397V54.315z"/>
		<path fill-rule="evenodd" clip-rule="evenodd" fill="#F7F8F8" d="M62,54.315c0,0.769-0.178,1.396-1,1.396s-1-0.628-1-1.396V36.277
			c0-0.77,0.178-1.397,1-1.397s1,0.627,1,1.397V54.315z"/>
		<path fill-rule="evenodd" clip-rule="evenodd" fill="#F7F8F8" d="M13,40.454c0-0.657,0.178-1.194,1-1.194s1,0.537,1,1.194v12.124
			c0,0.656-0.178,1.194-1,1.194s-1-0.538-1-1.194V40.454z"/>
		<path fill-rule="evenodd" clip-rule="evenodd" fill="#F7F8F8" d="M61,55.712c6,0,8.259-4.664,8.259-10.417
			C69.259,39.545,67,34.88,61,34.88V55.712z"/>
		<path fill-rule="evenodd" clip-rule="evenodd" fill="#F7F8F8" d="M58,40.454c0-0.657-0.676-1.194-1.5-1.194
			c-0.822,0-1.5,0.537-1.5,1.194v12.124c0,0.656,0.678,1.194,1.5,1.194c0.824,0,1.5-0.538,1.5-1.194V40.454z"/>
		<path fill-rule="evenodd" clip-rule="evenodd" fill="#F7F8F8" d="M61.354,37.339c0-11.585-8.815-23.733-25.316-23.733
			c-16.498,0-25.06,12.19-25.06,23.775l-3.023-0.693c0-14.269,11.1-25.836,28.083-25.836c16.979,0,28.34,11.567,28.34,25.836
			L61.354,37.339z"/>
	</g>
	<g>
		<path fill-rule="evenodd" clip-rule="evenodd" fill="#F7F8F8" d="M36.807,26.878c0.78,0.161,1.563,0.319,2.342,0.488
			c0.388,0.083,0.769,0.191,1.158,0.265c0.198,0.037,0.21,0.111,0.148,0.282c-0.148,0.417-0.269,0.844-0.42,1.259
			c-0.074,0.208-0.063,0.299,0.192,0.325c0.901,0.092,1.803,0.197,2.703,0.315c1.614,0.21,3.229,0.419,4.84,0.658
			c2.034,0.304,4.065,0.629,6.101,0.955c1.237,0.2,2.474,0.426,3.711,0.624c0.308,0.049,0.18,0.194,0.115,0.335
			c-0.777,1.716-1.56,3.433-2.338,5.151c-0.897,1.97-1.795,3.941-2.683,5.915c-0.11,0.243-0.22,0.327-0.499,0.255
			c-0.889-0.229-1.791-0.415-2.68-0.638c-0.294-0.073-0.349,0.001-0.297,0.281c0.874,4.839-0.425,9.014-3.986,12.394
			c-2.688,2.551-5.955,3.698-9.666,3.534c-3.198-0.142-5.975-1.32-8.332-3.473c-2.295-2.095-3.66-4.701-4.166-7.758
			c-0.26-1.575-0.205-3.155,0.127-4.719c0.066-0.31-0.023-0.327-0.282-0.264c-0.881,0.216-1.769,0.404-2.646,0.632
			c-0.291,0.076-0.429,0.025-0.557-0.26c-1.672-3.702-3.358-7.399-5.041-11.096c-0.023-0.052-0.059-0.098-0.088-0.146
			c0-0.046,0-0.093,0-0.139c0.165,0.019,0.323-0.012,0.484-0.04c1.02-0.177,2.037-0.356,3.059-0.52
			c2.158-0.345,4.316-0.695,6.478-1.018c1.61-0.241,3.225-0.45,4.838-0.662c0.911-0.12,1.824-0.226,2.737-0.323
			c0.234-0.025,0.26-0.101,0.184-0.308c-0.149-0.403-0.269-0.818-0.407-1.224c-0.067-0.197-0.033-0.293,0.191-0.338
			c0.58-0.118,1.159-0.252,1.732-0.4c0.513-0.132,1.056-0.126,1.548-0.341C35.874,26.878,36.341,26.878,36.807,26.878z
			 M36.32,40.992c-0.647,0.022-1.182,0.03-1.717,0.066c-1.112,0.079-2.217,0.222-3.318,0.39c-1.777,0.27-3.546,0.6-5.309,0.954
			c-0.239,0.05-0.384,0.135-0.457,0.392c-0.487,1.691-0.619,3.408-0.304,5.139c0.479,2.607,1.705,4.813,3.742,6.524
			c2.881,2.428,6.183,3.209,9.846,2.372c2.498-0.567,4.524-1.926,6.115-3.915c1.404-1.752,2.196-3.771,2.369-6.012
			c0.105-1.364-0.032-2.715-0.408-4.039c-0.079-0.29-0.225-0.408-0.514-0.465c-1.582-0.302-3.164-0.614-4.759-0.859
			C39.816,41.262,38.024,41.002,36.32,40.992z M54.705,33.75c-1.181-0.195-2.312-0.388-3.445-0.569
			c-0.939-0.149-1.88-0.291-2.82-0.429c-1.389-0.205-2.776-0.413-4.168-0.6c-1.229-0.165-2.463-0.307-3.694-0.451
			c-0.831-0.096-1.666-0.159-2.498-0.235c-1.208-0.111-2.415-0.122-3.618-0.024c-1.479,0.12-2.959,0.257-4.431,0.463
			c-1.333,0.186-2.672,0.328-4.003,0.521c-1.607,0.231-3.21,0.491-4.813,0.746c-1.088,0.172-2.174,0.36-3.263,0.533
			c-0.219,0.034-0.269,0.1-0.171,0.314c1.046,2.285,2.089,4.574,3.118,6.867c0.139,0.307,0.299,0.366,0.62,0.292
			c1.539-0.353,3.08-0.692,4.627-1.005c1.863-0.379,3.737-0.708,5.622-0.971c1.161-0.163,2.325-0.312,3.496-0.356
			c1.689-0.064,3.365,0.098,5.039,0.321c1.691,0.229,3.369,0.518,5.046,0.835c1.895,0.354,3.777,0.767,5.65,1.203
			c0.212,0.05,0.333-0.002,0.431-0.224c0.639-1.435,1.297-2.861,1.946-4.292C53.812,35.726,54.248,34.762,54.705,33.75z
			 M36.18,27.931c-0.924,0.093-1.839,0.297-2.756,0.495c-0.171,0.037-0.129,0.175-0.097,0.283c0.077,0.256,0.189,0.502,0.247,0.762
			c0.065,0.288,0.172,0.362,0.473,0.261c1.184-0.401,2.384-0.563,3.619-0.202c0.332,0.097,0.743,0.39,0.999,0.188
			c0.237-0.19,0.261-0.648,0.379-0.988c0.009-0.021,0.011-0.046,0.021-0.066c0.067-0.146,0.008-0.213-0.141-0.243
			C38.021,28.233,37.117,28.02,36.18,27.931z"/>
	</g>
</g>
</svg>
