<?xml version="1.0" encoding="utf-8"?>
<!-- Generator: Adobe Illustrator 19.0.0, SVG Export Plug-In . SVG Version: 6.00 Build 0)  -->
<svg version="1.1" id="圖層_1" xmlns="http://www.w3.org/2000/svg" xmlns:xlink="http://www.w3.org/1999/xlink" x="0px" y="0px"
	 viewBox="0 0 70 70" style="enable-background:new 0 0 70 70;" xml:space="preserve">
<style type="text/css">
	.st0{fill:#FFFFFF;}
</style>
<g>
	<path class="st0" d="M24.3,18.2c0.6,2.3,2.2,2.9,3.9,2.8c1.5-0.1,2.6-1.1,2.9-2.9c4.1,0.5,7.8,1.8,11.2,4.2
		c5.8,4,9.5,9.5,10.8,16.4c2.7,14.7-7.6,28-21.6,29.8C16.8,70.4,4.2,59.8,2.9,45.8C1.5,30.9,12.5,19.7,24.3,18.2z M47.7,43.3
		c0-10.7-8.7-19.5-19.5-19.5c-10.7,0-19.5,8.7-19.5,19.4c0,10.8,8.7,19.5,19.4,19.5C38.9,62.8,47.7,54,47.7,43.3z"/>
	<path id="XMLID_9_" class="st0" d="M67.5,36.3c0,1.1,0,2.4,0,3.5c0,1.5-0.9,2.4-2.4,2.4c-1.6,0-3.3,0-4.9,0c-1.4,0-2.4-0.9-2.4-2.3
		c0-2.5,0-5,0-7.4c0-1.2,0.9-2.3,2.3-2.3c1.7,0,3.5,0,5.2,0c1.4,0,2.3,1,2.3,2.4C67.5,33.9,67.5,35.1,67.5,36.3z"/>
	<path id="XMLID_8_" class="st0" d="M64.2,62.9c-1,0-2,0-3.2,0c0-6.6,0-13.1,0-19.7c1,0,2,0,3.2,0C64.2,49.7,64.2,56.3,64.2,62.9z"
		/>
	<path id="XMLID_7_" class="st0" d="M29.9,17.7c0,1.1-0.8,1.9-1.8,2c-1.2,0.1-2.2-0.6-2.4-1.7c0-0.1,0-0.3,0-0.5c0-2.2,0-2.9,0-5.1
		c0-1,0.5-1.7,1.2-2s1.8-0.1,2.4,0.6c0.2,0.3,0.6,0.9,0.6,1.7C29.9,13.8,29.9,16.7,29.9,17.7z"/>
	<path id="XMLID_6_" class="st0" d="M64.2,63.9c0,0.5,0,0.8,0,1.2c-1,0-2,0-3.2,0c0-0.5,0-0.8,0-1.2C62.1,63.9,63.1,63.9,64.2,63.9z
		"/>
	<path id="XMLID_5_" class="st0" d="M64.2,66.2c0,0.3,0,0.6,0,0.8c-1,0-2,0-3.2,0c0-0.2,0-0.6,0-0.8C62.2,66.2,63.2,66.2,64.2,66.2z
		"/>
	<path class="st0" d="M12,43.3c0-9,7.3-16.2,16.2-16.2c9.2,0,16.3,7.6,16.2,16.4c-0.1,8.7-7.4,16-16.2,16C19.2,59.5,12,52.2,12,43.3
		z M28.2,50.3c3.9,0,7-3.2,7-6.9c0-3.9-3.2-7-7-7s-6.9,3.2-7,6.9C21.1,47.1,24.3,50.3,28.2,50.3z"/>
	<path id="XMLID_2_" class="st0" d="M28.2,38.4c2.7,0,4.9,2.2,4.9,4.9c0,2.7-2.2,5-5,5c-2.7,0-5-2.2-5-5
		C23.3,40.6,25.5,38.4,28.2,38.4z"/>
	<path id="XMLID_1_" class="st0" d="M34.9,8.3c0-4-3.2-7.1-7.1-7.1s-7.1,3.2-7.1,7.1c0,2.6,1.5,5,3.6,6.1c0-0.9,0-1.6,0-2.3
		c-1.1-0.9-1.8-2.4-1.8-4c0-2.9,2.4-5.2,5.2-5.2c2.9,0,5.2,2.4,5.2,5.2c0,1.6-0.7,2.9-1.8,4c0,0.9,0,1.7,0,2.3
		C33.4,13.3,34.9,11,34.9,8.3z"/>
</g>
</svg>