<?xml version="1.0" encoding="utf-8"?>
<!-- Generator: Adobe Illustrator 16.0.0, SVG Export Plug-In . SVG Version: 6.00 Build 0)  -->
<!DOCTYPE svg PUBLIC "-//W3C//DTD SVG 1.1//EN" "http://www.w3.org/Graphics/SVG/1.1/DTD/svg11.dtd">
<svg version="1.1" id="圖層_1" xmlns="http://www.w3.org/2000/svg" xmlns:xlink="http://www.w3.org/1999/xlink" x="0px" y="0px"
	 width="63.803px" height="12.766px" viewBox="2.706 30.015 63.803 12.766" enable-background="new 2.706 30.015 63.803 12.766"
	 xml:space="preserve">
<g>
	<path fill="#FFFFFF" d="M4.679,31.211v7.091H8.68c0.319,0,0.563,0.077,0.734,0.232c0.17,0.155,0.256,0.35,0.256,0.585
		c0,0.238-0.084,0.433-0.253,0.581c-0.169,0.147-0.414,0.223-0.737,0.223H3.915c-0.43,0-0.739-0.096-0.927-0.286
		c-0.188-0.189-0.282-0.498-0.282-0.924v-7.502c0-0.399,0.09-0.698,0.269-0.897c0.18-0.199,0.416-0.299,0.708-0.299
		c0.296,0,0.537,0.099,0.721,0.296C4.587,30.508,4.679,30.808,4.679,31.211z"/>
	<path fill="#FFFFFF" d="M15.425,39.066c-0.438,0.342-0.863,0.598-1.272,0.768c-0.41,0.171-0.87,0.256-1.379,0.256
		c-0.465,0-0.874-0.092-1.226-0.275c-0.353-0.184-0.624-0.434-0.814-0.748c-0.19-0.313-0.286-0.654-0.286-1.022
		c0-0.496,0.157-0.919,0.472-1.271c0.315-0.35,0.747-0.584,1.296-0.703c0.115-0.026,0.401-0.086,0.857-0.18
		c0.457-0.093,0.847-0.179,1.173-0.256c0.326-0.078,0.679-0.172,1.06-0.283c-0.022-0.479-0.119-0.83-0.289-1.053
		c-0.17-0.223-0.524-0.335-1.06-0.335c-0.46,0-0.807,0.064-1.04,0.192c-0.232,0.129-0.432,0.321-0.598,0.578
		c-0.166,0.257-0.283,0.427-0.352,0.509c-0.069,0.082-0.216,0.123-0.442,0.123c-0.204,0-0.38-0.065-0.528-0.196
		s-0.223-0.298-0.223-0.502c0-0.319,0.113-0.629,0.339-0.93c0.226-0.301,0.578-0.549,1.057-0.745
		c0.479-0.195,1.074-0.292,1.788-0.292c0.798,0,1.424,0.094,1.881,0.282c0.456,0.188,0.779,0.486,0.967,0.894
		s0.283,0.948,0.283,1.622c0,0.425-0.001,0.786-0.003,1.083s-0.006,0.627-0.01,0.99c0,0.341,0.056,0.695,0.169,1.066
		c0.113,0.369,0.169,0.607,0.169,0.715c0,0.186-0.088,0.354-0.263,0.508c-0.175,0.152-0.373,0.229-0.595,0.229
		c-0.186,0-0.37-0.088-0.552-0.263S15.629,39.398,15.425,39.066z M15.306,36.441c-0.266,0.098-0.652,0.199-1.16,0.31
		c-0.507,0.108-0.858,0.188-1.053,0.239c-0.195,0.051-0.381,0.15-0.558,0.299c-0.177,0.148-0.266,0.355-0.266,0.621
		c0,0.273,0.104,0.509,0.313,0.701c0.208,0.191,0.48,0.289,0.817,0.289c0.359,0,0.69-0.078,0.994-0.236
		c0.303-0.157,0.526-0.359,0.668-0.607c0.164-0.273,0.246-0.727,0.246-1.355L15.306,36.441L15.306,36.441z"/>
	<path fill="#FFFFFF" d="M20.576,33.717v0.219c0.319-0.421,0.668-0.73,1.047-0.927c0.379-0.197,0.814-0.295,1.306-0.295
		c0.479,0,0.906,0.104,1.283,0.312c0.376,0.208,0.658,0.503,0.844,0.884c0.12,0.221,0.197,0.46,0.232,0.718
		c0.036,0.257,0.053,0.584,0.053,0.983v3.375c0,0.363-0.083,0.639-0.249,0.824c-0.167,0.187-0.382,0.278-0.648,0.278
		c-0.271,0-0.49-0.095-0.658-0.284c-0.168-0.191-0.252-0.465-0.252-0.818v-3.023c0-0.598-0.083-1.055-0.249-1.372
		c-0.167-0.317-0.498-0.475-0.994-0.475c-0.324,0-0.618,0.096-0.884,0.289c-0.266,0.192-0.461,0.458-0.585,0.794
		c-0.089,0.271-0.133,0.775-0.133,1.515v2.272c0,0.367-0.085,0.645-0.256,0.828s-0.391,0.274-0.661,0.274
		c-0.262,0-0.477-0.095-0.645-0.284c-0.168-0.191-0.252-0.465-0.252-0.818v-5.243c0-0.345,0.075-0.604,0.226-0.774
		c0.15-0.17,0.356-0.256,0.618-0.256c0.159,0,0.303,0.038,0.432,0.113c0.128,0.076,0.231,0.188,0.309,0.339
		C20.537,33.316,20.576,33.5,20.576,33.717z"/>
	<path fill="#FFFFFF" d="M33.821,34.042v5.271c0,0.603-0.064,1.121-0.193,1.555c-0.128,0.435-0.334,0.793-0.618,1.076
		c-0.283,0.283-0.654,0.494-1.113,0.632c-0.458,0.138-1.029,0.206-1.711,0.206c-0.625,0-1.183-0.088-1.675-0.264
		c-0.492-0.175-0.871-0.399-1.136-0.678c-0.266-0.275-0.399-0.563-0.399-0.854c0-0.223,0.075-0.402,0.226-0.543
		c0.15-0.139,0.332-0.209,0.545-0.209c0.266,0,0.499,0.117,0.698,0.354c0.098,0.119,0.198,0.24,0.302,0.361s0.219,0.227,0.346,0.313
		c0.126,0.088,0.278,0.15,0.455,0.193c0.177,0.042,0.381,0.063,0.612,0.063c0.469,0,0.834-0.064,1.093-0.195
		c0.259-0.131,0.441-0.313,0.545-0.549c0.104-0.233,0.165-0.485,0.183-0.754s0.031-0.699,0.04-1.293
		c-0.279,0.391-0.601,0.688-0.967,0.892c-0.365,0.204-0.801,0.306-1.306,0.306c-0.607,0-1.138-0.154-1.592-0.465
		c-0.454-0.311-0.803-0.745-1.047-1.303c-0.244-0.559-0.365-1.203-0.365-1.934c0-0.546,0.074-1.038,0.223-1.477
		c0.148-0.439,0.36-0.809,0.635-1.11c0.274-0.301,0.591-0.528,0.95-0.681c0.359-0.153,0.753-0.229,1.183-0.229
		c0.514,0,0.959,0.099,1.336,0.296s0.727,0.506,1.05,0.927v-0.246c0-0.314,0.077-0.559,0.232-0.731
		c0.155-0.173,0.354-0.259,0.598-0.259c0.35,0,0.583,0.114,0.698,0.342C33.764,33.283,33.821,33.613,33.821,34.042z M28.564,36.342
		c0,0.735,0.161,1.292,0.482,1.668c0.321,0.377,0.736,0.565,1.246,0.565c0.301,0,0.586-0.081,0.854-0.243
		c0.268-0.161,0.486-0.405,0.654-0.73c0.168-0.326,0.252-0.722,0.252-1.187c0-0.74-0.163-1.316-0.488-1.728
		s-0.754-0.618-1.286-0.618c-0.519,0-0.934,0.197-1.246,0.592C28.72,35.055,28.564,35.615,28.564,36.342z"/>
	<path fill="#FFFFFF" d="M40.366,39.066v-0.232c-0.218,0.273-0.445,0.505-0.685,0.691c-0.24,0.186-0.5,0.324-0.785,0.414
		c-0.283,0.092-0.605,0.138-0.969,0.138c-0.439,0-0.832-0.093-1.181-0.272c-0.349-0.182-0.617-0.433-0.808-0.75
		c-0.227-0.387-0.34-0.939-0.34-1.662v-3.596c0-0.363,0.082-0.634,0.246-0.814c0.164-0.179,0.381-0.269,0.651-0.269
		c0.274,0,0.496,0.091,0.665,0.272c0.168,0.182,0.252,0.452,0.252,0.811V36.7c0,0.422,0.035,0.774,0.105,1.061
		c0.071,0.287,0.198,0.511,0.383,0.671c0.184,0.162,0.433,0.243,0.748,0.243c0.306,0,0.594-0.091,0.863-0.272
		c0.271-0.182,0.467-0.418,0.592-0.711c0.102-0.258,0.152-0.819,0.152-1.688v-2.207c0-0.359,0.084-0.629,0.252-0.811
		c0.168-0.182,0.389-0.272,0.658-0.272s0.486,0.09,0.65,0.269c0.164,0.18,0.246,0.451,0.246,0.814v5.257
		c0,0.346-0.078,0.604-0.235,0.777s-0.36,0.259-0.608,0.259s-0.453-0.09-0.613-0.269C40.447,39.643,40.366,39.391,40.366,39.066z"/>
	<path fill="#FFFFFF" d="M48.461,39.066c-0.438,0.342-0.863,0.598-1.271,0.768c-0.41,0.171-0.871,0.256-1.379,0.256
		c-0.467,0-0.875-0.092-1.228-0.275s-0.623-0.434-0.813-0.748c-0.189-0.313-0.285-0.654-0.285-1.022
		c0-0.496,0.156-0.919,0.472-1.271c0.313-0.35,0.747-0.584,1.296-0.703c0.115-0.026,0.4-0.086,0.857-0.18
		c0.455-0.093,0.848-0.179,1.173-0.256c0.325-0.078,0.679-0.172,1.061-0.283c-0.022-0.479-0.118-0.83-0.288-1.053
		c-0.172-0.224-0.525-0.335-1.062-0.335c-0.461,0-0.808,0.064-1.04,0.192c-0.232,0.129-0.432,0.321-0.598,0.578
		c-0.166,0.257-0.285,0.427-0.354,0.509s-0.216,0.123-0.441,0.123c-0.203,0-0.381-0.065-0.528-0.196
		c-0.148-0.131-0.224-0.298-0.224-0.502c0-0.319,0.113-0.629,0.34-0.93c0.227-0.301,0.578-0.549,1.058-0.745
		c0.479-0.195,1.073-0.292,1.787-0.292c0.798,0,1.425,0.094,1.881,0.282s0.778,0.486,0.967,0.894s0.282,0.948,0.282,1.622
		c0,0.425-0.001,0.786-0.003,1.083s-0.007,0.627-0.011,0.99c0,0.341,0.058,0.695,0.17,1.066c0.113,0.369,0.17,0.607,0.17,0.715
		c0,0.186-0.088,0.354-0.264,0.508c-0.174,0.152-0.373,0.229-0.595,0.229c-0.187,0-0.37-0.088-0.552-0.263
		S48.665,39.398,48.461,39.066z M48.342,36.441c-0.267,0.098-0.652,0.199-1.16,0.31c-0.507,0.108-0.857,0.188-1.054,0.239
		c-0.194,0.051-0.381,0.15-0.558,0.299c-0.178,0.148-0.266,0.355-0.266,0.621c0,0.273,0.104,0.509,0.312,0.701
		c0.209,0.191,0.481,0.289,0.817,0.289c0.358,0,0.689-0.078,0.994-0.236c0.303-0.157,0.525-0.359,0.668-0.607
		c0.163-0.273,0.245-0.727,0.245-1.355L48.342,36.441L48.342,36.441z"/>
	<path fill="#FFFFFF" d="M58.456,34.042v5.271c0,0.603-0.063,1.121-0.192,1.555c-0.129,0.435-0.334,0.793-0.617,1.076
		c-0.285,0.283-0.655,0.494-1.113,0.632c-0.459,0.138-1.029,0.206-1.713,0.206c-0.623,0-1.182-0.088-1.674-0.264
		c-0.492-0.175-0.871-0.399-1.137-0.678c-0.266-0.275-0.398-0.563-0.398-0.854c0-0.223,0.076-0.402,0.227-0.543
		c0.15-0.139,0.332-0.209,0.545-0.209c0.266,0,0.498,0.117,0.698,0.354c0.097,0.119,0.198,0.24,0.302,0.361s0.221,0.227,0.346,0.313
		c0.127,0.088,0.278,0.15,0.455,0.193c0.178,0.042,0.381,0.063,0.611,0.063c0.471,0,0.834-0.064,1.094-0.195s0.44-0.313,0.545-0.549
		c0.104-0.233,0.166-0.485,0.184-0.754s0.031-0.699,0.04-1.293c-0.279,0.391-0.603,0.688-0.968,0.892s-0.801,0.306-1.307,0.306
		c-0.605,0-1.138-0.154-1.591-0.465c-0.455-0.311-0.804-0.745-1.047-1.303c-0.244-0.559-0.366-1.203-0.366-1.934
		c0-0.546,0.074-1.038,0.223-1.477s0.36-0.809,0.635-1.11c0.275-0.301,0.593-0.528,0.951-0.681c0.358-0.153,0.754-0.229,1.184-0.229
		c0.514,0,0.959,0.099,1.336,0.296c0.376,0.197,0.727,0.506,1.05,0.927v-0.246c0-0.314,0.077-0.559,0.231-0.731
		c0.156-0.173,0.354-0.259,0.599-0.259c0.351,0,0.583,0.114,0.698,0.342S58.456,33.613,58.456,34.042z M53.199,36.342
		c0,0.735,0.16,1.292,0.48,1.668c0.321,0.377,0.737,0.565,1.246,0.565c0.303,0,0.586-0.081,0.854-0.243
		c0.269-0.161,0.486-0.405,0.654-0.73c0.168-0.326,0.254-0.722,0.254-1.187c0-0.74-0.164-1.316-0.488-1.728
		c-0.326-0.412-0.756-0.618-1.286-0.618c-0.519,0-0.935,0.197-1.246,0.592C53.355,35.055,53.199,35.615,53.199,36.342z"/>
	<path fill="#FFFFFF" d="M65.016,36.848h-3.55c0.005,0.411,0.089,0.774,0.249,1.09c0.162,0.313,0.377,0.552,0.645,0.711
		c0.27,0.16,0.564,0.238,0.889,0.238c0.217,0,0.415-0.025,0.595-0.076c0.181-0.051,0.354-0.131,0.521-0.238
		c0.17-0.108,0.324-0.225,0.467-0.35c0.143-0.123,0.324-0.293,0.551-0.505c0.094-0.079,0.227-0.12,0.398-0.12
		c0.187,0,0.337,0.051,0.451,0.153c0.115,0.103,0.174,0.246,0.174,0.433c0,0.164-0.063,0.354-0.192,0.574
		c-0.129,0.219-0.321,0.43-0.581,0.631c-0.26,0.202-0.585,0.369-0.979,0.502c-0.391,0.133-0.842,0.199-1.353,0.199
		c-1.165,0-2.071-0.332-2.718-0.997c-0.646-0.663-0.971-1.565-0.971-2.704c0-0.535,0.08-1.034,0.238-1.492
		c0.16-0.458,0.394-0.852,0.698-1.18c0.306-0.328,0.683-0.579,1.13-0.754c0.447-0.175,0.943-0.262,1.488-0.262
		c0.709,0,1.316,0.149,1.824,0.448c0.508,0.299,0.888,0.686,1.14,1.16c0.253,0.474,0.379,0.957,0.379,1.449
		c0,0.456-0.131,0.752-0.392,0.889C65.855,36.779,65.488,36.848,65.016,36.848z M61.466,35.816h3.29
		c-0.045-0.62-0.212-1.083-0.502-1.393c-0.29-0.308-0.673-0.461-1.146-0.461c-0.451,0-0.822,0.156-1.112,0.468
		S61.527,35.206,61.466,35.816z"/>
</g>
</svg>