<?xml version="1.0" encoding="utf-8"?>
<!-- Generator: Adobe Illustrator 19.0.0, SVG Export Plug-In . SVG Version: 6.00 Build 0)  -->
<svg version="1.1" id="圖層_1" xmlns="http://www.w3.org/2000/svg" xmlns:xlink="http://www.w3.org/1999/xlink" x="0px" y="0px"
	 viewBox="0 0 70 70" style="enable-background:new 0 0 70 70;" xml:space="preserve">
<style type="text/css">
	.st0{fill:#00C300;}
	.st1{fill:#FFFFFF;}
</style>
<g id="XMLID_9_">
	<path id="XMLID_6_" class="st0" d="M57.9-1.3L12.2-1.4c-7.2,0-13,5.8-13,13l-0.1,45.7c0,7.2,5.8,13,13,13l45.7,0.1
		c7.2,0,13-5.8,13-13l0.1-45.7C70.9,4.5,65.1-1.3,57.9-1.3z"/>
	<g id="XMLID_10_">
		<g id="XMLID_63_">
			<path id="XMLID_64_" class="st1" d="M61.1,31.4c0-11.7-11.7-21.2-26.1-21.2c-14.4,0-26.1,9.5-26.1,21.2
				c0,10.5,9.3,19.3,21.8,20.9c0.8,0.2,2,0.6,2.3,1.3c0.3,0.7,0.2,1.7,0.1,2.4c0,0-0.3,1.8-0.4,2.2c-0.1,0.7-0.5,2.6,2.3,1.4
				c2.8-1.2,15-8.9,20.5-15.2h0C59.3,40.2,61.1,36,61.1,31.4z M24.8,38.3h-5.2c-0.8,0-1.4-0.6-1.4-1.4V26.6c0-0.8,0.6-1.4,1.4-1.4
				c0.8,0,1.4,0.6,1.4,1.4v9h3.8c0.8,0,1.4,0.6,1.4,1.4C26.2,37.7,25.6,38.3,24.8,38.3z M30.2,36.9c0,0.8-0.6,1.4-1.4,1.4
				c-0.8,0-1.4-0.6-1.4-1.4V26.6c0-0.8,0.6-1.4,1.4-1.4c0.8,0,1.4,0.6,1.4,1.4V36.9z M42.7,36.9c0,0.6-0.4,1.1-0.9,1.3
				c-0.1,0-0.3,0.1-0.4,0.1c-0.4,0-0.8-0.2-1.1-0.5l-5.3-7.2v6.4c0,0.8-0.6,1.4-1.4,1.4c-0.8,0-1.4-0.6-1.4-1.4V26.6
				c0-0.6,0.4-1.1,0.9-1.3c0.1,0,0.3-0.1,0.4-0.1c0.4,0,0.8,0.2,1.1,0.5l5.3,7.2v-6.4c0-0.8,0.6-1.4,1.4-1.4c0.8,0,1.4,0.6,1.4,1.4
				V36.9z M51.1,30.4c0.8,0,1.4,0.6,1.4,1.4c0,0.8-0.6,1.4-1.4,1.4h-3.8v2.4h3.8c0.8,0,1.4,0.6,1.4,1.4c0,0.8-0.6,1.4-1.4,1.4h-5.2
				c-0.8,0-1.4-0.6-1.4-1.4v-5.2c0,0,0,0,0,0c0,0,0,0,0,0v-5.2c0,0,0,0,0,0c0-0.8,0.6-1.4,1.4-1.4h5.2c0.8,0,1.4,0.6,1.4,1.4
				c0,0.8-0.6,1.4-1.4,1.4h-3.8v2.5H51.1z"/>
		</g>
	</g>
</g>
</svg>