<?xml version="1.0" encoding="utf-8"?>
<!-- Generator: Adobe Illustrator 20.0.0, SVG Export Plug-In . SVG Version: 6.00 Build 0)  -->
<svg version="1.1" id="圖層_1" xmlns="http://www.w3.org/2000/svg" xmlns:xlink="http://www.w3.org/1999/xlink" x="0px" y="0px"
	 viewBox="0 0 70 70" style="enable-background:new 0 0 70 70;" xml:space="preserve">
<style type="text/css">
	.st0{fill:#FFFFFF;}
</style>
<g id="XMLID_10_">
	<g id="XMLID_63_">
		<path id="XMLID_64_" class="st0" d="M67.7,30.5C67.7,15.8,53,3.9,35,3.9S2.3,15.8,2.3,30.5c0,13.1,11.6,24.2,27.3,26.2
			c1,0.3,2.5,0.8,2.9,1.6c0.4,0.9,0.3,2.1,0.1,3c0,0-0.4,2.3-0.5,2.8c-0.1,0.9-0.6,3.3,2.9,1.8c3.5-1.5,18.8-11.1,25.7-19l0,0
			C65.4,41.5,67.7,36.2,67.7,30.5z M22.2,39.1h-6.5c-1,0-1.8-0.8-1.8-1.8V24.5c0-1,0.8-1.8,1.8-1.8s1.8,0.8,1.8,1.8v11.3h4.8
			c1,0,1.8,0.8,1.8,1.8C24,38.4,23.2,39.1,22.2,39.1z M29,37.4c0,1-0.8,1.8-1.8,1.8s-1.8-0.8-1.8-1.8V24.5c0-1,0.8-1.8,1.8-1.8
			s1.8,0.8,1.8,1.8V37.4z M44.6,37.4c0,0.8-0.5,1.4-1.1,1.6c-0.1,0-0.4,0.1-0.5,0.1c-0.5,0-1-0.3-1.4-0.6l-6.6-9v8
			c0,1-0.8,1.8-1.8,1.8s-1.8-0.8-1.8-1.8v-13c0-0.8,0.5-1.4,1.1-1.6c0.1,0,0.4-0.1,0.5-0.1c0.5,0,1,0.3,1.4,0.6l6.6,9v-8
			c0-1,0.8-1.8,1.8-1.8s1.8,0.8,1.8,1.8V37.4z M55.2,29.2c1,0,1.8,0.8,1.8,1.8c0,1-0.8,1.8-1.8,1.8h-4.8v3h4.8c1,0,1.8,0.8,1.8,1.8
			c0,1-0.8,1.8-1.8,1.8h-6.5c-1,0-1.8-0.8-1.8-1.8V31l0,0l0,0v-6.5l0,0c0-1,0.8-1.8,1.8-1.8h6.5c1,0,1.8,0.8,1.8,1.8
			s-0.8,1.8-1.8,1.8h-4.8v3.1h4.8V29.2z"/>
	</g>
</g>
</svg>
