<?xml version="1.0" encoding="iso-8859-1"?>
<!-- Generator: Adobe Illustrator 16.0.0, SVG Export Plug-In . SVG Version: 6.00 Build 0)  -->
<!DOCTYPE svg PUBLIC "-//W3C//DTD SVG 1.1//EN" "http://www.w3.org/Graphics/SVG/1.1/DTD/svg11.dtd">
<svg version="1.1" id="&#x5716;&#x5C64;_1" xmlns="http://www.w3.org/2000/svg" xmlns:xlink="http://www.w3.org/1999/xlink" x="0px"
	 y="0px" width="70px" height="70px" viewBox="0 0 70 70" style="enable-background:new 0 0 70 70;" xml:space="preserve">
<g>
	<path style="fill:#FFFFFF;" d="M56.221,6.229c-5.86,0-10.61,4.75-10.61,10.61c0,1.583,0.349,3.088,0.971,4.436l9.64,18.909
		l9.642-18.909c0.622-1.347,0.971-2.852,0.971-4.436C66.833,10.979,62.082,6.229,56.221,6.229L56.221,6.229z M56.221,23.206
		c-3.514,0-6.366-2.852-6.366-6.366s2.853-6.366,6.366-6.366c3.516,0,6.367,2.852,6.367,6.366S59.736,23.206,56.221,23.206
		L56.221,23.206z M59.396,43.296l3.863,7.723l-9.794,4.896l-3.283-16.423l0.609-0.609l-2.023-3.979l-1.035,1.037L35,27.451
		l-12.733,8.489l-8.489-8.489L1.045,52.917l16.977,8.488L35,52.917l16.978,8.488l16.978-8.488l-7.163-14.32L59.396,43.296z
		 M16.53,55.914l-9.79-4.896l8.199-16.405l4.327,4.327l0.552,0.551L16.53,55.914z M32.877,49.232l-11.871,5.935l3.068-15.331
		l0.546-0.365l8.257-5.504V49.232z M37.122,49.232V33.967l8.256,5.504l0.544,0.365l3.066,15.331L37.122,49.232z M37.122,49.232"/>
</g>
</svg>
