<?xml version="1.0" encoding="iso-8859-1"?>
<!-- Generator: Adobe Illustrator 16.0.0, SVG Export Plug-In . SVG Version: 6.00 Build 0)  -->
<!DOCTYPE svg PUBLIC "-//W3C//DTD SVG 1.1//EN" "http://www.w3.org/Graphics/SVG/1.1/DTD/svg11.dtd">
<svg version="1.1" xmlns="http://www.w3.org/2000/svg" xmlns:xlink="http://www.w3.org/1999/xlink" x="0px" y="0px" width="70px"
	 height="70px" viewBox="0 0 70 70" style="enable-background:new 0 0 70 70;" xml:space="preserve">
<g id="&#x5716;&#x5C64;_2" style="display:none;">
	<rect x="-5.833" y="-4.167" style="display:inline;fill:#020202;" width="91" height="84.5"/>
</g>
<g id="&#x5716;&#x5C64;_1">
	<g>
		<g>
			<g>
				<polygon style="fill:#F7F8F8;" points="41.286,54.163 41.211,53.87 41.134,54.163 				"/>
				<path style="fill:#F7F8F8;" d="M69.93,9.19c-0.609,1.36-1.229,2.72-1.85,4.07c-0.7,1.56-1.42,3.12-2.12,4.68
					c-0.08,0.19-0.17,0.26-0.39,0.2c-0.71-0.18-1.42-0.33-2.12-0.5c-0.23-0.06-0.28,0-0.24,0.22c0.7,3.83-0.33,7.12-3.15,9.8
					c-0.79,0.76-1.659,1.36-2.579,1.8l6.55,24.7H42.82l-0.84-3.18l5.569-20.92c0.03,0.01,0.07,0.02,0.101,0.03
					c0.22,0.06,0.31-0.01,0.399-0.2c0.3-0.69,0.62-1.37,0.931-2.06c1.77,0.92,3.72,1.16,5.819,0.72l0.37-0.09
					c1.89-0.47,3.44-1.51,4.66-3.04c1.11-1.38,1.74-2.98,1.87-4.75c0.09-1.08-0.021-2.15-0.32-3.19c-0.06-0.23-0.18-0.33-0.399-0.37
					c-1.261-0.24-2.511-0.49-3.771-0.68C55.8,16.21,54.38,16,53.03,16c-0.511,0.02-0.931,0.02-1.351,0.05
					c-0.89,0.06-1.76,0.18-2.63,0.31c-1.399,0.21-2.8,0.47-4.189,0.75c-0.19,0.04-0.311,0.11-0.36,0.31
					c-0.21,0.73-0.33,1.46-0.36,2.2c-0.569-0.08-1.13-0.15-1.699-0.23c0.029-0.52,0.1-1.03,0.199-1.55
					c0.061-0.24-0.01-0.25-0.22-0.2c-0.7,0.17-1.4,0.32-2.09,0.5c-0.23,0.06-0.34,0.02-0.44-0.21C38.57,15,37.24,12.08,35.9,9.16
					c-0.011-0.04-0.04-0.08-0.061-0.12V8.93c0.13,0.02,0.25-0.01,0.38-0.03c0.8-0.14,1.61-0.28,2.42-0.41
					c1.7-0.27,3.41-0.55,5.12-0.8c1.271-0.19,2.55-0.36,3.82-0.53c0.72-0.09,1.439-0.18,2.17-0.25c0.18-0.02,0.2-0.08,0.14-0.25
					c-0.12-0.31-0.21-0.64-0.319-0.96c-0.051-0.16-0.03-0.24,0.149-0.27c0.46-0.09,0.92-0.2,1.37-0.32c0.41-0.1,0.83-0.1,1.22-0.27
					h1.11c0.62,0.13,1.24,0.26,1.85,0.39c0.311,0.06,0.61,0.15,0.921,0.21C56.34,5.47,56.35,5.53,56.3,5.66
					c-0.109,0.33-0.21,0.67-0.33,0.99c-0.06,0.17-0.05,0.24,0.15,0.26c0.72,0.07,1.43,0.16,2.14,0.25c1.28,0.17,2.55,0.33,3.82,0.52
					c1.62,0.24,3.22,0.5,4.83,0.76c0.979,0.15,1.96,0.33,2.93,0.49C70.09,8.97,69.98,9.08,69.93,9.19z"/>
				<polygon style="fill:#F7F8F8;" points="28.117,53.87 28.041,54.163 28.195,54.163 				"/>
				<path style="fill:#F7F8F8;" d="M34.1,9.19c-0.62,1.36-1.23,2.72-1.85,4.08c-0.71,1.56-1.42,3.11-2.12,4.67
					c-0.09,0.2-0.17,0.26-0.39,0.21c-0.71-0.19-1.42-0.33-2.12-0.51c-0.23-0.06-0.28,0-0.24,0.22c0.1,0.52,0.15,1.03,0.18,1.54
					c-0.56,0.07-1.13,0.14-1.7,0.23c-0.03-0.73-0.11-1.44-0.31-2.15c-0.07-0.23-0.18-0.32-0.41-0.37c-1.25-0.24-2.5-0.49-3.76-0.68
					c-1.42-0.22-2.83-0.42-4.18-0.43c-0.51,0.02-0.93,0.02-1.36,0.05c-0.88,0.06-1.75,0.18-2.62,0.31c-1.41,0.21-2.8,0.47-4.2,0.75
					c-0.19,0.04-0.3,0.11-0.36,0.31c-0.38,1.34-0.49,2.7-0.24,4.07c0.38,2.06,1.35,3.8,2.96,5.16c2.23,1.87,4.77,2.49,7.59,1.9
					l0.36-0.09c0.61-0.15,1.17-0.38,1.71-0.64c0.24,0.53,0.48,1.06,0.72,1.58c-0.04,0.02-0.07,0.05-0.11,0.07l5.7,21.52l-0.83,3.17
					H5.3l6.66-25.02c-0.69-0.4-1.34-0.87-1.96-1.43c-1.81-1.66-2.89-3.72-3.29-6.13c-0.21-1.25-0.16-2.5,0.1-3.73
					c0.05-0.25-0.02-0.26-0.23-0.21c-0.69,0.17-1.39,0.32-2.09,0.5c-0.23,0.06-0.34,0.02-0.44-0.21C2.73,15,1.4,12.08,0.07,9.16
					C0.05,9.12,0.02,9.08,0,9.04V8.93C0.13,8.95,0.25,8.92,0.38,8.9C1.19,8.76,1.99,8.62,2.8,8.49c1.71-0.27,3.41-0.55,5.12-0.8
					c1.27-0.19,2.55-0.36,3.83-0.53c0.72-0.09,1.44-0.18,2.16-0.25c0.18-0.02,0.2-0.08,0.14-0.24c-0.11-0.32-0.21-0.65-0.32-0.97
					c-0.05-0.16-0.02-0.24,0.15-0.27c0.46-0.09,0.92-0.2,1.37-0.32c0.41-0.1,0.84-0.1,1.23-0.27h1.1c0.62,0.13,1.24,0.26,1.86,0.39
					c0.3,0.06,0.6,0.15,0.91,0.21c0.16,0.03,0.17,0.09,0.12,0.22c-0.12,0.33-0.22,0.67-0.34,0.99c-0.05,0.17-0.04,0.24,0.16,0.26
					c0.71,0.07,1.42,0.16,2.14,0.25c1.27,0.17,2.55,0.33,3.82,0.52c1.61,0.24,3.22,0.5,4.82,0.76c0.98,0.15,1.96,0.33,2.94,0.49
					C34.25,8.97,34.15,9.08,34.1,9.19z"/>
			</g>
		</g>
		<g>
			<path style="fill:#F7F8F8;" d="M43.172,28.846c-1.253-0.24-2.503-0.486-3.764-0.681c-1.415-0.218-2.832-0.424-4.179-0.432
				c-0.513,0.019-0.935,0.023-1.359,0.052c-0.88,0.063-1.752,0.177-2.624,0.309c-1.405,0.214-2.802,0.475-4.197,0.755
				c-0.189,0.038-0.302,0.107-0.36,0.31c-0.385,1.338-0.49,2.694-0.24,4.062c0.377,2.062,1.348,3.804,2.958,5.16
				c2.277,1.919,4.888,2.535,7.784,1.875c1.976-0.451,3.578-1.523,4.836-3.096c1.107-1.387,1.736-2.982,1.871-4.753
				c0.082-1.08-0.026-2.147-0.322-3.193C43.514,28.984,43.396,28.89,43.172,28.846z"/>
			<path style="fill:#F7F8F8;" d="M44.811,21.219c-1.1-0.16-2.194-0.326-3.295-0.473c-0.974-0.131-1.947-0.242-2.923-0.357
				c-0.657-0.077-1.315-0.125-1.974-0.186c-0.954-0.088-1.908-0.096-2.861-0.02c-1.169,0.095-2.34,0.203-3.502,0.367
				c-1.054,0.147-2.111,0.259-3.165,0.41c-1.27,0.185-2.537,0.389-3.804,0.59c-0.86,0.137-1.719,0.285-2.579,0.422
				c-0.174,0.026-0.213,0.079-0.135,0.248c0.827,1.808,1.651,3.615,2.464,5.428c0.11,0.243,0.237,0.29,0.491,0.231
				c1.216-0.277,2.434-0.546,3.658-0.794c1.472-0.3,2.955-0.561,4.444-0.77c0.917-0.127,1.838-0.243,2.765-0.279
				c1.335-0.052,2.66,0.076,3.984,0.254c1.336,0.18,2.663,0.409,3.988,0.658c1.497,0.281,2.984,0.606,4.469,0.953
				c0.165,0.039,0.262-0.003,0.338-0.177c0.506-1.135,1.024-2.263,1.539-3.395c0.346-0.761,0.689-1.522,1.051-2.322
				c-0.935-0.154-1.828-0.308-2.723-0.45C46.296,21.439,45.552,21.328,44.811,21.219z"/>
			<path style="fill:#F7F8F8;" d="M34.618,42.188c-1.159-0.051-2.242-0.283-3.261-0.674l-6.092,23.645h19.02l-6.032-23.413
				C37.111,42.09,35.902,42.245,34.618,42.188z"/>
			<path style="fill:#F7F8F8;" d="M32.938,17.799c0.725-0.155,1.449-0.317,2.18-0.391c0.741,0.07,1.454,0.239,2.171,0.387
				c0.115,0.021,0.165,0.076,0.107,0.191c-0.008,0.016-0.008,0.035-0.015,0.052c-0.094,0.27-0.112,0.632-0.3,0.782
				c-0.202,0.159-0.527-0.073-0.791-0.149c-0.977-0.285-1.926-0.158-2.861,0.159c-0.237,0.082-0.323,0.023-0.375-0.206
				c-0.044-0.204-0.134-0.398-0.194-0.602C32.836,17.938,32.804,17.828,32.938,17.799z M42.027,37.159
				c-1.258,1.571-2.86,2.646-4.836,3.096c-2.896,0.66-5.506,0.044-7.784-1.875c-1.61-1.354-2.581-3.099-2.958-5.16
				c-0.25-1.367-0.146-2.724,0.24-4.062c0.058-0.202,0.171-0.271,0.36-0.31c1.395-0.28,2.792-0.541,4.197-0.755
				c0.871-0.132,1.743-0.246,2.624-0.309c0.424-0.028,0.846-0.033,1.359-0.052c1.347,0.008,2.764,0.214,4.179,0.432
				c1.261,0.194,2.511,0.44,3.764,0.681c0.227,0.044,0.342,0.139,0.404,0.367c0.296,1.046,0.404,2.113,0.322,3.193
				C43.764,34.177,43.136,35.771,42.027,37.159z M48.712,24.331c-0.515,1.132-1.034,2.26-1.539,3.395
				C47.096,27.9,47,27.942,46.835,27.903c-1.483-0.347-2.972-0.672-4.469-0.953c-1.325-0.249-2.652-0.479-3.988-0.658
				c-1.325-0.178-2.647-0.306-3.984-0.254c-0.927,0.036-1.847,0.152-2.765,0.279c-1.489,0.209-2.972,0.47-4.444,0.77
				c-1.224,0.248-2.442,0.517-3.658,0.794c-0.254,0.059-0.381,0.012-0.491-0.231c-0.813-1.813-1.637-3.62-2.464-5.428
				c-0.078-0.169-0.039-0.222,0.135-0.248c0.86-0.137,1.719-0.285,2.579-0.422c1.268-0.201,2.534-0.405,3.804-0.59
				c1.054-0.151,2.111-0.263,3.165-0.41c1.163-0.164,2.333-0.272,3.502-0.367c0.953-0.076,1.907-0.068,2.861,0.02
				c0.657,0.061,1.315,0.108,1.974,0.186c0.975,0.115,1.949,0.227,2.924,0.357c1.1,0.146,2.194,0.313,3.293,0.473
				c0.742,0.109,1.486,0.221,2.23,0.34c0.895,0.143,1.788,0.296,2.723,0.45C49.4,22.809,49.059,23.57,48.712,24.331z"/>
		</g>
	</g>
</g>
</svg>