<?xml version="1.0" encoding="utf-8"?>
<!-- Generator: Adobe Illustrator 16.0.0, SVG Export Plug-In . SVG Version: 6.00 Build 0)  -->
<!DOCTYPE svg PUBLIC "-//W3C//DTD SVG 1.1//EN" "http://www.w3.org/Graphics/SVG/1.1/DTD/svg11.dtd">
<svg version="1.1" id="圖層_1" xmlns="http://www.w3.org/2000/svg" xmlns:xlink="http://www.w3.org/1999/xlink" x="0px" y="0px"
	 width="70px" height="70px" viewBox="0 0 70 70" enable-background="new 0 0 70 70" xml:space="preserve">
<g>
	<g>
		<path fill="#F7F8F8" d="M13.008,29.879c-4.306,0-7.566-2.289-10.904-7.658L0,18.838l3.246,1.609
			c1.477,0.733,2.909,1.104,4.253,1.104c3.428,0,6.504-2.254,10.208-7.501l-2.262-5.69l1.848,0.384
			c0.668,0.14,1.343,0.316,2.021,0.493c1.415,0.369,2.877,0.749,4.285,0.782c6.863,0.161,14.055,0.159,21.433-0.003
			c1.046-0.023,2.142-0.41,3.298-0.817c0.581-0.205,1.171-0.413,1.771-0.583l1.981-0.563l-2.375,5.891
			c4.072,5.239,7.676,7.585,11.621,7.585c1.451,0,2.977-0.341,4.535-1.006L70,18.756l-3.138,3.697
			c-3.164,3.729-6.674,7.372-11.686,7.372l-0.147-0.001c-8.49-0.12-15.373-0.175-21.658-0.175c-7.259,0-13.825,0.075-20.074,0.227
			L13.008,29.879z"/>
	</g>
	<rect x="13" y="31" fill="#F7F8F8" width="3" height="31"/>
	<rect x="51" y="31" fill="#F7F8F8" width="3" height="31"/>
	<rect x="18" y="31" fill="#F7F8F8" width="31" height="16"/>
</g>
</svg>