<?xml version="1.0" encoding="iso-8859-1"?>
<!-- Generator: Adobe Illustrator 16.0.0, SVG Export Plug-In . SVG Version: 6.00 Build 0)  -->
<!DOCTYPE svg PUBLIC "-//W3C//DTD SVG 1.1//EN" "http://www.w3.org/Graphics/SVG/1.1/DTD/svg11.dtd">
<svg version="1.1" id="Capa_1" xmlns="http://www.w3.org/2000/svg" xmlns:xlink="http://www.w3.org/1999/xlink" x="0px" y="0px"
	 width="70px" height="70px" viewBox="0 0 70 70" style="enable-background:new 0 0 70 70;" xml:space="preserve">
<g>
	<path style="fill:#FFFFFF;" d="M18,10.5h34V19H18V10.5z M64.75,23.25H5.25C2.913,23.25,1,25.163,1,27.5v21.25
		C1,51.087,2.913,53,5.25,53H18v17h34V53h12.75c2.337,0,4.25-1.913,4.25-4.25V27.5C69,25.163,67.087,23.25,64.75,23.25z
		 M47.75,65.75h-25.5V44.5h25.5V65.75z M65.706,29.625c0,1.702-1.379,3.082-3.081,3.082s-3.081-1.379-3.081-3.082
		s1.379-3.082,3.081-3.082S65.706,27.923,65.706,29.625z"/>
</g>
</svg>