<?xml version="1.0" encoding="iso-8859-1"?>
<!-- Generator: Adobe Illustrator 16.0.0, SVG Export Plug-In . SVG Version: 6.00 Build 0)  -->
<!DOCTYPE svg PUBLIC "-//W3C//DTD SVG 1.1//EN" "http://www.w3.org/Graphics/SVG/1.1/DTD/svg11.dtd">
<svg version="1.1" id="Capa_1" xmlns="http://www.w3.org/2000/svg" xmlns:xlink="http://www.w3.org/1999/xlink" x="0px" y="0px"
	 width="73px" height="73px" viewBox="-6 -9 73 73" style="enable-background:new -6 -9 73 73;" xml:space="preserve">
<g>
	<path style="fill:#FF8A00;stroke:#FF8A00;stroke-miterlimit:10;" d="M30.5-7.966c-19.518,0-35.466,15.844-35.466,35.467
		c0,19.517,15.844,35.464,35.466,35.464c19.517,0,35.466-15.843,35.466-35.464C65.966,7.878,50.123-7.966,30.5-7.966z"/>
	<path style="fill:#FFFFFF;" d="M41.622,29.075l-15.32,15.319c-0.944,0.946-2.412,0.946-3.357,0c-0.944-0.945-0.944-2.413,0-3.356
		l13.64-13.643l-13.64-13.64c-0.944-0.945-0.944-2.413,0-3.357c0.945-0.944,2.414-0.944,3.357,0l15.32,15.32
		c0.525,0.419,0.734,1.05,0.734,1.677C42.356,28.026,42.147,28.654,41.622,29.075z"/>
</g>
</svg>