<?xml version="1.0" encoding="utf-8"?>
<!-- Generator: Adobe Illustrator 19.0.0, SVG Export Plug-In . SVG Version: 6.00 Build 0)  -->
<svg version="1.1" id="Capa_1" xmlns="http://www.w3.org/2000/svg" xmlns:xlink="http://www.w3.org/1999/xlink" x="0px" y="0px"
	 viewBox="-443 244 73 73" style="enable-background:new -443 244 73 73;" xml:space="preserve">
<style type="text/css">
	.st0{opacity:0.5;fill:none;stroke:#7A7C7B;stroke-width:1.5;stroke-miterlimit:10;enable-background:new    ;}
	.st1{fill:#7A7C7B;}
</style>
<g>
	<path class="st0" d="M-406.8,246.5c-18.6,0-33.8,15.1-33.8,33.8c0,18.6,15.1,33.8,33.8,33.8c18.6,0,33.8-15.1,33.8-33.8
		C-373,261.6-388.1,246.5-406.8,246.5z"/>
	<path class="st1" d="M-396.2,281.8l-14.6,14.6c-0.9,0.9-2.3,0.9-3.2,0c-0.9-0.9-0.9-2.3,0-3.2l13-13l-13-13c-0.9-0.9-0.9-2.3,0-3.2
		c0.9-0.9,2.3-0.9,3.2,0l14.6,14.6c0.5,0.4,0.7,1,0.7,1.6C-395.5,280.8-395.7,281.4-396.2,281.8z"/>
</g>
</svg>
