<?xml version="1.0" encoding="utf-8"?>
<!-- Generator: Adobe Illustrator 16.0.0, SVG Export Plug-In . SVG Version: 6.00 Build 0)  -->
<!DOCTYPE svg PUBLIC "-//W3C//DTD SVG 1.1//EN" "http://www.w3.org/Graphics/SVG/1.1/DTD/svg11.dtd">
<svg version="1.1" id="圖層_1" xmlns="http://www.w3.org/2000/svg" xmlns:xlink="http://www.w3.org/1999/xlink" x="0px" y="0px"
	 width="69.99px" height="70px" viewBox="0 0 69.99 70" enable-background="new 0 0 69.99 70" xml:space="preserve">
<g>
	<path fill-rule="evenodd" clip-rule="evenodd" fill="#F7F8F8" d="M34,68.453c0,0-7.3-1.41-8.925-1.41
		c-2.111,0-6.164,0.957-8.273,0.957C13.063,68,3,68,3,68V22c0,0,10.063,0,13.802,0c2.029,0,5.919-1.026,7.949-1.026
		c1.706,0,9.249,1.342,9.249,1.342V68.453z"/>
	<path fill-rule="evenodd" clip-rule="evenodd" fill="#F7F8F8" d="M34,70H0.126l2.632-1c0,0,9.096,0,13.044,0
		c2.145,0,6.268-0.865,8.413-0.865c1.803,0,9.785,1.501,9.785,1.501V70z"/>
	<path fill-rule="evenodd" clip-rule="evenodd" fill="#F7F8F8" d="M69.864,70H35v-0.364c0,0,7.779-1.501,9.795-1.501
		c1.931,0,7.521,0.865,9.452,0.865c3.947,0,13.043,0,13.043,0L69.864,70z"/>
	<g>
		<path fill-rule="evenodd" clip-rule="evenodd" fill="#F7F8F8" d="M47.495,60.457c-0.358-3.73-0.194-7.372,1.334-10.839
			c0.172-0.393,0.341-0.463,0.739-0.314c0.839,0.313,1.693,0.585,2.555,0.829c0.438,0.125,0.53,0.32,0.42,0.756
			c-0.582,2.306-1.559,4.435-2.863,6.412C48.975,58.368,48.225,59.405,47.495,60.457z"/>
		<g>
			<path fill="#F7F8F8" d="M66.165,7.689c0.034-0.107,0.066-0.214,0.087-0.278c0.021-0.243-0.128-0.273-0.267-0.32
				c-0.594-0.195-1.191-0.378-1.776-0.597c-0.252-0.096-0.336-0.018-0.411,0.208c-0.191,0.578-0.403,1.149-0.603,1.722
				c-1.53,4.405-3.061,8.811-4.59,13.216c1.062,0,2.138,0,3.144,0C63.221,16.99,64.693,12.34,66.165,7.689z"/>
			<path fill="#F7F8F8" d="M66.544,4.998c-0.348-0.122-0.7-0.229-1.049-0.344c-0.787-0.262-0.776-0.261-0.997,0.526
				c-0.056,0.2-0.032,0.296,0.162,0.358c0.532,0.171,1.063,0.347,1.594,0.522c0.103,0.033,0.216,0.108,0.275-0.058
				c0.088-0.257,0.173-0.516,0.262-0.781C66.813,5.041,66.65,5.036,66.544,4.998z"/>
			<path fill="#F7F8F8" d="M66.762,0.364c-0.7-0.002-1.3,0.397-1.471,1.076c-0.203,0.803-0.199,1.621,0.126,2.399
				c0.237,0.566,0.679,0.727,1.206,0.408c0.776-0.468,1.357-1.132,1.607-2.015C68.49,1.306,67.729,0.368,66.762,0.364z"/>
			<path fill="#F7F8F8" d="M49.538,47.705c-0.128,0.366-0.051,0.486,0.3,0.591c0.843,0.257,1.673,0.552,2.509,0.831
				c0.65,0.219,0.65,0.217,0.853-0.424c2.201-6.973,4.402-13.947,6.606-20.92c0.647-2.048,1.297-4.095,1.943-6.142
				c-1.006,0-2.082,0-3.144,0c-1.191,3.428-2.381,6.856-3.572,10.284C53.206,37.187,51.381,42.448,49.538,47.705z"/>
			<path fill="#F7F8F8" d="M54.488,48.177c-0.605,1.89-1.036,3.833-1.773,5.681c-0.916,2.297-2.269,4.338-3.711,6.326
				c-0.854,1.18-1.684,2.375-2.523,3.563c-0.05-0.003-0.099-0.008-0.148-0.011c0-0.575,0.009-1.149-0.006-1.722
				c-0.004-0.181,0.092-0.387-0.09-0.54c0-2.053,0-4.105,0-6.158c0.213-0.638,0.201-1.312,0.327-1.964
				c0.278-1.435,0.745-2.804,1.272-4.167c0.773-1.998,1.445-4.037,2.149-6.061c2.49-7.161,4.977-14.322,7.465-21.483
				c-1.36,0-2.629,0-3.594,0c-1.89,0-7.217-0.847-9.106-0.847c-1.975,0-9.443,1.522-9.443,1.522v46.137c0,0,7.849-1.499,9.949-1.499
				c1.764,0,6.836,0.87,8.601,0.87c3.866,0,12.597,0,12.597,0V21.641c0,0-1.515,0-3.551,0c-0.615,1.932-1.234,3.863-1.847,5.796
				C58.869,34.351,56.699,41.271,54.488,48.177z"/>
			<path fill="#F7F8F8" d="M52.123,50.133c-0.861-0.244-1.716-0.517-2.555-0.829c-0.398-0.148-0.567-0.078-0.739,0.314
				c-1.528,3.467-1.692,7.108-1.334,10.839c0.729-1.052,1.479-2.089,2.185-3.156c1.305-1.978,2.281-4.106,2.863-6.412
				C52.653,50.453,52.561,50.258,52.123,50.133z"/>
		</g>
		<path fill-rule="evenodd" clip-rule="evenodd" fill="#F7F8F8" d="M66.252,7.411c-0.021,0.064-0.053,0.171-0.087,0.278
			c-2.12,6.698-4.243,13.395-6.359,20.094c-2.204,6.973-4.405,13.947-6.606,20.92c-0.202,0.641-0.202,0.643-0.853,0.424
			c-0.836-0.279-1.666-0.574-2.509-0.831c-0.351-0.104-0.428-0.225-0.3-0.591c1.843-5.257,3.668-10.519,5.495-15.78
			c2.722-7.833,5.441-15.667,8.162-23.5c0.199-0.573,0.411-1.144,0.603-1.722c0.075-0.227,0.159-0.304,0.411-0.208
			c0.585,0.218,1.183,0.402,1.776,0.597C66.124,7.138,66.273,7.168,66.252,7.411z"/>
		<path fill-rule="evenodd" clip-rule="evenodd" fill="#F7F8F8" d="M66.762,0.364c0.967,0.004,1.729,0.942,1.469,1.869
			c-0.25,0.883-0.831,1.547-1.607,2.015c-0.527,0.319-0.969,0.158-1.206-0.408c-0.325-0.778-0.329-1.596-0.126-2.399
			C65.462,0.762,66.062,0.362,66.762,0.364z M65.669,2.579c-0.003,0.151,0.019,0.403,0.09,0.652
			c0.164,0.576,0.464,0.691,0.943,0.338c0.45-0.332,0.758-0.78,0.95-1.296c0.132-0.354,0.056-0.696-0.219-0.972
			c-0.279-0.281-0.611-0.39-1.003-0.271C65.906,1.188,65.671,1.632,65.669,2.579z"/>
		<path fill-rule="evenodd" clip-rule="evenodd" fill="#F7F8F8" d="M66.791,5.222c-0.089,0.265-0.174,0.523-0.262,0.781
			c-0.06,0.166-0.173,0.091-0.275,0.058c-0.53-0.175-1.062-0.352-1.594-0.522c-0.194-0.062-0.218-0.158-0.162-0.358
			c0.221-0.788,0.21-0.789,0.997-0.526c0.349,0.115,0.701,0.223,1.049,0.344C66.65,5.036,66.813,5.041,66.791,5.222z"/>
	</g>
	<polygon fill-rule="evenodd" clip-rule="evenodd" fill="#F7F8F8" points="69,69.636 67,68.453 67,22.316 69,23.499 	"/>
	<polygon fill-rule="evenodd" clip-rule="evenodd" fill="#F7F8F8" points="0,69.636 2,68.453 2,22.316 0,23.499 	"/>
</g>
</svg>
