<?xml version="1.0" encoding="utf-8"?>
<!-- Generator: Adobe Illustrator 16.0.0, SVG Export Plug-In . SVG Version: 6.00 Build 0)  -->
<!DOCTYPE svg PUBLIC "-//W3C//DTD SVG 1.1//EN" "http://www.w3.org/Graphics/SVG/1.1/DTD/svg11.dtd">
<svg version="1.1" id="Capa_1" xmlns="http://www.w3.org/2000/svg" xmlns:xlink="http://www.w3.org/1999/xlink" x="0px" y="0px"
	 width="70px" height="70px" viewBox="0 0 70 70" enable-background="new 0 0 70 70" xml:space="preserve">
<g>
	<path fill="#FFFFFF" d="M0.026,0v13.422c31.159,0,56.517,25.384,56.517,56.578H70C70,31.413,38.605,0,0.026,0z"/>
	<path fill="#FFFFFF" d="M0.009,23.778v13.418c8.737,0,16.949,3.417,23.135,9.607c6.178,6.173,9.59,14.425,9.59,23.196h13.479
		C46.213,44.512,25.48,23.778,0.009,23.778z"/>
	<path fill="#FFFFFF" d="M9.319,51.328C4.178,51.328,0,55.514,0,60.625c0,5.141,4.178,9.287,9.319,9.287
		c5.158,0,9.332-4.146,9.332-9.287C18.646,55.523,14.477,51.328,9.319,51.328z"/>
</g>
</svg>