<?xml version="1.0" encoding="utf-8"?>
<!-- Generator: Adobe Illustrator 16.0.0, SVG Export Plug-In . SVG Version: 6.00 Build 0)  -->
<!DOCTYPE svg PUBLIC "-//W3C//DTD SVG 1.1//EN" "http://www.w3.org/Graphics/SVG/1.1/DTD/svg11.dtd">
<svg version="1.1" id="圖層_1" xmlns="http://www.w3.org/2000/svg" xmlns:xlink="http://www.w3.org/1999/xlink" x="0px" y="0px"
	 width="70px" height="70px" viewBox="0 0 70 70" enable-background="new 0 0 70 70" xml:space="preserve">
<path fill-rule="evenodd" clip-rule="evenodd" fill="#FFFFFF" d="M67.106,59.047L52.438,44.379
	c-0.077-0.078-0.169-0.132-0.251-0.204c2.887-4.378,4.57-9.62,4.57-15.255C56.758,13.589,44.33,1.161,29,1.161
	c-15.332,0-27.759,12.428-27.759,27.759c0,15.33,12.427,27.76,27.759,27.76c5.636,0,10.877-1.686,15.254-4.572
	c0.072,0.082,0.127,0.173,0.205,0.25l14.67,14.668c2.202,2.203,5.775,2.203,7.978,0C69.311,64.823,69.311,61.251,67.106,59.047
	L67.106,59.047z M29,47.055c-10.017,0-18.136-8.119-18.136-18.135c0-10.017,8.119-18.136,18.136-18.136s18.136,8.119,18.136,18.136
	C47.136,38.936,39.017,47.055,29,47.055L29,47.055z M29,47.055"/>
</svg>
