<?xml version="1.0" encoding="utf-8"?>
<!-- Generator: Adobe Illustrator 16.0.0, SVG Export Plug-In . SVG Version: 6.00 Build 0)  -->
<!DOCTYPE svg PUBLIC "-//W3C//DTD SVG 1.1//EN" "http://www.w3.org/Graphics/SVG/1.1/DTD/svg11.dtd">
<svg version="1.1" id="圖層_1" xmlns="http://www.w3.org/2000/svg" xmlns:xlink="http://www.w3.org/1999/xlink" x="0px" y="0px"
	 width="70px" height="70px" viewBox="0 0 70 70" enable-background="new 0 0 70 70" xml:space="preserve">
<g>
	<path fill="#FFFFFF" d="M55.834,43.935c-3.839,0-7.206,1.823-9.412,4.621L25.936,38.082c0.269-0.996,0.456-2.029,0.456-3.117
		c0-1.19-0.219-2.307-0.542-3.381L46.23,21.157c2.206,2.928,5.662,4.826,9.604,4.826c6.676,0,12.058-5.384,12.058-12.047
		c0-6.66-5.382-12.059-12.058-12.059c-6.648,0-12.044,5.398-12.044,12.059c0,1.088,0.19,2.12,0.455,3.118L23.776,27.525
		c-2.207-2.792-5.586-4.62-9.426-4.62c-6.66,0-12.058,5.398-12.058,12.059c0,6.664,5.398,12.058,12.058,12.058
		c3.941,0,7.396-1.923,9.603-4.853L44.334,52.6c-0.324,1.084-0.559,2.206-0.559,3.394c0,6.665,5.41,12.058,12.059,12.058
		c6.661,0,12.058-5.393,12.058-12.058C67.892,49.334,62.495,43.935,55.834,43.935L55.834,43.935z M55.834,43.935"/>
</g>
</svg>
