<?xml version="1.0" encoding="utf-8"?>
<!-- Generator: Adobe Illustrator 20.0.0, SVG Export Plug-In . SVG Version: 6.00 Build 0)  -->
<svg version="1.1" id="圖層_1" xmlns="http://www.w3.org/2000/svg" xmlns:xlink="http://www.w3.org/1999/xlink" x="0px" y="0px"
	 viewBox="0 0 70 70" style="enable-background:new 0 0 70 70;" xml:space="preserve">
<style type="text/css">
	.st0{fill:#FFFFFF;}
</style>
<g>
	<path class="st0" d="M62,62.6V10.8c0,0-3.1,0.8-6.5,0.8c-4,0-6.5-0.8-6.5-0.8v51.9c0,0,2.5,2.4,6.5,2.4C59.4,65.1,62,62.6,62,62.6z
		 M60,47.9c0,0-2.3,0.9-4,0.9c-1.7,0-4-0.9-4-0.9V19.2c0,0,2.3,0.7,4,0.7c1.6,0,4-0.7,4-0.7V47.9z"/>
	<path class="st0" d="M59,47c0,0-1.6,0.6-3,0.6c-1.4,0-3-0.6-3-0.6V20.4c0,0,1.6,0.5,3,0.5c1.5,0,3-0.5,3-0.5V47z"/>
	<path class="st0" d="M61.1,7.2c0,0-1.5,0.8-5.1,0.8c-3.5,0-5.1-0.8-5.1-0.8l-1.3,2.4c0,0,2.5,0.8,6.4,0.8c3.7,0,6.4-0.8,6.4-0.8
		L61.1,7.2z"/>
</g>
<g>
	<path class="st0" d="M47,62.6V10.8c0,0-3.1,0.8-6.5,0.8c-4,0-6.5-0.8-6.5-0.8v51.9c0,0,2.5,2.4,6.5,2.4C44.4,65.1,47,62.6,47,62.6z
		 M45,47.9c0,0-2.3,0.9-4,0.9c-1.7,0-4-0.9-4-0.9V19.2c0,0,2.3,0.7,4,0.7c1.6,0,4-0.7,4-0.7V47.9z"/>
	<path class="st0" d="M43,47c0,0-0.6,0.6-2,0.6c-1.4,0-2-0.6-2-0.6V20.4c0,0,0.6,0.5,2,0.5c1.5,0,2-0.5,2-0.5V47z"/>
	<path class="st0" d="M45.8,7.2c0,0-1.5,0.8-5.1,0.8c-3.5,0-5.1-0.8-5.1-0.8l-1.3,2.4c0,0,2.5,0.8,6.4,0.8c3.7,0,6.4-0.8,6.4-0.8
		L45.8,7.2z"/>
</g>
<g>
	<path class="st0" d="M19.1,62.6l12.7-50.4c0,0-3.1,0.1-6.4-0.6c-3.9-0.9-6-2.2-6-2.2L6.8,59.8c0,0,1.7,2.9,5.6,3.7
		C16.2,64.5,19.1,62.6,19.1,62.6z M20.2,47.8c0,0-2.3,0.4-3.9,0c-1.6-0.4-3.5-1.7-3.5-1.7l7-27.9c0,0,1.9,1.1,3.5,1.5
		c1.5,0.3,3.9,0.2,3.9,0.2L20.2,47.8z"/>
	<path class="st0" d="M19.2,46.6c0,0-1.3,0.3-2.6,0c-1.3-0.3-2.3-1.1-2.3-1.1l6.5-25.8c0,0,1,0.7,2.3,1c1.4,0.3,2.6,0.1,2.6,0.1
		L19.2,46.6z"/>
	<path class="st0" d="M31.4,8.4c0,0-1.7,0.5-5.1-0.3c-3.4-0.8-4.7-1.9-4.7-1.9l-1.8,2.1c0,0,2.3,1.3,6,2.1c3.6,0.8,6.4,0.7,6.4,0.7
		L31.4,8.4z"/>
</g>
</svg>