<?xml version="1.0" encoding="utf-8"?>
<!-- Generator: Adobe Illustrator 16.0.0, SVG Export Plug-In . SVG Version: 6.00 Build 0)  -->
<!DOCTYPE svg PUBLIC "-//W3C//DTD SVG 1.1//EN" "http://www.w3.org/Graphics/SVG/1.1/DTD/svg11.dtd">
<svg version="1.1" id="圖層_1" xmlns="http://www.w3.org/2000/svg" xmlns:xlink="http://www.w3.org/1999/xlink" x="0px" y="0px"
	 width="70px" height="70px" viewBox="0 0 70 70" enable-background="new 0 0 70 70" xml:space="preserve">
<g>
	<path fill="#FFFFFF" d="M67.677,15.183c-2.364,1.049-4.925,1.775-7.604,2.093c2.738-1.64,4.826-4.238,5.831-7.333
		c-2.562,1.517-5.397,2.623-8.432,3.211c-2.403-2.561-5.851-4.174-9.652-4.174c-7.309,0-13.24,5.93-13.24,13.238
		c0,1.044,0.123,2.046,0.34,3.017c-11.014-0.557-20.763-5.816-27.303-13.833c-1.145,1.95-1.795,4.235-1.795,6.661
		c0,4.59,2.344,8.65,5.89,11.009c-2.169-0.054-4.196-0.665-5.986-1.655v0.163c0,6.419,4.568,11.777,10.615,12.999
		c-1.105,0.295-2.285,0.453-3.484,0.453c-0.847,0-1.674-0.079-2.501-0.236c1.694,5.259,6.574,9.081,12.371,9.199
		c-4.536,3.546-10.248,5.653-16.451,5.653c-1.064,0-2.108-0.059-3.152-0.178c5.87,3.763,12.824,5.949,20.307,5.949
		c24.35,0,37.667-20.171,37.667-37.664l-0.04-1.714C63.658,20.169,65.904,17.845,67.677,15.183L67.677,15.183z M67.677,15.183"/>
</g>
</svg>