<?xml version="1.0" encoding="utf-8"?>
<!-- Generator: Adobe Illustrator 16.0.3, SVG Export Plug-In . SVG Version: 6.00 Build 0)  -->
<!DOCTYPE svg PUBLIC "-//W3C//DTD SVG 1.1//EN" "http://www.w3.org/Graphics/SVG/1.1/DTD/svg11.dtd">
<svg version="1.1" id="圖層_1" xmlns="http://www.w3.org/2000/svg" xmlns:xlink="http://www.w3.org/1999/xlink" x="0px" y="0px"
	 width="69.99px" height="70px" viewBox="0 0 69.99 70" enable-background="new 0 0 69.99 70" xml:space="preserve">
<g>
	<path fill="#FFFFFF" d="M45.215,27.746h2c0.553,0,0.999-0.447,0.999-1s-0.446-1-0.999-1h-2c-0.553,0-0.999,0.448-0.999,1
		S44.662,27.746,45.215,27.746z"/>
	<path fill="#FFFFFF" d="M41.716,34.748c-0.433-0.002-0.854-0.078-1.252-0.23c-0.511-0.195-1.092,0.062-1.29,0.578
		c-0.196,0.516,0.062,1.094,0.579,1.292c0.625,0.238,1.283,0.359,1.961,0.361h0.356c0.555,0,1.002-0.448,1.002-1.001
		s-0.447-1-1.002-1H41.716z"/>
	<path fill="#FFFFFF" d="M39.342,28.422c0.183,0,0.362-0.049,0.529-0.151c0.442-0.276,0.933-0.445,1.454-0.502
		c0.549-0.062,0.943-0.555,0.883-1.104c-0.06-0.549-0.551-0.941-1.104-0.885c-0.821,0.091-1.593,0.356-2.293,0.794
		c-0.469,0.292-0.611,0.91-0.319,1.378C38.683,28.256,39.01,28.422,39.342,28.422z"/>
	<path fill="#FFFFFF" d="M45.714,43.748c-0.086,0-0.17,0.002-0.254,0.006c-0.553,0.022-0.979,0.489-0.96,1.041
		c0.022,0.538,0.467,0.958,1,0.958c0.014,0,0.025,0,0.042-0.001l1.959-0.004c0.551,0,1-0.446,1-0.999c0-0.555-0.449-1.001-1-1.001
		H45.714z"/>
	<path fill="#FFFFFF" d="M53.216,27.746c0.553,0,1-0.447,1-1s-0.447-1-1-1h-2.001c-0.553,0-1,0.448-1,1s0.447,1,1,1H53.216z"/>
	<path fill="#FFFFFF" d="M57.501,43.748c-0.553,0-1,0.446-1,1.001c0,0.553,0.447,0.999,1,0.999H59.5
		c0.555,0,1.002-0.446,1.002-0.999c0-0.555-0.447-1.001-1.002-1.001H57.501z"/>
	<path fill="#FFFFFF" d="M61.074,35.747c0-0.553-0.446-1-0.999-1h-2.001c-0.554,0-1,0.447-1,1s0.446,1.001,1,1.001h2.001
		C60.626,36.748,61.074,36.3,61.074,35.747z"/>
	<path fill="#FFFFFF" d="M51.501,45.748h2c0.553,0,0.999-0.446,0.999-0.999c0-0.555-0.446-1.001-0.999-1.001h-2
		c-0.553,0-1.001,0.446-1.001,1.001C50.5,45.302,50.948,45.748,51.501,45.748z"/>
	<path fill="#FFFFFF" d="M55.075,35.747c0-0.553-0.449-1-1.002-1h-1.999c-0.555,0-1.002,0.447-1.002,1s0.447,1.001,1.002,1.001
		h1.999C54.626,36.748,55.075,36.3,55.075,35.747z"/>
	<path fill="#FFFFFF" d="M46.072,34.748c-0.553,0-0.999,0.447-0.999,1s0.446,1.001,0.999,1.001h2.002
		c0.553,0,0.999-0.448,0.999-1.001s-0.446-1-0.999-1H46.072z"/>
	<path fill="#FFFFFF" d="M33.785,61.75h-2c-0.553,0-1,0.446-1,0.999c0,0.555,0.447,1.001,1,1.001h2c0.552,0,1-0.446,1-1.001
		C34.785,62.196,34.337,61.75,33.785,61.75z"/>
	<path fill="#FFFFFF" d="M62.326,58.267c-0.538-0.121-1.073,0.216-1.193,0.756c-0.116,0.51-0.339,0.979-0.663,1.392
		c-0.343,0.435-0.267,1.063,0.168,1.405c0.183,0.143,0.4,0.214,0.617,0.214c0.297,0,0.591-0.132,0.787-0.383
		c0.503-0.64,0.863-1.395,1.042-2.188C63.204,58.923,62.867,58.388,62.326,58.267z"/>
	<path fill="#FFFFFF" d="M61.255,56.469c0.217,0,0.435-0.07,0.617-0.215c0.435-0.343,0.509-0.971,0.168-1.403
		c-0.503-0.64-1.151-1.168-1.879-1.528c-0.499-0.247-1.096-0.044-1.342,0.45c-0.247,0.494-0.045,1.095,0.448,1.341
		c0.465,0.229,0.88,0.564,1.198,0.975C60.664,56.337,60.956,56.469,61.255,56.469z"/>
	<path fill="#FFFFFF" d="M56.788,53.749c0-0.553-0.447-1.001-1-1.001h-2.001c-0.553,0-1,0.448-1,1.001s0.447,1.001,1,1.001h2.001
		C56.339,54.75,56.788,54.302,56.788,53.749z"/>
	<path fill="#FFFFFF" d="M57.717,61.75h-1.931c-0.553,0-1,0.446-1,0.999c0,0.555,0.447,1.001,1,1.001l1.971-0.001l0.03-1.001v1.001
		c0.553,0,0.964-0.446,0.964-1.001C58.751,62.196,58.269,61.75,57.717,61.75z"/>
	<path fill="#FFFFFF" d="M69.149,39.38c-0.088-0.547-0.603-0.919-1.146-0.829c-0.545,0.086-0.918,0.601-0.829,1.146
		c0.027,0.179,0.044,0.36,0.042,0.552c0,0.337-0.049,0.67-0.141,0.988c-0.156,0.53,0.146,1.086,0.679,1.242
		c0.093,0.026,0.187,0.039,0.279,0.039c0.435,0,0.833-0.282,0.961-0.719c0.148-0.503,0.223-1.024,0.223-1.543
		C69.22,39.968,69.197,39.673,69.149,39.38z"/>
	<path fill="#FFFFFF" d="M37.749,33.602c0.525-0.172,0.812-0.738,0.64-1.263c-0.114-0.351-0.175-0.718-0.175-1.088
		c0.002-0.151,0.01-0.302,0.028-0.45c0.068-0.548-0.318-1.049-0.867-1.116c-0.565-0.064-1.048,0.32-1.116,0.865
		c-0.03,0.228-0.044,0.457-0.046,0.695c0,0.588,0.094,1.165,0.274,1.718c0.139,0.42,0.529,0.688,0.949,0.688
		C37.541,33.652,37.647,33.637,37.749,33.602z"/>
	<path fill="#FFFFFF" d="M66.469,35.485c-0.713-0.414-1.492-0.657-2.315-0.721c-0.551-0.041-1.033,0.366-1.075,0.919
		c-0.044,0.552,0.368,1.031,0.919,1.074c0.521,0.041,1.016,0.195,1.471,0.459c0.158,0.091,0.33,0.135,0.501,0.135
		c0.344,0,0.681-0.179,0.865-0.499C67.112,36.376,66.948,35.764,66.469,35.485z"/>
	<path fill="#FFFFFF" d="M65.069,43.478c-0.429,0.18-0.884,0.271-1.353,0.271h-0.214c-0.556,0-1.002,0.446-1.002,1.001
		c0,0.553,0.446,0.999,1.002,0.999h0.214c0.735,0,1.45-0.145,2.125-0.427c0.509-0.214,0.75-0.8,0.535-1.309
		C66.165,43.504,65.574,43.264,65.069,43.478z"/>
	<path fill="#FFFFFF" d="M42.276,48.588c0.099-0.515,0.307-0.989,0.619-1.413c0.326-0.444,0.232-1.07-0.212-1.398
		c-0.445-0.326-1.072-0.232-1.398,0.212c-0.491,0.666-0.817,1.415-0.974,2.223c-0.104,0.542,0.25,1.067,0.793,1.172
		c0.064,0.012,0.129,0.019,0.19,0.019C41.766,49.398,42.183,49.065,42.276,48.588z"/>
	<path fill="#FFFFFF" d="M43.843,54.343c0.381,0,0.743-0.216,0.912-0.585c0.228-0.502,0.008-1.096-0.493-1.324
		c-0.471-0.215-0.896-0.537-1.229-0.937c-0.355-0.421-0.986-0.479-1.409-0.122c-0.422,0.355-0.479,0.986-0.122,1.409
		c0.525,0.623,1.19,1.131,1.928,1.468C43.564,54.313,43.705,54.343,43.843,54.343z"/>
	<path fill="#FFFFFF" d="M39.784,61.75h-1.999c-0.553,0-1.001,0.446-1.001,0.999c0,0.555,0.448,1.001,1.001,1.001h1.999
		c0.556,0,1.002-0.446,1.002-1.001C40.786,62.196,40.338,61.75,39.784,61.75z"/>
	<path fill="#FFFFFF" d="M45.786,61.75h-2.001c-0.551,0-1,0.446-1,0.999c0,0.555,0.449,1.001,1,1.001h2.001c0.553,0,1-0.446,1-1.001
		C46.786,62.196,46.337,61.75,45.786,61.75z"/>
	<path fill="#FFFFFF" d="M50.788,53.749c0-0.553-0.446-1.001-1.002-1.001h-1.999c-0.553,0-1.001,0.448-1.001,1.001
		s0.448,1.001,1.001,1.001h1.999C50.34,54.75,50.788,54.302,50.788,53.749z"/>
	<path fill="#FFFFFF" d="M51.786,61.75h-2c-0.553,0-0.999,0.446-0.999,0.999c0,0.555,0.446,1.001,0.999,1.001h2
		c0.553,0,1.001-0.446,1.001-1.001C52.787,62.196,52.339,61.75,51.786,61.75z"/>
	<path fill="#FFFFFF" d="M58.471,28.254l6.464-7.287c3.478-3.921,3.478-10.297,0-14.217c-1.721-1.938-4.017-3.005-6.466-3.005
		c-2.448,0-4.744,1.067-6.465,3.005c-3.478,3.92-3.478,10.296,0,14.217L58.471,28.254z M58.717,7.745c3.033,0,5.501,2.468,5.501,5.5
		c0,3.031-2.468,5.5-5.501,5.5s-5.501-2.469-5.501-5.5C53.216,10.213,55.684,7.745,58.717,7.745z"/>
	<g>
		<g>
			<path fill="#FFFFFF" d="M26.329,63.639l-4.757-12.72c-1.438,0.331-2.876,0.772-4.425,0.772c-1.438,0-2.656-0.772-3.982-1.106
				L8.186,63.75L26.329,63.639z"/>
		</g>
		<g>
			<path fill="#FFFFFF" d="M15.156,23.261c0.11,0.332,0.221,0.332,0.443,0.221c1.216-0.443,2.322-0.554,3.429-0.221
				c0.332,0.11,0.775,0.442,0.996,0.221c0.332-0.221,0.332-0.664,0.443-0.995c0,0,0,0,0-0.111c0.111-0.111,0-0.222-0.111-0.222
				c-0.885-0.221-1.771-0.441-2.655-0.441c-0.885,0.109-1.77,0.332-2.655,0.441c-0.221,0-0.11,0.222-0.11,0.333
				C15.045,22.708,15.156,23.04,15.156,23.261z"/>
		</g>
		<g>
			<path fill="#FFFFFF" d="M29.647,26.358c-1.328-0.221-2.655-0.442-3.983-0.553c-1.216-0.11-2.434-0.332-3.54-0.442
				c-0.774-0.111-1.659-0.111-2.435-0.222c-1.216-0.111-2.433-0.111-3.428,0c-1.438,0.111-2.877,0.222-4.314,0.442
				c-1.328,0.221-2.544,0.332-3.873,0.554c-1.549,0.221-3.097,0.441-4.646,0.774c-1.105,0.22-2.102,0.332-3.098,0.553
				C0,27.465,0,27.576,0,27.797c0.996,2.212,2.102,4.425,2.987,6.748c0.111,0.332,0.332,0.332,0.664,0.332
				c1.549-0.332,2.987-0.663,4.425-0.996c1.881-0.332,3.65-0.663,5.421-0.996c1.107-0.109,2.323-0.332,3.319-0.332
				c1.66-0.11,3.208,0.111,4.867,0.332c1.66,0.221,3.208,0.555,4.868,0.775c1.88,0.332,3.651,0.774,5.531,1.216
				c0.222,0,0.333,0,0.442-0.222c0.665-1.437,1.328-2.764,1.88-4.091c0.443-0.996,0.886-1.882,1.329-2.766
				c-1.218-0.221-2.324-0.332-3.319-0.553C31.417,26.69,30.532,26.579,29.647,26.358z"/>
		</g>
		<g>
			<path fill="#FFFFFF" d="M27.656,35.872c-1.548-0.331-2.987-0.553-4.647-0.884c-1.77-0.223-3.429-0.554-5.089-0.554
				c-0.663,0-1.216,0-1.658,0.11c-1.106,0.11-2.213,0.221-3.208,0.444c-1.77,0.22-3.429,0.553-5.2,0.994
				c-0.22,0-0.331,0.111-0.442,0.443c-0.441,1.658-0.663,3.318-0.332,4.978c0.444,2.545,1.66,4.647,3.651,6.416
				c2.766,2.436,5.975,3.1,9.514,2.323c2.435-0.552,4.425-1.88,5.974-3.762c1.438-1.77,2.211-3.649,2.323-5.862
				c0.111-1.327,0-2.544-0.443-3.872C27.988,35.982,27.878,35.872,27.656,35.872z"/>
		</g>
	</g>
</g>
</svg>
