<?xml version="1.0" encoding="utf-8"?>
<!-- Generator: Adobe Illustrator 20.0.0, SVG Export Plug-In . SVG Version: 6.00 Build 0)  -->
<svg version="1.1" id="圖層_1" xmlns="http://www.w3.org/2000/svg" xmlns:xlink="http://www.w3.org/1999/xlink" x="0px" y="0px"
	 viewBox="0 0 70 70" style="enable-background:new 0 0 70 70;" xml:space="preserve">
<style type="text/css">
	.st0{fill:#FFFFFF;}
</style>
<g>
	<path class="st0" d="M16.4,29.4c-0.7-4.4-5.7-4-5.9,0c-0.2,7.3,8,14.2,12.3,17.4l2.5-5.9C20.4,38.2,17.1,33.8,16.4,29.4z"/>
	<path class="st0" d="M30.7,4c0.1,0.4,0.3,0.5,0.7,0.3c1.8-0.5,3.5-0.8,5.4-0.3c0.5,0.1,1.1,0.5,1.5,0.3c0.4-0.3,0.4-0.9,0.6-1.3
		c0,0,0-0.1,0-0.1c0.1-0.2,0-0.3-0.2-0.3C37.3,2.4,36,2.1,34.6,2c-1.4,0.1-2.7,0.4-4.1,0.7c-0.3,0-0.2,0.2-0.1,0.4
		C30.5,3.4,30.6,3.7,30.7,4z"/>
	<path class="st0" d="M52.8,8.4c-2.1-0.3-4.1-0.6-6.2-0.8C44.8,7.4,43,7.2,41.1,7c-1.2-0.1-2.5-0.2-3.7-0.3c-1.8-0.1-3.6-0.2-5.4,0
		c-2.2,0.2-4.4,0.3-6.6,0.6c-2,0.2-4,0.4-5.9,0.7c-2.4,0.3-4.8,0.7-7.1,1c-1.6,0.2-3.2,0.5-4.8,0.7c-0.3,0-0.4,0.1-0.3,0.4
		c1.6,3.1,3.1,6.1,4.6,9.2c0.2,0.4,0.4,0.5,0.9,0.4c2.3-0.5,4.6-0.9,6.9-1.3c2.8-0.5,5.5-0.9,8.3-1.3c1.7-0.2,3.5-0.4,5.2-0.5
		c2.5-0.1,5,0.1,7.5,0.4c2.5,0.3,5,0.7,7.5,1.1c2.8,0.5,5.6,1,8.4,1.6c0.3,0.1,0.5,0,0.6-0.3c0.9-1.9,1.9-3.8,2.9-5.7
		c0.7-1.3,1.3-2.6,2-3.9C60.3,9.5,58.7,9.2,57,9C55.6,8.8,54.2,8.6,52.8,8.4z"/>
	<path class="st0" d="M49.7,21.3c-2.4-0.4-4.7-0.8-7.1-1.2c-2.7-0.4-5.3-0.7-7.8-0.7c-1,0-1.8,0-2.6,0.1c-1.7,0.1-3.3,0.3-4.9,0.5
		c-2.6,0.4-5.3,0.8-7.9,1.3c-0.4,0.1-0.6,0.2-0.7,0.5c-0.7,2.3-0.9,4.6-0.5,6.9c0.7,3.5,2.5,6.4,5.6,8.7c4.3,3.2,9.2,4.3,14.6,3.2
		c3.7-0.8,6.7-2.6,9.1-5.2c2.1-2.3,3.3-5,3.5-8c0.2-1.8-0.1-3.6-0.6-5.4C50.4,21.6,50.1,21.4,49.7,21.3z"/>
	<g>
		<path class="st0" d="M40.9,41.8c-1.4,0.6-4.9,1-6.3,1.1c-2.2,0.1-5.2-0.6-7.1-1L16.4,69h35.1L40.9,41.8z M34.7,58.5
			c-3.1-1.3-7.9-3.9-6.5-6.9c1.5-3.1,5.6-2,6.5,0.6c0.9-2.6,4.9-3.7,6.5-0.6C42.8,54.5,38.1,57.1,34.7,58.5z"/>
	</g>
</g>
</svg>