<?xml version="1.0" encoding="utf-8"?>
<!-- Generator: Adobe Illustrator 16.0.0, SVG Export Plug-In . SVG Version: 6.00 Build 0)  -->
<!DOCTYPE svg PUBLIC "-//W3C//DTD SVG 1.1//EN" "http://www.w3.org/Graphics/SVG/1.1/DTD/svg11.dtd">
<svg version="1.1" id="圖層_1" xmlns="http://www.w3.org/2000/svg" xmlns:xlink="http://www.w3.org/1999/xlink" x="0px" y="0px"
	 width="70px" height="70px" viewBox="0 0 70 70" enable-background="new 0 0 70 70" xml:space="preserve">
<path fill-rule="evenodd" clip-rule="evenodd" fill="#FFFFFF" d="M66.855,19.187c-0.813-3.533-3.701-6.137-7.178-6.524
	c-8.23-0.92-16.562-0.924-24.855-0.92c-8.294-0.004-16.628,0-24.86,0.92c-3.472,0.388-6.36,2.991-7.17,6.524
	c-1.157,5.025-1.171,10.513-1.171,15.688s0,10.666,1.158,15.691c0.81,3.53,3.697,6.137,7.173,6.525
	c8.23,0.916,16.561,0.923,24.856,0.916c8.297,0.007,16.628,0,24.856-0.916c3.476-0.389,6.363-2.995,7.177-6.525
	c1.158-5.025,1.16-10.516,1.16-15.691S68.012,24.212,66.855,19.187L66.855,19.187z M26.247,45.18V23.229
	c7.033,3.67,14.022,7.313,21.103,11.007C40.289,37.896,33.3,41.523,26.247,45.18L26.247,45.18z M26.247,45.18"/>
</svg>