<?xml version="1.0" encoding="utf-8"?>
<!-- Generator: Adobe Illustrator 16.0.0, SVG Export Plug-In . SVG Version: 6.00 Build 0)  -->
<!DOCTYPE svg PUBLIC "-//W3C//DTD SVG 1.1//EN" "http://www.w3.org/Graphics/SVG/1.1/DTD/svg11.dtd">
<svg version="1.1" id="圖層_1" xmlns="http://www.w3.org/2000/svg" xmlns:xlink="http://www.w3.org/1999/xlink" x="0px" y="0px"
	 width="462.131px" height="98.504px" viewBox="0 0 462.131 98.504" enable-background="new 0 0 462.131 98.504"
	 xml:space="preserve">
<g>
	<g>
		<path fill="#790000" d="M98.5,49.254c0,27.195-22.05,49.25-49.25,49.25S0,76.449,0,49.254C0,22.056,22.05,0,49.25,0
			S98.5,22.056,98.5,49.254z"/>
		<g>
			<path fill="#FFFFFF" d="M32.363,17.895H17.896v14.477h14.467V17.895z M27.54,27.541h-4.825v-4.815h4.825V27.541z"/>
			<path fill="#FFFFFF" d="M66.138,17.895v14.477h14.466V17.895H66.138z M75.78,27.541H70.96v-4.815h4.819V27.541z"/>
			<path fill="#FFFFFF" d="M66.138,80.611h14.466V66.137H66.138V80.611z M70.96,70.969h4.819v4.819H70.96V70.969z"/>
			<path fill="#FFFFFF" d="M17.896,80.611h14.467V66.137H17.896V80.611z M22.715,70.969h4.825v4.819h-4.825V70.969z"/>
			<polygon fill="#FFFFFF" points="56.478,75.788 51.66,75.788 51.66,22.726 56.478,22.726 56.478,32.371 61.305,32.371 
				61.305,17.895 37.19,17.895 37.19,32.371 42.016,32.371 42.016,22.726 46.836,22.726 46.836,75.788 42.016,75.788 42.016,66.137 
				37.19,66.137 37.19,80.611 61.305,80.611 61.305,66.137 56.478,66.137 			"/>
			<polygon fill="#FFFFFF" points="42.016,37.193 17.896,37.193 17.896,51.66 32.363,51.66 32.363,46.84 22.719,46.84 
				22.719,42.023 37.19,42.023 37.19,56.492 17.896,56.492 17.896,61.316 42.016,61.316 			"/>
			<polygon fill="#FFFFFF" points="66.129,46.84 66.129,51.66 80.598,51.66 80.598,37.193 56.478,37.193 56.478,61.316 
				80.598,61.316 80.598,56.492 61.305,56.492 61.305,42.023 75.772,42.023 75.772,46.84 			"/>
		</g>
	</g>
</g>
<g>
	<path d="M154.741,20.219c-0.422,0.492-0.668,0.821-0.738,0.984l-2.25,4.43l-2.461,2.777l-0.422,0.633l-0.352,0.598l0.211,0.246
		l2.074,0.563l0.422,0.211c0.164,0.07,0.281,0.153,0.352,0.246c0.07,0.164,0.059,0.281-0.035,0.352l-0.422,0.246l-0.527,1.758
		l-0.422,5.52l-0.105,3.27l0.211,2.531l0.176,0.668c0.07,0.234,0.07,0.422,0,0.563c-0.398,0.328-0.902,0.492-1.512,0.492
		l-0.949-0.105l-0.105-0.387l0.316-1.301l-0.176-10.055c0-0.469-0.105-0.855-0.316-1.16c-0.281-0.398-0.586-0.691-0.914-0.879
		l-2.145,2.25c-0.445,0.352-0.914,0.58-1.406,0.686s-1.113,0.158-1.863,0.158l-0.141-0.105l3.234-4.078l2.566-3.691l2.32-4.043
		l1.758-4.008l0.773-2.004c0.633,0.188,1.219,0.457,1.758,0.809l1.547,1.195L154.741,20.219z M166.167,17.582l-0.246,0.527
		c-0.094,0.118-0.152,0.206-0.176,0.264c-0.023,0.059-0.047,0.111-0.07,0.158l0.809,0.422l1.934,0.703
		c0.188,0.141,0.668,0.264,1.441,0.369s1.23,0.357,1.371,0.756l-0.281,0.527l-4.957,4.957v0.141l2.988,2.355l7.207,3.762
		l2.355,1.617l0.246,0.352c0.094,0.118,0.117,0.246,0.07,0.387l-0.422,0.105l-3.902-0.316l-4.359-0.527L170.034,34l-0.211-1.934
		c-0.188-0.515-0.48-0.937-0.879-1.266c-0.281-0.281-0.703-0.563-1.266-0.844l-3.094-1.723h-0.457l-6.469,5.977l-0.738,0.352
		c-0.328,0.164-0.609,0.246-0.844,0.246l-0.352-0.035l-0.281,0.316l-0.141,2.602l-2.004,1.09c-0.422-0.258-0.633-0.457-0.633-0.598
		l0.176-0.809l0.457-8.613l-0.457-2.813c0.023-0.328,0.223-0.492,0.598-0.492l0.563,0.07l1.758,0.738l0.316,0.316l4.957-6.75
		l1.406-2.883v-0.387l0.07-0.633c0.07-0.188,0.176-0.281,0.316-0.281l0.773,0.105l0.773,0.316l1.617,1.195
		C166.038,17.313,166.097,17.418,166.167,17.582z M170.034,40.68c0,0.164-0.064,0.322-0.193,0.475
		c-0.129,0.153-0.275,0.276-0.439,0.369l-1.934,0.879l-2.391,1.582l-1.617,1.406c-0.141,0.141-0.246,0.434-0.316,0.879
		s-0.281,0.703-0.633,0.773l-3.34,0.949l-3.305,0.598l-1.371,0.176c-0.258,0-0.445-0.105-0.563-0.316l6.434-3.375l1.16-1.055
		l2.461-1.688l2.32-2.004l1.371-1.547l0.316-0.387c0.047-0.07,0.1-0.117,0.158-0.141c0.059-0.023,0.111-0.047,0.158-0.07
		l0.563,0.211l0.984,1.934C169.906,40.375,169.964,40.492,170.034,40.68z M161.456,26.512l-0.773-0.422l-0.738,0.316l-0.527,0.07
		l-0.668-0.105c-0.211,0.047-0.416,0.153-0.615,0.316c-0.199,0.164-0.463,0.48-0.791,0.949l-0.527,0.035l-0.316,0.035l-0.773-0.141
		l-0.176,1.617l0.176,1.934l-0.176,2.145l0.457-0.105l2.637-2.145l3.551-3.867L161.456,26.512z M166.413,31.715
		c0.188,0.281,0.281,0.551,0.281,0.809l-4.254,2.355l-3.129,1.406l-0.668,0.035c-0.281-0.047-0.457-0.105-0.527-0.176l3.691-3.094
		l2.777-2.883c0.047-0.047,0.152-0.105,0.316-0.176c0.141,0,0.316,0.105,0.527,0.316l0.633,0.809L166.413,31.715z M168.452,36.496
		v0.422l-3.762,1.617l-2.039,1.09l-1.934,1.301c-0.352,0.047-0.645,0-0.879-0.141l-0.668-0.633l3.656-2.918L167.046,34l0.422,0.211
		l0.844,1.863L168.452,36.496z M165.183,20.395l-0.141-0.035l-0.914,0.105l-2.566,2.672v0.316l2.426,1.441l1.406-1.934l0.281-0.703
		l0.035-0.352l0.035-0.914L165.183,20.395z"/>
	<path d="M199.952,17.16l-3.973,2.637c-0.047,0.118-0.199,0.246-0.457,0.387c-0.234,0.188-0.316,0.387-0.246,0.598h1.16l3.762-0.949
		l3.199-0.352l2.25,0.914c0.07,0.258-0.035,0.527-0.316,0.809c-0.164,0.164-0.27,0.287-0.316,0.369
		c-0.047,0.083-0.094,0.158-0.141,0.229l-0.246,0.703l-0.352,6.645v0.457h0.352l2.883-3.305c0.047-0.07,0.1-0.117,0.158-0.141
		c0.059-0.023,0.111-0.047,0.158-0.07l0.422-0.105c0.445,0.234,0.803,0.545,1.072,0.932s0.486,0.826,0.65,1.318
		c-0.023,0.118-0.094,0.199-0.211,0.246l-0.457,0.176l-2.883,3.129l-0.211,0.492l-1.934,1.617l-0.422,2.813l0.105,7.77l0.633,5.168
		c-0.188,0.258-0.387,0.387-0.598,0.387c-0.141,0-0.34-0.064-0.598-0.193s-0.469-0.193-0.633-0.193l-3.551-0.949l-1.934-0.668
		l-2.461-1.758l-2.039-1.863V44.23l4.43,1.09l0.914,0.105l1.09,0.07c0.375,0,0.738-0.07,1.09-0.211
		c0.328-0.188,0.527-0.457,0.598-0.809l0.105-0.914l-0.07-6.645c0-0.258-0.176-0.387-0.527-0.387l-0.422,0.07l-1.969,1.371
		l-2.426,1.934l-0.387,0.105l-2.18,2.215c-0.047,0.07-0.07,0.316-0.07,0.738s-0.164,0.668-0.492,0.738l-3.234,1.301l-3.973,1.266
		l-1.617,0.141c-0.07-0.047-0.328-0.105-0.773-0.176c-0.422-0.117-0.668-0.258-0.738-0.422l3.094-1.934l6.715-3.41l3.656-2.813
		l3.551-3.199h-0.457l-6.258,2.039l-2.039,0.457l-3.094,1.336l-0.527,0.563c-0.352-0.141-0.703-0.422-1.055-0.844l-0.809-1.09
		l1.934-0.773l2.496-1.16l2.285-0.738v-2.461l-0.246-5.098l0.211-1.934c0.047-0.188-0.059-0.398-0.316-0.633l-2.813,1.16
		l-1.055,0.703c-0.281-0.141-0.457-0.339-0.527-0.598l-0.246-1.125c0-0.211,0.105-0.316,0.316-0.316l0.563-0.035l2.145-1.863
		l6.117-6.504l0.844-0.738c0.328-0.258,0.656-0.41,0.984-0.457l0.668,0.422l1.934,1.934L199.952,17.16z M199.495,22.293
		l-0.668,0.035l-0.844-0.141l-0.598-0.141l-0.844,0.246c-0.328,0.118-0.773,0.364-1.336,0.738l-0.633,0.703
		c-0.047,0.047-0.105,0.352-0.176,0.914l4.922-0.422c0.094,0.281,0.176,0.445,0.246,0.492c0.07,0.047,0.141,0.153,0.211,0.316
		l-0.105,0.563l-0.387,0.563l-0.457,0.316c-0.609,0.329-1.02,0.516-1.23,0.563c-0.211,0.047-0.527,0.07-0.949,0.07l-0.844,0.141
		l-1.23,0.598l-0.352,0.563c-0.047,0.07-0.07,0.293-0.07,0.668l0.352,0.07l4.957-1.371l0.703,0.211l0.035,0.527l-0.141,0.492
		c-0.117,0.141-0.211,0.34-0.281,0.598l-2.496,0.949l-0.984,0.598l-1.898,0.563l-0.211,0.281l-0.105,0.598l0.105,0.211
		c0.07,0.094,0.129,0.27,0.176,0.527c0.352-0.164,0.609-0.246,0.773-0.246l0.738-0.246l3.656-0.879
		c0.07-0.023,0.258-0.093,0.563-0.211c0.094-0.023,0.211-0.07,0.352-0.141l0.563-0.809l0.07-6.047l-0.246-1.934l-0.457-0.773
		L199.495,22.293z"/>
	<path d="M237.57,27.32c-0.375,0.07-0.563,0.246-0.563,0.527l0.035,0.492l-0.105,0.457l-1.758,4.711l-0.949,1.617
		c0.117,0.141,0.357,0.281,0.721,0.422s0.545,0.293,0.545,0.457l-0.738,2.883l-0.844,5.063l-1.441,1.617l-2.004,1.582l-2.145,1.055
		l-0.352-0.105l0.527-1.02l1.969-2.25l1.477-1.863l0.879-2.039l0.176-2.145l-0.176-2.355l0.176-0.422l0.316-0.633
		c-0.023-0.211-0.105-0.363-0.246-0.457l-2.602-2.461h-0.457l-1.055,1.723l-0.879,0.527l-2.426,0.598h-0.387V35.02l2.18-1.652
		l1.301-1.371l0.703-1.688l-0.316-0.141l-0.809,0.105l-0.563-0.668c-0.117-0.234-0.176-0.504-0.176-0.809l5.027-1.547l2.25-0.176
		l0.844,0.176l-0.141-0.492l-0.035-0.387l0.105-0.352l1.266-0.141l1.723-0.809l0.527-0.316c0.164-0.093,0.34-0.141,0.527-0.141
		l-0.105,0.457L237.57,27.32z M254.128,23.137v0.633h-0.879l-3.867-0.633l-3.621-0.246l-4.641,0.105l-4.008,0.527l-2.566,0.633
		l-3.34,1.16l-2.777,1.301l-0.527,0.141l-0.457-0.563l-0.633-2.426l0.035-0.246l0.281-0.316l1.16,0.316l2.391-0.387l8.578-1.934
		l5.836-0.281l3.129-0.176l1.898-0.352l0.914-0.352c0.445-0.258,0.785-0.387,1.02-0.387c0.305,0,0.527,0.258,0.668,0.773
		L254.128,23.137z M233.175,28.34l-0.352,0.352l-0.633,0.633l-1.125,2.18l0.527,0.281l0.809,0.035l0.387-0.352l0.352-0.246
		c0.305-0.164,0.563-0.469,0.773-0.914c0.258-0.398,0.387-0.738,0.387-1.02l0.035-0.492
		C233.632,28.656,233.245,28.504,233.175,28.34z M245.726,40.609l-0.105,0.773l-0.422,0.281l-4.746,0.457l-2.672,0.773l-0.527,0.281
		l-0.492,0.105c-0.188,0-0.316-0.07-0.387-0.211l-0.07-0.703l-0.07-0.984l0.035-0.527l0.352-0.141l2.109-0.176l2.883-0.457
		l1.758-0.141h2.004C245.609,40.105,245.726,40.328,245.726,40.609z M250.788,25.879l-2.004,0.809
		c-0.844,0.516-1.406,0.961-1.688,1.336l4.465,3.234l2.109,0.984l4.078,1.406l2.039,1.055l0.141,0.105l-2.074,0.492l-3.516,0.141
		l-2.777-0.316c-0.094-0.117-0.141-0.363-0.141-0.738c0-0.234-0.035-0.387-0.105-0.457l-0.527-1.055l-1.828-1.688l-0.352-0.141
		c-0.164-0.117-0.305-0.152-0.422-0.105l-2.813,3.129l-0.633,0.633c-0.258,0.281-0.398,0.48-0.422,0.598
		c0.492,0.258,0.773,0.598,0.844,1.02l0.035,0.844l-0.246,0.316l-2.25,0.211l-5.801,1.301l-0.352-1.125l-0.176-1.195l0.422-0.141
		l2.355-0.141l3.902-0.703h0.387c0.188,0,0.316-0.035,0.387-0.105l-0.773-0.633c-0.234-0.304-0.387-0.574-0.457-0.809l-0.176-2.461
		l-0.141-2.109l0.984-0.563l2.426-2.813l0.633-0.773c0.305-0.328,0.457-0.598,0.457-0.809l0.281-0.105l0.563,0.176
		c0.961,0,1.969,0.293,3.023,0.879L250.788,25.879z M241.894,18.039l0.738,0.633c0.281,0.281,0.422,0.504,0.422,0.668l-0.527,0.422
		l-2.32-0.105l-2.426-0.527c-0.281-0.141-0.422-0.387-0.422-0.738l0.07-0.809l0.598-1.934l0.281-0.598
		c0.164-0.398,0.352-0.668,0.563-0.809c0.516,0,0.879,0.27,1.09,0.809l0.527,1.371L241.894,18.039z M244.636,25.387l-3.199,1.617
		l-0.246,0.387l-0.105,6.574l-0.141,0.563c-0.094,0.258-0.211,0.422-0.352,0.492c-0.539-0.07-0.984-0.176-1.336-0.316
		s-0.633-0.387-0.844-0.738l0.457-1.828l0.176-4.887c0.141-0.047,0.422-0.07,0.844-0.07l1.195-1.301l1.195-1.723
		c0.375,0.023,0.75,0.141,1.125,0.352l1.055,0.563L244.636,25.387z M246.956,30.133l-0.668-0.352l-0.914-0.211l-0.527,0.281
		l-0.773,0.211l-0.176,2.18l0.176,0.281l0.773,0.035l0.844-0.352l1.758-1.582L246.956,30.133z M249.066,36.672l-0.105,3.832
		l0.07,5.309l0.352,4.324l-2.602-1.336l-0.703-0.492c-0.258-0.164-0.387-0.352-0.387-0.563c0.117-0.469,0.246-0.844,0.387-1.125
		l0.492-1.09l0.352-2.742l-0.035-3.164l-0.422-4.324c0.07-0.211,0.188-0.316,0.352-0.316l0.527,0.07l0.809,0.281
		c0.539,0.188,0.914,0.434,1.125,0.738L249.066,36.672z"/>
	<path d="M266.538,28.551c0,0.773,0.152,1.5,0.457,2.18c0.047,0.234,0.023,0.422-0.07,0.563s-0.27,0.27-0.527,0.387l-0.633,0.211
		l-0.879,0.035l-1.125-0.07l-1.23-0.316l-0.316-0.316l1.406-1.793l2.777-2.883c0.164-0.023,0.316,0.118,0.457,0.422
		C266.644,27.461,266.538,27.988,266.538,28.551z M280.425,27.32c-0.07,0.54-0.258,0.844-0.563,0.914l-0.422,0.035l-2.988,2.25
		l-1.055,0.563c-0.727,0.445-1.055,0.961-0.984,1.547l1.582,2.18l0.246,0.563c0.117,0.141,0.281,0.199,0.492,0.176l4.43-3.938
		c0.234-0.093,0.422-0.469,0.563-1.125c0.07-0.258,0.188-0.387,0.352-0.387l0.387,0.105l2.109,1.16
		c0.352,0.141,0.457,0.387,0.316,0.738l-4.043,2.707l-0.598,0.563c-0.188,0.188-0.246,0.387-0.176,0.598l4.184,3.551l2.355,1.723
		l7.629,2.742l0.633,0.422c0.094,0.117,0.141,0.246,0.141,0.387c-0.141,0.211-0.352,0.352-0.633,0.422l-0.984,0.246l-5.027,0.07
		l-3.691-0.211l-0.422-0.492l-0.773-2.145l-0.844-1.406l-1.477-1.301l-2.461-1.547l-0.352-0.07c-0.281,0-0.457,0.105-0.527,0.316
		L277.507,43l-0.527,3.41l-1.09,3.586c-0.023,0.141-0.176,0.258-0.457,0.352l-0.527-0.035l-3.551-1.688l-2.426-1.863l-0.984-0.984
		l-1.195,0.668l-2.145,0.281c-0.305,0-0.527-0.012-0.668-0.035s-0.352-0.07-0.633-0.141v-0.316l2.707-1.23l2.039-1.406l3.445-3.094
		l1.828-2.074l0.352-0.598c0.094-0.164,0.141-0.352,0.141-0.563l-0.316-0.316l-3.094,2.25l-2.039,1.617
		c-0.164,0.445-0.492,0.809-0.984,1.09l-1.371,0.633l-1.195,0.035c-0.516,0-0.973-0.117-1.371-0.352
		c0.047-0.258,0.141-0.445,0.281-0.563l0.949-0.633l2.496-1.477l2.285-1.969l2.109-1.934l0.246-0.527l0.141-0.563
		c-0.047-0.234-0.129-0.41-0.246-0.527h-0.211l-1.617,1.828c-0.211,0.633-0.832,1.055-1.863,1.266
		c-0.656,0.164-1.102,0.316-1.336,0.457l-0.598,0.07l-0.598,0.07c-0.305-0.047-0.527-0.128-0.668-0.246l0.176-0.387l4.008-3.375
		l1.406-1.582c0-0.304-0.176-0.703-0.527-1.195s-0.527-0.844-0.527-1.055c0-0.234,0.141-0.457,0.422-0.668l1.266-0.105l4.781-2.25
		l2.461-0.668l0.809-0.105l0.914-0.141l0.492,0.035l0.141,0.352L280.425,27.32z M285.031,21.818c0.68,0.34,1.254,0.768,1.723,1.283
		l2.074,2.32l1.688,2.637c0.07,0.164,0.035,0.305-0.105,0.422l-0.352,0.281l-2.918,0.141l-3.199-0.316l-2.391-0.527
		c-0.023-0.07-0.094-0.128-0.211-0.176l-0.105-0.211l1.969-0.633c0.445-0.141,0.844-0.41,1.195-0.809
		c0.352-0.398,0.527-0.796,0.527-1.195c0-0.563-0.094-0.996-0.281-1.301c-0.258-0.445-0.598-0.761-1.02-0.949l-0.738-0.246
		l-2.039,0.105l-5.836,1.969l-5.59,1.688l-0.492,0.211c-0.211,0.118-0.357,0.193-0.439,0.229s-0.17,0.065-0.264,0.088
		c-0.164-0.047-0.293-0.105-0.387-0.176l-0.07-0.316c0.047-0.258,0.129-0.515,0.246-0.773l0.598-0.387l5.801-2.496l3.586-1.195
		l2.637-0.457l2.109,0.035C283.589,21.227,284.351,21.479,285.031,21.818z M274.888,40.715c-0.035-0.07-0.076-0.128-0.123-0.176
		l-0.211,0.035l-0.281-0.07l-2.707,2.18l-1.688,2.004l-0.773,0.457c0.188,0.141,0.293,0.316,0.316,0.527
		c0.07,0.211,0.328,0.352,0.773,0.422l2.883,0.07l0.738-0.281l0.598-0.563l0.527-1.652L275.046,43l-0.035-1.969
		C274.964,40.891,274.923,40.785,274.888,40.715z M278.421,16.809c0.656,0.68,0.984,1.406,0.984,2.18
		c0.047,0.234-0.012,0.422-0.176,0.563s-0.422,0.211-0.773,0.211l-4.816-0.316l-0.668-0.914l0.105-2.742l0.422-1.09
		c0.234-0.375,0.539-0.598,0.914-0.668l1.934,1.336C277.214,15.789,277.906,16.27,278.421,16.809z"/>
	<path d="M332.843,18.496l-3.199,0.844l-1.09,0.211c-0.258,0.07-0.48,0.176-0.668,0.316l-0.492,2.18v0.949
		c0.094,0.047,0.223,0.07,0.387,0.07h0.457c0,0.164-0.07,0.352-0.211,0.563l-0.668,0.844l-0.105,0.668l-0.07,0.879
		c0,0.352,0.07,0.633,0.211,0.844l2.25-2.566l1.934-2.391c0.188-0.093,0.352-0.281,0.492-0.563c0.258-0.422,0.48-0.668,0.668-0.738
		l2.355,1.512v0.457l-3.094,2.883l-3.199,3.41l-0.387,0.387l0.316,0.316l2.637-0.105l7.418-0.668l2.004,3.094
		c0.117,0.211,0.176,0.504,0.176,0.879l-0.035,0.984l-0.316,0.316l-1.969-0.738l-1.934-0.281h-7.418l-1.336,0.246
		c-0.492,0.094-0.785,0.316-0.879,0.668l-0.281,2.25v8.684l0.07,3.094c-0.234,0.328-0.533,0.568-0.896,0.721
		s-0.803,0.229-1.318,0.229l-0.738-0.07c-0.023-0.164,0.012-0.352,0.105-0.563l0.211-0.422l0.141-2.215l-0.457-10.969l-0.211-0.457
		c-0.07-0.141-0.176-0.176-0.316-0.105l-1.828,0.563l-6.434,0.422l-2.25,0.633c-0.398,0.188-0.797,0.445-1.195,0.773l-0.633,0.633
		h-0.422l-1.195-2.25c-0.07-0.281-0.035-0.492,0.105-0.633l3.727-0.949l4.957-0.984l3.656-1.406l1.266-0.176
		c0.328-0.117,0.586-0.269,0.773-0.457v-3.375l-0.211-0.176l-2.25,1.09l-2.109,2.039l-0.598,0.527
		c-0.164,0.118-0.34,0.141-0.527,0.07c-1.453-0.937-2.18-2.227-2.18-3.867c-0.047-0.141,0-0.281,0.141-0.422l0.141-0.211
		l2.215-0.105l1.828-0.316l3.129-1.055l0.422-0.527l-0.422-3.094l-0.492-0.105l-1.336,0.281l-1.688,0.984
		c-0.305,0.305-0.68,0.457-1.125,0.457l-0.492-0.07l-1.547-4.184c0.07-0.211,0.211-0.316,0.422-0.316l0.879-0.105l4.113-0.422
		l5.484-1.16l4.711-0.773c0.281,0.234,0.469,0.668,0.563,1.301l0.387,1.266C333.23,18.344,333.054,18.496,332.843,18.496z"/>
	<path d="M360.23,26.512l-0.105,0.809c-0.094,0.094-0.094,0.176,0,0.246l0.281,0.211l3.234-0.949l2.074-0.457l0.668-0.352
		c0.398-0.234,0.703-0.352,0.914-0.352c0.258,0.047,0.445,0.141,0.563,0.281l0.281,0.527l1.441,1.758l0.246,0.633
		c0.164,0.305,0.211,0.563,0.141,0.773c-0.094,0.164-0.193,0.27-0.299,0.316c-0.105,0.047-0.252,0.07-0.439,0.07l-0.633-0.07
		l-0.738-0.105l-2.531,0.105l-2.109,0.633c-0.492,0.329-0.967,0.586-1.424,0.773c-0.457,0.188-0.955,0.316-1.494,0.387
		c-0.117,0.118-0.176,0.27-0.176,0.457c0.047,0.188,0.129,0.375,0.246,0.563c0.211,0.281,0.34,0.469,0.387,0.563
		c0.047,0.094,0.105,0.223,0.176,0.387l4.395,4.676l2.004,1.547l1.371,0.773l4.43,1.793l5.484,2.602l0.176,0.316l-0.773,0.527
		l-3.27,0.563l-3.34-0.246l-2.496-0.527l-2.18-0.668l-1.723-0.281c-0.211-0.141-0.316-0.352-0.316-0.633l0.035-0.527l-0.105-0.457
		l-0.633-2.074c-0.141-0.422-0.363-0.82-0.668-1.195l-0.879-1.23l-2.461-1.441c-0.281-0.07-0.539-0.199-0.773-0.387l-1.16-0.879
		l-0.527,0.105l-2.25,1.793l-0.949,1.406l-2.25,1.652l-1.09,0.527l-1.652,1.723c-0.188,0.094-0.281,0.211-0.281,0.352v0.492
		l-2.461,0.176c-0.375-0.047-0.762-0.164-1.16-0.352c-0.539-0.305-0.973-0.527-1.301-0.668c-0.117-0.047-0.281-0.117-0.492-0.211
		l-0.105-0.457l0.352-0.176l2.145-0.141l1.898-0.563l3.48-2.109l1.617-1.441l1.688-2.707l1.195-2.777l-0.316-0.316l-2.883,0.457
		l-0.633,0.246c-0.516,0.329-0.855,0.492-1.02,0.492c-0.258,0-0.457-0.176-0.598-0.527c-0.023-0.211-0.305-0.668-0.844-1.371
		c-0.258-0.281-0.387-0.574-0.387-0.879l0.316-0.316l2.777-0.563l4.113-0.563l0.352-0.387l0.07-0.844l0.07-1.125l-0.141-0.949
		l0.176-0.316l2.953,0.316C360.124,26.067,360.23,26.254,360.23,26.512z M366.347,20.641c-0.117,0.188-0.258,0.316-0.422,0.387
		l-1.828,1.055l-2.039,1.512l-1.02,0.527c-0.352,0.188-0.656,0.293-0.914,0.316h-2.461l-0.492-0.07h-0.563l-0.914,0.141
		c-0.305,0.118-0.527,0.246-0.668,0.387h-0.316l-0.316-0.141l-0.422-0.703l-1.195-2.777v-0.738c0.023-0.304,0.07-0.504,0.141-0.598
		l5.801-0.352l2.566-0.527l1.266-0.492l3.059-0.668c0.328,0.094,0.527,0.229,0.598,0.404s0.105,0.452,0.105,0.826
		c0,0.281,0.012,0.48,0.035,0.598c0.023,0.118,0.059,0.223,0.105,0.316C366.499,20.254,366.464,20.453,366.347,20.641z"/>
	<path d="M411.839,20.008l0.422,2.18c-0.141,0.422-0.328,0.633-0.563,0.633h-0.316l-2.145-1.09l-4.289-0.387l-5.027,0.598
		l-1.195,0.879c-0.445,0.399-0.703,0.821-0.773,1.266l-0.316,6.68l-0.176,4.113l-0.246,3.551l-0.07,3.199l-0.141,3.551l-0.141,0.457
		c-0.023,0.164-0.129,0.287-0.316,0.369s-0.563,0.123-1.125,0.123s-0.996,0.152-1.301,0.457l-0.105-0.387
		c0.047-0.234,0.141-0.422,0.281-0.563l0.141-6.363l-0.141-1.652l0.141-4.43l-0.141-4.043l0.141-3.867
		c0.07-0.352-0.07-0.68-0.422-0.984c-0.211-0.188-0.398-0.375-0.563-0.563c-0.047-0.047-0.105-0.117-0.176-0.211l-2.848,0.457
		l-4.113,0.211l-1.371,0.422c-0.539,0.258-0.891,0.563-1.055,0.914l-0.879,0.492l-0.809-3.34c-0.047-0.093-0.07-0.281-0.07-0.563
		l-0.07-0.598l1.09-0.211c0.633-0.117,1.09-0.258,1.371-0.422l3.727-0.316l9.211-1.863l4.57-0.703h3.375l4.746-0.035l0.773-0.176
		c0.188,0.023,0.316,0.118,0.387,0.281l0.07,0.879L411.839,20.008z M408.077,29.711c0,0.164,0.105,0.381,0.316,0.65
		c0.211,0.27,0.316,0.463,0.316,0.58c-0.047,0.188-0.105,0.329-0.176,0.422c-0.141,0.188-0.305,0.293-0.492,0.316l-0.703,0.141
		l-2.602-0.176l-2.355-0.703l-0.527,0.141c-0.305-0.141-0.504-0.304-0.598-0.492c-0.094-0.188-0.141-0.434-0.141-0.738l0.105-0.914
		l0.105-0.844l1.02-2.391l0.387-0.211l0.352-0.141c0.188,0.047,0.305,0.105,0.352,0.176l1.195,1.688L408.077,29.711z"/>
</g>
<g>
	<path d="M168.697,76.79c-0.295,1.112-0.777,2.835-1.092,3.548c-0.672,0.105-2.646,0.588-4.221,0.588
		c-5.501,0-7.853-3.527-7.832-6.697c0-4.199,3.527-7.076,8.273-7.076c2.057,0,3.38,0.463,3.968,0.588
		c0.168,1.051,0.272,2.059,0.399,3.255l-0.357,0.063c-0.588-2.436-2.016-3.381-4.745-3.381c-4.157,0-6.026,2.75-6.026,6.025
		c0,4.074,2.436,6.719,6.152,6.719c2.918,0,4.115-1.574,5.123-3.736L168.697,76.79z"/>
	<path d="M169.538,80.317c1.281-0.084,1.512-0.399,1.512-1.7v-9.869c0-1.322-0.126-1.406-1.574-1.68v-0.23
		c0.944-0.168,2.016-0.482,2.582-0.714v7.139c0.84-0.882,2.037-1.616,3.275-1.616c1.617,0,2.813,1.049,2.813,3.464v3.507
		c0,1.322,0.231,1.616,1.512,1.7v0.294h-4.115v-0.294c1.407-0.084,1.596-0.399,1.596-1.827v-2.876c0-1.974-0.588-3.023-2.583-3.023
		c-0.986,0.063-1.91,0.483-2.498,1.218v4.682c0,1.428,0.21,1.743,1.658,1.827v0.294h-4.156L169.538,80.317z"/>
	<path d="M183.083,77.23c0,2.1,1.008,2.646,2.184,2.646c0.84,0,1.848-0.42,2.729-1.303v-4.619c0-1.238-0.293-1.322-1.049-1.469
		l-0.799-0.127v-0.23c0.903-0.021,2.331-0.23,2.855-0.378v6.845c0,1.05,0.231,1.154,1.051,1.218l0.629,0.042v0.294
		c-0.86,0.104-1.764,0.42-2.582,0.714l-0.105-0.105v-1.616c-0.545,0.399-1.07,0.86-1.805,1.239
		c-0.609,0.356-1.051,0.461-1.596,0.461c-1.26,0-2.52-0.65-2.52-2.98v-3.885c0-1.238-0.315-1.344-0.756-1.47l-0.672-0.147V72.15
		c0.482-0.043,2.036-0.295,2.498-0.399c-0.063,0.42-0.063,1.155-0.063,2.729V77.23z"/>
	<path d="M199.148,73.347h8.86v-3.485c0-1.638-0.168-1.953-1.974-2.1v-0.294h5.081v0.294c-1.848,0.146-2.016,0.462-2.016,2.1v8.356
		c0,1.659,0.168,1.974,1.952,2.1v0.294h-5.186v-0.294c1.974-0.126,2.142-0.44,2.142-2.1v-4.22h-8.86v4.22
		c0,1.659,0.189,1.974,2.037,2.1v0.294h-5.061v-0.294c1.764-0.126,1.932-0.44,1.932-2.1v-8.356c0-1.638-0.168-1.953-2.016-2.1
		v-0.294h5.039v0.294c-1.742,0.146-1.932,0.462-1.932,2.1V73.347z"/>
	<path d="M222.015,76.076c0,3.17-2.604,4.766-4.619,4.766c-2.771,0-4.661-2.1-4.661-4.388c0-3.401,2.855-4.808,4.619-4.808
		C219.999,71.646,222.015,73.641,222.015,76.076z M214.058,75.762c0,2.688,1.406,4.598,3.632,4.598c1.764,0,3.044-1.134,3.044-3.969
		c0-2.036-1.238-4.24-3.568-4.24C215.234,72.15,214.058,73.662,214.058,75.762z"/>
	<path d="M228.107,80.317c1.764-0.084,1.932-0.44,1.932-1.974v-8.608c0-1.532-0.168-1.89-1.932-1.974v-0.294h8.923
		c0,1.134,0.104,2.226,0.188,3.233l-0.377,0.042c-0.399-2.226-0.945-2.771-3.359-2.771h-1.764c-0.547,0-0.588,0.042-0.588,0.588
		v5.103h2.414c1.974,0,2.142-0.189,2.498-1.596h0.357v4.072h-0.357c-0.356-1.637-0.524-1.889-2.498-1.889h-2.414v4.094
		c0,1.533,0.188,1.869,2.309,1.974v0.294h-5.332V80.317z"/>
	<path d="M238.648,80.317c1.281-0.084,1.49-0.378,1.49-1.7v-4.115c0-1.533-0.146-1.659-1.448-1.807v-0.252
		c0.86-0.168,1.7-0.42,2.456-0.881v2.561h0.043c0.504-1.133,1.637-2.477,2.666-2.477c0.63,0,1.029,0.545,1.029,0.881
		c0,0.399-0.42,0.777-0.735,0.777c-0.084,0-0.147-0.021-0.188-0.105c-0.315-0.293-0.483-0.44-0.883-0.44
		c-0.566,0-1.385,0.944-1.932,2.478v3.422c0,1.303,0.189,1.575,1.869,1.659v0.294h-4.367V80.317z"/>
	<path d="M255.195,76.076c0,3.17-2.604,4.766-4.619,4.766c-2.771,0-4.661-2.1-4.661-4.388c0-3.401,2.855-4.808,4.619-4.808
		C253.179,71.646,255.195,73.641,255.195,76.076z M247.238,75.762c0,2.688,1.406,4.598,3.632,4.598c1.764,0,3.044-1.134,3.044-3.969
		c0-2.036-1.238-4.24-3.568-4.24C248.413,72.15,247.238,73.662,247.238,75.762z"/>
	<path d="M256.455,80.317c1.512-0.104,1.784-0.399,1.784-1.722v-4.137c0-1.406-0.084-1.49-1.385-1.742v-0.273
		c0.881-0.188,1.742-0.398,2.414-0.881v1.7c2.162-1.512,2.729-1.616,3.338-1.616c0.777,0,1.785,0.588,2.205,1.7
		c2.457-1.638,3.065-1.7,3.485-1.7c1.532,0,2.54,1.07,2.54,2.54v4.304c0,1.533,0.211,1.743,1.471,1.827v0.294h-4.263v-0.294
		c1.47-0.084,1.784-0.356,1.784-1.868v-3.275c0-1.323-0.336-2.604-2.184-2.604c-0.881,0.041-1.826,0.588-2.666,1.217
		c0.021,0.295,0.063,0.525,0.063,0.651v4.052c0,1.428,0.231,1.743,1.471,1.827v0.294h-4.305v-0.294
		c1.574-0.084,1.826-0.399,1.826-1.827v-3.4c0-1.365-0.398-2.52-2.225-2.52c-0.987,0-1.891,0.734-2.563,1.238v4.682
		c0,1.428,0.211,1.743,1.365,1.827v0.294h-4.157V80.317z"/>
	<path d="M277.749,80.317c1.974-0.104,2.121-0.462,2.121-2.079v-8.23c0-1.805-0.168-2.162-1.911-2.246v-0.294h9.134
		c0,0.735,0.104,1.974,0.188,3.212l-0.356,0.063c-0.441-2.142-0.84-2.771-3.381-2.771h-1.974c-0.567,0-0.588,0.042-0.588,0.588
		v4.913h2.456c1.659,0,2.059-0.21,2.373-1.617h0.357v3.906h-0.357c-0.336-1.617-0.777-1.701-2.373-1.701h-2.456v4.094
		c0,1.975,0.86,1.975,2.604,1.975c1.28,0,2.54-0.021,3.212-0.799c0.336-0.398,0.861-1.133,1.176-2.078h0.357
		c-0.189,0.777-0.588,2.646-0.756,3.359h-9.826V80.317z"/>
	<path d="M289.279,80.317c1.512-0.104,1.785-0.399,1.785-1.722v-4.137c0-1.406-0.084-1.49-1.387-1.742v-0.273
		c0.883-0.188,1.743-0.398,2.415-0.881v1.7c2.163-1.512,2.729-1.616,3.339-1.616c0.776,0,1.784,0.588,2.204,1.7
		c2.456-1.638,3.065-1.7,3.485-1.7c1.533,0,2.541,1.07,2.541,2.54v4.304c0,1.533,0.209,1.743,1.469,1.827v0.294h-4.262v-0.294
		c1.47-0.084,1.785-0.356,1.785-1.868v-3.275c0-1.323-0.336-2.604-2.184-2.604c-0.883,0.041-1.827,0.588-2.667,1.217
		c0.021,0.295,0.063,0.525,0.063,0.651v4.052c0,1.428,0.23,1.743,1.469,1.827v0.294h-4.304v-0.294
		c1.575-0.084,1.827-0.399,1.827-1.827v-3.4c0-1.365-0.399-2.52-2.227-2.52c-0.986,0-1.889,0.734-2.561,1.238v4.682
		c0,1.428,0.209,1.743,1.364,1.827v0.294h-4.157V80.317z"/>
	<path d="M306.015,85.44c1.218-0.084,1.574-0.356,1.574-1.722v-9.448c0-1.407-0.084-1.47-1.469-1.7v-0.273
		c0.672-0.105,1.784-0.482,2.477-0.861v1.512l2.52-1.092c0.336-0.125,0.588-0.209,0.84-0.209c2.373,0,3.759,1.805,3.759,3.611
		c0,3.17-2.562,5.164-5.731,5.584c-0.609-0.041-1.155-0.272-1.387-0.461v3.064c0,1.639,0.295,1.911,2.1,1.995v0.252h-4.682V85.44z
		 M308.597,78.932c0.463,0.546,1.303,0.945,2.373,0.945c1.806,0,3.549-1.239,3.549-3.843c0-1.995-1.113-3.527-3.359-3.527
		c-0.799,0-1.911,0.462-2.563,0.966V78.932z"/>
	<path d="M324.535,79.016c-1.239,1.428-2.667,1.826-3.149,1.826c-2.478,0-4.01-1.973-4.01-4.199c0-3.086,2.52-4.996,4.22-4.996
		c1.806,0,3.107,1.469,3.107,2.96c0,0.42-0.021,0.483-0.356,0.546s-3.023,0.294-5.922,0.378c-0.021,3.191,1.891,4.325,3.339,4.325
		c0.714,0,1.47-0.146,2.54-1.154L324.535,79.016z M318.552,74.858c0.482,0,3.443-0.042,4.346-0.063c0.525,0,0.525-0.209,0.525-0.336
		c0-1.176-0.883-2.225-2.395-2.225C319.98,72.234,318.866,73.158,318.552,74.858z"/>
	<path d="M325.944,80.317c1.28-0.084,1.491-0.378,1.491-1.7v-4.115c0-1.533-0.147-1.659-1.449-1.807v-0.252
		c0.861-0.168,1.701-0.42,2.457-0.881v2.561h0.041c0.504-1.133,1.639-2.477,2.667-2.477c0.63,0,1.028,0.545,1.028,0.881
		c0,0.399-0.42,0.777-0.734,0.777c-0.084,0-0.146-0.021-0.189-0.105c-0.314-0.293-0.482-0.44-0.881-0.44
		c-0.567,0-1.387,0.944-1.932,2.478v3.422c0,1.303,0.188,1.575,1.868,1.659v0.294h-4.367V80.317z"/>
	<path d="M342.49,76.076c0,3.17-2.604,4.766-4.619,4.766c-2.771,0-4.661-2.1-4.661-4.388c0-3.401,2.855-4.808,4.619-4.808
		C340.474,71.646,342.49,73.641,342.49,76.076z M334.532,75.762c0,2.688,1.406,4.598,3.632,4.598c1.764,0,3.044-1.134,3.044-3.969
		c0-2.036-1.238-4.24-3.568-4.24C335.708,72.15,334.532,73.662,334.532,75.762z"/>
	<path d="M344.045,80.317c1.28-0.084,1.491-0.378,1.491-1.7v-4.115c0-1.533-0.147-1.659-1.449-1.807v-0.252
		c0.861-0.168,1.701-0.42,2.457-0.881v2.561h0.041c0.504-1.133,1.639-2.477,2.667-2.477c0.63,0,1.028,0.545,1.028,0.881
		c0,0.399-0.42,0.777-0.734,0.777c-0.084,0-0.146-0.021-0.189-0.105c-0.314-0.293-0.482-0.44-0.881-0.44
		c-0.567,0-1.387,0.944-1.932,2.478v3.422c0,1.303,0.188,1.575,1.868,1.659v0.294h-4.367V80.317z"/>
	<path d="M355.993,67.468h2.666l5.543,11.128l5.564-11.128h3.023v0.294c-1.953,0.189-2.142,0.398-2.058,2.498l0.147,7.454
		c0.063,2.163,0.146,2.436,2.12,2.604v0.294h-5.144v-0.294c1.848-0.147,1.91-0.42,1.889-2.604l-0.084-8.818h-0.084l-5.689,11.485
		h-0.189l-5.164-10.771h-0.043l-0.272,5.669c-0.063,0.987-0.084,1.7-0.084,2.268c0,2.016,0.21,2.583,2.163,2.771v0.294h-5.061
		v-0.294c1.302-0.104,1.742-0.462,1.91-1.302c0.147-0.63,0.315-1.89,0.463-4.053l0.293-3.842c0.021-0.566,0.043-1.029,0.043-1.406
		c0-1.491-0.357-1.764-1.953-1.953V67.468z"/>
	<path d="M374.243,80.317c1.344-0.104,1.553-0.378,1.553-1.596v-4.367c0-1.344-0.146-1.448-1.344-1.659v-0.272
		c0.883-0.188,1.555-0.42,2.352-0.84v7.139c0,1.218,0.211,1.491,1.575,1.596v0.294h-4.136V80.317z M377.119,67.846
		c0,0.441-0.356,0.84-0.798,0.84c-0.42,0-0.798-0.398-0.798-0.84c0-0.504,0.378-0.882,0.798-0.882
		C376.804,66.964,377.119,67.404,377.119,67.846z"/>
	<path d="M379.304,80.317c1.217-0.084,1.553-0.399,1.553-1.659v-4.22c0-1.407-0.146-1.491-1.322-1.722v-0.273
		c0.84-0.209,1.68-0.398,2.33-0.881v1.742c0.42-0.252,0.945-0.63,1.596-1.07c0.588-0.357,1.113-0.588,1.701-0.588
		c1.742,0,2.729,1.07,2.729,2.729v4.179c0,1.47,0.188,1.68,1.364,1.764v0.294h-4.052v-0.294c1.428-0.084,1.68-0.378,1.68-1.764
		V75.11c0-1.196-0.336-2.54-2.268-2.54c-1.028,0-2.1,0.629-2.751,1.28v4.724c0,1.344,0.211,1.659,1.659,1.743v0.294h-4.22V80.317z"
		/>
	<path d="M396.859,72.843c0.42,0.44,0.714,1.155,0.714,1.784c0,2.205-1.974,3.255-3.464,3.255c-0.211,0-0.441-0.021-0.756-0.063
		c-0.525,0.189-1.219,0.631-1.219,1.071c0,0.399,0.483,0.776,1.303,0.776c0.881,0,1.7-0.084,2.498-0.084
		c1.449,0,2.939,0.42,2.939,2.352c0,1.911-2.289,4.011-5.039,4.011c-2.31,0-3.569-1.344-3.569-2.688c0-0.524,0.21-0.903,0.42-1.218
		c0.42-0.482,1.386-1.154,1.848-1.533c-0.86-0.188-1.827-0.924-1.743-1.805c0.651-0.189,1.639-0.756,1.953-1.092
		c-0.945-0.315-1.91-1.323-1.91-2.541c0-2.855,3.17-4.221,5.27-2.897c1.07-0.084,1.89-0.188,2.813-0.356l0.126,0.168
		c-0.252,0.272-0.65,0.734-0.945,0.86H396.859z M391.462,82.816c0,1.322,1.219,2.393,2.982,2.393c2.372,0,3.464-1.301,3.464-2.771
		c0-0.672-0.336-1.26-0.882-1.553c-0.588-0.336-1.302-0.357-2.457-0.357C391.568,80.527,391.462,82.459,391.462,82.816z
		 M392.134,74.459c0,1.953,0.967,3.003,2.268,3.003c0.945,0,1.891-0.672,1.891-2.456c0-1.891-0.756-2.961-2.184-2.961
		C392.953,72.066,392.134,72.885,392.134,74.459z"/>
</g>
</svg>
