<?xml version="1.0" encoding="utf-8"?>
<!-- Generator: Adobe Illustrator 16.0.0, SVG Export Plug-In . SVG Version: 6.00 Build 0)  -->
<!DOCTYPE svg PUBLIC "-//W3C//DTD SVG 1.1//EN" "http://www.w3.org/Graphics/SVG/1.1/DTD/svg11.dtd">
<svg version="1.1" id="图层_1" xmlns="http://www.w3.org/2000/svg" xmlns:xlink="http://www.w3.org/1999/xlink" x="0px" y="0px"
	 width="80.6px" height="389.04px" viewBox="0 0 80.6 389.04" enable-background="new 0 0 80.6 389.04" xml:space="preserve">
<path fill="#7D0000" d="M80.6,41.301c0,22.257-18.044,40.3-40.302,40.3c-22.257,0-40.301-18.043-40.301-40.3
	C-0.003,19.043,18.041,1,40.298,1C62.556,1,80.6,19.043,80.6,41.301"/>
<g>
	<path fill="#FFFFFF" d="M26.481,15.641H14.644v11.846h11.838V15.641L26.481,15.641z M22.533,23.534h-3.948v-3.94h3.948V23.534z"/>
	<path fill="#FFFFFF" d="M54.117,15.641v11.846h11.839V15.641H54.117z M62.009,23.534h-3.944v-3.94h3.944V23.534z"/>
	<path fill="#FFFFFF" d="M54.117,66.961h11.839V55.117H54.117V66.961z M58.063,59.072h3.943v3.943h-3.943V59.072z"/>
	<path fill="#FFFFFF" d="M14.644,66.961h11.838V55.117H14.644V66.961z M18.585,59.072h3.948v3.943h-3.948V59.072z"/>
	<polygon fill="#FFFFFF" points="46.213,63.016 42.271,63.016 42.271,19.594 46.213,19.594 46.213,27.487 50.163,27.487 
		50.163,15.641 30.431,15.641 30.431,27.487 34.378,27.487 34.378,19.594 38.323,19.594 38.323,63.016 34.378,63.016 34.378,55.117 
		30.431,55.117 30.431,66.961 50.163,66.961 50.163,55.117 46.213,55.117 	"/>
	<polygon fill="#FFFFFF" points="34.378,31.433 14.644,31.433 14.644,43.271 26.481,43.271 26.481,39.327 18.589,39.327 
		18.589,35.385 30.431,35.385 30.431,47.225 14.644,47.225 14.644,51.173 34.378,51.173 	"/>
	<polygon fill="#FFFFFF" points="54.111,39.327 54.111,43.271 65.951,43.271 65.951,31.433 46.213,31.433 46.213,51.173 
		65.951,51.173 65.951,47.225 50.163,47.225 50.163,35.385 62.002,35.385 62.002,39.327 	"/>
</g>
<g>
	<path d="M47.279,118.152c0.934,0.612,1.401,1.144,1.401,1.595c0,0.182-0.153,0.395-0.46,0.637c-0.27,0.364-0.557,0.819-0.863,1.364
		c-1.38,2.486-2.76,4.548-4.141,6.185c-1.111,1.334-2.377,2.487-3.796,3.457c-0.958,0.667-1.591,1-1.898,1
		c-0.162,0-0.242-0.04-0.242-0.121c0-0.113,0.123-0.254,0.37-0.424c1.313-1.247,2.627-2.748,3.941-4.504
		c1.191-1.586,2.279-3.398,3.265-5.438c0.616-1.246,0.924-2.407,0.924-3.484c0-0.435,0.146-0.652,0.435-0.652
		C46.473,117.766,46.827,117.895,47.279,118.152z M44.303,127.303c0.637,0.819,0.955,1.37,0.955,1.651
		c0,0.153-0.064,0.573-0.192,1.26c-0.153,0.916-0.229,3.225-0.229,6.927l-0.123,5.955c0,0.484-0.141,1.123-0.422,1.915
		c-0.18,0.586-0.385,0.88-0.614,0.88c-0.307,0-0.588-0.33-0.844-0.99c-0.435-0.991-0.651-1.689-0.651-2.095
		c0.034-0.246,0.156-0.801,0.365-1.665c0.488-1.685,0.732-5.282,0.732-10.79c0-1.221-0.193-2.43-0.58-3.626
		c0-0.254,0.179-0.382,0.535-0.382C43.387,126.344,43.742,126.664,44.303,127.303z M48.029,127.609c0,0,0.259,0.092,0.775,0.274
		c0.541,0.252,0.813,0.539,0.813,0.859c0,0.126-0.061,0.396-0.18,0.807c-0.168,0.506-0.252,1.059-0.252,1.66v5.312
		c0,0.604-0.104,1.093-0.314,1.464c-0.187,0.396-0.42,0.593-0.7,0.593c-0.233,0-0.455-0.256-0.665-0.77
		c-0.163-0.42-0.244-0.77-0.244-1.05c0-0.462,0.08-0.983,0.24-1.561c0.091-0.771,0.137-1.947,0.137-3.528
		c0-1.493-0.082-2.497-0.246-3.01c-0.164-0.443-0.258-0.665-0.281-0.665c0-0.257,0.118-0.385,0.354-0.385
		C47.841,127.609,48.029,127.609,48.029,127.609z M63.888,138.705c0.511,0.518,0.767,0.948,0.767,1.292
		c0,0.241-0.258,0.482-0.773,0.723c-0.572,0.313-1.059,0.602-1.46,0.867c-1.892,1.421-3.725,2.602-5.5,3.542
		c-1.919,0.963-3.566,1.578-4.94,1.843c-1.032,0.216-1.82,0.325-2.363,0.325c-0.693-0.027-1.04-0.124-1.04-0.29
		c2.01-0.716,3.603-1.358,4.78-1.926c1.578-0.815,3.258-1.84,5.037-3.075c1.378-0.938,2.426-1.814,3.145-2.629
		c0.258-0.296,0.458-0.605,0.602-0.926c0.113-0.29,0.285-0.435,0.512-0.435S63.291,138.246,63.888,138.705z M60.661,121.207
		c0.919,0.695,1.379,1.24,1.379,1.634c0,0.093-0.083,0.225-0.247,0.395c-0.22,0.279-0.495,0.62-0.824,1.022
		c-0.633,0.821-1.566,1.89-2.803,3.206c-1.539,1.488-3.146,2.672-4.822,3.555c-1.76,0.914-2.955,1.371-3.586,1.371
		c-0.193,0-0.291-0.056-0.291-0.169c0-0.048,0.102-0.128,0.303-0.24c1.523-0.814,3.262-2.14,5.217-3.977
		c1.494-1.341,2.702-2.738,3.622-4.192c0.402-0.574,0.604-1.27,0.604-2.084c0-0.58,0.177-0.87,0.53-0.87
		C59.931,120.859,60.237,120.975,60.661,121.207z M56.876,116.742c0.688,0.284,1.033,0.623,1.033,1.02
		c0,0.257-0.108,0.478-0.325,0.662c-0.467,0.404-0.963,1.028-1.49,1.873c-0.963,1.396-1.971,2.572-3.025,3.526
		c-0.684,0.735-1.272,1.212-1.77,1.433c-0.311,0.257-0.543,0.386-0.697,0.386c-0.227,0-0.339-0.072-0.339-0.218
		c0.88-0.994,1.695-2.078,2.445-3.25c1.011-1.457,1.744-2.789,2.201-3.997c0.163-0.32,0.245-0.853,0.245-1.598
		c0-0.146,0.129-0.218,0.387-0.218C55.713,116.359,56.158,116.487,56.876,116.742z M61.453,134.846
		c0.465,0.47,0.697,0.862,0.697,1.175c0,0.191-0.18,0.382-0.537,0.573c-0.396,0.249-0.734,0.479-1.012,0.688
		c-1.311,1.128-2.582,2.064-3.813,2.81c-1.33,0.765-2.473,1.253-3.425,1.462c-0.716,0.172-1.261,0.258-1.638,0.258
		c-0.631-0.025-0.945-0.113-0.945-0.264c1.346-0.58,2.412-1.101,3.201-1.561c1.057-0.661,2.182-1.491,3.373-2.492
		c0.924-0.76,1.625-1.471,2.105-2.131c0.173-0.24,0.308-0.49,0.404-0.75c0.103-0.264,0.258-0.396,0.465-0.396
		C60.536,134.219,60.91,134.428,61.453,134.846z M59.766,130.908c0.465,0.47,0.697,0.862,0.697,1.175
		c0,0.154-0.146,0.308-0.436,0.462c-0.322,0.201-0.596,0.386-0.821,0.555c-1.063,0.909-2.093,1.664-3.092,2.264
		c-1.079,0.617-2.005,1.009-2.778,1.179c-0.58,0.139-1.022,0.208-1.328,0.208c-0.631-0.025-0.945-0.113-0.945-0.264
		c1.054-0.486,1.89-0.922,2.507-1.308c0.828-0.553,1.709-1.249,2.644-2.087c0.722-0.637,1.271-1.232,1.648-1.785
		c0.135-0.201,0.24-0.411,0.316-0.629c0.103-0.264,0.258-0.396,0.465-0.396C58.849,130.281,59.223,130.491,59.766,130.908z
		 M57.144,126.036c2.767,1.875,4.821,3.103,6.163,3.683c1.384,0.58,3.602,1.279,6.653,2.097c0.406,0.103,0.61,0.205,0.61,0.307
		c0,0.203-0.198,0.354-0.593,0.456c-2.251,0.532-3.812,0.797-4.68,0.797c-0.553,0-1.126-0.132-1.718-0.397
		c-0.592-0.298-2.33-1.724-5.213-4.277c-0.869-0.795-1.697-1.476-2.488-2.039c-0.75-0.53-1.48-0.912-2.191-1.144
		c-0.277-0.033-0.414-0.132-0.414-0.298c0-0.308,0.252-0.461,0.758-0.461C54.723,124.757,55.76,125.184,57.144,126.036z
		 M64.366,119.679c0.573,0.271,0.86,0.513,0.86,0.724c0,0.338-0.537,0.62-1.61,0.845c-1.513,0.188-3.051,0.395-4.612,0.621
		c-0.779,0.113-1.536,0.169-2.268,0.169c-0.437,0-0.889-0.047-1.356-0.142s-0.7-0.204-0.7-0.33c0-0.157,0.281-0.298,0.844-0.425
		c3.477-0.726,5.593-1.179,6.349-1.361c0.958-0.217,1.486-0.327,1.587-0.327C63.555,119.453,63.857,119.528,64.366,119.679z"/>
	<path d="M65.482,162.987c0.714,0.581,1.07,1.098,1.07,1.55c0,0.17-0.243,0.397-0.729,0.683c-0.547,0.341-1.215,0.909-2.004,1.706
		c-3.279,3.413-6.315,6.172-9.109,8.275c-2.854,2.161-5.678,3.924-8.471,5.29c-2.854,1.308-5.01,1.962-6.467,1.962
		c-0.246,0-0.369-0.031-0.369-0.092c0-0.104,0.132-0.234,0.398-0.391c3.382-1.508,6.665-3.354,9.849-5.539
		c3.781-2.6,7.229-5.486,10.347-8.659c1.923-2.08,2.951-3.771,3.084-5.07c0-0.52,0.265-0.78,0.796-0.78
		C64.137,161.922,64.672,162.277,65.482,162.987z M41.743,171.199c0.161,0,0.431,0.03,0.807,0.092
		c0.511,0.062,0.833,0.092,0.968,0.092c0.46,0,1.299-0.06,2.516-0.181c5.428-0.847,9.228-1.513,11.399-1.997
		c0.56-0.121,0.953-0.182,1.185-0.182c0.655,0,0.984,0.164,0.984,0.492c0,0.296-0.441,0.542-1.322,0.739
		c-6.197,1.478-9.297,2.232-9.297,2.266c-1.305,0.328-2.48,0.673-3.523,1.034c-0.619,0.296-1.093,0.443-1.419,0.443
		c-0.409,0-0.968-0.302-1.675-0.906c-0.791-0.74-1.186-1.234-1.186-1.481C41.18,171.336,41.367,171.199,41.743,171.199z
		 M49.15,158.373c0.463,0.236,0.695,0.495,0.695,0.778c0,0.188-0.035,0.388-0.104,0.6c-0.093,0.425-0.138,0.778-0.138,1.061
		l0.248,10.531h-1.668l-0.779-11.257c-0.023-0.327-0.137-0.677-0.342-1.051c-0.158-0.187-0.238-0.327-0.238-0.42
		c0-0.42,0.22-0.631,0.66-0.631C47.924,157.984,48.479,158.114,49.15,158.373z M60.098,156.835c0.469,0.267,0.703,0.553,0.703,0.857
		c0,0.19-0.076,0.457-0.229,0.8c-0.229,0.724-0.381,1.752-0.457,3.085l0.086,18.013c0,1.531-0.302,2.814-0.904,3.85
		c-0.461,0.843-0.922,1.264-1.383,1.264l-0.657-3.6c0.267,0,0.501-0.609,0.701-1.828c0.2-2.438,0.301-8.27,0.301-17.498
		c0-1.295-0.077-2.304-0.229-3.028c-0.038-0.229-0.172-0.343-0.4-0.343c-0.661,0-1.959,0.163-3.893,0.488
		c-2.036,0.391-3.487,0.586-4.352,0.586c-0.411,0-0.747-0.091-1.009-0.274c-0.299-0.183-0.447-0.33-0.447-0.439
		c0-0.144,0.398-0.264,1.197-0.36c2.867-0.383,5.451-0.934,7.754-1.654c0.893-0.288,1.457-0.432,1.691-0.432
		S59.314,156.492,60.098,156.835z M55.146,152.06c0.702,0.44,1.053,0.815,1.053,1.126c0,0.123-0.124,0.267-0.373,0.43
		c-0.393,0.205-0.945,0.676-1.656,1.413c-1.104,1.188-2.352,2.335-3.74,3.44c-0.927,0.615-1.479,0.922-1.656,0.922
		c-0.104,0-0.154-0.051-0.154-0.154c1.486-1.748,2.638-3.305,3.453-4.673c0.671-1.14,1.008-1.995,1.008-2.565
		c0-0.322,0.155-0.483,0.468-0.483C53.859,151.516,54.393,151.697,55.146,152.06z M57.538,161.254
		c0.625,0.222,0.938,0.412,0.938,0.57c0,0.254-0.379,0.46-1.137,0.618c-0.646,0.086-1.192,0.172-1.64,0.257
		c-0.397,0.086-1.417,0.3-3.056,0.643c-0.895,0.171-1.541,0.257-1.938,0.257c-0.484,0-0.887-0.049-1.209-0.146
		c-0.483-0.161-0.725-0.338-0.725-0.531c0-0.29,0.378-0.451,1.136-0.483c1.851-0.316,3.649-0.727,5.398-1.232
		c0.515-0.126,0.796-0.189,0.849-0.189C56.386,161.017,56.847,161.096,57.538,161.254z M57.538,165.192
		c0.625,0.222,0.938,0.411,0.938,0.569c0,0.254-0.379,0.46-1.137,0.618c-0.633,0.065-1.168,0.13-1.605,0.194
		c-0.389,0.065-1.385,0.228-2.99,0.486c-0.876,0.129-1.508,0.194-1.896,0.194c-0.484,0-0.887-0.049-1.209-0.146
		c-0.483-0.161-0.725-0.338-0.725-0.531c0-0.29,0.378-0.451,1.136-0.483c1.809-0.254,3.567-0.583,5.276-0.988
		c0.503-0.102,0.779-0.152,0.83-0.152C56.386,164.954,56.847,165.034,57.538,165.192z M54.878,180.731
		c1.331,0.248,2.125,0.372,2.379,0.372l0.657,3.6c-0.229,0-0.515-0.229-0.857-0.685c-0.971-1.103-1.827-1.978-2.569-2.623
		c-0.343-0.267-0.514-0.457-0.514-0.57c0-0.134,0.048-0.2,0.144-0.2C54.243,180.625,54.497,180.66,54.878,180.731z"/>
	<path d="M45.381,198.964c0.51,0.415,0.764,0.784,0.764,1.106c0,0.064-0.062,0.15-0.185,0.256c-0.139,0.128-0.308,0.341-0.509,0.64
		c-0.832,1.278-1.602,2.312-2.311,3.099c-0.724,0.811-1.439,1.471-2.149,1.981c-0.724,0.49-1.271,0.735-1.641,0.735
		c-0.176,0-0.264-0.021-0.264-0.066c0-0.042,0.027-0.097,0.083-0.162c0.711-0.628,1.401-1.396,2.071-2.307
		c0.795-1.083,1.52-2.284,2.176-3.606c0.404-0.866,0.62-1.57,0.648-2.112c0-0.216,0.055-0.324,0.167-0.324
		C44.418,198.203,44.801,198.457,45.381,198.964z M49.865,197.311c0.596,0.399,0.895,0.752,0.895,1.058
		c0,0.087-0.092,0.218-0.271,0.391c-0.226,0.261-0.418,0.753-0.575,1.478c-0.316,1.68-0.599,2.824-0.847,3.432
		c-0.384,0.897-0.88,1.506-1.488,1.824c-0.385,0.203-0.689,0.305-0.914,0.305l-0.123-2.373c0.204,0,0.383-0.095,0.536-0.284
		c0.383-0.38,0.728-1.083,1.034-2.108c0.23-0.797,0.346-1.48,0.346-2.051c0-0.461-0.276-0.691-0.826-0.691
		c-0.406,0-1.034,0.082-1.885,0.246c-0.966,0.196-1.932,0.459-2.898,0.787c-0.25,0.065-0.434,0.098-0.55,0.098
		c-0.327,0-0.688-0.131-1.086-0.394c-0.397-0.239-0.595-0.43-0.595-0.574c0.07-0.119,0.235-0.179,0.495-0.179
		c0.802-0.028,1.956-0.203,3.461-0.523c1.645-0.291,2.908-0.596,3.792-0.916c0.2-0.059,0.331-0.088,0.392-0.088
		C48.879,196.746,49.248,196.935,49.865,197.311z M64.091,190.667c0.851,0.533,1.276,0.94,1.276,1.219
		c-0.026,0.28-0.426,0.432-1.2,0.457c-2.888,0.065-6.187,0.274-9.899,0.628c-2.1,0.193-4.875,0.563-8.324,1.11
		c-0.675,0.129-1.088,0.193-1.237,0.193c-0.532,0-1.063-0.141-1.594-0.422c-0.633-0.256-0.948-0.498-0.948-0.729
		c0-0.103,0.237-0.204,0.714-0.307c6.917-0.753,12.595-1.461,17.034-2.124c1.553-0.271,2.533-0.407,2.941-0.407
		C62.981,190.286,63.395,190.413,64.091,190.667z M46.791,206.5c0.39,0,0.975,0.155,1.754,0.465c0.674,0.242,1.01,0.535,1.01,0.88
		c0,0.079-0.053,0.178-0.158,0.295c-0.176,0.197-0.264,0.552-0.264,1.063c0,1.508-0.213,2.868-0.641,4.081
		c-0.365,1.177-0.915,2.243-1.647,3.199c-0.671,0.883-1.495,1.6-2.472,2.151c-0.854,0.441-1.403,0.662-1.646,0.662
		c-0.158,0-0.238-0.062-0.238-0.185c0-0.037,0.088-0.129,0.263-0.275c1.048-0.881,1.878-1.798,2.49-2.753
		c0.698-1.027,1.18-2.165,1.442-3.413c0.262-1.138,0.393-2.294,0.393-3.468c0-0.744-0.127-1.265-0.382-1.563
		c-0.255-0.223-0.382-0.427-0.382-0.613C46.313,206.676,46.471,206.5,46.791,206.5z M46.541,203.424l0.123,2.373
		c-0.19,0-0.372-0.2-0.545-0.602c-0.327-0.637-0.785-1.333-1.371-2.088c0-0.082,0.029-0.123,0.088-0.123
		C45.709,203.277,46.277,203.424,46.541,203.424z M58.521,212.261c0.719,0.451,1.08,0.795,1.08,1.031
		c-0.022,0.236-0.361,0.365-1.016,0.387c-1.179,0.021-2.525,0.087-4.04,0.2c-0.857,0.063-1.99,0.181-3.398,0.355
		c-0.275,0.041-0.444,0.062-0.505,0.062c-0.449,0-0.898-0.118-1.348-0.357c-0.535-0.216-0.803-0.421-0.803-0.616
		c0-0.086,0.201-0.172,0.604-0.259c2.902-0.335,5.283-0.649,7.145-0.944c0.652-0.12,1.063-0.181,1.234-0.181
		C57.583,211.938,57.932,212.046,58.521,212.261z M58.1,208.464c0.719,0.451,1.08,0.795,1.08,1.031
		c-0.022,0.236-0.361,0.365-1.016,0.387c-1.096,0.025-2.347,0.107-3.754,0.246c-0.797,0.075-1.85,0.221-3.158,0.436
		c-0.256,0.051-0.412,0.076-0.469,0.076c-0.449,0-0.898-0.118-1.348-0.357c-0.535-0.216-0.803-0.421-0.803-0.616
		c0-0.086,0.201-0.172,0.604-0.259c2.707-0.377,4.928-0.73,6.665-1.063c0.607-0.136,0.991-0.203,1.151-0.203
		C57.161,208.142,57.51,208.249,58.1,208.464z M50.4,194.053c0.479,0.139,0.946,0.3,1.401,0.483
		c0.599,0.275,0.993,0.527,1.186,0.757c0.144,0.2,0.216,0.422,0.216,0.667c0,0.354-0.088,0.752-0.264,1.194
		c-0.206,0.324-0.47,0.486-0.791,0.486c-0.068,0-0.171-0.067-0.307-0.201c-0.227-0.191-0.51-0.594-0.85-1.208
		c-0.453-0.767-0.794-1.283-1.02-1.552c-0.182-0.191-0.272-0.336-0.272-0.432c0-0.176,0.065-0.264,0.198-0.264
		C49.994,193.984,50.161,194.008,50.4,194.053z M52.412,187.855c0.966,0.266,1.689,0.559,2.174,0.878
		c0.425,0.372,0.639,0.877,0.639,1.516c0,0.896-0.369,1.345-1.107,1.345c-0.244,0-0.504-0.127-0.777-0.381
		c-0.52-0.457-1.25-1.423-2.195-2.896c-0.122-0.153-0.184-0.268-0.184-0.344c0.051-0.211,0.165-0.316,0.344-0.316
		C51.645,187.656,52.015,187.723,52.412,187.855z M52.979,197.078c0,0,0.236,0.084,0.711,0.252c0.495,0.23,0.744,0.493,0.744,0.787
		c0,0.095-0.057,0.295-0.17,0.601c-0.158,0.377-0.237,0.789-0.237,1.236v3.958c0,0.553-0.097,1.001-0.288,1.342
		c-0.172,0.362-0.386,0.543-0.643,0.543c-0.214,0-0.416-0.235-0.609-0.705c-0.149-0.385-0.225-0.705-0.225-0.963
		c0-0.302,0.076-0.643,0.229-1.021c0.087-0.505,0.13-1.274,0.13-2.308c0-1.369-0.075-2.289-0.226-2.76
		c-0.15-0.406-0.236-0.609-0.258-0.609c0-0.235,0.107-0.354,0.324-0.354C52.806,197.078,52.979,197.078,52.979,197.078z
		 M56.684,193.857c0.563,0.352,0.844,0.652,0.844,0.9c0,0.066-0.07,0.143-0.207,0.229c-0.219,0.108-0.523,0.36-0.918,0.752
		c-0.611,0.633-1.303,1.244-2.071,1.833c-0.513,0.327-0.819,0.49-0.917,0.49c-0.083,0-0.123-0.041-0.123-0.123
		c0.58-0.998,1.028-1.887,1.348-2.667c0.261-0.65,0.393-1.139,0.393-1.464c0-0.258,0.124-0.387,0.374-0.387
		C55.654,193.422,56.081,193.566,56.684,193.857z M57.932,197.7c0.422,0.269,0.645,0.537,0.665,0.806
		c-0.011,0.109-0.032,0.245-0.063,0.407c-0.074,0.435-0.117,1.614-0.127,3.54c0,0.264,0.065,0.395,0.197,0.395
		c0.123,0,0.85-0.366,2.179-1.1c0.222-0.099,0.351-0.148,0.388-0.148c0.079,0,0.119,0.04,0.119,0.119
		c0,0.127-0.102,0.292-0.303,0.492c-1.493,1.495-2.455,2.488-2.885,2.98c-0.244,0.31-0.453,0.465-0.625,0.465
		c-0.251,0-0.459-0.145-0.625-0.436c-0.23-0.455-0.344-0.818-0.344-1.087c0-0.107,0.052-0.229,0.157-0.362
		c0.075-0.134,0.128-0.402,0.158-0.805c0.075-0.59,0.112-1.569,0.112-2.938c-0.021-0.774-0.13-1.361-0.326-1.759
		c-0.13-0.21-0.206-0.398-0.228-0.565c0-0.23,0.147-0.346,0.442-0.346C57.205,197.359,57.574,197.473,57.932,197.7z M61.57,193.703
		c0.262,0,0.705,0.244,1.327,0.731c0.573,0.442,0.86,0.849,0.86,1.22c0,0.225-0.204,0.402-0.611,0.537
		c-0.743,0.2-1.579,0.503-2.507,0.905c-1.671,0.738-2.673,1.106-3.007,1.106c-0.123,0-0.186-0.067-0.186-0.201
		c0-0.09,0.045-0.146,0.133-0.168c0.797-0.523,1.488-1.092,2.074-1.707c0.479-0.478,0.984-1.184,1.517-2.117
		C61.277,193.806,61.41,193.703,61.57,193.703z M59.647,205.656c0,0,0.302,0.107,0.905,0.32c0.631,0.294,0.947,0.628,0.947,1.002
		c0,0.178-0.048,0.555-0.142,1.131c-0.132,0.709-0.197,1.485-0.197,2.326v7.446c0,0.705-0.122,1.273-0.368,1.708
		c-0.217,0.461-0.489,0.691-0.815,0.691c-0.272,0-0.531-0.3-0.776-0.898c-0.19-0.489-0.285-0.897-0.285-1.225
		c0-0.706,0.059-1.5,0.176-2.382c0.066-1.177,0.101-2.971,0.101-5.383c0-1.742-0.097-2.913-0.287-3.513
		c-0.191-0.517-0.301-0.775-0.328-0.775c0-0.299,0.137-0.449,0.411-0.449C59.428,205.656,59.647,205.656,59.647,205.656z
		 M61.24,197.023c1.679,2.22,2.98,3.666,3.907,4.337c0.781,0.713,2.069,1.487,3.863,2.323c0.289,0.151,0.435,0.261,0.435,0.329
		c0,0.126-0.249,0.251-0.745,0.376c-1.125,0.282-2.117,0.424-2.978,0.424c-0.541,0-0.906-0.098-1.096-0.293
		c-0.162-0.097-1.597-2.319-4.301-6.667c-0.109-0.167-0.162-0.334-0.162-0.502c0.066-0.369,0.266-0.554,0.6-0.554
		C60.938,196.797,61.096,196.873,61.24,197.023z"/>
	<path d="M44.414,228.156c0.244,0,0.505,0.32,0.781,0.96c0.183,0.579,0.275,1.097,0.275,1.554c0,0.531-0.236,1.258-0.709,2.179
		c-0.515,0.957-0.986,1.63-1.416,2.02c-0.344,0.213-0.644,0.319-0.9,0.319c-0.284,0-0.566-0.164-0.85-0.491
		c-0.158-0.268-0.236-0.58-0.236-0.937c0-0.381,0.108-0.692,0.324-0.935c0.607-0.691,1.365-2.092,2.275-4.202
		C44.045,228.313,44.197,228.156,44.414,228.156z M55.623,243.28c0.412,0.306,0.618,0.625,0.618,0.958
		c0,0.177-0.195,0.367-0.585,0.57c-0.335,0.278-0.613,0.558-0.836,0.836c-0.726,0.709-1.533,1.469-2.426,2.279
		c-1.338,1.014-2.703,1.888-4.097,2.623c-1.339,0.633-2.62,1.127-3.847,1.481c-1.115,0.304-1.783,0.456-2.006,0.456
		c-0.229,0-0.344-0.048-0.344-0.143c1.735-0.873,3.037-1.617,3.904-2.232c2.002-1.205,3.703-2.398,5.105-3.579
		c1.2-1.026,2.001-1.847,2.402-2.463c0.333-0.333,0.5-0.667,0.5-1.001c0-0.189,0.109-0.285,0.33-0.285
		C54.811,242.781,55.237,242.947,55.623,243.28z M53.625,240.148c0.381,0.282,0.57,0.577,0.57,0.884
		c0,0.132-0.162,0.272-0.486,0.423c-0.277,0.206-0.51,0.412-0.695,0.619c-0.602,0.525-1.273,1.088-2.016,1.688
		c-1.112,0.751-2.248,1.398-3.406,1.942c-1.112,0.47-2.178,0.835-3.197,1.098c-0.928,0.226-1.483,0.338-1.668,0.338
		c-0.211,0-0.316-0.044-0.316-0.132c1.417-0.663,2.479-1.229,3.188-1.698c1.635-0.918,3.024-1.825,4.17-2.724
		c0.981-0.78,1.635-1.405,1.962-1.874c0.272-0.254,0.408-0.508,0.408-0.762c0-0.176,0.102-0.264,0.305-0.264
		C52.875,239.688,53.269,239.842,53.625,240.148z M53.402,235.444c0.443,0.329,0.666,0.673,0.666,1.03
		c0,0.115-0.152,0.238-0.457,0.368c-0.262,0.181-0.479,0.36-0.654,0.54c-0.566,0.458-1.197,0.948-1.895,1.472
		c-1.045,0.653-2.112,1.218-3.201,1.691c-1.045,0.409-2.047,0.728-3.005,0.956c-0.871,0.197-1.394,0.295-1.567,0.295
		c-0.246,0-0.369-0.051-0.369-0.154c1.273-0.604,2.229-1.119,2.867-1.547c1.471-0.836,2.72-1.662,3.75-2.48
		c0.882-0.712,1.47-1.281,1.764-1.708c0.246-0.23,0.368-0.462,0.368-0.693c0-0.205,0.118-0.308,0.355-0.308
		C52.527,234.906,52.986,235.086,53.402,235.444z M64.543,227.611c0,0,0.486,0.41,1.457,1.229c1.133,0.949,1.7,1.638,1.7,2.063
		c0,0.485-0.449,0.764-1.346,0.836c-1.329,0.194-2.925,0.594-4.784,1.199c-0.145,0-0.216-0.071-0.216-0.215
		c1.195-1.678,1.793-2.674,1.793-2.988c0-0.205-0.236-0.309-0.708-0.309c-3.611,0.069-8.67,0.634-15.176,1.695
		c-0.529,0.068-0.841,0.103-0.934,0.103c-0.753,0-1.305-0.163-1.653-0.489c-0.457-0.353-0.685-0.625-0.685-0.814
		c0-0.19,0.15-0.299,0.453-0.326h1.115c4.802-0.124,10.439-0.702,16.914-1.734c0.775-0.165,1.286-0.248,1.534-0.248
		C64.365,227.611,64.543,227.611,64.543,227.611z M58.677,233.18c0.429,0.187,0.644,0.419,0.644,0.698
		c0,0.181-0.23,0.321-0.689,0.424c-0.531,0.181-1.715,0.412-3.551,0.694c-2.779,0.386-4.592,0.578-5.438,0.578
		c-0.957,0-1.623-0.107-1.997-0.322c-0.373-0.262-0.56-0.488-0.56-0.68c0-0.15,0.336-0.238,1.009-0.263
		c1.585-0.151,3.327-0.401,5.226-0.753c1.321-0.226,2.391-0.464,3.208-0.715c0.288-0.1,0.48-0.15,0.577-0.15
		C57.51,232.691,58.033,232.854,58.677,233.18z M53.302,239.425c1.21,0.95,2.124,2.175,2.744,3.673
		c0.507,1.288,0.761,2.956,0.761,5.003c-0.042,1.517-0.279,2.98-0.713,4.394c-0.373,1.207-0.972,2.208-1.798,3.005
		c-0.352,0.334-0.692,0.501-1.022,0.501c-0.275,0-0.595-0.209-0.961-0.627c-0.572-0.67-1.51-1.632-2.813-2.887
		c0-0.096,0.086-0.143,0.258-0.143c1.335,0.323,2.145,0.485,2.43,0.485c0.737,0,1.285-0.613,1.644-1.841
		c0.497-1.539,0.747-3.197,0.747-4.973c0-1.825-0.404-3.373-1.213-4.644c-0.59-0.964-1.477-1.824-2.658-2.583
		c-0.497-0.287-0.745-0.502-0.745-0.646c0.024-0.095,0.109-0.143,0.257-0.143C51.457,238.317,52.484,238.792,53.302,239.425z
		 M53.51,225.043c0.914,0.385,1.511,0.769,1.789,1.152c0.276,0.43,0.415,0.859,0.415,1.289c0,1.104-0.485,1.656-1.456,1.656
		c-0.49,0-1.138-0.608-1.943-1.826c-0.922-1.358-1.382-2.201-1.382-2.529c0-0.166,0.124-0.261,0.372-0.285
		C51.914,224.5,52.648,224.682,53.51,225.043z M61.219,236.172c0.284,0,0.764,0.265,1.438,0.793c0.622,0.479,0.933,0.919,0.933,1.32
		c0,0.358-0.302,0.644-0.905,0.858c-1.097,0.321-2.331,0.804-3.702,1.447c-2.469,1.179-3.95,1.769-4.442,1.769
		c-0.134,0-0.2-0.072-0.2-0.218c0-0.097,0.047-0.158,0.143-0.183c1.347-0.732,2.515-1.53,3.503-2.392
		c0.809-0.669,1.662-1.657,2.561-2.965C60.724,236.315,60.949,236.172,61.219,236.172z M55.186,241.568c0,0,0.395,0.32,1.185,0.96
		c3.3,2.415,5.573,3.881,6.822,4.396c1.108,0.517,3.218,1.094,6.326,1.734c0.701,0.124,1.052,0.247,1.052,0.371
		c0,0.15-0.2,0.289-0.598,0.417l-2.232,0.771c-1.027,0.386-1.791,0.578-2.291,0.578c-0.54,0-1.156-0.229-1.85-0.687
		c-1.296-0.873-3.054-2.37-5.273-4.492c-1.002-1.039-2.184-2.089-3.543-3.15c-0.258-0.208-0.385-0.384-0.385-0.53
		c0-0.246,0.096-0.369,0.289-0.369C55.02,241.568,55.186,241.568,55.186,241.568z"/>
	<path d="M68.02,274.912c0.95,0.521,1.426,0.991,1.426,1.412c0,0.372-0.657,0.558-1.969,0.558c-1.905-0.047-3.959-0.07-6.159-0.07
		c-2.3,0-5.306,0.143-9.017,0.426c-2.662,0.142-5.503,0.55-8.525,1.224c-0.854,0.213-1.38,0.319-1.576,0.319
		c-0.427,0-1.065-0.186-1.917-0.556c-0.902-0.396-1.353-0.717-1.353-0.964c0-0.297,0.293-0.47,0.879-0.52
		c3.352-0.032,5.809-0.192,7.371-0.482c2.962-0.354,6.216-0.627,9.763-0.82c3.352-0.289,5.923-0.611,7.713-0.966
		c0.748-0.128,1.22-0.192,1.416-0.192C66.244,274.28,66.895,274.491,68.02,274.912z M46.304,268.292
		c1.035,0.454,1.812,0.953,2.329,1.496c0.457,0.636,0.686,1.497,0.686,2.585c0,0.896-0.369,1.345-1.107,1.345
		c-0.267,0-0.549-0.191-0.848-0.573c-0.564-0.688-1.361-2.142-2.391-4.359c-0.133-0.229-0.199-0.401-0.199-0.517
		c0.051-0.211,0.165-0.316,0.344-0.316C45.482,267.952,45.877,268.065,46.304,268.292z M60.451,262.004
		c0.465,0.202,0.697,0.454,0.697,0.756c0,0.194-0.281,0.347-0.844,0.457c-0.652,0.193-2.102,0.442-4.352,0.747
		c-3.404,0.415-5.623,0.622-6.659,0.622c-1.038,0-1.759-0.116-2.163-0.349c-0.406-0.284-0.607-0.529-0.607-0.737
		c0-0.161,0.41-0.256,1.23-0.283c1.936-0.162,4.061-0.432,6.377-0.811c1.612-0.243,2.917-0.499,3.914-0.77
		c0.352-0.107,0.586-0.162,0.703-0.162C59.188,261.475,59.755,261.651,60.451,262.004z M53.199,264.015c0,0,0.41,0.152,1.23,0.456
		c0.77,0.355,1.154,0.748,1.154,1.179c0,0.052-0.076,0.334-0.23,0.847c-0.205,0.976-0.32,2.028-0.346,3.158l-0.154,13.707
		c-0.025,2.618-0.205,4.902-0.539,6.854c-0.307,1.283-0.576,1.925-0.807,1.925c-0.283,0-0.501-0.457-0.654-1.371
		c-0.052-1.547-0.077-3.592-0.077-6.133v-16.824c0-1.073-0.103-1.956-0.308-2.646c-0.103-0.332-0.154-0.537-0.154-0.613
		c0-0.307,0.167-0.485,0.5-0.537C53.071,264.015,53.199,264.015,53.199,264.015z M61.495,265.843c0.271,0,0.778,0.254,1.523,0.763
		c0.813,0.645,1.219,1.085,1.219,1.322c0,0.351-0.162,0.642-0.486,0.875c-1.175,1.107-3.038,2.564-5.591,4.371
		c-0.243,0.176-0.467,0.263-0.668,0.263c-0.096,0-0.144-0.066-0.144-0.2c0-0.049,0.07-0.147,0.211-0.295
		c0.797-1.134,1.476-2.219,2.038-3.254c0.75-1.281,1.265-2.391,1.546-3.327C61.236,266.016,61.354,265.843,61.495,265.843z"/>
	<path d="M50.983,302.792c0.455,0,1.138,0.182,2.048,0.543c0.785,0.282,1.178,0.624,1.178,1.026c0,0.179-0.062,0.403-0.185,0.673
		c-0.206,0.448-0.308,1.255-0.308,2.421c0,2.602-0.461,4.949-1.381,7.042c-0.789,2.03-1.972,3.87-3.549,5.52
		c-1.446,1.523-3.221,2.76-5.324,3.712c-1.84,0.761-3.023,1.142-3.549,1.142c-0.185,0-0.277-0.072-0.277-0.216
		c0-0.063,0.223-0.223,0.667-0.478c2.669-1.529,4.784-3.121,6.34-4.777c1.78-1.783,3.004-3.759,3.672-5.925
		c0.667-1.975,1.001-3.98,1.001-6.02c0-1.384-0.149-2.353-0.446-2.906c-0.297-0.415-0.445-0.796-0.445-1.142
		C50.426,302.997,50.611,302.792,50.983,302.792z M62.77,308.397c0.98,0.615,1.473,1.084,1.473,1.406
		c-0.03,0.322-0.492,0.498-1.385,0.527c-2.697,0.07-5.78,0.3-9.249,0.688c-1.962,0.212-4.554,0.619-7.776,1.22
		c-0.631,0.142-1.018,0.212-1.157,0.212c-0.612,0-1.226-0.162-1.839-0.486c-0.729-0.295-1.094-0.575-1.094-0.841
		c0-0.117,0.274-0.235,0.823-0.354c6.502-0.837,11.839-1.624,16.012-2.36c1.46-0.302,2.382-0.452,2.765-0.452
		C61.49,307.958,61.966,308.104,62.77,308.397z M59.835,300.497c0.5,0.218,0.751,0.489,0.751,0.813c0,0.253-0.297,0.451-0.889,0.595
		c-0.686,0.253-2.214,0.577-4.582,0.973c-3.586,0.541-5.924,0.811-7.015,0.811c-1.117,0-1.894-0.125-2.329-0.376
		c-0.437-0.306-0.654-0.57-0.654-0.793c0-0.207,0.432-0.328,1.297-0.363c2.039-0.207,4.279-0.553,6.721-1.037
		c1.699-0.311,3.074-0.639,4.125-0.984c0.371-0.139,0.618-0.208,0.742-0.208C58.474,299.927,59.085,300.117,59.835,300.497z
		 M53.429,309.896c0,0,0.169,0.343,0.508,1.028c2.82,4.074,5.499,7.011,8.038,8.812c1.128,0.857,2.34,1.586,3.638,2.187l2.708,1.286
		c0.844,0.329,1.266,0.599,1.266,0.808c0,0.24-0.232,0.374-0.695,0.404c-1.081,0.299-2.729,0.449-4.942,0.449
		c-1.339,0-2.291-0.313-2.856-0.937c-0.928-1.04-1.88-2.269-2.857-3.684c-1.339-1.789-2.651-3.912-3.938-6.368
		c-0.721-1.415-1.262-2.352-1.622-2.81c-0.258-0.375-0.386-0.604-0.386-0.687c0.061-0.369,0.271-0.554,0.633-0.554
		C53.26,309.875,53.429,309.896,53.429,309.896z"/>
	<path d="M67.316,336.366c0.95,0.521,1.426,0.991,1.426,1.412c0,0.372-0.657,0.558-1.969,0.558c-1.853-0.047-3.85-0.07-5.988-0.07
		c-2.235,0-5.158,0.132-8.766,0.396c-2.588,0.132-5.35,0.511-8.287,1.136c-0.831,0.198-1.343,0.297-1.533,0.297
		c-0.427,0-1.065-0.186-1.917-0.556c-0.902-0.396-1.353-0.717-1.353-0.964c0-0.297,0.293-0.47,0.879-0.52
		c3.262-0.03,5.653-0.182,7.173-0.455c2.882-0.333,6.05-0.591,9.502-0.773c3.262-0.272,5.763-0.576,7.506-0.91
		c0.728-0.121,1.188-0.182,1.378-0.182C65.541,335.734,66.191,335.945,67.316,336.366z M53.936,338.297
		c0.686,0.302,1.029,0.694,1.029,1.178c-0.146,1.688-0.219,3.242-0.219,4.665c0,5.431-0.146,10.229-0.438,14.395
		c0,1.687-0.146,2.926-0.438,3.717c-0.295,0.697-0.559,1.046-0.795,1.046c-0.264,0-0.573-0.355-0.926-1.067
		c-0.412-0.979-0.617-1.72-0.617-2.224c0-0.218,0.099-0.759,0.296-1.625c0.396-2.095,0.644-4.189,0.741-6.284
		c0.1-2.601,0.148-5.598,0.148-8.993c0-1.753-0.162-3.046-0.488-3.878c-0.208-0.356-0.311-0.609-0.311-0.758
		c0-0.386,0.148-0.595,0.447-0.624C52.934,337.844,53.457,337.995,53.936,338.297z M60.514,346.896
		c0.788,0.229,1.445,0.609,1.971,1.143c0.381,0.589,0.604,1.162,0.668,1.719c0,0.589-0.353,0.883-1.057,0.883
		c-0.256,0-0.561-0.059-0.912-0.176c-1.074-0.561-2.077-1.173-3.01-1.839c-1.587-1.12-3.127-2.03-4.619-2.731
		c-0.211-0.092-0.316-0.214-0.316-0.368c0-0.152,0.105-0.229,0.316-0.229C56.398,345.754,58.719,346.287,60.514,346.896z"/>
</g>
<g>
	<path d="M18.636,149.449l-0.431,1.705c-1.4-0.358-2.468-1.001-3.204-1.93s-1.103-2.064-1.103-3.406
		c0-1.389,0.283-2.518,0.848-3.388s1.384-1.532,2.457-1.986s2.224-0.681,3.454-0.681c1.341,0,2.512,0.256,3.511,0.769
		s1.758,1.242,2.276,2.188s0.778,1.987,0.778,3.125c0,1.288-0.329,2.373-0.984,3.252c-0.657,0.879-1.58,1.49-2.77,1.836
		l-0.395-1.678c0.937-0.299,1.619-0.733,2.047-1.301c0.428-0.569,0.643-1.283,0.643-2.145c0-0.991-0.238-1.818-0.713-2.483
		s-1.111-1.133-1.911-1.401c-0.8-0.271-1.625-0.404-2.474-0.404c-1.096,0-2.052,0.159-2.87,0.479s-1.428,0.815-1.833,1.49
		c-0.404,0.673-0.606,1.402-0.606,2.188c0,0.955,0.275,1.764,0.826,2.426S17.552,149.213,18.636,149.449z"/>
	<path d="M14.119,153.051h12.884v1.582H22.38c0.855,0.738,1.283,1.67,1.283,2.795c0,0.691-0.136,1.292-0.408,1.802
		s-0.649,0.875-1.129,1.094c-0.481,0.221-1.178,0.33-2.092,0.33h-5.915v-1.582h5.915c0.791,0,1.367-0.171,1.727-0.514
		s0.541-0.828,0.541-1.455c0-0.469-0.122-0.909-0.365-1.322s-0.573-0.708-0.989-0.884c-0.416-0.176-0.99-0.264-1.723-0.264h-5.106
		V153.051z"/>
	<path d="M14.119,169.18h1.371c-1.055-0.727-1.582-1.714-1.582-2.962c0-0.551,0.105-1.065,0.316-1.543s0.476-0.832,0.795-1.063
		c0.319-0.232,0.71-0.395,1.173-0.488c0.311-0.064,0.803-0.097,1.477-0.097h5.783v1.582h-5.176c-0.826,0-1.383,0.032-1.67,0.097
		c-0.416,0.1-0.743,0.311-0.98,0.633s-0.356,0.721-0.356,1.195s0.122,0.92,0.365,1.336s0.574,0.71,0.993,0.883
		s1.027,0.26,1.824,0.26h5v1.582h-9.333V169.18z"/>
	<path d="M14.119,173.328h12.884v1.705h-5.291v6.697h5.291v1.705H14.119v-1.705h6.073v-6.697h-6.073V173.328z"/>
	<path d="M18.786,185.484c1.729,0,3.008,0.48,3.84,1.441c0.691,0.803,1.037,1.781,1.037,2.936c0,1.283-0.42,2.332-1.261,3.146
		s-2.002,1.222-3.485,1.222c-1.201,0-2.146-0.181-2.834-0.54c-0.688-0.361-1.223-0.886-1.604-1.574s-0.571-1.439-0.571-2.254
		c0-1.307,0.419-2.363,1.257-3.168C16.002,185.886,17.209,185.484,18.786,185.484z M18.786,187.11c-1.195,0-2.09,0.261-2.685,0.782
		s-0.892,1.178-0.892,1.969c0,0.785,0.299,1.438,0.896,1.96s1.509,0.782,2.733,0.782c1.154,0,2.029-0.263,2.624-0.786
		c0.595-0.525,0.893-1.177,0.893-1.956c0-0.791-0.297-1.447-0.889-1.969C20.875,187.371,19.981,187.11,18.786,187.11z"/>
	<path d="M14.119,201.375h12.884v8.691h-1.52v-6.986h-3.99l-0.001,6.047h-1.52v-6.047h-5.854V201.375z"/>
	<path d="M14.119,212.061h9.333v1.424h-1.414c0.661,0.363,1.098,0.699,1.309,1.008c0.211,0.307,0.316,0.645,0.316,1.014
		c0,0.533-0.17,1.076-0.51,1.627l-1.468-0.545c0.229-0.387,0.343-0.773,0.343-1.16c0-0.346-0.104-0.656-0.312-0.932
		s-0.497-0.473-0.866-0.59c-0.563-0.176-1.178-0.264-1.846-0.264h-4.887V212.061z"/>
	<path d="M18.786,217.484c1.729,0,3.008,0.48,3.84,1.441c0.691,0.803,1.037,1.781,1.037,2.936c0,1.283-0.42,2.332-1.261,3.146
		s-2.002,1.221-3.485,1.221c-1.201,0-2.146-0.18-2.834-0.539c-0.688-0.361-1.223-0.887-1.604-1.574
		c-0.381-0.689-0.571-1.439-0.571-2.254c0-1.307,0.419-2.363,1.257-3.168C16.002,217.887,17.209,217.484,18.786,217.484z
		 M18.786,219.109c-1.195,0-2.09,0.262-2.685,0.783s-0.892,1.178-0.892,1.969c0,0.785,0.299,1.438,0.896,1.959
		s1.509,0.783,2.733,0.783c1.154,0,2.029-0.264,2.624-0.787c0.595-0.525,0.893-1.176,0.893-1.955c0-0.791-0.297-1.447-0.889-1.969
		C20.875,219.371,19.981,219.109,18.786,219.109z"/>
	<path d="M14.119,228.084h9.333v1.416h-1.309c0.457,0.293,0.824,0.682,1.103,1.168s0.417,1.041,0.417,1.662
		c0,0.691-0.144,1.258-0.43,1.701c-0.288,0.441-0.689,0.754-1.205,0.936c1.09,0.738,1.635,1.699,1.635,2.883
		c0,0.926-0.256,1.637-0.769,2.135s-1.303,0.748-2.369,0.748h-6.407v-1.574h5.88c0.633,0,1.088-0.051,1.367-0.152
		c0.278-0.104,0.502-0.289,0.672-0.559s0.255-0.586,0.255-0.949c0-0.656-0.218-1.201-0.654-1.635s-1.135-0.65-2.096-0.65h-5.423
		v-1.582h6.064c0.703,0,1.23-0.129,1.582-0.387s0.527-0.68,0.527-1.266c0-0.445-0.117-0.857-0.352-1.234
		c-0.234-0.379-0.577-0.652-1.028-0.822c-0.451-0.17-1.102-0.256-1.951-0.256h-4.843V228.084z"/>
	<path d="M14.119,248.229h12.884v2.566l-9.123,3.049c-0.85,0.281-1.485,0.486-1.907,0.615c0.469,0.146,1.157,0.375,2.065,0.686
		l8.964,3.086v2.293H14.119v-1.643h10.784l-10.784-3.744v-1.539l10.968-3.727H14.119V248.229z"/>
	<path d="M14.119,263.082h9.333v1.582h-9.333V263.082z M25.185,263.082h1.818v1.582h-1.818V263.082z"/>
	<path d="M14.119,267.072h9.333v1.424h-1.326c1.024,0.686,1.537,1.676,1.537,2.971c0,0.563-0.101,1.08-0.303,1.553
		c-0.202,0.471-0.468,0.824-0.795,1.059c-0.329,0.234-0.719,0.398-1.17,0.492c-0.292,0.059-0.805,0.088-1.538,0.088h-5.739v-1.582
		h5.678c0.645,0,1.126-0.063,1.446-0.186s0.574-0.342,0.765-0.654c0.19-0.314,0.285-0.682,0.285-1.104
		c0-0.674-0.214-1.256-0.641-1.744c-0.428-0.49-1.24-0.734-2.435-0.734h-5.098V267.072z"/>
	<path d="M13.345,276.793l-0.229,1.537c-0.475,0.064-0.82,0.244-1.037,0.537c-0.293,0.393-0.439,0.928-0.439,1.607
		c0,0.732,0.146,1.299,0.439,1.697s0.703,0.668,1.23,0.809c0.322,0.082,0.999,0.119,2.03,0.113
		c-0.814-0.691-1.222-1.553-1.222-2.584c0-1.283,0.463-2.275,1.389-2.979s2.036-1.055,3.331-1.055c0.891,0,1.712,0.16,2.465,0.482
		s1.334,0.789,1.744,1.402c0.41,0.611,0.615,1.332,0.615,2.158c0,1.102-0.445,2.01-1.336,2.725h1.125v1.459h-8.068
		c-1.453,0-2.483-0.148-3.089-0.443c-0.606-0.297-1.085-0.766-1.437-1.406c-0.352-0.643-0.527-1.432-0.527-2.369
		c0-1.113,0.25-2.014,0.751-2.699S12.337,276.77,13.345,276.793z M18.953,278.102c-1.225,0-2.118,0.244-2.681,0.73
		s-0.844,1.096-0.844,1.828c0,0.727,0.28,1.336,0.839,1.828s1.437,0.738,2.632,0.738c1.143,0,2.004-0.254,2.583-0.76
		c0.58-0.508,0.871-1.119,0.871-1.834c0-0.703-0.286-1.301-0.857-1.793S20.078,278.102,18.953,278.102z"/>
	<path d="M14.119,292.297h12.884v4.438c0,1.002-0.061,1.768-0.184,2.295c-0.171,0.738-0.479,1.367-0.924,1.889
		c-0.574,0.68-1.308,1.188-2.201,1.525c-0.894,0.336-1.915,0.506-3.063,0.506c-0.979,0-1.846-0.115-2.602-0.344
		s-1.381-0.521-1.876-0.879s-0.885-0.748-1.169-1.172c-0.284-0.426-0.5-0.939-0.646-1.539c-0.146-0.602-0.22-1.291-0.22-2.07
		V292.297z M15.639,294.002v2.75c0,0.85,0.079,1.518,0.237,2c0.158,0.484,0.381,0.869,0.668,1.156
		c0.404,0.404,0.948,0.719,1.63,0.945c0.683,0.225,1.51,0.338,2.483,0.338c1.347,0,2.383-0.223,3.107-0.664
		c0.724-0.443,1.209-0.98,1.455-1.613c0.176-0.457,0.264-1.191,0.264-2.205v-2.707H15.639z"/>
	<path d="M10.524,305.023l1.485-0.176c-0.094,0.346-0.141,0.648-0.141,0.906c0,0.352,0.059,0.633,0.176,0.844
		s0.281,0.383,0.492,0.518c0.158,0.1,0.551,0.262,1.178,0.484c0.088,0.029,0.217,0.076,0.387,0.141l9.351-3.543v1.705l-5.405,1.943
		c-0.686,0.252-1.406,0.477-2.162,0.676c0.727,0.182,1.436,0.398,2.127,0.65l5.44,1.996v1.582l-9.492-3.551
		c-1.025-0.381-1.731-0.678-2.118-0.889c-0.521-0.281-0.904-0.604-1.147-0.967s-0.365-0.797-0.365-1.301
		C10.331,305.738,10.395,305.398,10.524,305.023z"/>
	<path d="M14.119,314.094h9.333v1.424h-1.326c1.024,0.686,1.537,1.676,1.537,2.971c0,0.563-0.101,1.08-0.303,1.553
		c-0.202,0.471-0.468,0.824-0.795,1.059c-0.329,0.234-0.719,0.398-1.17,0.492c-0.292,0.059-0.805,0.088-1.538,0.088h-5.739v-1.582
		h5.678c0.645,0,1.126-0.063,1.446-0.186s0.574-0.342,0.765-0.654c0.19-0.314,0.285-0.682,0.285-1.104
		c0-0.674-0.214-1.256-0.641-1.744c-0.428-0.49-1.24-0.734-2.435-0.734h-5.098V314.094z"/>
	<path d="M15.27,330.195c-0.498-0.586-0.85-1.15-1.055-1.691c-0.205-0.543-0.308-1.125-0.308-1.746c0-1.025,0.25-1.813,0.751-2.363
		s1.141-0.826,1.92-0.826c0.457,0,0.875,0.104,1.252,0.313c0.378,0.207,0.681,0.479,0.91,0.816c0.229,0.336,0.401,0.717,0.519,1.139
		c0.082,0.311,0.161,0.779,0.237,1.406c0.152,1.277,0.334,2.217,0.545,2.82c0.217,0.006,0.354,0.01,0.413,0.01
		c0.645,0,1.098-0.15,1.362-0.449c0.357-0.404,0.537-1.004,0.537-1.801c0-0.744-0.131-1.295-0.392-1.648
		c-0.261-0.355-0.722-0.617-1.384-0.787l0.211-1.547c0.662,0.141,1.197,0.373,1.604,0.695s0.721,0.787,0.94,1.396
		s0.329,1.316,0.329,2.119c0,0.797-0.094,1.443-0.281,1.941s-0.423,0.865-0.707,1.1s-0.644,0.398-1.077,0.492
		c-0.27,0.053-0.755,0.078-1.458,0.078H18.03c-1.471,0-2.401,0.033-2.791,0.102c-0.39,0.066-0.763,0.201-1.121,0.4v-1.652
		C14.447,330.348,14.831,330.242,15.27,330.195z M18.803,330.063c-0.234-0.574-0.434-1.436-0.598-2.584
		c-0.094-0.65-0.199-1.109-0.316-1.379s-0.289-0.479-0.514-0.625s-0.476-0.219-0.751-0.219c-0.422,0-0.773,0.158-1.055,0.479
		c-0.281,0.318-0.422,0.787-0.422,1.402c0,0.609,0.133,1.15,0.4,1.625s0.631,0.824,1.094,1.047c0.357,0.17,0.885,0.254,1.582,0.254
		H18.803z"/>
	<path d="M16.905,333.482l0.246,1.564c-0.627,0.088-1.107,0.332-1.441,0.734c-0.334,0.4-0.501,0.963-0.501,1.684
		c0,0.727,0.148,1.266,0.444,1.617s0.643,0.527,1.042,0.527c0.357,0,0.639-0.156,0.844-0.467c0.141-0.217,0.319-0.756,0.536-1.617
		c0.293-1.16,0.546-1.963,0.76-2.412c0.214-0.447,0.51-0.789,0.888-1.02c0.378-0.232,0.795-0.348,1.252-0.348
		c0.416,0,0.801,0.096,1.156,0.287c0.354,0.189,0.648,0.449,0.883,0.777c0.182,0.246,0.336,0.58,0.462,1.006
		c0.126,0.424,0.188,0.881,0.188,1.367c0,0.732-0.105,1.375-0.316,1.93c-0.211,0.553-0.496,0.961-0.856,1.225
		s-0.843,0.445-1.446,0.545l-0.211-1.547c0.48-0.07,0.855-0.273,1.125-0.609c0.27-0.338,0.404-0.814,0.404-1.43
		c0-0.727-0.12-1.244-0.359-1.555c-0.241-0.311-0.522-0.467-0.844-0.467c-0.205,0-0.39,0.064-0.554,0.193
		c-0.17,0.129-0.311,0.332-0.422,0.607c-0.059,0.158-0.193,0.623-0.404,1.396c-0.299,1.119-0.543,1.9-0.734,2.344
		c-0.19,0.441-0.467,0.789-0.831,1.041s-0.814,0.377-1.354,0.377c-0.527,0-1.024-0.152-1.49-0.461
		c-0.466-0.307-0.826-0.752-1.081-1.332s-0.382-1.236-0.382-1.969c0-1.213,0.252-2.137,0.756-2.771
		C15.167,334.064,15.915,333.658,16.905,333.482z"/>
	<path d="M15.534,346.57l-1.397,0.229c-0.094-0.445-0.141-0.844-0.141-1.195c0-0.574,0.091-1.02,0.272-1.336s0.42-0.539,0.716-0.668
		s0.918-0.193,1.868-0.193h5.37v-1.16h1.23v1.16h2.313l0.949,1.572h-3.262v1.592h-1.23v-1.592h-5.458
		c-0.451,0-0.741,0.027-0.87,0.084c-0.129,0.055-0.231,0.146-0.308,0.273c-0.076,0.125-0.114,0.305-0.114,0.539
		C15.472,346.051,15.493,346.283,15.534,346.57z"/>
	<path d="M10.524,348.045l1.485-0.176c-0.094,0.346-0.141,0.648-0.141,0.906c0,0.352,0.059,0.633,0.176,0.844
		s0.281,0.383,0.492,0.518c0.158,0.1,0.551,0.262,1.178,0.484c0.088,0.029,0.217,0.076,0.387,0.141l9.351-3.543v1.705l-5.405,1.943
		c-0.686,0.252-1.406,0.477-2.162,0.676c0.727,0.182,1.436,0.398,2.127,0.65l5.44,1.996v1.582l-9.492-3.551
		c-1.025-0.381-1.731-0.678-2.118-0.889c-0.521-0.281-0.904-0.604-1.147-0.967s-0.365-0.797-0.365-1.301
		C10.331,348.76,10.395,348.42,10.524,348.045z"/>
</g>
<g>
</g>
<g>
</g>
<g>
</g>
<g>
</g>
<g>
</g>
<g>
</g>
</svg>
