<?xml version="1.0" encoding="utf-8"?>
<!-- Generator: Adobe Illustrator 16.0.0, SVG Export Plug-In . SVG Version: 6.00 Build 0)  -->
<!DOCTYPE svg PUBLIC "-//W3C//DTD SVG 1.1//EN" "http://www.w3.org/Graphics/SVG/1.1/DTD/svg11.dtd">
<svg version="1.1" id="_x3C_圖層_x3E_" xmlns="http://www.w3.org/2000/svg" xmlns:xlink="http://www.w3.org/1999/xlink" x="0px"
	 y="0px" width="80.604px" height="389.035px" viewBox="0 0 80.604 389.035" enable-background="new 0 0 80.604 389.035"
	 xml:space="preserve">
<g>
	<g>
		<circle fill="#7D0000" cx="40.301" cy="40.303" r="40.301"/>
		<g>
			<path fill="#FFFFFF" d="M26.484,14.643H14.646v11.846h11.838V14.643z M22.536,22.536h-3.948v-3.94h3.948V22.536z"/>
			<path fill="#FFFFFF" d="M54.12,14.643v11.846h11.839V14.643H54.12z M62.011,22.536h-3.944v-3.94h3.944V22.536z"/>
			<path fill="#FFFFFF" d="M54.12,65.963h11.839V54.119H54.12V65.963z M58.066,58.074h3.943v3.943h-3.943V58.074z"/>
			<path fill="#FFFFFF" d="M14.646,65.963h11.838V54.119H14.646V65.963z M18.588,58.074h3.948v3.943h-3.948V58.074z"/>
			<polygon fill="#FFFFFF" points="46.216,62.017 42.274,62.017 42.274,18.596 46.216,18.596 46.216,26.489 50.166,26.489
				50.166,14.643 30.433,14.643 30.433,26.489 34.381,26.489 34.381,18.596 38.326,18.596 38.326,62.017 34.381,62.017
				34.381,54.119 30.433,54.119 30.433,65.963 50.166,65.963 50.166,54.119 46.216,54.119 			"/>
			<polygon fill="#FFFFFF" points="34.381,30.435 14.646,30.435 14.646,42.273 26.484,42.273 26.484,38.329 18.592,38.329
				18.592,34.387 30.433,34.387 30.433,46.227 14.646,46.227 14.646,50.175 34.381,50.175 			"/>
			<polygon fill="#FFFFFF" points="54.114,38.329 54.114,42.273 65.954,42.273 65.954,30.435 46.216,30.435 46.216,50.175
				65.954,50.175 65.954,46.227 50.166,46.227 50.166,34.387 62.005,34.387 62.005,38.329 			"/>
		</g>
	</g>
</g>
<g>
	<path d="M50.741,105.539c-0.422,0.492-0.668,0.82-0.738,0.984l-2.25,4.43l-2.461,2.777l-0.422,0.633l-0.352,0.598l0.211,0.246
		l2.074,0.563l0.422,0.211c0.164,0.07,0.281,0.152,0.352,0.246c0.07,0.164,0.059,0.281-0.035,0.352l-0.422,0.246l-0.527,1.758
		l-0.422,5.52l-0.105,3.27l0.211,2.531l0.176,0.668c0.07,0.234,0.07,0.422,0,0.563c-0.398,0.328-0.902,0.492-1.512,0.492
		l-0.949-0.105l-0.105-0.387l0.316-1.301l-0.176-10.055c0-0.469-0.105-0.855-0.316-1.16c-0.281-0.398-0.586-0.691-0.914-0.879
		l-2.145,2.25c-0.445,0.352-0.914,0.58-1.406,0.686s-1.113,0.158-1.863,0.158l-0.141-0.105l3.234-4.078l2.566-3.691l2.32-4.043
		l1.758-4.008l0.773-2.004c0.633,0.188,1.219,0.457,1.758,0.809l1.547,1.195L50.741,105.539z M62.167,102.902l-0.246,0.527
		c-0.094,0.117-0.152,0.205-0.176,0.264s-0.047,0.111-0.07,0.158l0.809,0.422l1.934,0.703c0.188,0.141,0.668,0.264,1.441,0.369
		s1.23,0.357,1.371,0.756l-0.281,0.527l-4.957,4.957v0.141l2.988,2.355l7.207,3.762l2.355,1.617l0.246,0.352
		c0.094,0.117,0.117,0.246,0.07,0.387l-0.422,0.105l-3.902-0.316l-4.359-0.527l-0.141-0.141l-0.211-1.934
		c-0.188-0.516-0.48-0.938-0.879-1.266c-0.281-0.281-0.703-0.563-1.266-0.844l-3.094-1.723h-0.457l-6.469,5.977l-0.738,0.352
		c-0.328,0.164-0.609,0.246-0.844,0.246l-0.352-0.035l-0.281,0.316l-0.141,2.602l-2.004,1.09c-0.422-0.258-0.633-0.457-0.633-0.598
		l0.176-0.809l0.457-8.613l-0.457-2.813c0.023-0.328,0.223-0.492,0.598-0.492l0.563,0.07l1.758,0.738l0.316,0.316l4.957-6.75
		l1.406-2.883v-0.387l0.07-0.633c0.07-0.188,0.176-0.281,0.316-0.281l0.773,0.105l0.773,0.316l1.617,1.195
		C62.038,102.633,62.096,102.738,62.167,102.902z M66.034,126c0,0.164-0.064,0.322-0.193,0.475s-0.275,0.275-0.439,0.369
		l-1.934,0.879l-2.391,1.582l-1.617,1.406c-0.141,0.141-0.246,0.434-0.316,0.879s-0.281,0.703-0.633,0.773l-3.34,0.949l-3.305,0.598
		l-1.371,0.176c-0.258,0-0.445-0.105-0.563-0.316l6.434-3.375l1.16-1.055l2.461-1.688l2.32-2.004l1.371-1.547l0.316-0.387
		c0.047-0.07,0.1-0.117,0.158-0.141s0.111-0.047,0.158-0.07l0.563,0.211l0.984,1.934C65.905,125.695,65.964,125.813,66.034,126z
		 M57.456,111.832l-0.773-0.422l-0.738,0.316l-0.527,0.07l-0.668-0.105c-0.211,0.047-0.416,0.152-0.615,0.316
		s-0.463,0.48-0.791,0.949l-0.527,0.035l-0.316,0.035l-0.773-0.141l-0.176,1.617l0.176,1.934l-0.176,2.145l0.457-0.105l2.637-2.145
		l3.551-3.867L57.456,111.832z M62.413,117.035c0.188,0.281,0.281,0.551,0.281,0.809l-4.254,2.355l-3.129,1.406l-0.668,0.035
		c-0.281-0.047-0.457-0.105-0.527-0.176l3.691-3.094l2.777-2.883c0.047-0.047,0.152-0.105,0.316-0.176
		c0.141,0,0.316,0.105,0.527,0.316l0.633,0.809L62.413,117.035z M64.452,121.816v0.422l-3.762,1.617l-2.039,1.09l-1.934,1.301
		c-0.352,0.047-0.645,0-0.879-0.141l-0.668-0.633l3.656-2.918l4.219-3.234l0.422,0.211l0.844,1.863L64.452,121.816z M61.182,105.715
		l-0.141-0.035l-0.914,0.105l-2.566,2.672v0.316l2.426,1.441l1.406-1.934l0.281-0.703l0.035-0.352l0.035-0.914L61.182,105.715z"/>
	<path d="M59.952,138.479l-3.973,2.637c-0.047,0.117-0.199,0.246-0.457,0.387c-0.234,0.188-0.316,0.387-0.246,0.598h1.16
		l3.762-0.949l3.199-0.352l2.25,0.914c0.07,0.258-0.035,0.527-0.316,0.809c-0.164,0.164-0.27,0.287-0.316,0.369
		s-0.094,0.158-0.141,0.229l-0.246,0.703l-0.352,6.645v0.457h0.352l2.883-3.305c0.047-0.07,0.1-0.117,0.158-0.141
		s0.111-0.047,0.158-0.07l0.422-0.105c0.445,0.234,0.803,0.545,1.072,0.932s0.486,0.826,0.65,1.318
		c-0.023,0.117-0.094,0.199-0.211,0.246l-0.457,0.176l-2.883,3.129l-0.211,0.492l-1.934,1.617l-0.422,2.813l0.105,7.77l0.633,5.168
		c-0.188,0.258-0.387,0.387-0.598,0.387c-0.141,0-0.34-0.064-0.598-0.193s-0.469-0.193-0.633-0.193l-3.551-0.949l-1.934-0.668
		l-2.461-1.758l-2.039-1.863v-0.176l4.43,1.09l0.914,0.105l1.09,0.07c0.375,0,0.738-0.07,1.09-0.211
		c0.328-0.188,0.527-0.457,0.598-0.809l0.105-0.914l-0.07-6.645c0-0.258-0.176-0.387-0.527-0.387l-0.422,0.07l-1.969,1.371
		l-2.426,1.934l-0.387,0.105l-2.18,2.215c-0.047,0.07-0.07,0.316-0.07,0.738s-0.164,0.668-0.492,0.738l-3.234,1.301l-3.973,1.266
		l-1.617,0.141c-0.07-0.047-0.328-0.105-0.773-0.176c-0.422-0.117-0.668-0.258-0.738-0.422l3.094-1.934l6.715-3.41l3.656-2.813
		l3.551-3.199h-0.457l-6.258,2.039l-2.039,0.457l-3.094,1.336l-0.527,0.563c-0.352-0.141-0.703-0.422-1.055-0.844l-0.809-1.09
		l1.934-0.773l2.496-1.16l2.285-0.738v-2.461l-0.246-5.098l0.211-1.934c0.047-0.188-0.059-0.398-0.316-0.633l-2.813,1.16
		l-1.055,0.703c-0.281-0.141-0.457-0.34-0.527-0.598l-0.246-1.125c0-0.211,0.105-0.316,0.316-0.316l0.563-0.035l2.145-1.863
		l6.117-6.504l0.844-0.738c0.328-0.258,0.656-0.41,0.984-0.457l0.668,0.422l1.934,1.934L59.952,138.479z M59.495,143.612
		l-0.668,0.035l-0.844-0.141l-0.598-0.141l-0.844,0.246c-0.328,0.117-0.773,0.363-1.336,0.738l-0.633,0.703
		c-0.047,0.047-0.105,0.352-0.176,0.914l4.922-0.422c0.094,0.281,0.176,0.445,0.246,0.492s0.141,0.152,0.211,0.316l-0.105,0.563
		l-0.387,0.563l-0.457,0.316c-0.609,0.328-1.02,0.516-1.23,0.563s-0.527,0.07-0.949,0.07l-0.844,0.141l-1.23,0.598l-0.352,0.563
		c-0.047,0.07-0.07,0.293-0.07,0.668l0.352,0.07l4.957-1.371l0.703,0.211l0.035,0.527l-0.141,0.492
		c-0.117,0.141-0.211,0.34-0.281,0.598l-2.496,0.949l-0.984,0.598l-1.898,0.563l-0.211,0.281l-0.105,0.598l0.105,0.211
		c0.07,0.094,0.129,0.27,0.176,0.527c0.352-0.164,0.609-0.246,0.773-0.246l0.738-0.246l3.656-0.879
		c0.07-0.023,0.258-0.094,0.563-0.211c0.094-0.023,0.211-0.07,0.352-0.141l0.563-0.809l0.07-6.047l-0.246-1.934l-0.457-0.773
		L59.495,143.612z"/>
	<path d="M51.022,195.188c-0.375,0.07-0.563,0.246-0.563,0.527l0.035,0.492l-0.105,0.457l-1.758,4.711l-0.949,1.617
		c0.117,0.141,0.357,0.281,0.721,0.422s0.545,0.293,0.545,0.457l-0.738,2.883l-0.844,5.063l-1.441,1.617l-2.004,1.582l-2.145,1.055
		l-0.352-0.105l0.527-1.02l1.969-2.25l1.477-1.863l0.879-2.039l0.176-2.145l-0.176-2.355l0.176-0.422l0.316-0.633
		c-0.023-0.211-0.105-0.363-0.246-0.457l-2.602-2.461h-0.457l-1.055,1.723l-0.879,0.527l-2.426,0.598h-0.387v-0.281l2.18-1.652
		l1.301-1.371l0.703-1.688l-0.316-0.141l-0.809,0.105l-0.563-0.668c-0.117-0.234-0.176-0.504-0.176-0.809l5.027-1.547l2.25-0.176
		l0.844,0.176l-0.141-0.492l-0.035-0.387l0.105-0.352l1.266-0.141l1.723-0.809l0.527-0.316c0.164-0.094,0.34-0.141,0.527-0.141
		l-0.105,0.457L51.022,195.188z M67.581,191.004v0.633h-0.879l-3.867-0.633l-3.621-0.246l-4.641,0.105l-4.008,0.527l-2.566,0.633
		l-3.34,1.16l-2.777,1.301l-0.527,0.141l-0.457-0.563l-0.633-2.426l0.035-0.246l0.281-0.316l1.16,0.316l2.391-0.387l8.578-1.934
		l5.836-0.281l3.129-0.176l1.898-0.352l0.914-0.352c0.445-0.258,0.785-0.387,1.02-0.387c0.305,0,0.527,0.258,0.668,0.773
		L67.581,191.004z M46.628,196.207l-0.352,0.352l-0.633,0.633l-1.125,2.18l0.527,0.281l0.809,0.035l0.387-0.352l0.352-0.246
		c0.305-0.164,0.563-0.469,0.773-0.914c0.258-0.398,0.387-0.738,0.387-1.02l0.035-0.492
		C47.085,196.523,46.698,196.371,46.628,196.207z M59.178,208.477l-0.105,0.773l-0.422,0.281l-4.746,0.457l-2.672,0.773
		l-0.527,0.281l-0.492,0.105c-0.188,0-0.316-0.07-0.387-0.211l-0.07-0.703l-0.07-0.984l0.035-0.527l0.352-0.141l2.109-0.176
		l2.883-0.457l1.758-0.141h2.004C59.061,207.973,59.178,208.195,59.178,208.477z M64.241,193.746l-2.004,0.809
		c-0.844,0.516-1.406,0.961-1.688,1.336l4.465,3.234l2.109,0.984l4.078,1.406l2.039,1.055l0.141,0.105l-2.074,0.492l-3.516,0.141
		l-2.777-0.316c-0.094-0.117-0.141-0.363-0.141-0.738c0-0.234-0.035-0.387-0.105-0.457l-0.527-1.055l-1.828-1.688l-0.352-0.141
		c-0.164-0.117-0.305-0.152-0.422-0.105l-2.813,3.129l-0.633,0.633c-0.258,0.281-0.398,0.48-0.422,0.598
		c0.492,0.258,0.773,0.598,0.844,1.02l0.035,0.844l-0.246,0.316l-2.25,0.211l-5.801,1.301l-0.352-1.125l-0.176-1.195l0.422-0.141
		l2.355-0.141l3.902-0.703h0.387c0.188,0,0.316-0.035,0.387-0.105l-0.773-0.633c-0.234-0.305-0.387-0.574-0.457-0.809l-0.176-2.461
		l-0.141-2.109l0.984-0.563l2.426-2.813l0.633-0.773c0.305-0.328,0.457-0.598,0.457-0.809l0.281-0.105l0.563,0.176
		c0.961,0,1.969,0.293,3.023,0.879L64.241,193.746z M55.346,185.906l0.738,0.633c0.281,0.281,0.422,0.504,0.422,0.668l-0.527,0.422
		l-2.32-0.105l-2.426-0.527c-0.281-0.141-0.422-0.387-0.422-0.738l0.07-0.809l0.598-1.934l0.281-0.598
		c0.164-0.398,0.352-0.668,0.563-0.809c0.516,0,0.879,0.27,1.09,0.809l0.527,1.371L55.346,185.906z M58.089,193.254l-3.199,1.617
		l-0.246,0.387l-0.105,6.574l-0.141,0.563c-0.094,0.258-0.211,0.422-0.352,0.492c-0.539-0.07-0.984-0.176-1.336-0.316
		s-0.633-0.387-0.844-0.738l0.457-1.828l0.176-4.887c0.141-0.047,0.422-0.07,0.844-0.07l1.195-1.301l1.195-1.723
		c0.375,0.023,0.75,0.141,1.125,0.352l1.055,0.563L58.089,193.254z M60.409,198l-0.668-0.352l-0.914-0.211l-0.527,0.281
		l-0.773,0.211l-0.176,2.18l0.176,0.281l0.773,0.035l0.844-0.352l1.758-1.582L60.409,198z M62.518,204.539l-0.105,3.832l0.07,5.309
		l0.352,4.324l-2.602-1.336l-0.703-0.492c-0.258-0.164-0.387-0.352-0.387-0.563c0.117-0.469,0.246-0.844,0.387-1.125l0.492-1.09
		l0.352-2.742l-0.035-3.164l-0.422-4.324c0.07-0.211,0.188-0.316,0.352-0.316l0.527,0.07l0.809,0.281
		c0.539,0.188,0.914,0.434,1.125,0.738L62.518,204.539z"/>
	<path d="M43.991,232.418c0,0.773,0.152,1.5,0.457,2.18c0.047,0.234,0.023,0.422-0.07,0.563s-0.27,0.27-0.527,0.387l-0.633,0.211
		l-0.879,0.035l-1.125-0.07l-1.23-0.316l-0.316-0.316l1.406-1.793l2.777-2.883c0.164-0.023,0.316,0.117,0.457,0.422
		C44.096,231.328,43.991,231.855,43.991,232.418z M57.878,231.188c-0.07,0.539-0.258,0.844-0.563,0.914l-0.422,0.035l-2.988,2.25
		l-1.055,0.563c-0.727,0.445-1.055,0.961-0.984,1.547l1.582,2.18l0.246,0.563c0.117,0.141,0.281,0.199,0.492,0.176l4.43-3.938
		c0.234-0.094,0.422-0.469,0.563-1.125c0.07-0.258,0.188-0.387,0.352-0.387l0.387,0.105l2.109,1.16
		c0.352,0.141,0.457,0.387,0.316,0.738l-4.043,2.707l-0.598,0.563c-0.188,0.188-0.246,0.387-0.176,0.598l4.184,3.551l2.355,1.723
		l7.629,2.742l0.633,0.422c0.094,0.117,0.141,0.246,0.141,0.387c-0.141,0.211-0.352,0.352-0.633,0.422l-0.984,0.246l-5.027,0.07
		l-3.691-0.211l-0.422-0.492l-0.773-2.145l-0.844-1.406l-1.477-1.301l-2.461-1.547l-0.352-0.07c-0.281,0-0.457,0.105-0.527,0.316
		l-0.316,4.324l-0.527,3.41l-1.09,3.586c-0.023,0.141-0.176,0.258-0.457,0.352l-0.527-0.035l-3.551-1.688l-2.426-1.863l-0.984-0.984
		l-1.195,0.668l-2.145,0.281c-0.305,0-0.527-0.012-0.668-0.035s-0.352-0.07-0.633-0.141v-0.316l2.707-1.23l2.039-1.406l3.445-3.094
		l1.828-2.074l0.352-0.598c0.094-0.164,0.141-0.352,0.141-0.563l-0.316-0.316l-3.094,2.25l-2.039,1.617
		c-0.164,0.445-0.492,0.809-0.984,1.09l-1.371,0.633l-1.195,0.035c-0.516,0-0.973-0.117-1.371-0.352
		c0.047-0.258,0.141-0.445,0.281-0.563l0.949-0.633l2.496-1.477l2.285-1.969l2.109-1.934l0.246-0.527l0.141-0.563
		c-0.047-0.234-0.129-0.41-0.246-0.527h-0.211l-1.617,1.828c-0.211,0.633-0.832,1.055-1.863,1.266
		c-0.656,0.164-1.102,0.316-1.336,0.457l-0.598,0.07l-0.598,0.07c-0.305-0.047-0.527-0.129-0.668-0.246l0.176-0.387l4.008-3.375
		l1.406-1.582c0-0.305-0.176-0.703-0.527-1.195s-0.527-0.844-0.527-1.055c0-0.234,0.141-0.457,0.422-0.668l1.266-0.105l4.781-2.25
		l2.461-0.668l0.809-0.105l0.914-0.141l0.492,0.035l0.141,0.352L57.878,231.188z M62.483,225.686c0.68,0.34,1.254,0.768,1.723,1.283
		l2.074,2.32l1.688,2.637c0.07,0.164,0.035,0.305-0.105,0.422l-0.352,0.281l-2.918,0.141l-3.199-0.316l-2.391-0.527
		c-0.023-0.07-0.094-0.129-0.211-0.176l-0.105-0.211l1.969-0.633c0.445-0.141,0.844-0.41,1.195-0.809s0.527-0.797,0.527-1.195
		c0-0.563-0.094-0.996-0.281-1.301c-0.258-0.445-0.598-0.762-1.02-0.949l-0.738-0.246l-2.039,0.105l-5.836,1.969l-5.59,1.688
		l-0.492,0.211c-0.211,0.117-0.357,0.193-0.439,0.229s-0.17,0.064-0.264,0.088c-0.164-0.047-0.293-0.105-0.387-0.176l-0.07-0.316
		c0.047-0.258,0.129-0.516,0.246-0.773l0.598-0.387l5.801-2.496l3.586-1.195l2.637-0.457l2.109,0.035
		C61.042,225.094,61.803,225.346,62.483,225.686z M52.341,244.582c-0.035-0.07-0.076-0.129-0.123-0.176l-0.211,0.035l-0.281-0.07
		l-2.707,2.18l-1.688,2.004l-0.773,0.457c0.188,0.141,0.293,0.316,0.316,0.527c0.07,0.211,0.328,0.352,0.773,0.422l2.883,0.07
		l0.738-0.281l0.598-0.563l0.527-1.652l0.105-0.668l-0.035-1.969C52.417,244.758,52.376,244.652,52.341,244.582z M55.874,220.676
		c0.656,0.68,0.984,1.406,0.984,2.18c0.047,0.234-0.012,0.422-0.176,0.563s-0.422,0.211-0.773,0.211l-4.816-0.316l-0.668-0.914
		l0.105-2.742l0.422-1.09c0.234-0.375,0.539-0.598,0.914-0.668l1.934,1.336C54.667,219.656,55.358,220.137,55.874,220.676z"/>
	<path d="M63.749,268.909l-3.199,0.844l-1.09,0.211c-0.258,0.07-0.48,0.176-0.668,0.316l-0.492,2.18v0.949
		c0.094,0.047,0.223,0.07,0.387,0.07h0.457c0,0.164-0.07,0.352-0.211,0.563l-0.668,0.844l-0.105,0.668l-0.07,0.879
		c0,0.352,0.07,0.633,0.211,0.844l2.25-2.566l1.934-2.391c0.188-0.094,0.352-0.281,0.492-0.563c0.258-0.422,0.48-0.668,0.668-0.738
		l2.355,1.512v0.457l-3.094,2.883l-3.199,3.41l-0.387,0.387l0.316,0.316l2.637-0.105l7.418-0.668l2.004,3.094
		c0.117,0.211,0.176,0.504,0.176,0.879l-0.035,0.984l-0.316,0.316l-1.969-0.738l-1.934-0.281h-7.418l-1.336,0.246
		c-0.492,0.094-0.785,0.316-0.879,0.668l-0.281,2.25v8.684l0.07,3.094c-0.234,0.328-0.533,0.568-0.896,0.721
		s-0.803,0.229-1.318,0.229l-0.738-0.07c-0.023-0.164,0.012-0.352,0.105-0.563l0.211-0.422l0.141-2.215l-0.457-10.969l-0.211-0.457
		c-0.07-0.141-0.176-0.176-0.316-0.105l-1.828,0.563l-6.434,0.422l-2.25,0.633c-0.398,0.188-0.797,0.445-1.195,0.773l-0.633,0.633
		H41.53l-1.195-2.25c-0.07-0.281-0.035-0.492,0.105-0.633l3.727-0.949l4.957-0.984l3.656-1.406l1.266-0.176
		c0.328-0.117,0.586-0.27,0.773-0.457v-3.375l-0.211-0.176l-2.25,1.09l-2.109,2.039l-0.598,0.527
		c-0.164,0.117-0.34,0.141-0.527,0.07c-1.453-0.938-2.18-2.227-2.18-3.867c-0.047-0.141,0-0.281,0.141-0.422l0.141-0.211
		l2.215-0.105l1.828-0.316l3.129-1.055l0.422-0.527l-0.422-3.094l-0.492-0.105l-1.336,0.281l-1.688,0.984
		c-0.305,0.305-0.68,0.457-1.125,0.457l-0.492-0.07l-1.547-4.184c0.07-0.211,0.211-0.316,0.422-0.316l0.879-0.105l4.113-0.422
		l5.484-1.16l4.711-0.773c0.281,0.234,0.469,0.668,0.563,1.301l0.387,1.266C64.135,268.757,63.96,268.909,63.749,268.909z"/>
	<path d="M55.135,312.926l-0.105,0.809c-0.094,0.094-0.094,0.176,0,0.246l0.281,0.211l3.234-0.949l2.074-0.457l0.668-0.352
		c0.398-0.234,0.703-0.352,0.914-0.352c0.258,0.047,0.445,0.141,0.563,0.281l0.281,0.527l1.441,1.758l0.246,0.633
		c0.164,0.305,0.211,0.563,0.141,0.773c-0.094,0.164-0.193,0.27-0.299,0.316s-0.252,0.07-0.439,0.07l-0.633-0.07l-0.738-0.105
		l-2.531,0.105l-2.109,0.633c-0.492,0.328-0.967,0.586-1.424,0.773s-0.955,0.316-1.494,0.387c-0.117,0.117-0.176,0.27-0.176,0.457
		c0.047,0.188,0.129,0.375,0.246,0.563c0.211,0.281,0.34,0.469,0.387,0.563s0.105,0.223,0.176,0.387l4.395,4.676l2.004,1.547
		l1.371,0.773l4.43,1.793l5.484,2.602l0.176,0.316l-0.773,0.527l-3.27,0.563l-3.34-0.246l-2.496-0.527l-2.18-0.668l-1.723-0.281
		c-0.211-0.141-0.316-0.352-0.316-0.633l0.035-0.527l-0.105-0.457l-0.633-2.074c-0.141-0.422-0.363-0.82-0.668-1.195l-0.879-1.23
		l-2.461-1.441c-0.281-0.07-0.539-0.199-0.773-0.387l-1.16-0.879l-0.527,0.105l-2.25,1.793l-0.949,1.406l-2.25,1.652l-1.09,0.527
		l-1.652,1.723c-0.188,0.094-0.281,0.211-0.281,0.352v0.492l-2.461,0.176c-0.375-0.047-0.762-0.164-1.16-0.352
		c-0.54-0.305-0.973-0.527-1.301-0.668c-0.118-0.047-0.281-0.117-0.492-0.211l-0.105-0.457l0.352-0.176l2.145-0.141l1.898-0.563
		l3.48-2.109l1.617-1.441l1.688-2.707l1.195-2.777l-0.316-0.316l-2.883,0.457l-0.633,0.246c-0.516,0.328-0.855,0.492-1.02,0.492
		c-0.258,0-0.457-0.176-0.598-0.527c-0.023-0.211-0.305-0.668-0.844-1.371c-0.258-0.281-0.387-0.574-0.387-0.879l0.316-0.316
		l2.777-0.563l4.113-0.563l0.352-0.387l0.07-0.844l0.07-1.125l-0.141-0.949l0.176-0.316l2.953,0.316
		C55.03,312.48,55.135,312.668,55.135,312.926z M61.253,307.055c-0.117,0.188-0.258,0.316-0.422,0.387l-1.828,1.055l-2.039,1.512
		l-1.02,0.527c-0.352,0.188-0.656,0.293-0.914,0.316h-2.461l-0.492-0.07h-0.563l-0.914,0.141c-0.305,0.117-0.527,0.246-0.668,0.387
		h-0.316l-0.316-0.141l-0.422-0.703l-1.195-2.777v-0.738c0.023-0.305,0.07-0.504,0.141-0.598L53.624,306l2.566-0.527l1.266-0.492
		l3.059-0.668c0.328,0.094,0.527,0.229,0.598,0.404s0.105,0.451,0.105,0.826c0,0.281,0.012,0.48,0.035,0.598
		s0.059,0.223,0.105,0.316C61.405,306.668,61.37,306.867,61.253,307.055z"/>
	<path d="M70.745,342.421l0.422,2.18c-0.141,0.422-0.328,0.633-0.563,0.633h-0.316l-2.145-1.09l-4.289-0.387l-5.027,0.598
		l-1.195,0.879c-0.445,0.398-0.703,0.82-0.773,1.266l-0.316,6.68l-0.176,4.113l-0.246,3.551l-0.07,3.199l-0.141,3.551l-0.141,0.457
		c-0.023,0.164-0.129,0.287-0.316,0.369s-0.563,0.123-1.125,0.123s-0.996,0.152-1.301,0.457l-0.105-0.387
		c0.047-0.234,0.141-0.422,0.281-0.563l0.141-6.363l-0.141-1.652l0.141-4.43l-0.141-4.043l0.141-3.867
		c0.07-0.352-0.07-0.68-0.422-0.984c-0.211-0.188-0.398-0.375-0.563-0.563c-0.047-0.047-0.105-0.117-0.176-0.211l-2.848,0.457
		l-4.113,0.211l-1.371,0.422c-0.539,0.258-0.891,0.563-1.055,0.914l-0.879,0.492l-0.809-3.34c-0.047-0.094-0.07-0.281-0.07-0.563
		l-0.07-0.598l1.09-0.211c0.633-0.117,1.09-0.258,1.371-0.422l3.727-0.316l9.211-1.863l4.57-0.703h3.375l4.746-0.035l0.773-0.176
		c0.188,0.023,0.316,0.117,0.387,0.281l0.07,0.879L70.745,342.421z M66.983,352.124c0,0.164,0.105,0.381,0.316,0.65
		s0.316,0.463,0.316,0.58c-0.047,0.188-0.105,0.328-0.176,0.422c-0.141,0.188-0.305,0.293-0.492,0.316l-0.703,0.141l-2.602-0.176
		l-2.355-0.703l-0.527,0.141c-0.305-0.141-0.504-0.305-0.598-0.492s-0.141-0.434-0.141-0.738l0.105-0.914l0.105-0.844l1.02-2.391
		l0.387-0.211l0.352-0.141c0.188,0.047,0.305,0.105,0.352,0.176l1.195,1.688L66.983,352.124z"/>
</g>
<g>
	<path d="M17.814,125.131c-1.113-0.295-2.834-0.777-3.548-1.092c-0.105-0.672-0.588-2.646-0.588-4.221
		c0-5.501,3.527-7.853,6.698-7.832c4.2,0,7.076,3.527,7.076,8.273c0,2.057-0.462,3.38-0.588,3.968
		c-1.05,0.168-2.058,0.272-3.255,0.399l-0.063-0.357c2.436-0.588,3.381-2.016,3.381-4.745c0-4.157-2.751-6.026-6.026-6.026
		c-4.073,0-6.719,2.436-6.719,6.152c0,2.918,1.575,4.115,3.737,5.123L17.814,125.131z"/>
	<path d="M14.286,125.973c0.084,1.281,0.399,1.512,1.701,1.512h9.868c1.323,0,1.407-0.126,1.68-1.574h0.231
		c0.168,0.944,0.482,2.016,0.713,2.582h-7.139c0.883,0.84,1.617,2.037,1.617,3.275c0,1.617-1.05,2.813-3.464,2.813h-3.506
		c-1.323,0-1.617,0.231-1.701,1.512h-0.294v-4.115h0.294c0.084,1.407,0.399,1.596,1.827,1.596h2.876
		c1.974,0,3.023-0.588,3.023-2.583c-0.063-0.986-0.482-1.91-1.217-2.498h-4.683c-1.428,0-1.743,0.21-1.827,1.658h-0.294v-4.156
		L14.286,125.973z"/>
	<path d="M17.373,139.518c-2.1,0-2.646,1.008-2.646,2.184c0,0.84,0.42,1.848,1.302,2.729h4.619c1.239,0,1.323-0.293,1.47-1.049
		l0.126-0.799h0.231c0.021,0.903,0.23,2.331,0.377,2.855h-6.844c-1.05,0-1.155,0.231-1.218,1.051l-0.042,0.629h-0.294
		c-0.105-0.86-0.42-1.764-0.714-2.582l0.105-0.105h1.617c-0.399-0.545-0.861-1.07-1.239-1.805c-0.357-0.609-0.462-1.051-0.462-1.596
		c0-1.26,0.651-2.52,2.981-2.52h3.885c1.238,0,1.344-0.315,1.469-0.756l0.147-0.672h0.21c0.042,0.482,0.294,2.036,0.398,2.498
		c-0.42-0.063-1.154-0.063-2.729-0.063H17.373z"/>
	<path d="M21.257,155.582v8.86h3.486c1.637,0,1.952-0.168,2.1-1.974h0.293v5.081h-0.293c-0.147-1.848-0.463-2.016-2.1-2.016h-8.357
		c-1.659,0-1.974,0.168-2.1,1.952h-0.294v-5.186h0.294c0.126,1.974,0.441,2.142,2.1,2.142h4.22v-8.86h-4.22
		c-1.659,0-1.974,0.189-2.1,2.037h-0.294v-5.061h0.294c0.126,1.764,0.441,1.932,2.1,1.932h8.357c1.637,0,1.952-0.168,2.1-2.016
		h0.293v5.039h-0.293c-0.147-1.742-0.463-1.932-2.1-1.932H21.257z"/>
	<path d="M18.528,178.449c-3.17,0-4.766-2.604-4.766-4.619c0-2.771,2.1-4.661,4.388-4.661c3.402,0,4.808,2.855,4.808,4.619
		C22.958,176.434,20.964,178.449,18.528,178.449z M18.843,170.492c-2.688,0-4.598,1.406-4.598,3.632
		c0,1.764,1.134,3.044,3.968,3.044c2.037,0,4.241-1.238,4.241-3.568C22.454,171.668,20.942,170.492,18.843,170.492z"/>
	<path d="M14.286,184.541c0.084,1.764,0.441,1.932,1.974,1.932h8.608c1.533,0,1.891-0.168,1.975-1.932h0.293v8.923
		c-1.133,0-2.225,0.104-3.232,0.188l-0.043-0.377c2.227-0.399,2.771-0.945,2.771-3.359v-1.764c0-0.547-0.041-0.588-0.588-0.588
		h-5.102v2.414c0,1.974,0.189,2.142,1.596,2.498v0.357h-4.073v-0.357c1.638-0.356,1.89-0.524,1.89-2.498v-2.414H16.26
		c-1.533,0-1.869,0.188-1.974,2.309h-0.294v-5.332H14.286z"/>
	<path d="M14.286,195.082c0.084,1.281,0.378,1.49,1.701,1.49h4.115c1.533,0,1.658-0.146,1.806-1.448h0.252
		c0.168,0.86,0.42,1.7,0.882,2.456H20.48v0.043c1.134,0.504,2.478,1.637,2.478,2.666c0,0.63-0.546,1.029-0.882,1.029
		c-0.399,0-0.776-0.42-0.776-0.735c0-0.084,0.021-0.147,0.104-0.188c0.294-0.315,0.44-0.483,0.44-0.883
		c0-0.566-0.944-1.385-2.477-1.932h-3.422c-1.302,0-1.575,0.189-1.659,1.869h-0.294v-4.367H14.286z"/>
	<path d="M18.528,211.629c-3.17,0-4.766-2.604-4.766-4.619c0-2.771,2.1-4.661,4.388-4.661c3.402,0,4.808,2.855,4.808,4.619
		C22.958,209.613,20.964,211.629,18.528,211.629z M18.843,203.672c-2.688,0-4.598,1.406-4.598,3.632
		c0,1.764,1.134,3.044,3.968,3.044c2.037,0,4.241-1.238,4.241-3.568C22.454,204.848,20.942,203.672,18.843,203.672z"/>
	<path d="M14.286,212.89c0.105,1.512,0.399,1.784,1.722,1.784h4.136c1.407,0,1.491-0.084,1.743-1.385h0.272
		c0.188,0.881,0.399,1.742,0.882,2.414h-1.701c1.512,2.162,1.617,2.729,1.617,3.338c0,0.777-0.588,1.785-1.701,2.205
		c1.639,2.457,1.701,3.065,1.701,3.485c0,1.532-1.07,2.54-2.541,2.54h-4.304c-1.533,0-1.743,0.211-1.827,1.471h-0.294v-4.263h0.294
		c0.084,1.47,0.357,1.784,1.869,1.784h3.275c1.322,0,2.604-0.336,2.604-2.184c-0.042-0.881-0.588-1.826-1.218-2.666
		c-0.294,0.021-0.525,0.063-0.651,0.063h-4.052c-1.428,0-1.743,0.231-1.827,1.471h-0.294v-4.305h0.294
		c0.084,1.574,0.399,1.826,1.827,1.826h3.401c1.365,0,2.52-0.398,2.52-2.225c0-0.987-0.734-1.891-1.238-2.563h-4.683
		c-1.428,0-1.743,0.211-1.827,1.365h-0.294v-4.157H14.286z"/>
	<path d="M14.286,234.184c0.105,1.974,0.462,2.121,2.079,2.121h8.23c1.806,0,2.163-0.168,2.247-1.911h0.293v9.134
		c-0.734,0-1.973,0.104-3.212,0.188l-0.063-0.356c2.143-0.441,2.771-0.84,2.771-3.381v-1.974c0-0.567-0.041-0.588-0.588-0.588
		h-4.912v2.456c0,1.659,0.209,2.059,1.616,2.373v0.357h-3.905v-0.357c1.617-0.336,1.701-0.777,1.701-2.373v-2.456h-4.094
		c-1.974,0-1.974,0.86-1.974,2.604c0,1.28,0.021,2.54,0.798,3.212c0.399,0.336,1.134,0.861,2.079,1.176v0.357
		c-0.777-0.189-2.646-0.588-3.359-0.756v-9.826H14.286z"/>
	<path d="M14.286,245.713c0.105,1.512,0.399,1.785,1.722,1.785h4.136c1.407,0,1.491-0.084,1.743-1.387h0.272
		c0.188,0.883,0.399,1.743,0.882,2.415h-1.701c1.512,2.163,1.617,2.729,1.617,3.339c0,0.776-0.588,1.784-1.701,2.204
		c1.639,2.456,1.701,3.065,1.701,3.485c0,1.533-1.07,2.541-2.541,2.541h-4.304c-1.533,0-1.743,0.209-1.827,1.469h-0.294v-4.262
		h0.294c0.084,1.47,0.357,1.785,1.869,1.785h3.275c1.322,0,2.604-0.336,2.604-2.184c-0.042-0.883-0.588-1.827-1.218-2.667
		c-0.294,0.021-0.525,0.063-0.651,0.063h-4.052c-1.428,0-1.743,0.23-1.827,1.469h-0.294v-4.304h0.294
		c0.084,1.575,0.399,1.827,1.827,1.827h3.401c1.365,0,2.52-0.399,2.52-2.227c0-0.986-0.734-1.889-1.238-2.561h-4.683
		c-1.428,0-1.743,0.209-1.827,1.364h-0.294v-4.157H14.286z"/>
	<path d="M9.163,262.449c0.084,1.218,0.357,1.574,1.722,1.574h9.448c1.407,0,1.47-0.084,1.701-1.469h0.273
		c0.104,0.672,0.482,1.784,0.86,2.477h-1.512l1.092,2.52c0.126,0.336,0.21,0.588,0.21,0.84c0,2.373-1.806,3.759-3.611,3.759
		c-3.17,0-5.165-2.562-5.585-5.731c0.042-0.609,0.273-1.155,0.462-1.387h-3.065c-1.638,0-1.911,0.295-1.995,2.1H8.911v-4.682H9.163z
		 M15.672,265.031c-0.546,0.463-0.945,1.303-0.945,2.373c0,1.806,1.239,3.549,3.842,3.549c1.995,0,3.527-1.113,3.527-3.359
		c0-0.799-0.461-1.911-0.965-2.563H15.672z"/>
	<path d="M15.588,280.97c-1.428-1.239-1.827-2.667-1.827-3.149c0-2.478,1.974-4.01,4.199-4.01c3.087,0,4.997,2.52,4.997,4.22
		c0,1.806-1.47,3.107-2.96,3.107c-0.42,0-0.483-0.021-0.546-0.356s-0.294-3.023-0.378-5.922c-3.191-0.021-4.325,1.891-4.325,3.339
		c0,0.714,0.147,1.47,1.155,2.54L15.588,280.97z M19.745,274.986c0,0.482,0.042,3.443,0.063,4.346c0,0.525,0.21,0.525,0.336,0.525
		c1.176,0,2.226-0.883,2.226-2.395C22.37,276.414,21.446,275.301,19.745,274.986z"/>
	<path d="M14.286,282.378c0.084,1.28,0.378,1.491,1.701,1.491h4.115c1.533,0,1.658-0.147,1.806-1.449h0.252
		c0.168,0.861,0.42,1.701,0.882,2.457H20.48v0.041c1.134,0.504,2.478,1.639,2.478,2.667c0,0.63-0.546,1.028-0.882,1.028
		c-0.399,0-0.776-0.42-0.776-0.734c0-0.084,0.021-0.146,0.104-0.189c0.294-0.314,0.44-0.482,0.44-0.881
		c0-0.567-0.944-1.387-2.477-1.932h-3.422c-1.302,0-1.575,0.188-1.659,1.868h-0.294v-4.367H14.286z"/>
	<path d="M18.528,298.924c-3.17,0-4.766-2.604-4.766-4.619c0-2.771,2.1-4.661,4.388-4.661c3.402,0,4.808,2.855,4.808,4.619
		C22.958,296.908,20.964,298.924,18.528,298.924z M18.843,290.967c-2.688,0-4.598,1.406-4.598,3.632
		c0,1.764,1.134,3.044,3.968,3.044c2.037,0,4.241-1.238,4.241-3.568C22.454,292.143,20.942,290.967,18.843,290.967z"/>
	<path d="M14.286,300.479c0.084,1.28,0.378,1.491,1.701,1.491h4.115c1.533,0,1.658-0.147,1.806-1.449h0.252
		c0.168,0.861,0.42,1.701,0.882,2.457H20.48v0.041c1.134,0.504,2.478,1.639,2.478,2.667c0,0.63-0.546,1.028-0.882,1.028
		c-0.399,0-0.776-0.42-0.776-0.734c0-0.084,0.021-0.146,0.104-0.189c0.294-0.314,0.44-0.482,0.44-0.881
		c0-0.567-0.944-1.387-2.477-1.932h-3.422c-1.302,0-1.575,0.188-1.659,1.868h-0.294v-4.367H14.286z"/>
	<path d="M27.135,312.428v2.666l-11.127,5.543l11.127,5.564v3.023h-0.293c-0.189-1.953-0.399-2.142-2.499-2.058l-7.454,0.147
		c-2.163,0.063-2.436,0.146-2.604,2.12h-0.294v-5.144h0.294c0.147,1.848,0.42,1.91,2.604,1.889l8.818-0.084v-0.084l-11.484-5.689
		v-0.189l10.771-5.164v-0.043l-5.669-0.272c-0.987-0.063-1.701-0.084-2.268-0.084c-2.016,0-2.583,0.21-2.771,2.163h-0.294v-5.061
		h0.294c0.105,1.302,0.462,1.742,1.302,1.91c0.63,0.147,1.89,0.315,4.052,0.463l3.843,0.293c0.566,0.021,1.028,0.043,1.406,0.043
		c1.49,0,1.764-0.357,1.953-1.953H27.135z"/>
	<path d="M14.286,330.678c0.105,1.344,0.378,1.553,1.596,1.553h4.367c1.343,0,1.449-0.146,1.659-1.344h0.272
		c0.189,0.883,0.42,1.555,0.84,2.352h-7.138c-1.218,0-1.491,0.211-1.596,1.575h-0.294v-4.136H14.286z M26.759,333.554
		c-0.441,0-0.84-0.356-0.84-0.798c0-0.42,0.398-0.798,0.84-0.798c0.504,0,0.881,0.378,0.881,0.798
		C27.639,333.238,27.199,333.554,26.759,333.554z"/>
	<path d="M14.286,335.738c0.084,1.217,0.399,1.553,1.659,1.553h4.22c1.407,0,1.491-0.146,1.722-1.322h0.272
		c0.21,0.84,0.399,1.68,0.882,2.33H21.3c0.252,0.42,0.629,0.945,1.07,1.596c0.357,0.588,0.588,1.113,0.588,1.701
		c0,1.742-1.07,2.729-2.729,2.729H16.05c-1.47,0-1.68,0.188-1.764,1.364h-0.294v-4.052h0.294c0.084,1.428,0.378,1.68,1.764,1.68
		h3.443c1.197,0,2.541-0.336,2.541-2.268c0-1.028-0.63-2.1-1.281-2.751h-4.724c-1.344,0-1.659,0.211-1.743,1.659h-0.294v-4.22
		H14.286z"/>
	<path d="M21.76,353.293c-0.44,0.42-1.154,0.714-1.784,0.714c-2.205,0-3.254-1.974-3.254-3.464c0-0.211,0.021-0.441,0.063-0.756
		c-0.189-0.525-0.63-1.219-1.071-1.219c-0.399,0-0.777,0.483-0.777,1.303c0,0.881,0.084,1.7,0.084,2.498
		c0,1.449-0.42,2.939-2.352,2.939c-1.911,0-4.01-2.289-4.01-5.039c0-2.31,1.344-3.569,2.688-3.569c0.525,0,0.903,0.21,1.218,0.42
		c0.483,0.42,1.155,1.386,1.533,1.848c0.189-0.86,0.924-1.827,1.806-1.743c0.189,0.651,0.756,1.639,1.092,1.953
		c0.315-0.945,1.323-1.91,2.541-1.91c2.856,0,4.22,3.17,2.897,5.27c0.084,1.07,0.189,1.89,0.357,2.813l-0.168,0.126
		c-0.273-0.252-0.734-0.65-0.861-0.945V353.293z M11.788,347.896c-1.323,0-2.394,1.219-2.394,2.982c0,2.372,1.302,3.464,2.771,3.464
		c0.672,0,1.26-0.336,1.554-0.882c0.336-0.588,0.357-1.302,0.357-2.457C14.076,348.002,12.145,347.896,11.788,347.896z
		 M20.144,348.568c-1.953,0-3.002,0.967-3.002,2.268c0,0.945,0.672,1.891,2.457,1.891c1.89,0,2.961-0.756,2.961-2.184
		C22.538,349.388,21.719,348.568,20.144,348.568z"/>
</g>
</svg>