<?xml version="1.0" encoding="utf-8"?>
<!-- Generator: Adobe Illustrator 16.0.0, SVG Export Plug-In . SVG Version: 6.00 Build 0)  -->
<!DOCTYPE svg PUBLIC "-//W3C//DTD SVG 1.1//EN" "http://www.w3.org/Graphics/SVG/1.1/DTD/svg11.dtd">
<svg version="1.1" id="圖層_1" xmlns="http://www.w3.org/2000/svg" xmlns:xlink="http://www.w3.org/1999/xlink" x="0px" y="0px"
	 width="462.131px" height="98.504px" viewBox="0 0 462.131 98.504" enable-background="new 0 0 462.131 98.504"
	 xml:space="preserve">
<g>
	<g>
		<g>
			<g>
				<path d="M151.053,22.656c-0.168-0.355-1.117-1.337-1.637-1.697c-0.088-0.089-0.261-0.18-0.436-0.184
					c-0.695-0.362-1.743-0.731-2.184-0.651c-0.088-0.001-0.176-0.003-0.263-0.005c-0.44-0.008-0.527-0.009-1.142-0.02
					c-0.701-0.013-0.275,0.785-0.275,0.785s0.682,1.064,1.117,1.335c0.088,0.002,0.175,0.092,0.261,0.182
					c0.254,0.442,0.505,1.237,1.022,1.772c0.256,0.355,0.863,0.719,1.387,0.99c0.436,0.183,0.785,0.275,1.222,0.372
					c1.048,0.28,0.45-0.694,0.637-1.306C151.036,23.621,151.135,23.008,151.053,22.656z"/>
				<path d="M159.988,18.686c-0.609-0.272-0.689-0.714-1.124-1.071c-0.432-0.359-0.875-0.104-1.306-0.55
					c-0.433-0.447-1.214-0.811-1.39-0.814c-0.264-0.004-0.88,0.16-1.938,0.316c-1.055,0.07-3.079,0.387-4.392,0.275
					c-0.176-0.003-0.44-0.008-0.79-0.014c-0.79-0.014-1.671,0.059-2.46,0.132c-0.616,0.077-1.145,0.156-1.406,0.151
					c-0.177-0.003-0.354-0.006-0.53,0.078c-0.528,0.079-1.144,0.156-1.846,0.231c-1.495,0.237-3.169,0.472-3.169,0.472
					s-0.262-0.005-0.615,0.076c-0.351-0.006-0.88,0.073-1.406,0.151c-0.967,0.071-2.11,0.228-3.698,0.638
					c-1.586,0.411-3.961,0.633-4.842,0.881c-0.793,0.162-0.891,0.688-0.891,0.688s-0.877-0.104-1.314-0.111
					c-0.525-0.01-0.269,0.346-0.278,0.873c-0.011,0.614,0.33,1.234,0.832,2.646c0.501,1.414,0.629,4.137,0.78,5.633
					c0.059,1.58,0.097,4.389-0.03,6.668c-0.126,2.281-0.141,8.074-0.145,8.248c-0.003,0.177-0.284,1.225-0.208,1.928
					c0.075,0.791,0.047,2.371,0.027,3.512c-0.02,1.14-0.216,2.19,0.285,3.691c0.5,1.5,1.45,2.395,1.979,2.316
					c0.529-0.168,0.551-1.396,0.551-1.396s1.576,0.291,2.628,0.311c1.054,0.018,1.67-0.146,2.461-0.221
					c0.616-0.076,1.586-0.322,2.645-0.656c0.354-0.082,0.793-0.16,1.145-0.243c0.616-0.076,1.585-0.235,2.64-0.304
					c0.614-0.078,1.231-0.156,1.845-0.145c0.616-0.076,1.32-0.152,1.936-0.229c0.263,0.004,0.529-0.078,0.704-0.076
					c0.351,0.007,1.055-0.07,1.758-0.145c1.667-0.059,3.689-0.199,4.479-0.186c1.141-0.066,2.289-0.486,2.647-0.83
					c0.443-0.258,0.187-0.611-0.767-1.332c-0.868-0.629-1.836-0.382-2.893-0.225c-0.969,0.158-2.376,0.311-3.432,0.467
					c-0.087-0.002-0.178,0.084-0.178,0.084c-1.055,0.158-1.843,0.055-1.843,0.055s0.008-0.438,0.369-1.133
					c0.276-0.697,0.998-1.738,1.729-3.394c0.731-1.655,1.449-2.608,1.449-2.608c0.772,0.98,1.971,2.756,2.665,3.119
					c0.786,0.277,3.128,1.985,3.128,1.985s0.435,0.183,0.424,0.798c-0.013,0.701-0.022,1.315,0.142,1.932
					c0.074,0.705-0.018,1.055-0.197,1.227c-0.18,0.26-0.269,0.258-0.367,0.871c-0.095,0.525-0.194,1.137,0.506,1.238
					c0.698,0.188,1.203,1.426,1.897,1.875c0.694,0.539,0.878,0.016,1.176-1.91c0.297-2.013,0.164-4.473,0.187-5.789
					c-0.063-1.23-0.211-2.9,0.062-3.509c0.187-0.61-0.152-1.232,0.032-1.843c0.102-0.7-0.224-2.197-0.205-3.252
					c-0.069-1.055,0.035-2.018-0.047-2.371c-0.08-0.439,0.099-0.611,0.025-1.402c-0.075-0.791,0.465-1.572,0.212-2.104
					c-0.255-0.531-0.138-2.197-0.036-2.984c0.191-0.873,0.113-1.402,0.205-1.664c0.091-0.262,0.097-0.611,0.025-1.404
					c-0.074-0.791-0.071-0.967-0.063-1.492c0.009-0.527,0.011-0.615,0.02-1.141c0.099-0.613,0.026-1.492-0.043-2.547
					c-0.07-0.967,0.303-2.364,0.303-2.364s-0.07-0.879,0.286-1.224C160.768,19.313,160.597,19.048,159.988,18.686z M147.382,41.988
					c0,0-0.655,2.27-1.298,3.928c-0.273,0.609-0.459,1.045-0.639,1.393c-0.546,1.043-0.729,1.48-0.912,2.002
					c-0.184,0.438-0.293,1.576-0.293,1.576l-0.176,0.084l-0.177,0.086c0,0-0.704,0.074-1.67,0.146
					c-1.232,0.153-2.813,0.302-3.781,0.372c-1.756,0.059-3.253,0.295-4.22,0.453c-0.97,0.16-1.316-0.021-1.939,0.494
					c-0.624,0.516-0.89,0.598-1.235,0.416c-0.261-0.268-0.081-0.439,0.013-0.789c0.005-0.264,0.186-0.611,0.11-1.314
					c-0.074-0.704-0.237-1.496-0.237-1.496s1.046,0.368,1.65,0.906c0.606,0.537,2.01,0.561,2.453,0.395
					c0.353-0.172,1.504-0.765,2.036-1.019c0.264-0.083,0.799-0.601,1.423-1.117c0.537-0.604,1.16-1.12,1.607-1.551
					c0.801-0.688,1.6-1.202,2.223-1.63c0.177-0.084,0.355-0.256,0.533-0.341c0.441-0.169,0.885-0.511,1.33-0.854
					c0.356-0.258,0.799-0.514,1.24-0.682c0.354-0.08,0.53-0.164,0.709-0.338c0.269-0.346,0.364-0.783,0.282-1.137
					c0.004-0.174-0.081-0.352-0.255-0.441c-0.435-0.271-1.137-0.283-1.756-0.031c-0.086-0.002-0.175-0.004-0.177,0.084
					c-0.707,0.34-1.429,1.467-1.87,1.635c-0.002,0.088-0.09,0.086-0.09,0.086c-0.529,0.079-2.483,1.449-3.458,2.047
					c-0.089-0.002-0.178,0.086-0.266,0.084c-0.976,0.596-1.954,1.281-2.572,1.533c-0.796,0.338-1.774,1.111-2.654,1.184
					c-0.792,0.162-1.231,0.24-1.847,0.23c-0.701-0.014-0.693-0.451-0.693-0.451s-0.027-3.511-0.094-4.652
					c0.019-1.053,0.02-1.141-0.062-1.582c0.008-0.438,0.104-0.875,0.108-1.137c0.09-0.176-0.007-1.879-0.134-2.373
					c-0.063-0.238-0.029-0.793,0.044-1c0.181-0.348-0.05-0.471-0.041-0.998c0.01-0.526,0.128-0.547,0.054-1.249
					c-0.074-0.792-0.062-1.493,0.036-2.106s0.113-1.488,0.113-1.488s0.033-1.932,0.06-3.424c0.115-1.49,0.395-2.451,0.236-3.506
					c-0.158-0.969-0.587-1.502-0.667-1.943c-0.083-0.352-0.6-0.801-0.6-0.801s0.094-0.437,0.531-0.429
					c0.441,0.007,1.837,0.471,2.631,0.221c0.882-0.247,1.406-0.15,2.021-0.228c0.531-0.166,2.112-0.314,2.465-0.396
					s0.086,0.177,0.519,0.535c0.347,0.181,0.689,0.714,0.943,1.245c0.169,0.355,0.339,0.797,0.335,0.971
					c0.164,0.619,0.423,0.887,0.423,0.887s0.859,1.068,1.026,1.597c0.164,0.529,0.16,0.794-0.461,1.134
					c-0.265,0.082-0.795,0.25-1.411,0.414c-1.058,0.333-2.381,0.66-2.999,0.912c-0.975,0.424-1.758,0.147-2.46,0.135
					c-0.701-0.012-1.141-0.109-1.402-0.113c-0.266,0.084-0.881,0.16-0.881,0.16s0.767,1.33,1.287,1.689
					c0.607,0.361,1.474,1.078,1.823,1.085c0.44-0.079,0.353,0.006,0.353,0.006s1.37,1.868,1.342,3.534
					c-0.03,1.756-0.604,4.467-1.059,5.337c-0.452,0.78-0.455,0.956-1.245,0.942c-0.879-0.015-0.873-0.365-1.227-0.107
					c-0.356,0.256-0.628,0.777-0.559,1.832c0.069,1.056,0.603,0.713,0.857,1.07c0.258,0.354,0.781,0.537,1.131,0.633
					c0.351,0.094,0.609,0.273,1.674-0.322c0.443-0.344,1.775-1.197,3.11-2.227c1.245-0.945,2.493-1.977,3.118-2.58
					c0.267-0.258,0.445-0.432,0.713-0.689c0.712-0.603,1.337-1.205,1.873-1.723c0.359-0.432,0.716-0.689,0.805-0.864
					c0.184-0.437,0.186-0.522,0.186-0.522s0.509,0.975,0.936,1.684c0.084,0.176,0.171,0.266,0.257,0.357
					c0.429,0.621,1.116,1.51,1.099,2.475C147.656,41.291,147.382,41.988,147.382,41.988z M137.375,31.984
					c-0.086-0.178-0.688-0.891-0.159-0.97c0.353-0.081,0.972-0.421,1.592-0.673c0.087,0.001,0.175,0.002,0.266-0.084
					c0.618-0.252,1.056-0.244,1.411-0.414c0.355-0.256,1.416-0.678,1.416-0.678l0.338,0.708c0,0,0.174,0.179,0.343,0.534
					c0.254,0.529,0.768,1.24,0.936,1.684c0.426,0.709,0.768,1.329,0.675,1.59c-0.005,0.265-0.354,0.083-0.613-0.01
					c-0.087-0.09-0.612-0.186-1.048-0.369c-0.261-0.093-0.523-0.186-0.697-0.275c-0.437-0.184-0.786-0.189-0.705,0.074
					c-0.006,0.352,0.94,1.508,1.016,2.213c-0.013,0.701,0.237,1.496,0.057,1.844c-0.095,0.35-0.888,0.512-1.511,1.027
					c-0.712,0.515-1.33,0.767-1.512,1.115c-0.09,0.086-0.356,0.256-0.533,0.342c-0.353,0.168-0.619,0.252-0.619,0.252
					s-0.355,0.344-0.353,0.168c0.005-0.262,0.377-1.572,0.913-2.09c0.002-0.087,0.002-0.087,0.09-0.086
					c0.361-0.52,0.277-0.785,0.383-1.748c0.191-0.963,0.374-1.398,0.472-1.922c0.099-0.615,0.02-1.143-0.237-1.496
					c-0.087-0.091-0.26-0.182-0.523-0.188c-0.525-0.096-1.229-0.021-1.226-0.195L137.375,31.984z M156.434,46.359
					c-0.352-0.006-1.644-1.433-2.508-2.238c-0.86-0.893-1.12-1.16-1.12-1.16s-0.685-1.064-1.461-1.781
					c-0.688-0.801-0.597-1.064-0.597-1.064s0.908-1.65,1.108-3.139c0.201-1.49,0.556-1.658,0.569-2.448
					c0.102-0.7-0.418-1.147-0.418-1.147s-0.954-0.719-2.086-1.178c-0.434-0.271-0.872-0.367-1.133-0.459
					c-0.352-0.094-0.526-0.096-0.526-0.096s-0.175,0.083-0.01,0.613c0.079,0.527,0.413,1.498,0.393,2.64
					c-0.02,1.141,0.133,2.372-0.213,2.19c-0.347-0.27-1.358-2.744-1.869-3.631c-0.084-0.178-0.169-0.354-0.253-0.531
					c-0.428-0.709-0.762-1.593-1.017-2.123c-0.341-0.533-0.074-0.793-0.328-1.235c-0.257-0.442-0.688-0.89-0.335-1.06
					c0.443-0.166,0.88-0.072,1.233-0.242c0.088,0.002,0.267-0.083,0.532-0.254c0.531-0.254,1.152-0.682,1.248-1.031
					c0.271-0.521-0.152-1.406-0.497-1.764c-0.172-0.179-0.435-0.271-0.696-0.362c-0.263-0.005-0.527-0.009-0.704,0.073
					c-0.615,0.078-0.872-0.277-1.232,0.242c-0.002,0.088-0.002,0.088-0.002,0.088c-0.447,0.52-1.059,0.334-1.059,0.334
					s-0.423-0.886-0.759-1.77c-0.168-0.441-0.336-0.883-0.419-1.148c-0.247-0.881-0.675-1.591-1.017-2.037
					c0,0-0.521-0.447,0.188-0.697c0.266-0.172,0.793-0.25,1.323-0.417c0.616-0.165,1.234-0.329,1.85-0.405
					c0.353-0.083,0.618-0.166,0.882-0.248c0.351,0.007,0.704-0.076,1.056-0.07c0.967-0.158,1.935-0.229,2.465-0.396l0.085,0.002
					c0.706-0.076,1.32-0.152,1.673-0.146c0.351-0.082,1.404-0.063,2.282-0.049c0.877,0.016,0.961,0.281,1.746,0.558
					c0.785,0.189,0.962,0.105,1.038,0.808c0.164,0.706,0.143,1.935,0.391,2.815c0.249,0.795,0.239,1.321,0.312,2.2
					c0.075,0.791-0.031,1.843,0.037,2.985c0.066,1.143,0.258,5.27,0.141,6.936c-0.116,1.666-0.086,4.914-0.117,6.668
					c0.058,1.758-0.29,1.662-0.224,2.807c0.07,1.053,0.069,1.141,0.149,1.494C156.527,45.922,156.695,46.363,156.434,46.359z"/>
			</g>
			<g>
				<path d="M180.951,33.381c0.547,0.365,2.1,1.004,2.83,1.097c0.548,0,0.73-0.093,1.187-0.185c0.184,0,0.365-0.09,0.548-0.182
					c0.821-0.183,2.464-0.297,2.92-0.389c0.458-0.182,1.092-0.115,1.683-0.449c0.307-0.145,0.968-0.166,0.968-0.166
					s0.273,0,1.461-0.184c1.187-0.182,4.655-1.186,5.477-1.277c0.822-0.092,0.822-0.092,1.188-0.639
					c0.273-0.639,0.092-1.188-0.821-2.191c-1.006-1.096-2.01-0.365-2.647-0.273c-0.457,0.182-3.471,1.368-3.926,1.277
					c-0.457-0.092-0.184-0.639-0.093-1.277c0.093-0.548,0.185-1.371,0.185-2.375c0.09-1.002,0.181-2.465,0.271-3.377
					c0.092-0.822-0.639-1.279-0.912-1.188c-0.365,0.092-0.821,0-1.005-0.091c-0.182,0-0.364-0.183-0.82-0.273
					c-0.365,0-0.549-0.091-0.823-0.457c-0.365-0.365-0.638-0.73-1.187-0.73c-0.548,0.092-1.003,0.365-1.461,0.821
					c-0.364,0.366-0.639,0.457-1.004,0.549c-0.092,0-0.184,0-0.274,0c-0.456,0.091-0.09,0.456-0.09,0.456s0.181,0.092,0.364,0.273
					c0.365,0.365,1.096,0.914,1.369,1.188c0.548,0.365,1.371,1.552,1.554,2.557c0.181,0.912,1.003,3.561,1.003,3.561
					s0,0.182,0.184,0.456c0.272,0.274,0,0.64-0.731,0.731c-0.73,0.09-1.096,0.272-1.734,0.272c-0.458,0-1.004,0.093-1.644,0.185
					c-0.547,0.09-1.095,0.182-1.553,0.363c-0.821,0.365-2.101,0.275-2.829,0.275c-0.73-0.092-0.457,0.547-0.457,0.914
					C180.129,33.016,180.311,33.016,180.951,33.381z"/>
				<path d="M209.985,47.441c-0.366-0.457-1.188-1.369-2.284-2.283c-1.094-1.004-2.372-0.912-2.739-0.822
					c-0.364,0.184-1.369,0.457-2.189,0.641c-0.821,0.092-2.559,0.457-3.47,0.457c-0.822,0.09-3.653,0.457-4.018,0.546
					c-0.274,0.093-1.279,0.549-1.279,0.274c-0.09-0.274,0.273-0.82,0.822-1.461c0.64-0.639,0.821-1.096,1.552-3.012
					c0.73-1.918,0.914-3.379,0.366-4.748c-0.549-1.461-1.918-1.553-2.282-1.553c-0.458,0.092-1.826,0.092-2.466,0
					c-0.548,0,0.182,0.73,0.182,0.73s1.37,1.645,1.37,2.1c0,0.365-0.272,1.553-0.365,2.739c-0.091,1.187-1.005,4.384-1.461,5.022
					c-0.364,0.639-0.273,0.639-1.915,1.004c-0.915,0.273-3.197,0.639-4.841,0.822c-0.639,0.092-1.187,0.092-1.553,0.092
					c-1.187,0-6.116,0.73-7.396,0.912c-1.277,0.273-4.656,0.82-5.111,0.82c-0.365,0,0,1.646,1.094,2.102
					c1.097,0.549,3.197,0.822,4.84,0.365c1.554-0.365,4.383-0.913,8.126-1.828c0.091,0,0.091-0.09,0.184-0.09
					c3.833-0.913,6.39-1.004,8.946-1.277c2.282-0.184,8.309-0.549,10.409-0.549c2.192,0.09,3.103,0.549,3.562,0.73
					c0.455,0.183,0.729-0.182,1.551-0.455C210.441,48.354,210.348,47.807,209.985,47.441z"/>
				<path d="M185.242,38.129c-0.091-0.091-0.184-0.273-0.274-0.365c-0.274-0.457-0.364-1.004-0.639-1.186
					c-0.365-0.367-0.731,0.273-0.731,0.273s-0.455,1.369-0.455,2.098c-0.092,0.73-0.549,2.284-0.457,4.292
					c0.182,1.462,1.369,2.465,2.282,2.922c0.365,0.183,0.64,0.365,0.821,0.365c0.364,0,1.461,0.456,1.461,0
					c0-0.549-0.09-1.644-0.729-2.374c-0.638-0.73-1.005-2.556-1.098-3.561C185.423,39.68,185.698,38.676,185.242,38.129z"/>
			</g>
			<g>
				<path d="M234.982,50.164c0.35-0.965,0.965-3.51,1.316-4.563c0-0.175,0.087-0.263,0.087-0.351c0.176-0.614,0.44-1.141,0-1.404
					c0-0.086-0.087-0.086-0.087-0.175c-0.438-0.351-1.054-1.14-1.756-1.843c-0.789-0.879-1.754-0.264-1.842-0.088
					c-0.177,0.264-0.263,0.791-0.527,1.229c-0.35,0.438-0.614,0.527-1.141,0.527c-0.438,0.086-0.967,0.264-1.141,0.35
					c-0.087,0-0.087,0-0.087,0s0-0.264,0.087-0.701c0-0.352,0-0.791,0.088-1.316c0.174-1.229,0.614-6.406,0.614-6.406
					s0-0.527,0.175-0.877c0.176-0.352,1.316-0.264,2.02-0.439c0.701-0.176,1.842-0.088,2.633-0.613
					c0.789-0.615,0.525-1.668-0.266-2.458c-0.7-0.79-2.104-0.438-2.718-0.263c-0.528,0.088-1.229,0.965-1.493,0.965
					s0-0.438,0.088-0.965c0.089-0.615,0.176-3.949,0.439-5.617c0.263-1.578,0.263-3.598,0.087-4.125
					c-0.087-0.614,0.265-1.403,0.176-1.667c-0.176-0.176-1.141-0.525-1.755-0.701c-0.088,0-0.088,0-0.088,0
					c-0.615-0.176-0.525-0.352-0.965-0.352c-0.439-0.088-1.755-0.264-2.458-0.264c-0.79,0.088-0.702,0.439-0.702,0.439l0.438,0.79
					c0,0,0.178,0.438,0.879,0.965c0.703,0.614,0.879,3.949,1.053,5.967c0.088,2.02,0.177,5.792,0.088,6.318
					c0,0.527-3.07,1.404-3.949,1.668c-0.964,0.264-1.754-0.176-2.192-0.176s-0.527,0.439-0.438,0.877
					c0.086,0.439,0.7,0.352,0.7,0.352s0.265,0.352,0.528,1.053c0.174,0.615,1.141,1.493,2.018,1.668
					c0.877,0.088,0.615,0,0.877-0.264c0.264-0.264,0.352-0.438,0.702-0.615c0.352-0.262,1.141-0.877,1.493-0.789
					c0.351,0.088,0.351,1.316,0.262,2.633c-0.088,1.316-0.527,5.529-0.527,5.529s0,0-0.35,0.35
					c-0.352,0.266-1.143,0.879-1.404,0.967c-0.264,0.175-0.966-0.352-1.404-0.701c-0.352-0.352-2.895-1.405-2.895-1.405
					s-0.44,0.526-0.089,1.054c0.351,0.613,1.054,1.053,2.019,2.719c0.965,1.58,1.842,6.67,1.842,6.67s0,0.878,0.527,1.492
					c0.526,0.615,0.703,2.018,1.141,2.193c0.526,0.088,0.351-0.086,0.351-0.613s0.263-1.58,0.263-1.58s0.439-0.176,1.141-0.35
					c0.354,0,0.703-0.178,1.055-0.352c0.351-0.176,0.702-0.439,0.965-0.615c0.439-0.176,2.896-0.613,3.424-0.613
					c0.525-0.09,0.875-0.527,0.875-0.527s0.089-0.264-0.35-0.703C234.369,51.92,234.543,51.219,234.982,50.164z M232.438,49.375
					c0,1.492-0.088,1.844-0.088,1.844s-1.581,1.051-2.458,1.491c-0.087,0-0.176,0-0.264,0.087c-0.791,0.352-1.842,0.615-1.842,0.615
					s0,0.088-0.266-0.439c-0.262-0.438-0.613-2.369-0.613-3.686c0-1.404-0.175-2.105-0.175-2.105s2.281-0.79,2.983-0.966
					c0.089,0,0.089,0,0.176,0c0.615-0.175,1.316,0,1.843-0.264c0.438-0.263,1.054-0.614,1.229-0.352
					C233.139,45.865,232.351,47.971,232.438,49.375z"/>
				<path d="M238.58,34.895c0.967-0.701,1.492-2.018,1.492-2.018s0.789,0.352,1.492,0.701c0.702,0.352,1.404,0.703,2.281,0.791
					c0.525,0,0.966-0.088,1.493-0.176c0.438-0.088,0.876-0.176,1.577-0.264c1.318-0.264,2.545-0.613,3.861-0.79
					c1.404-0.263,1.756-0.175,2.37-0.79c0.615-0.613,0.175-1.315-0.526-1.93c-0.615-0.527-0.877-0.527-1.49-1.141
					c-0.615-0.527-0.967-0.088-1.316,0.352c-0.354,0.525-1.494,1.314-2.107,1.578c-0.527,0.176-0.703,0.176-1.229,0.352
					c-0.353,0.088-0.791,0.176-1.14,0.264c-0.353,0.088-0.702,0.088-0.791,0.175c-0.265,0.089-0.614,0.176-1.228,0.176
					c-0.615,0-2.898,0.175-2.898,0.175s0.089-0.175,0.527-1.141c0.439-0.877,1.756-3.598,2.106-4.738
					c0.352-1.053,0.966-2.895,1.403-5.266c0.439-2.368-0.525-3.511-2.192-4.914c-1.58-1.316-3.774-1.58-3.774-1.58
					c0,0.264,0.264,1.404,1.055,2.545c0.701,1.141,1.14,2.37,1.14,2.721c0,0.352,0.089,0.791,0,1.404
					c0,0.526-0.176,1.756-0.438,4.213c-0.088,0.525-0.615,2.808-0.789,3.686c-0.177,0.877-0.439,1.755-0.703,2.896
					c-0.352,1.403-0.965,2.194-1.14,2.72c-0.265,0.527-0.44,1.143-0.44,1.143S237.616,35.51,238.58,34.895z"/>
				<path d="M262.713,52.534c-1.755-0.089-4.125-0.614-9.126-2.983s-7.811-5.354-7.811-5.354c0.965-2.018,1.14-5.529,1.14-6.405
					c-0.086-0.614-0.613-1.317-1.577-1.755c-0.177-0.089-0.353-0.178-0.614-0.264c-1.317-0.352-2.107,0.175-2.107,0.175
					s0,0.351,0.614,0.702s0.614,0.789,0.702,2.018c0.174,1.316-0.264,3.16-0.264,3.422c0,0.178-2.281-2.367-2.457-2.719
					s-0.438-0.703-1.491-0.878c-1.054-0.263-1.757-0.526-2.37-0.263c-0.525,0.263,0,0.351,0,0.351s0.791,0.702,1.754,1.579
					c0.879,0.879,4.126,4.826,4.126,4.826c-0.526,2.195-1.316,3.598-3.159,6.143c-1.316,1.932-3.072,2.722-3.773,2.984
					c-0.264,0.088-0.352,0.176-0.352,0.176s0,0.262,0.352,0.262c0.087,0.09,0.176,0.09,0.351,0.09
					c0.702-0.09,2.282-0.879,4.212-2.281c1.932-1.404,3.95-5.178,3.95-5.178s0.175,0.086,0.527,0.438
					c0.175,0.176,0.524,0.527,0.876,0.879c0.965,1.141,4.477,4.738,6.057,6.053c1.578,1.406,3.422,1.318,5.527,0.879
					c2.193-0.438,4.739-1.754,5.354-2.281C263.678,52.534,262.713,52.534,262.713,52.534z"/>
			</g>
			<g>
				<path d="M301.723,43.467c-0.625-0.555-1.26-0.656-1.975-1.213c-0.716-0.557-1.342-1.113-2.073-0.762
					c-0.644,0.441-0.474,1.08-0.474,1.08s-2.822,0.586-5.008,1.092c-1.095,0.252-2.641,0.498-4.005,0.656
					c-1.362,0.066-2.541,0.135-3.175,0.125c-1.18-0.021-1.281,0.521-0.922,0.711c0.362,0.096,0.535,0.553,1.436,0.932
					c0.631,0.283,1.441,0.66,2.621,0.59c0.362,0.007,0.818-0.076,1.365-0.248c2.098-0.6,7.549-1.047,7.549-1.047
					s0.086,0.183-0.121,1.721c-0.209,1.539-0.637,5.251-0.637,5.251s-2.367,0.503-3.548,0.573c-0.636,0.08-2.821,0.495-4.732,0.824
					c-1.728,0.242-3.183,0.488-3.183,0.488s0.002-0.09-0.255-1.092c-0.163-1.001-0.925-4.189-1.263-5.557s-0.955-2.465-2.217-2.941
					c-1.26-0.566-2.522-0.953-2.7-1.137c-0.272-0.094-0.285,0.631-0.285,0.631s1.154,1.381,1.593,2.295
					c0.439,0.825,1.834,4.205,1.996,5.207c0.254,1.002,0.775,2.281,0.934,3.736c0.158,1.363,1.758,3.205,2.129,2.758
					c0.449-0.436,0.223-1.657,0.213-1.715c0.016,0.014,0.174,0.027,1.453-0.252c0.363,0.006,0.909-0.076,1.545-0.154
					c2.455-0.32,6.453-0.705,7.816-0.771c1.635-0.063,3.096-0.58,3.828-1.021c0.643-0.441-0.43-1.368-0.43-1.368
					s-0.27-0.187,0.211-1.721c0.389-1.444,1.721-4.958,2.094-5.587C301.88,44.832,302.436,44.115,301.723,43.467z"/>
				<path d="M275.357,25.861c-0.885-1.377-2.861-2.409-2.861-2.409c-0.275,0.269-0.105,0.815,0.236,2
					c0.434,1.188,0.083,5.626,0.068,6.534c0.072,0.998-0.957,2.887-0.969,3.52c-0.102,0.635,1.412,2.293,2.041,2.576
					c0.541,0.193,1.277-0.34,1.475-1.244c0.106-0.995,0.125-2.084,0.346-4.258c0.309-2.172,0.535-4.709,0.365-5.437
					C275.982,26.416,275.357,25.861,275.357,25.861z"/>
				<path d="M305.789,23.488c-1.164-0.836-2.879-1.319-3.242-1.326c-0.271-0.004-0.554,0.535-0.92,0.801
					c-0.461,0.354-1.91,0.24-4.729,0.553c-2.816,0.313-6.998,0.694-6.998,0.694s-0.273,0.085-0.359-0.187
					c-0.086-0.275-0.16-1.184-0.146-1.91c0.014-0.814-0.076-0.908,0.208-1.628c0.194-0.723,1.021-1.253,0.585-2.258
					c-0.437-1.007-0.698-1.555-1.422-1.658c-0.092-0.002-0.092-0.002-0.092-0.092c-0.722-0.104-0.994-0.109-0.994-0.109
					c-0.619-0.918-1.979-1.031-2.623-0.499c-0.557,0.626-1.718-0.303-1.816,0.15c-0.189,0.45,0.24,1.819,0.24,1.819
					s0.174,0.546,0.529,0.825c0.357,0.277,1.355,0.386,1.616,1.026c0.353,0.549,0.845,3.462,0.923,4.28
					c0.076,0.908-0.647,0.714-1.469,0.881c-0.816,0.076-3.549,0.663-4.273,0.65c-0.636,0.08-1.9-0.215-2.718-0.229
					c-0.724-0.014-0.29,0.992,0.247,1.457c0.626,0.464,1.783,1.846,2.512,1.585c0.821-0.257,1.461-0.519,3.557-1.026
					c2.006-0.6,3.189-0.853,3.189-0.853s-0.008,0.364,0.26,0.731c0.176,0.365,0.363,0.008,0.64-0.26l0.093-0.09
					c0.459-0.357,0.096-0.271,0.553-0.445c0.457-0.264,0.824-0.438,2.007-0.69c1.183-0.161,2.634-0.136,4.536-0.103
					c1.906,0.033,6.445-0.16,6.445-0.16s-0.014,0.728-0.402,2.262c-0.301,1.627-1.768,2.602-1.768,2.602s-0.004,0.271,0.357,0.188
					c0.365,0.006,0.371-0.357,2.014-0.963c1.553-0.518,3.29-1.395,4.493-2.736c0.37-0.354,0.558-0.715,0.562-0.986l0.006-0.273
					C307.4,24.787,306.596,24.047,305.789,23.488z"/>
				<path d="M288.289,38.605c-0.727,0.079-1.455,0.248-1.635,0.154c-0.178-0.186-0.439-0.916-0.43-1.461
					c0.011-0.633-0.046-2.54-0.033-3.266c-0.078-0.727,0.111-1.178-1.053-2.014c-1.254-0.93-3.691-1.699-4.059-1.432
					c-0.369,0.356-0.014,0.816-0.014,0.816c0.816,0.104,1.161,1.018,1.865,2.209c0.617,1.1,1.267,5.467,1.346,6.193
					c0.078,0.729,1.133,2.56,1.402,2.746c0.27,0.186,0.459-0.355,0.469-0.9c0.01-0.543,0.466-0.625,1.558-0.787
					c0.091,0,0.272-0.088,0.545-0.082c1.366-0.248,3.821-0.658,4.365-0.648c0.634,0.1,0.899,0.469,1.171,0.564
					c0.269,0.094,1.176,0.109,1.367-0.432c0.1-0.451,0.014-0.814,0.127-1.993c0.019-1.088,0.043-2.448,0.139-2.901
					c0.119-1.539,0.15-3.354,0.439-4.256c0.289-0.992-0.514-1.822-1.32-2.29c-0.809-0.469-2.809-0.321-3.449,0.03
					c-0.369,0.266-1.553,0.607-2.647,0.951c-0.73,0.26-1.458,0.43-1.734,0.604c-0.546,0.173-1.376,0.884-1.013,0.89
					c0.455-0.082,1.26,0.566,2.164,0.766c0.182,0.002,0.361,0.006,0.543,0.009c0.996,0.106,2.543-0.138,3.27-0.216
					c0.82-0.168,0.631,0.283,0.693,1.916c0.152,1.637,0.112,3.994,0.112,3.994s-1.731,0.424-2.641,0.589
					C289.473,38.354,288.834,38.525,288.289,38.605z"/>
			</g>
			<g>
				<path d="M346.207,19.538c0.352,0.264,0.789,0.613,1.141,1.054c0.352,0.263,0.702,0.526,0.966,0.701
					c0.701,0.439,1.052-0.088,1.052-0.615c-0.086-0.613,0-1.667,0-2.281c0.088-0.702-0.351-1.052-0.877-1.229
					c-0.527-0.175-0.352,0.088-1.141-0.175c0,0-0.088,0-0.088-0.089c-0.877-0.262-1.58-0.175-1.842,0.177
					c-0.176,0.351,0,0.965,0,0.965S345.593,19.1,346.207,19.538z"/>
				<path d="M331.99,30.683c0.264-0.351-0.35-1.052-0.964-1.579c-0.265-0.262-0.528-0.439-0.791-0.614
					c-0.614-0.438-1.315,0-1.843,0.353c-0.438,0.438-1.229,0.524-1.229,0.524c-0.176-0.438,0.264-2.457,0.264-3.597
					c-0.088-1.055-0.352-3.6-1.053-4.213c-0.702-0.615-3.686-1.142-3.949-0.789c-0.264,0.351,0.525,1.053,0.525,1.053
					s-0.176,0.263,0.703,1.93c0.878,1.668,1.055,6.933,1.055,6.933s-2.986,1.229-4.127,1.843c-1.139,0.703-1.404,1.229-1.229,1.58
					c0.175,0.264,1.492,0.176,2.897,0c1.403-0.264,2.458-0.702,2.458-0.702s0.174,1.317,0.086,3.247
					c-0.086,1.931-0.086,11.496,0.088,13.426c0.264,2.02,0.701,3.774,1.141,4.213c0.439,0.439,0.789-0.789,0.965-2.457
					c0.263-1.756-0.088-4.299,0-6.582c0.176-2.369,0.263-4.475,0.088-7.811c-0.088-3.246,0.264-4.914,0.264-4.914
					s0.701-0.263,1.93-0.613c0.615-0.176,1.229-0.352,1.757-0.527C331.465,31.209,331.902,30.945,331.99,30.683z"/>
				<path d="M354.369,39.107c-0.967-1.053-2.195-0.526-3.335,0c-0.79,0.264-2.546,0.615-3.687,0.79
					c-0.614,0.176-1.141,0.176-1.141,0.176s-0.176-0.176-0.263-0.614c0-0.439-0.878-1.053-1.229-1.143
					c-0.439-0.174-0.439-0.438-0.439-0.438s0.528,0,0.703,0c0.264,0,0.439,0.264,0.879,0.088c0.437-0.175,1.052-0.879,1.49-2.721
					c0.086-0.176,0.086-0.352,0.176-0.525c0.438-2.283,1.053-5.441,1.404-6.057c0.262-0.613,0.613-1.141,0-2.02
					c-0.263-0.438-0.967-0.788-1.58-0.875c-0.438-0.176-0.789-0.176-0.789-0.176s-0.265-0.615-0.791-0.352
					c-0.35,0.088-1.753,0.352-2.896,0.614c-1.052,0.263-2.019,0.438-2.019,0.438l-0.174-3.948c0,0-0.266,0.087,0.35-0.352
					c0.438-0.263,1.229-0.438,1.843-0.614c0.265-0.088,0.527-0.088,0.702-0.176c0.527-0.087,1.229-0.79,1.229-0.79
					c-0.265-1.491-0.878-1.842-1.579-2.193c-0.088,0-0.177,0-0.353,0c-0.877,0-2.104,0.615-2.104,0.615s0.086-0.176,0-0.791
					c-0.088-0.526-0.088-1.228,0-2.106c0.086-0.877-0.176-1.667-1.493-2.281c-0.438-0.264-0.878-0.351-1.405-0.351
					c-0.963,0-1.842,0.351-2.018,0.702c-0.263,0.438,0.353,1.053,1.141,2.019c0.527,0.701,0.79,2.018,0.877,2.982
					c0.09,0.527,0.09,0.878,0.09,0.878s0,0-0.09,0.088c-0.35,0.088-1.93,0.527-2.456,0.965c-0.702,0.615-2.634,0.791-3.247,0.966
					c-0.613,0.176,0.088,0.79,0.088,0.79s0.703,0.615,1.316,0.789c0.526,0.264,2.281,0.09,3.072-0.174
					c0.524-0.176,0.965-0.264,1.227-0.352c0.09,0,0.177,0,0.177,0s0,0.176,0.175,1.053c0.09,0.965,0.352,2.984,0.352,2.984
					s-0.262,0.088-0.703,0.262c-0.877,0.352-2.367,0.877-2.807,0.967c-0.614,0.088-0.088,0.438,0.262,0.438
					c0.439,0,1.492,0.088,2.108,0.178c0.175,0,0.35,0,0.437,0c0.441-0.09,0.703-0.178,0.703-0.178l0.352,2.984
					c0,0-0.088,0.351-0.264,0.351s-0.439,0.089-0.791,0.176c-0.525,0.263-1.227,0.526-1.404,0.526c-0.261,0-0.174-1.053-0.174-1.667
					c0-0.702-0.264-1.142-1.054-1.579c-0.789-0.527-1.667-1.141-2.105-1.229c-0.439,0-0.615,1.053,0,2.193
					c0.613,1.141,1.843,6.668,2.281,7.811c0.351,1.141,0.438,1.229,0.702,1.053c0.264-0.088,0.35-0.525,0.35-0.525
					s0.178-0.177,1.404-0.177c0.09,0,0.177,0,0.265,0c1.403-0.088,3.773-0.175,3.773-0.175s0.614,0.965,0.702,1.227
					c0.089,0.09,0.175,0.265,0.263,0.44c0.176,0.351,0.353,0.702,0.353,0.702s-0.088,0-0.353,0
					c-0.614,0.087-1.931,0.264-3.948,0.613c-0.352,0-0.703,0.088-1.055,0.176c-2.545,0.525-5.879,1.316-6.843,1.58
					c-0.177,0.088-0.265,0.088-0.265,0.088s-1.316,0.264-0.526,0.965c0.352,0.264,0.526,0.352,0.791,0.438
					c0.526,0.175,1.052,0.089,1.666,0.175c0.966,0,1.404,0,2.545-0.262c0.44-0.088,1.493-0.264,2.632-0.527
					c1.582-0.351,3.336-0.701,4.303-0.877c0.262-0.088,0.526-0.088,0.7-0.176c0.966-0.176,1.054-0.176,1.054-0.176
					c0.35,2.896,0.439,10.18,0.439,10.18s-0.791,0.088-1.493,0.264c-0.526,0.088-0.965,0.264-1.142,0.35
					c-0.525,0.265,0.177,1.405,1.054,1.932c0,0,0,0,0.088,0.088c0.702,0.615,0.702,2.632,0.79,2.809
					c0.176,0.175,1.142,0.438,1.229,0.613c0.129,0.1,0.217-0.045,0.789-0.965c0.707-1.139,1.141-4.387,1.141-7.459
					c0.089-3.07-0.526-7.371-0.526-7.811c0-0.352,0.439-0.439,1.054-0.439c0.352,0,0.702,0,1.141,0c1.317,0,4.389,0,5.529,0
					c1.141,0.088,1.58,0,2.018-0.35C356.474,41.74,355.334,40.16,354.369,39.107z M339.187,36.914c0,0-0.614,0.174-1.317,0.352
					c-0.525,0.174-1.139,0.35-1.315,0.526c0,0,0.263-1.844,0.089-2.722c-0.178-0.789-0.089-1.404-0.089-1.404s0.613,0,1.315-0.088
					c0.441,0,0.791,0,1.141-0.175c0.177-0.087,0,1.228,0.09,1.755C339.274,35.773,339.187,36.914,339.187,36.914z M342.959,36.299
					c-0.087,0-0.087,0-0.087,0c-1.052,0.176-1.931,0.265-1.931,0.265s-0.35-3.247,0-3.511c0.352-0.176,1.141-0.264,1.931-0.527
					c0.176,0,0.44-0.176,0.614-0.263c0.352-0.264-0.262-0.614-0.614-0.964c-0.088-0.09-0.174-0.178-0.263-0.178
					c-0.264-0.35-0.527-0.262-1.053-0.176c-0.527,0.089-0.965,0.354-0.877,0.264c0.088-0.613,0-2.367,0.174-2.808
					c0,0,1.054-0.351,2.019-0.614c0.353-0.088,0.702-0.176,0.966-0.176c0.701-0.176,1.229,0.176,1.229,0.176
					s-0.263,1.141-0.263,2.369c-0.089,1.143,0.175,5.266-0.089,5.881C344.715,36.037,344.015,36.123,342.959,36.299z"/>
				<path d="M338.836,46.654c-0.264-0.088-0.615-0.176-0.967-0.352c-0.702-0.176-1.49-0.438-1.93-0.438
					c-0.702-0.088-0.438,0.526-0.438,0.526s0.613,1.403,1.052,2.192c0.263,0.439,0.79,1.055,1.315,1.58
					c0.441,0.352,0.879,0.703,1.141,0.879c0.615,0.262,0.879-0.088,1.055-0.527c0.264-0.439,0.176-1.404,0.089-2.106
					C340.064,47.619,339.537,46.918,338.836,46.654z"/>
			</g>
			<g>
				<path d="M384.129,31.02c0.448-0.537,0-0.984-0.357-1.432c0-0.09-0.09-0.09-0.09-0.18c-0.447-0.447-1.343-1.342-1.88-1.433
					c-0.536-0.089-0.536,0.628-1.075,0.985c-0.447,0.268-0.178-1.791-0.088-3.76c0.088-1.969,0.447-4.922,0.268-6.177
					c-0.09-1.343-0.447-1.7-1.521-2.326c-1.074-0.717-1.701-0.985-1.971-1.165c-0.266-0.088-1.699-0.536-2.146-0.625
					c-0.537,0,0.447,1.79,0.717,2.685c0.268,0.896,1.164,1.432,1.252,2.507c0.178,1.073,0.27,6.266,0.447,8.324
					c0.18,2.059-0.178,2.328-0.178,2.328s-0.179,0.088-0.717,0.268c-0.537,0.268-2.328,1.433-2.328,1.433s-0.09-0.269,0.09-1.612
					c0.091-1.342,0.896-2.059,1.164-2.506c0.18-0.537-0.09-1.969-0.894-2.326c-0.896-0.27-1.165-0.717-1.792-1.164
					s-2.06-1.164-2.238-0.807c-0.088,0.359,0,0.807,0,0.807s0.449,1.164,0.896,1.879c0.447,0.627,0.896,1.971,0.626,3.581
					c-0.179,1.521-0.983,2.417-1.343,3.222c-0.356,0.806,0,1.97,0.45,2.148c0.355,0.18,1.342,0.984,2.146,0.359
					c0.716-0.627,2.238-1.881,3.044-2.328c0.717-0.447,1.163-0.447,1.163-0.447c0.09,0.447,0.269,5.459,0.269,5.459
					s-0.536,0.717-1.521,1.521c-0.986,0.806-3.403,3.223-4.297,4.209c-0.896,0.984-2.06,0.805-2.418,0.625
					c-0.447-0.269-0.984,0-0.717,0.896c0.36,0.985,1.792,2.147,2.686,2.237c0.807,0,1.434-0.717,2.866-2.863
					c1.432-2.148,3.4-4.207,3.4-4.207s0,0.984,0.091,2.416c0.088,1.432,0,4.208-0.091,5.549c0,1.344-0.269,3.671-0.269,3.671
					s-1.072,0-1.434,0.179c-0.355,0.27,0,1.164,0.449,1.701c0.447,0.537,1.521,2.326,1.701,2.686c0.09,0.357,0.447,0.269,0.805,0
					c0.358-0.359,0.358-1.164,0.717-1.791c0.447-0.715,0.537-1.699,0.357-2.236c-0.268-0.627,0-1.076-0.09-3.134
					c-0.178-2.06-0.356-12.263-0.356-12.263l0.536-1.254l-0.536,0.09c0,0,0.179-3.848,0.446-4.564
					c0.18-0.807,0.537-0.448,1.344-0.627c0.535-0.089,1.342,0,1.969-0.18C383.86,31.287,384.039,31.199,384.129,31.02z"/>
				<path d="M406.416,31.825c-0.357-0.357-0.715-1.073-1.431-1.521s-1.433-0.358-2.148,0c-0.717,0.269-0.806,0.089-1.97,0.179
					c-1.254,0.18-5.281,0.09-6.266,0.27c-1.074,0.088-2.417,0.268-3.4,0.447c-0.986,0.178-2.238-0.447-2.238-0.447
					c0.357-0.538,2.775-5.191,3.311-6.535c0.447-1.342,0.359-2.059,0.537-2.954c0.27-0.896-0.268-1.433-0.717-1.79
					c-0.445-0.357-0.266-0.357-0.717-0.537c-0.534-0.179-0.715-0.27-1.789-0.805c-0.984-0.449-1.698-0.538-2.146-0.358
					c-0.359,0.089,0.269,0.537,0.269,0.537s0.446,0.536,0.894,1.61c0.539,0.984-0.268,3.67-0.805,5.551
					c-0.448,1.789-2.508,6.713-3.043,8.234c-0.268,0.716-0.717,1.611-1.074,2.238c-0.447,0.715-0.717,1.162-0.717,1.162
					s0.18,0.18,0.717-0.268c0.536-0.358,1.253-1.164,2.238-2.148c0.982-1.074,2.326-3.043,2.326-3.043s0.357,0.626,0.807,0.984
					c0.355,0.447,1.253,1.254,1.609,1.79c0.359,0.448-0.715,3.491-2.594,7.339c-1.791,3.85-3.225,6.178-3.402,6.445
					c-0.089,0.18-0.715,0.627-0.089,0.537c0.714,0,1.7-1.432,2.505-2.596c0.808-1.074,3.224-4.654,4.387-6.264
					c1.164-1.613,1.969-4.029,2.238-4.566c0.268-0.537-0.627-1.432-0.627-1.432s-0.27-0.18,0.09-0.359
					c0.268-0.179,2.236-0.357,2.236-0.357s0,0.357,0.18,1.969c0.18,1.701-1.343,4.654-1.879,5.998
					c-0.537,1.342-2.238,4.653-2.955,5.818c-0.805,1.162-2.057,3.58-2.416,3.938c-0.446,0.27-0.717,0.986-0.717,0.986
					s0.091,0.088,1.611-0.807c1.521-0.896,3.58-3.67,5.818-7.43c2.238-3.85,2.865-5.908,2.775-7.607
					c-0.088-1.612-1.971-2.775-1.971-2.775s0.986-0.18,2.775-0.18c1.881,0,4.208-0.178,4.208-0.178s0.18-0.18,0.267,0.984
					c0,1.162-0.446,4.475-1.252,6.803c-0.805,2.416-1.969,4.654-2.506,5.639c-0.537,0.895-1.254,2.416-1.97,2.416
					c-0.626,0-1.073-0.447-1.522-0.447c-0.535,0-0.177,0.896,0.092,1.344c0.357,0.445,0.178,1.7,0.268,2.416
					s-0.09,0.984,1.163,0.627c1.343-0.357,3.134-2.775,5.013-6.266c1.969-3.492,4.027-11.637,4.477-12.891
					C407.401,32.184,406.685,32.094,406.416,31.825z"/>
			</g>
			<g>
				<path d="M441.531,30.537c-0.172,0.172-0.603,0.344-1.119,0.516c-0.859,0.258-1.893,0.516-2.063,0.603
					c-0.431,0.171-1.634-0.345-2.322-0.173c-0.688,0.173,0.087,1.203,0.087,1.203c0.43,0,0.945,0.861,1.203,1.377
					c0.258,0.602,0.945,0.344,1.117-0.173c0.26-0.601,0.947-0.688,1.637-1.117c0.084-0.087,0.17-0.087,0.342-0.171
					c0.602-0.259,1.203-0.259,1.893-0.432c0.773-0.172,1.892-0.688,2.235-0.43c0.345,0.258,0.604-1.203,0.345-1.462
					c-0.345-0.343-1.721-0.601-2.149-0.601C442.218,29.678,441.961,30.278,441.531,30.537z"/>
				<path d="M438.178,25.205c-0.775,0.17-2.581-0.087-2.581-0.087c0.517,0.946,0.946,1.978,1.806,2.065
					c0.602,0,1.807-0.431,3.01-0.947c0.43-0.172,0.947-0.344,1.377-0.516c1.547-0.516,6.19-1.031,6.19-1.031s0,0.773-0.257,2.148
					c-0.258,1.291-0.773,1.635-0.602,1.635s2.063-0.431,3.439-1.635c1.377-1.289,1.979-1.72,1.805-2.58
					c-0.084-0.945-0.944-0.688-1.289-0.859c-0.43-0.086-0.773-0.516-1.376-0.947c-0.688-0.342-1.634-0.772-1.808-0.258
					c-0.256,0.604-0.857,0.945-0.857,0.945c-1.289-0.17-5.676,1.205-5.676,1.205s-0.087-1.633,0-3.525
					c0.086-1.805,0.344-2.15,0.516-2.924c0.086-0.688-0.603-0.86-1.463-1.204c-0.258-0.086-0.43-0.172-0.602-0.257
					c-1.117-0.518-1.117-0.172-1.117-0.172s-0.516-0.259-0.947-0.174c-0.43,0.087-1.119-0.085-1.547-0.172
					c-0.43-0.085-0.173,0.518,0.344,1.118c0.516,0.516,0.172,1.118,0.773,1.548c0.602,0.345,0.775,1.032,0.775,1.032
					c0.17,0.603,1.029,4.987,1.029,4.987S438.863,25.033,438.178,25.205z"/>
				<path d="M430.865,30.967c0,0,0,0.258,0.174,0.602c0,0.172,0.172,0.43,0.344,0.774c0.516,0.773,1.721,1.978,1.721,1.978
					s0.171-0.086,0.516-0.773c0.342-0.604,0.516-1.033,0.688-1.979c0.086-0.945,0.086-1.977,0.171-3.783
					c0.172-1.807-0.946-2.236-1.46-2.667c-0.603-0.517-1.291-0.517-1.291-0.517s0,0.26,0.172,1.635
					c0.258,1.377-0.086,2.15-0.172,3.441c-0.086,0.945-0.516,1.203-0.688,1.289C430.865,31.053,430.865,30.967,430.865,30.967z"/>
				<path d="M461.998,48.338c0-1.289-0.602-2.063-0.602-2.063s-0.258,0.688-0.775,1.805c-0.429,1.119-1.203,2.839-4.557,3.699
					c-4.387,1.117-11.094,0.859-12.04,0.516c-1.032-0.346-1.204-1.203-1.204-2.495c0-1.288,2.15-5.503,2.494-6.622
					c0.432-1.03-0.258-2.322-0.859-2.408c-0.516-0.084-2.15-0.772-2.15-0.772s0-0.257,0.086-0.86
					c0.172-0.688-0.346-1.291-0.346-1.291s-0.17-0.172,0.432-0.43c0.602-0.172,2.321-0.859,2.838-1.031
					c0.432-0.172,0.516,0.258,0.516,0.516s0.775-0.43,1.119-0.773s-0.26-1.031-0.947-1.549c-0.688-0.516-1.633-0.43-2.063,0.086
					c-0.432,0.516-2.58,1.291-3.441,1.549c-0.086,0.085-0.086,0.085-0.086,0.085c-1.117,0.431-4.902,2.151-5.59,2.493
					c-0.773,0.346-2.666-0.17-3.439-0.256s0,0.773,0,1.031c0,0.174,0.344,0.602,0.859,1.461c0.431,0.775,1.807,1.033,1.979,0.861
					c0.172-0.086,0.257-0.516,1.289-1.033c0.946-0.514,4.215-2.32,4.902-2.665h0.086c0,0.345,0,0.774-0.086,1.204
					c-0.43,1.375-1.633,3.182-4.299,6.707c-1.893,2.494-3.785,4.301-5.074,5.418c-1.205,0.947-1.979,1.463-1.979,1.463
					s0.173,0.516,1.032-0.086c0.258-0.086,0.518-0.258,0.947-0.602c1.03-0.775,2.837-2.322,5.246-4.387
					c1.719-1.463,3.096-3.269,4.127-4.645c0.775-1.116,1.291-1.977,1.291-1.977s0.172,0.344,0.43,0.945
					c0.258,0.688,0,1.635-0.518,4.473c-0.516,2.837-0.516,4.214,0.346,6.105c0.859,1.979,9.889,2.666,13.76,2.408
					c3.957-0.258,5.676-2.15,6.02-2.924C462.428,50.919,461.998,49.715,461.998,48.338z"/>
				<path d="M430.35,38.363c0.346-0.259,0.516-0.602,0.689-1.033c0.172-0.773,0.172-1.805,0-3.096
					c-0.087-0.086-0.087-0.258-0.087-0.345c-0.429-2.321-1.806-5.59-2.235-6.19c-0.432-0.516-1.807-2.15-1.807-2.15
					c1.29-1.291,3.268-5.332,3.785-6.105c0.429-0.775,0.086-0.861-0.604-1.291c-0.602-0.429-0.859-0.688-1.375-1.118
					c-0.517-0.516-1.635-0.171-2.323,0.087c-0.687,0.17-0.858,1.119-0.858,1.119s-0.086,0.342-1.291,0.687
					c-1.289,0.343-2.321,0.517-2.493,0.602c-0.173,0-0.774,0.172-0.947,0.431c-0.171,0.258,0,0.859,0,0.859s1.72,1.375,2.151,1.548
					c0.43,0.173,0.343,0.085,1.031-0.603s0.773-0.602,2.064-1.203s0.343,0.688,0.516,0.945c-0.602,2.15-1.203,3.27-1.463,3.869
					c-0.258,0.518-0.344,0.775-0.516,1.549c-0.17,0.689,0.602,0.861,0.602,0.861s0.346-0.26,0.602-0.517
					c0.26-0.345,0.518,0,1.207,0.773c0.686,0.86,0.686,3.613,0.772,4.73c0.173,1.117-0.603,0.946-1.377,0.774
					c-0.772-0.172-2.837-0.774-2.837-0.774s0-0.171,0-0.946c0-0.688,0-3.268-0.086-4.814c0-1.463-0.344-1.637-0.861-2.15
					c-0.43-0.518-3.268-2.064-3.268-2.064s-0.602,0.258-0.085,1.461c0.517,1.291,1.204,2.754,1.806,6.623
					c0.603,3.955,0.603,9.975,0.516,12.729c0,2.836-0.43,9.201-0.43,10.404c0,1.205,1.031,2.754,1.634,2.58
					c0.603-0.172,0.945-1.031,0.945-2.063c0.087-0.947,0-3.612,0.087-6.967c0.085-3.268-0.258-12.729-0.258-12.729
					s-0.086-0.602,0.343-0.688c0.431-0.086,0.775,0.086,1.119,0.344c0.431,0.258,1.462,1.463,2.235,2.064
					C428.113,37.244,429.49,39.137,430.35,38.363z"/>
			</g>
		</g>
		<g>
			<path d="M141.253,67.694c-0.178,0.021-0.428,0.056-0.751,0.107c-0.324,0.052-0.616,0.179-0.877,0.38
				c-0.23,0.174-0.395,0.475-0.492,0.9c-0.098,0.425-0.146,1.049-0.146,1.873v9.869h-1.656l-8.178-10.668v6.463
				c0,0.803,0.049,1.412,0.148,1.83c0.098,0.417,0.258,0.723,0.48,0.916c0.165,0.143,0.426,0.268,0.781,0.379
				c0.355,0.109,0.641,0.184,0.857,0.223v0.766h-5.606v-0.766c0.24-0.02,0.516-0.066,0.827-0.141
				c0.311-0.074,0.573-0.189,0.787-0.346c0.24-0.188,0.404-0.471,0.491-0.85s0.131-1.016,0.131-1.91v-6.529
				c0-0.324-0.046-0.629-0.139-0.918c-0.093-0.287-0.242-0.535-0.446-0.744c-0.212-0.219-0.457-0.393-0.735-0.52
				c-0.278-0.126-0.594-0.225-0.946-0.296v-0.767h4.928l7.172,9.356v-5.241c0-0.834-0.053-1.453-0.158-1.859
				c-0.104-0.406-0.269-0.708-0.492-0.904c-0.178-0.148-0.439-0.277-0.784-0.385s-0.622-0.18-0.832-0.22v-0.747h5.637V67.694z"/>
			<path d="M157.138,80.732h-7.167v-0.766c0.334-0.025,0.729-0.09,1.186-0.189c0.455-0.1,0.684-0.225,0.684-0.375
				c0-0.051-0.006-0.109-0.016-0.174c-0.009-0.065-0.033-0.152-0.072-0.264l-1.12-2.857h-4.563c-0.104,0.266-0.22,0.576-0.349,0.934
				c-0.13,0.355-0.239,0.674-0.33,0.953c-0.115,0.361-0.185,0.625-0.207,0.787c-0.023,0.162-0.034,0.275-0.034,0.34
				c0,0.207,0.152,0.385,0.457,0.529c0.307,0.146,0.812,0.252,1.516,0.316v0.766h-5.392v-0.766c0.207-0.014,0.439-0.047,0.694-0.102
				c0.256-0.055,0.455-0.131,0.598-0.229c0.259-0.156,0.476-0.348,0.651-0.574c0.174-0.227,0.319-0.496,0.437-0.807
				c0.712-1.822,1.429-3.646,2.147-5.475s1.516-3.844,2.39-6.047h1.846c1.211,3.123,2.158,5.594,2.842,7.408
				s1.265,3.319,1.743,4.512c0.086,0.194,0.188,0.371,0.312,0.529c0.123,0.16,0.298,0.31,0.524,0.453
				c0.176,0.104,0.376,0.182,0.603,0.232c0.227,0.053,0.434,0.084,0.621,0.098V80.732z M150.246,75.158l-1.916-5.034l-1.896,5.034
				H150.246z"/>
			<path d="M169.943,70.899h-0.735c-0.187-0.586-0.491-1.214-0.914-1.884c-0.422-0.671-0.81-1.031-1.164-1.082
				c-0.2-0.026-0.442-0.049-0.729-0.068s-0.536-0.029-0.749-0.029h-0.425v10.783c0,0.233,0.038,0.439,0.117,0.616
				c0.078,0.177,0.237,0.317,0.479,0.421c0.143,0.059,0.364,0.119,0.663,0.18c0.3,0.061,0.554,0.105,0.763,0.131v0.766h-7.321
				v-0.766c0.181-0.02,0.434-0.047,0.758-0.082c0.323-0.035,0.545-0.08,0.661-0.131c0.239-0.104,0.399-0.242,0.481-0.416
				c0.08-0.175,0.122-0.381,0.122-0.621V67.836h-0.436c-0.211,0-0.46,0.01-0.747,0.029c-0.286,0.02-0.528,0.042-0.728,0.068
				c-0.354,0.051-0.739,0.411-1.157,1.082c-0.418,0.67-0.723,1.298-0.916,1.884h-0.735v-3.952h12.713V70.899z"/>
			<path d="M179.918,80.732h-7.261v-0.766c0.168-0.014,0.412-0.033,0.733-0.059c0.323-0.025,0.545-0.064,0.668-0.117
				c0.226-0.096,0.38-0.223,0.464-0.383c0.084-0.158,0.126-0.359,0.126-0.605v-9.76c0-0.22-0.041-0.414-0.121-0.582
				c-0.081-0.168-0.237-0.305-0.469-0.408c-0.148-0.064-0.365-0.131-0.652-0.199c-0.287-0.066-0.536-0.113-0.749-0.14v-0.767h7.261
				v0.767c-0.188,0.019-0.418,0.048-0.691,0.083c-0.274,0.035-0.508,0.086-0.701,0.148c-0.238,0.086-0.398,0.217-0.479,0.395
				c-0.081,0.178-0.121,0.381-0.121,0.605v9.75c0,0.233,0.042,0.432,0.125,0.598c0.085,0.164,0.242,0.299,0.475,0.402
				c0.129,0.059,0.343,0.115,0.643,0.17s0.549,0.088,0.75,0.102V80.732z"/>
			<path d="M194.566,68.49c0.649,0.622,1.165,1.373,1.545,2.252c0.381,0.879,0.571,1.881,0.571,3.006
				c0,1.002-0.162,1.957-0.483,2.861c-0.321,0.906-0.785,1.685-1.389,2.338c-0.645,0.68-1.395,1.207-2.253,1.586
				c-0.858,0.377-1.882,0.566-3.071,0.566c-0.963,0-1.87-0.164-2.726-0.494c-0.854-0.33-1.607-0.809-2.257-1.436
				c-0.645-0.614-1.154-1.361-1.531-2.24s-0.564-1.859-0.564-2.939c0-1.125,0.183-2.145,0.55-3.061
				c0.367-0.914,0.873-1.698,1.517-2.352c0.643-0.641,1.402-1.133,2.277-1.479c0.873-0.346,1.805-0.52,2.793-0.52
				s1.914,0.168,2.778,0.504C193.188,67.422,193.936,67.89,194.566,68.49z M192.184,78.336c0.28-0.588,0.482-1.254,0.605-1.998
				c0.125-0.744,0.187-1.584,0.187-2.521c0-0.797-0.054-1.57-0.161-2.324s-0.292-1.424-0.553-2.012
				c-0.267-0.59-0.622-1.062-1.065-1.416c-0.442-0.357-0.993-0.535-1.651-0.535c-1.121,0-1.974,0.555-2.557,1.664
				s-0.874,2.676-0.874,4.699c0,0.861,0.063,1.674,0.19,2.436c0.127,0.764,0.327,1.43,0.602,1.999
				c0.279,0.575,0.633,1.023,1.06,1.343c0.428,0.32,0.953,0.48,1.579,0.48c0.619,0,1.148-0.16,1.588-0.484
				C191.573,79.342,191.923,78.899,192.184,78.336z"/>
			<path d="M214.323,67.694c-0.177,0.021-0.429,0.056-0.751,0.107c-0.324,0.052-0.617,0.179-0.878,0.38
				c-0.229,0.174-0.394,0.475-0.491,0.9c-0.099,0.425-0.147,1.049-0.147,1.873v9.869H210.4l-8.178-10.668v6.463
				c0,0.803,0.049,1.412,0.147,1.83c0.099,0.417,0.259,0.723,0.481,0.916c0.164,0.143,0.426,0.268,0.781,0.379
				c0.355,0.109,0.641,0.184,0.857,0.223v0.766h-5.605v-0.766c0.239-0.02,0.514-0.066,0.826-0.141
				c0.311-0.074,0.573-0.189,0.787-0.346c0.24-0.188,0.403-0.471,0.491-0.85c0.087-0.379,0.131-1.016,0.131-1.91v-6.529
				c0-0.324-0.046-0.629-0.14-0.918c-0.092-0.287-0.242-0.535-0.445-0.744c-0.213-0.219-0.457-0.393-0.735-0.52
				c-0.278-0.126-0.594-0.225-0.946-0.296v-0.767h4.928l7.172,9.356v-5.241c0-0.834-0.053-1.453-0.158-1.859
				s-0.269-0.708-0.492-0.904c-0.179-0.148-0.439-0.277-0.784-0.385s-0.622-0.18-0.832-0.22v-0.747h5.637V67.694z"/>
			<path d="M230.209,80.732h-7.168v-0.766c0.334-0.025,0.73-0.09,1.186-0.189s0.684-0.225,0.684-0.375
				c0-0.051-0.006-0.109-0.016-0.174c-0.01-0.065-0.033-0.152-0.072-0.264l-1.121-2.857h-4.562c-0.103,0.266-0.22,0.576-0.349,0.934
				c-0.129,0.355-0.238,0.674-0.33,0.953c-0.115,0.361-0.186,0.625-0.208,0.787s-0.033,0.275-0.033,0.34
				c0,0.207,0.152,0.385,0.458,0.529c0.305,0.146,0.81,0.252,1.514,0.316v0.766h-5.391v-0.766c0.207-0.014,0.439-0.047,0.694-0.102
				c0.256-0.055,0.455-0.131,0.598-0.229c0.259-0.156,0.476-0.348,0.651-0.574c0.174-0.227,0.319-0.496,0.437-0.807
				c0.712-1.822,1.429-3.646,2.147-5.475s1.516-3.844,2.39-6.047h1.846c1.211,3.123,2.158,5.594,2.842,7.408
				c0.683,1.814,1.265,3.319,1.743,4.512c0.084,0.194,0.189,0.371,0.311,0.529c0.123,0.16,0.299,0.31,0.525,0.453
				c0.176,0.104,0.376,0.182,0.603,0.232c0.227,0.053,0.435,0.084,0.622,0.098V80.732z M223.316,75.158l-1.916-5.034l-1.896,5.034
				H223.316z"/>
			<path d="M244.685,76.322l-0.263,4.41H232.34v-0.766c0.22-0.02,0.475-0.05,0.764-0.092s0.48-0.082,0.57-0.121
				c0.229-0.092,0.384-0.217,0.469-0.379c0.084-0.162,0.127-0.368,0.127-0.621v-9.711c0-0.232-0.035-0.426-0.104-0.578
				c-0.068-0.15-0.232-0.289-0.492-0.412c-0.188-0.09-0.416-0.162-0.688-0.217c-0.27-0.057-0.485-0.096-0.646-0.122v-0.767h7.197
				v0.767c-0.192,0.019-0.424,0.048-0.689,0.083c-0.269,0.035-0.502,0.086-0.701,0.15c-0.238,0.084-0.398,0.215-0.479,0.393
				c-0.08,0.178-0.12,0.381-0.12,0.607V78c0,0.428,0.029,0.764,0.087,1.01s0.165,0.428,0.32,0.543
				c0.162,0.123,0.387,0.203,0.675,0.238c0.287,0.035,0.684,0.053,1.189,0.053c0.491,0,0.971-0.029,1.436-0.092
				c0.465-0.061,0.799-0.195,1-0.401c0.316-0.329,0.641-0.792,0.97-1.388c0.331-0.598,0.593-1.145,0.786-1.641H244.685z"/>
			<path d="M267.957,70.393c0,0.777-0.152,1.445-0.457,2.006c-0.305,0.559-0.726,1.014-1.264,1.363
				c-0.557,0.361-1.191,0.623-1.906,0.785c-0.712,0.162-1.512,0.242-2.399,0.242h-1.079v3.876c0,0.233,0.041,0.437,0.127,0.607
				c0.084,0.171,0.244,0.31,0.48,0.413c0.123,0.051,0.326,0.105,0.607,0.165c0.279,0.058,0.518,0.097,0.715,0.116v0.766h-7.139
				v-0.766c0.183-0.02,0.421-0.047,0.717-0.082c0.297-0.035,0.502-0.08,0.619-0.131c0.24-0.104,0.399-0.23,0.477-0.379
				c0.078-0.148,0.117-0.355,0.117-0.621v-9.711c0-0.227-0.037-0.422-0.111-0.587s-0.234-0.303-0.482-0.413
				c-0.169-0.076-0.398-0.146-0.688-0.207c-0.289-0.063-0.504-0.104-0.648-0.122v-0.767h7.251c1.698,0,2.967,0.283,3.806,0.85
				C267.539,68.363,267.957,69.229,267.957,70.393z M264.373,70.871c0-1.027-0.199-1.79-0.599-2.287
				c-0.398-0.498-1.114-0.748-2.147-0.748h-0.775v6.004h0.392c1.027,0,1.806-0.242,2.336-0.727
				C264.109,72.628,264.373,71.881,264.373,70.871z"/>
			<path d="M283.661,80.732h-7.168v-0.766c0.335-0.025,0.73-0.09,1.187-0.189c0.455-0.1,0.684-0.225,0.684-0.375
				c0-0.051-0.006-0.109-0.016-0.174c-0.01-0.065-0.034-0.152-0.073-0.264l-1.119-2.857h-4.563
				c-0.103,0.266-0.219,0.576-0.349,0.934c-0.128,0.355-0.239,0.674-0.329,0.953c-0.116,0.361-0.186,0.625-0.209,0.787
				c-0.021,0.162-0.032,0.275-0.032,0.34c0,0.207,0.151,0.385,0.458,0.529c0.305,0.146,0.809,0.252,1.514,0.316v0.766h-5.393v-0.766
				c0.209-0.014,0.441-0.047,0.695-0.102c0.256-0.055,0.456-0.131,0.598-0.229c0.26-0.156,0.477-0.348,0.651-0.574
				s0.32-0.496,0.437-0.807c0.713-1.822,1.43-3.646,2.147-5.475c0.72-1.828,1.516-3.844,2.39-6.047h1.846
				c1.211,3.123,2.158,5.594,2.842,7.408s1.265,3.319,1.744,4.512c0.084,0.194,0.188,0.371,0.311,0.529
				c0.123,0.16,0.299,0.31,0.525,0.453c0.174,0.104,0.375,0.182,0.603,0.232c0.227,0.053,0.433,0.084,0.621,0.098V80.732z
				 M276.77,75.158l-1.916-5.034l-1.896,5.034H276.77z"/>
			<path d="M298.137,76.322l-0.262,4.41h-12.084v-0.766c0.221-0.02,0.477-0.05,0.766-0.092s0.479-0.082,0.57-0.121
				c0.228-0.092,0.383-0.217,0.468-0.379s0.127-0.368,0.127-0.621v-9.711c0-0.232-0.034-0.426-0.103-0.578
				c-0.068-0.15-0.232-0.289-0.492-0.412c-0.188-0.09-0.418-0.162-0.688-0.217c-0.27-0.057-0.485-0.096-0.648-0.122v-0.767h7.199
				v0.767c-0.193,0.019-0.424,0.048-0.691,0.083c-0.267,0.035-0.501,0.086-0.7,0.15c-0.238,0.084-0.398,0.215-0.479,0.393
				c-0.08,0.178-0.119,0.381-0.119,0.607V78c0,0.428,0.027,0.764,0.087,1.01c0.058,0.246,0.165,0.428,0.32,0.543
				c0.162,0.123,0.386,0.203,0.675,0.238c0.287,0.035,0.684,0.053,1.189,0.053c0.49,0,0.969-0.029,1.436-0.092
				c0.465-0.061,0.799-0.195,1-0.401c0.316-0.329,0.639-0.792,0.971-1.388c0.329-0.598,0.591-1.145,0.785-1.641H298.137z"/>
			<path d="M314.652,80.732h-7.168v-0.766c0.334-0.025,0.729-0.09,1.185-0.189s0.684-0.225,0.684-0.375
				c0-0.051-0.005-0.109-0.015-0.174c-0.01-0.065-0.035-0.152-0.072-0.264l-1.121-2.857h-4.562c-0.104,0.266-0.22,0.576-0.35,0.934
				c-0.13,0.355-0.239,0.674-0.329,0.953c-0.115,0.361-0.186,0.625-0.209,0.787c-0.022,0.162-0.033,0.275-0.033,0.34
				c0,0.207,0.152,0.385,0.458,0.529c0.306,0.146,0.811,0.252,1.515,0.316v0.766h-5.392v-0.766c0.208-0.014,0.44-0.047,0.694-0.102
				c0.256-0.055,0.455-0.131,0.598-0.229c0.26-0.156,0.477-0.348,0.651-0.574s0.32-0.496,0.437-0.807
				c0.713-1.822,1.429-3.646,2.148-5.475c0.719-1.828,1.514-3.844,2.389-6.047h1.846c1.211,3.123,2.158,5.594,2.842,7.408
				s1.265,3.319,1.744,4.512c0.084,0.194,0.188,0.371,0.311,0.529c0.123,0.16,0.299,0.31,0.525,0.453
				c0.174,0.104,0.375,0.182,0.602,0.232c0.227,0.053,0.434,0.084,0.623,0.098V80.732z M307.759,75.158l-1.915-5.034l-1.898,5.034
				H307.759z"/>
			<path d="M322.531,81.1c-0.969,0-1.873-0.163-2.713-0.49c-0.842-0.326-1.574-0.801-2.197-1.422
				c-0.611-0.609-1.092-1.361-1.447-2.258c-0.354-0.898-0.529-1.883-0.529-2.959c0-1.068,0.178-2.057,0.535-2.967
				c0.357-0.908,0.859-1.697,1.502-2.364c0.631-0.653,1.389-1.161,2.271-1.521c0.885-0.359,1.83-0.539,2.838-0.539
				c0.734,0,1.402,0.093,2.004,0.276c0.601,0.185,1.105,0.394,1.516,0.626l0.575-0.535h0.796l0.093,5.024h-0.827
				c-0.461-1.528-1.016-2.651-1.663-3.368c-0.648-0.715-1.44-1.074-2.374-1.074c-1.16,0-2.045,0.537-2.65,1.609
				c-0.607,1.072-0.909,2.575-0.909,4.512c0,1.096,0.104,2.029,0.312,2.803c0.207,0.775,0.477,1.398,0.808,1.871
				c0.364,0.492,0.788,0.854,1.276,1.084c0.486,0.229,1.025,0.344,1.615,0.344c0.87,0,1.643-0.248,2.318-0.745
				c0.674-0.497,1.291-1.249,1.85-2.257l0.797,0.508c-0.267,0.572-0.571,1.084-0.911,1.535c-0.341,0.453-0.732,0.842-1.175,1.166
				c-0.492,0.357-1.033,0.638-1.621,0.84C324.031,81,323.336,81.1,322.531,81.1z"/>
			<path d="M343.602,70.471h-0.734c-0.18-0.522-0.488-1.053-0.923-1.588c-0.435-0.536-0.866-0.853-1.299-0.949
				c-0.179-0.045-0.434-0.072-0.763-0.082c-0.328-0.01-0.598-0.016-0.811-0.016h-1.902v5.3h1.334c0.34,0,0.646-0.042,0.922-0.126
				c0.275-0.086,0.525-0.248,0.748-0.488c0.143-0.15,0.283-0.413,0.424-0.789c0.141-0.379,0.234-0.707,0.278-0.986h0.735v5.76
				h-0.735c-0.038-0.271-0.132-0.613-0.278-1.023c-0.148-0.41-0.289-0.693-0.424-0.848c-0.204-0.232-0.442-0.393-0.715-0.48
				c-0.271-0.086-0.59-0.131-0.955-0.131h-1.334v3.975c0,0.414,0.027,0.744,0.086,0.986c0.06,0.244,0.168,0.43,0.331,0.559
				c0.154,0.123,0.366,0.203,0.636,0.242c0.268,0.039,0.633,0.059,1.092,0.059c0.221,0,0.48-0.002,0.781-0.009
				s0.564-0.026,0.791-0.059c0.258-0.032,0.502-0.081,0.729-0.146s0.394-0.158,0.504-0.281c0.297-0.316,0.631-0.799,1-1.447
				s0.611-1.135,0.729-1.459h0.674l-0.253,4.289h-12.308v-0.766c0.176-0.014,0.411-0.039,0.707-0.078
				c0.297-0.038,0.506-0.084,0.629-0.135c0.24-0.104,0.4-0.234,0.478-0.393c0.078-0.158,0.117-0.361,0.117-0.607v-9.711
				c0-0.232-0.034-0.426-0.103-0.578c-0.068-0.15-0.232-0.289-0.492-0.412c-0.156-0.077-0.381-0.148-0.672-0.213
				c-0.293-0.064-0.514-0.107-0.664-0.126v-0.767h11.641V70.471z"/>
			<path d="M373.984,80.732h-7.107v-0.766c0.207-0.02,0.463-0.053,0.77-0.098s0.514-0.094,0.623-0.145
				c0.227-0.098,0.388-0.23,0.484-0.398c0.096-0.168,0.146-0.381,0.146-0.641V68.395l-4.503,12.123h-1.164
				c-0.058-0.213-0.195-0.637-0.412-1.272s-0.393-1.144-0.529-1.526l-3.316-9.479v8.377c0,0.803,0.049,1.413,0.146,1.83
				c0.1,0.418,0.26,0.723,0.48,0.918c0.152,0.135,0.425,0.266,0.814,0.389c0.391,0.123,0.666,0.193,0.826,0.213v0.766h-5.607v-0.766
				c0.155-0.02,0.407-0.063,0.754-0.131c0.346-0.068,0.633-0.186,0.861-0.354c0.246-0.182,0.41-0.487,0.495-0.918
				c0.084-0.43,0.126-1.043,0.126-1.838v-6.82c0-0.414-0.049-0.758-0.146-1.033c-0.098-0.274-0.246-0.492-0.447-0.654
				c-0.248-0.201-0.501-0.33-0.762-0.389c-0.26-0.059-0.523-0.098-0.789-0.116v-0.767h6.063L365,76.02l2.737-7.371
				c0.097-0.271,0.188-0.592,0.272-0.967c0.084-0.373,0.129-0.617,0.137-0.734h5.838v0.767c-0.197,0.013-0.404,0.039-0.621,0.077
				c-0.219,0.039-0.425,0.092-0.62,0.154c-0.241,0.086-0.401,0.219-0.479,0.398c-0.079,0.182-0.117,0.383-0.117,0.602v9.75
				c0,0.233,0.038,0.43,0.115,0.588c0.078,0.158,0.236,0.296,0.475,0.412c0.122,0.059,0.324,0.113,0.605,0.164
				c0.279,0.053,0.494,0.088,0.643,0.107V80.732z"/>
			<path d="M392.478,67.734c-0.175,0.02-0.435,0.063-0.772,0.131s-0.623,0.186-0.85,0.354c-0.235,0.162-0.401,0.451-0.498,0.871
				c-0.099,0.42-0.146,1.049-0.146,1.889v5.115c0,1.504-0.488,2.715-1.464,3.631c-0.976,0.918-2.268,1.375-3.875,1.375
				c-1.866,0-3.312-0.441-4.337-1.326c-1.023-0.885-1.535-2.118-1.535-3.701v-7.031c0-0.227-0.043-0.42-0.128-0.582
				c-0.085-0.16-0.245-0.306-0.479-0.436c-0.163-0.084-0.361-0.15-0.596-0.203c-0.234-0.051-0.426-0.088-0.575-0.106v-0.767h6.861
				v0.767c-0.193,0.013-0.395,0.038-0.598,0.073s-0.41,0.088-0.617,0.158c-0.24,0.078-0.398,0.208-0.477,0.389
				s-0.116,0.384-0.116,0.609v6.936c0,1.363,0.288,2.354,0.864,2.975c0.576,0.619,1.41,0.93,2.504,0.93
				c1.079,0,1.926-0.342,2.541-1.027c0.613-0.684,0.922-1.691,0.922-3.021v-4.658c0-0.827-0.055-1.445-0.166-1.855
				c-0.109-0.41-0.273-0.705-0.493-0.887c-0.161-0.142-0.442-0.271-0.839-0.387c-0.398-0.117-0.674-0.188-0.829-0.213v-0.787h5.697
				V67.734z"/>
			<path d="M421.645,70.471h-0.736c-0.181-0.522-0.487-1.053-0.922-1.588c-0.436-0.536-0.868-0.853-1.299-0.949
				c-0.18-0.045-0.434-0.072-0.763-0.082s-0.599-0.016-0.812-0.016h-1.902v5.3h1.335c0.339,0,0.646-0.042,0.922-0.126
				c0.274-0.086,0.524-0.248,0.748-0.488c0.142-0.15,0.282-0.413,0.423-0.789c0.142-0.379,0.234-0.707,0.279-0.986h0.734v5.76
				h-0.734c-0.039-0.271-0.132-0.613-0.279-1.023c-0.146-0.41-0.287-0.693-0.423-0.848c-0.204-0.232-0.442-0.393-0.716-0.48
				c-0.271-0.086-0.59-0.131-0.954-0.131h-1.335v3.975c0,0.414,0.029,0.744,0.088,0.986c0.057,0.244,0.168,0.43,0.33,0.559
				c0.154,0.123,0.366,0.203,0.635,0.242c0.27,0.039,0.633,0.059,1.093,0.059c0.22,0,0.479-0.002,0.78-0.009
				s0.564-0.026,0.792-0.059c0.258-0.032,0.501-0.081,0.728-0.146s0.395-0.158,0.506-0.281c0.297-0.316,0.631-0.799,0.998-1.447
				c0.369-0.648,0.612-1.135,0.729-1.459h0.674l-0.252,4.289h-12.307v-0.766c0.176-0.014,0.41-0.039,0.706-0.078
				c0.296-0.038,0.505-0.084,0.63-0.135c0.239-0.104,0.398-0.234,0.477-0.393c0.077-0.158,0.116-0.361,0.116-0.607v-9.711
				c0-0.232-0.034-0.426-0.103-0.578c-0.068-0.15-0.232-0.289-0.49-0.412c-0.157-0.077-0.382-0.148-0.674-0.213
				c-0.293-0.064-0.514-0.107-0.662-0.126v-0.767h11.641V70.471z"/>
			<path d="M440.428,67.734c-0.176,0.02-0.434,0.063-0.772,0.131s-0.622,0.186-0.85,0.354c-0.235,0.162-0.401,0.451-0.499,0.871
				c-0.097,0.42-0.146,1.049-0.146,1.889v5.115c0,1.504-0.488,2.715-1.464,3.631c-0.977,0.918-2.268,1.375-3.875,1.375
				c-1.867,0-3.313-0.441-4.336-1.326c-1.025-0.885-1.537-2.118-1.537-3.701v-7.031c0-0.227-0.043-0.42-0.127-0.582
				c-0.085-0.16-0.244-0.306-0.479-0.436c-0.162-0.084-0.361-0.15-0.596-0.203c-0.234-0.051-0.426-0.088-0.576-0.106v-0.767h6.862
				v0.767c-0.194,0.013-0.394,0.038-0.599,0.073c-0.203,0.035-0.408,0.088-0.615,0.158c-0.241,0.078-0.399,0.208-0.477,0.389
				c-0.078,0.181-0.117,0.384-0.117,0.609v6.936c0,1.363,0.289,2.354,0.863,2.975c0.576,0.619,1.41,0.93,2.504,0.93
				c1.08,0,1.928-0.342,2.541-1.027c0.615-0.684,0.924-1.691,0.924-3.021v-4.658c0-0.827-0.056-1.445-0.166-1.855
				s-0.275-0.705-0.494-0.887c-0.162-0.142-0.441-0.271-0.84-0.387c-0.397-0.117-0.674-0.188-0.828-0.213v-0.787h5.697V67.734z"/>
			<path d="M461.139,80.732h-7.106v-0.766c0.206-0.02,0.462-0.053,0.769-0.098s0.514-0.094,0.623-0.145
				c0.227-0.098,0.388-0.23,0.484-0.398c0.098-0.168,0.145-0.381,0.145-0.641V68.395l-4.5,12.123h-1.166
				c-0.058-0.213-0.195-0.637-0.41-1.272c-0.219-0.636-0.395-1.144-0.529-1.526l-3.318-9.479v8.377c0,0.803,0.049,1.413,0.146,1.83
				c0.1,0.418,0.26,0.723,0.481,0.918c0.151,0.135,0.425,0.266,0.815,0.389s0.664,0.193,0.822,0.213v0.766h-5.605v-0.766
				c0.156-0.02,0.407-0.063,0.754-0.131s0.635-0.186,0.861-0.354c0.244-0.182,0.41-0.487,0.495-0.918
				c0.085-0.43,0.127-1.043,0.127-1.838v-6.82c0-0.414-0.05-0.758-0.147-1.033c-0.098-0.274-0.246-0.492-0.447-0.654
				c-0.248-0.201-0.501-0.33-0.761-0.389c-0.261-0.059-0.522-0.098-0.79-0.116v-0.767h6.063l3.211,9.072l2.736-7.371
				c0.098-0.271,0.188-0.592,0.274-0.967c0.083-0.373,0.128-0.617,0.136-0.734h5.838v0.767c-0.195,0.013-0.402,0.039-0.621,0.077
				c-0.219,0.039-0.426,0.092-0.621,0.154c-0.24,0.086-0.4,0.219-0.479,0.398c-0.079,0.182-0.117,0.383-0.117,0.602v9.75
				c0,0.233,0.038,0.43,0.115,0.588c0.078,0.158,0.236,0.296,0.475,0.412c0.123,0.059,0.324,0.113,0.604,0.164
				c0.28,0.053,0.495,0.088,0.644,0.107V80.732z"/>
			<path d="M401.201,81.102c-0.802,0-1.549-0.107-2.24-0.32c-0.694-0.211-1.281-0.459-1.762-0.744l-0.637,0.68h-0.777l-0.129-4.982
				h0.799c0.178,0.473,0.405,0.971,0.683,1.496c0.276,0.523,0.597,0.993,0.96,1.408c0.373,0.434,0.794,0.786,1.259,1.059
				c0.464,0.271,1.007,0.407,1.628,0.407c0.838,0,1.479-0.216,1.924-0.646c0.447-0.43,0.67-0.972,0.67-1.625
				c0-0.537-0.188-0.988-0.568-1.354c-0.377-0.366-0.964-0.683-1.758-0.948c-0.516-0.176-0.99-0.338-1.425-0.486
				c-0.435-0.15-0.843-0.303-1.224-0.457c-0.881-0.37-1.533-0.898-1.961-1.585s-0.642-1.454-0.642-2.302
				c0-0.537,0.11-1.054,0.333-1.549c0.222-0.496,0.545-0.941,0.971-1.336c0.406-0.369,0.928-0.67,1.563-0.904
				c0.636-0.232,1.326-0.35,2.072-0.35c0.727,0,1.408,0.107,2.044,0.323c0.635,0.216,1.135,0.431,1.499,0.644l0.564-0.582h0.798
				l0.064,4.688h-0.798c-0.186-0.504-0.402-1.021-0.651-1.549s-0.513-0.967-0.79-1.316c-0.301-0.375-0.648-0.674-1.043-0.898
				c-0.395-0.223-0.855-0.334-1.385-0.334c-0.664,0-1.209,0.197-1.63,0.592c-0.421,0.396-0.633,0.885-0.633,1.469
				c0,0.551,0.184,1.002,0.551,1.352c0.366,0.35,0.938,0.657,1.714,0.924c0.457,0.161,0.922,0.324,1.396,0.486
				s0.896,0.316,1.267,0.467c0.894,0.361,1.573,0.863,2.038,1.502s0.697,1.432,0.697,2.378c0,0.597-0.132,1.173-0.396,1.73
				c-0.266,0.558-0.623,1.021-1.072,1.392c-0.492,0.407-1.062,0.723-1.709,0.943C402.817,80.99,402.063,81.102,401.201,81.102z"/>
		</g>
	</g>
	<g>
		<path fill="#790000" d="M98.5,49.254c0,27.195-22.05,49.25-49.25,49.25C22.05,98.504,0,76.449,0,49.254C0,22.056,22.05,0,49.25,0
			C76.45,0,98.5,22.056,98.5,49.254z"/>
		<g>
			<path fill="#FFFFFF" d="M32.363,17.895H17.896v14.477h14.467V17.895z M27.54,27.541h-4.825v-4.815h4.825V27.541z"/>
			<path fill="#FFFFFF" d="M66.138,17.895v14.477h14.466V17.895H66.138z M75.78,27.541h-4.82v-4.815h4.82V27.541z"/>
			<path fill="#FFFFFF" d="M66.138,80.611h14.466V66.137H66.138V80.611z M70.96,70.969h4.82v4.819h-4.82V70.969z"/>
			<path fill="#FFFFFF" d="M17.896,80.611h14.467V66.137H17.896V80.611z M22.715,70.969h4.825v4.819h-4.825V70.969z"/>
			<polygon fill="#FFFFFF" points="56.478,75.788 51.66,75.788 51.66,22.726 56.478,22.726 56.478,32.371 61.305,32.371 
				61.305,17.895 37.19,17.895 37.19,32.371 42.016,32.371 42.016,22.726 46.836,22.726 46.836,75.788 42.016,75.788 42.016,66.137 
				37.19,66.137 37.19,80.611 61.305,80.611 61.305,66.137 56.478,66.137 			"/>
			<polygon fill="#FFFFFF" points="42.016,37.193 17.896,37.193 17.896,51.66 32.363,51.66 32.363,46.84 22.719,46.84 
				22.719,42.023 37.19,42.023 37.19,56.492 17.896,56.492 17.896,61.316 42.016,61.316 			"/>
			<polygon fill="#FFFFFF" points="66.129,46.84 66.129,51.66 80.598,51.66 80.598,37.193 56.478,37.193 56.478,61.316 
				80.598,61.316 80.598,56.492 61.305,56.492 61.305,42.023 75.772,42.023 75.772,46.84 			"/>
		</g>
	</g>
</g>
</svg>
