<?xml version="1.0" encoding="utf-8"?>
<!-- Generator: Adobe Illustrator 16.0.0, SVG Export Plug-In . SVG Version: 6.00 Build 0)  -->
<!DOCTYPE svg PUBLIC "-//W3C//DTD SVG 1.1//EN" "http://www.w3.org/Graphics/SVG/1.1/DTD/svg11.dtd">
<svg version="1.1" id="_x3C_圖層_x3E_" xmlns="http://www.w3.org/2000/svg" xmlns:xlink="http://www.w3.org/1999/xlink" x="0px"
	 y="0px" width="80.603px" height="389.035px" viewBox="0 0 80.603 389.035" enable-background="new 0 0 80.603 389.035"
	 xml:space="preserve">
<g>
	<g>
		<g>
			<path d="M25.692,117.874c-0.018-0.15-0.047-0.361-0.091-0.635c-0.043-0.273-0.15-0.521-0.32-0.742
				c-0.149-0.193-0.402-0.333-0.76-0.415c-0.36-0.083-0.887-0.125-1.584-0.125h-8.34v-1.399l9.015-6.91H18.15
				c-0.678,0-1.193,0.042-1.545,0.125c-0.353,0.083-0.61,0.219-0.775,0.407c-0.12,0.14-0.227,0.36-0.319,0.66
				c-0.093,0.299-0.155,0.542-0.188,0.724h-0.647v-4.737h0.647c0.016,0.203,0.056,0.437,0.118,0.699
				c0.064,0.263,0.161,0.485,0.292,0.666c0.158,0.202,0.398,0.341,0.717,0.415c0.321,0.073,0.86,0.11,1.614,0.11h5.518
				c0.274,0,0.532-0.039,0.776-0.117c0.243-0.079,0.453-0.205,0.629-0.377c0.186-0.179,0.333-0.386,0.439-0.621
				c0.107-0.236,0.19-0.503,0.249-0.8h0.649v4.164l-7.906,6.061h4.429c0.703,0,1.227-0.045,1.57-0.134
				c0.344-0.088,0.599-0.228,0.764-0.416c0.126-0.151,0.235-0.372,0.325-0.663s0.153-0.526,0.186-0.703h0.631v4.763H25.692z"/>
			<path d="M14.674,131.298v-6.057h0.647c0.022,0.282,0.075,0.616,0.16,1.001c0.085,0.385,0.19,0.578,0.316,0.578
				c0.044,0,0.093-0.005,0.148-0.013c0.055-0.009,0.128-0.029,0.222-0.062l2.416-0.947v-3.855c-0.225-0.087-0.487-0.187-0.79-0.295
				c-0.3-0.109-0.57-0.201-0.804-0.278c-0.308-0.098-0.529-0.157-0.667-0.176c-0.138-0.02-0.232-0.029-0.287-0.029
				c-0.176,0-0.325,0.129-0.448,0.388c-0.123,0.258-0.212,0.685-0.267,1.279h-0.647v-4.556h0.647
				c0.011,0.175,0.04,0.371,0.086,0.586c0.046,0.216,0.11,0.385,0.193,0.506c0.131,0.219,0.294,0.402,0.484,0.55
				c0.192,0.147,0.419,0.27,0.682,0.369c1.54,0.602,3.083,1.207,4.627,1.815c1.545,0.607,3.248,1.28,5.11,2.019v1.56
				c-2.64,1.023-4.728,1.823-6.261,2.401c-1.533,0.578-2.805,1.068-3.813,1.473c-0.165,0.072-0.313,0.159-0.447,0.262
				c-0.134,0.104-0.261,0.253-0.382,0.444c-0.088,0.147-0.153,0.317-0.197,0.509c-0.044,0.19-0.071,0.366-0.082,0.525H14.674z
				 M19.386,125.473l4.253-1.619l-4.253-1.604V125.473z"/>
			<path d="M22.983,142.118v-0.622c0.496-0.157,1.026-0.415,1.593-0.771c0.566-0.357,0.871-0.685,0.915-0.984
				c0.021-0.169,0.04-0.375,0.056-0.617c0.017-0.243,0.026-0.453,0.026-0.633v-0.36h-9.113c-0.197,0-0.369,0.033-0.52,0.1
				c-0.15,0.066-0.27,0.2-0.356,0.404c-0.049,0.121-0.1,0.308-0.152,0.561c-0.051,0.254-0.088,0.468-0.11,0.645h-0.647v-6.187h0.647
				c0.016,0.152,0.04,0.366,0.069,0.64c0.03,0.273,0.066,0.46,0.111,0.559c0.087,0.202,0.205,0.337,0.352,0.406
				c0.147,0.068,0.322,0.103,0.524,0.103h9.195v-0.367c0-0.18-0.009-0.39-0.026-0.631c-0.016-0.242-0.034-0.447-0.056-0.615
				c-0.044-0.299-0.349-0.625-0.915-0.979c-0.566-0.353-1.097-0.611-1.593-0.773v-0.621h3.34v10.742H22.983z"/>
			<path d="M14.674,150.547v-6.135h0.647c0.011,0.141,0.027,0.348,0.049,0.62c0.021,0.272,0.054,0.46,0.098,0.565
				c0.083,0.19,0.189,0.32,0.324,0.392c0.134,0.07,0.304,0.106,0.513,0.106h8.247c0.185,0,0.35-0.035,0.492-0.103
				c0.141-0.068,0.256-0.2,0.343-0.396c0.055-0.125,0.111-0.31,0.168-0.552c0.058-0.242,0.098-0.453,0.118-0.632h0.649v6.135h-0.649
				c-0.015-0.159-0.038-0.354-0.068-0.584c-0.03-0.231-0.073-0.429-0.126-0.592c-0.072-0.202-0.182-0.337-0.333-0.405
				c-0.152-0.068-0.321-0.102-0.513-0.102h-8.239c-0.196,0-0.364,0.035-0.503,0.105c-0.141,0.071-0.253,0.205-0.34,0.401
				c-0.05,0.108-0.098,0.289-0.144,0.542c-0.046,0.254-0.075,0.464-0.086,0.634H14.674z"/>
			<path d="M25.02,162.926c-0.525,0.549-1.159,0.984-1.902,1.306s-1.59,0.482-2.541,0.482c-0.847,0-1.653-0.136-2.418-0.408
				c-0.765-0.271-1.423-0.663-1.975-1.174c-0.574-0.544-1.021-1.178-1.34-1.903c-0.32-0.726-0.479-1.591-0.479-2.596
				c0-0.813,0.139-1.58,0.417-2.302c0.279-0.723,0.684-1.359,1.213-1.908c0.519-0.544,1.15-0.975,1.894-1.293
				c0.743-0.318,1.571-0.478,2.484-0.478c0.951,0,1.813,0.154,2.586,0.465c0.772,0.311,1.435,0.738,1.987,1.282
				c0.541,0.543,0.958,1.185,1.249,1.923c0.292,0.739,0.439,1.526,0.439,2.36c0,0.835-0.142,1.618-0.427,2.348
				C25.923,161.761,25.527,162.393,25.02,162.926z M16.699,160.913c0.497,0.237,1.061,0.408,1.689,0.511
				c0.628,0.105,1.338,0.158,2.131,0.158c0.672,0,1.326-0.045,1.961-0.136c0.639-0.091,1.205-0.247,1.702-0.467
				c0.497-0.226,0.897-0.526,1.196-0.9c0.302-0.375,0.452-0.84,0.452-1.396c0-0.948-0.47-1.667-1.406-2.16
				c-0.938-0.493-2.262-0.739-3.972-0.739c-0.727,0-1.413,0.053-2.057,0.161c-0.645,0.107-1.208,0.276-1.689,0.508
				c-0.486,0.237-0.864,0.536-1.135,0.896c-0.27,0.36-0.405,0.806-0.405,1.333c0,0.523,0.136,0.97,0.41,1.342
				C15.849,160.396,16.224,160.692,16.699,160.913z"/>
			<path d="M25.692,179.62c-0.018-0.149-0.047-0.36-0.091-0.634c-0.043-0.274-0.15-0.521-0.32-0.742
				c-0.149-0.193-0.402-0.332-0.76-0.414c-0.36-0.083-0.887-0.125-1.584-0.125h-8.34v-1.399l9.015-6.909H18.15
				c-0.678,0-1.193,0.041-1.545,0.123c-0.353,0.084-0.61,0.22-0.775,0.407c-0.12,0.14-0.227,0.36-0.319,0.66
				c-0.093,0.301-0.155,0.542-0.188,0.725h-0.647v-4.737h0.647c0.016,0.203,0.056,0.436,0.118,0.698
				c0.064,0.264,0.161,0.484,0.292,0.666c0.158,0.202,0.398,0.341,0.717,0.415c0.321,0.073,0.86,0.11,1.614,0.11h5.518
				c0.274,0,0.532-0.039,0.776-0.117c0.243-0.079,0.453-0.204,0.629-0.378c0.186-0.179,0.333-0.385,0.439-0.621
				c0.107-0.235,0.19-0.502,0.249-0.8h0.649v4.165l-7.906,6.061h4.429c0.703,0,1.227-0.045,1.57-0.134
				c0.344-0.088,0.599-0.228,0.764-0.416c0.126-0.15,0.235-0.371,0.325-0.663c0.09-0.291,0.153-0.525,0.186-0.703h0.631v4.763
				H25.692z"/>
			<path d="M14.674,193.044v-6.057h0.647c0.022,0.283,0.075,0.617,0.16,1.002c0.085,0.385,0.19,0.578,0.316,0.578
				c0.044,0,0.093-0.005,0.148-0.013c0.055-0.009,0.128-0.028,0.222-0.062l2.416-0.947v-3.855c-0.225-0.087-0.487-0.186-0.79-0.295
				c-0.3-0.108-0.57-0.201-0.804-0.277c-0.308-0.098-0.529-0.157-0.667-0.177c-0.138-0.019-0.232-0.028-0.287-0.028
				c-0.176,0-0.325,0.13-0.448,0.387c-0.123,0.259-0.212,0.686-0.267,1.28h-0.647v-4.557h0.647c0.011,0.176,0.04,0.372,0.086,0.588
				s0.11,0.384,0.193,0.505c0.131,0.219,0.294,0.402,0.484,0.55c0.192,0.148,0.419,0.271,0.682,0.37
				c1.54,0.602,3.083,1.206,4.627,1.813c1.545,0.607,3.248,1.281,5.11,2.02v1.561c-2.64,1.022-4.728,1.823-6.261,2.4
				c-1.533,0.578-2.805,1.068-3.813,1.474c-0.165,0.072-0.313,0.16-0.447,0.264s-0.261,0.251-0.382,0.443
				c-0.088,0.147-0.153,0.316-0.197,0.508c-0.044,0.192-0.071,0.367-0.082,0.525H14.674z M19.386,187.22l4.253-1.618l-4.253-1.604
				V187.22z"/>
			<path d="M18.402,205.276l-3.728-0.221v-10.211h0.647c0.016,0.187,0.042,0.402,0.077,0.646c0.037,0.244,0.071,0.405,0.104,0.482
				c0.077,0.191,0.184,0.323,0.32,0.395c0.138,0.072,0.312,0.107,0.525,0.107h8.207c0.196,0,0.358-0.028,0.487-0.086
				c0.128-0.059,0.245-0.196,0.348-0.416c0.077-0.16,0.139-0.354,0.184-0.581c0.048-0.228,0.082-0.41,0.102-0.548h0.649v6.084
				h-0.649c-0.015-0.164-0.038-0.359-0.068-0.585c-0.03-0.227-0.073-0.423-0.126-0.592c-0.072-0.201-0.182-0.336-0.333-0.404
				c-0.152-0.067-0.321-0.103-0.513-0.103h-7.651c-0.36,0-0.644,0.024-0.853,0.074c-0.208,0.049-0.361,0.14-0.46,0.271
				c-0.103,0.136-0.169,0.326-0.2,0.57c-0.03,0.242-0.045,0.577-0.045,1.004c0,0.415,0.026,0.82,0.078,1.213
				c0.052,0.394,0.165,0.676,0.34,0.846c0.278,0.268,0.668,0.54,1.173,0.82c0.505,0.278,0.966,0.5,1.387,0.664V205.276z"/>
			<path d="M23.412,224.943c-0.657,0-1.221-0.128-1.694-0.386c-0.473-0.257-0.857-0.613-1.152-1.067
				c-0.307-0.472-0.527-1.009-0.665-1.61c-0.136-0.604-0.205-1.279-0.205-2.029v-0.911h-3.275c-0.196,0-0.367,0.035-0.513,0.106
				c-0.145,0.072-0.261,0.207-0.349,0.406c-0.044,0.104-0.09,0.275-0.141,0.513c-0.048,0.237-0.082,0.439-0.097,0.604h-0.647v-6.031
				h0.647c0.016,0.154,0.04,0.355,0.069,0.604c0.03,0.25,0.068,0.425,0.111,0.524c0.087,0.203,0.193,0.337,0.32,0.402
				s0.3,0.1,0.525,0.1h8.207c0.19,0,0.356-0.032,0.495-0.095c0.139-0.063,0.257-0.2,0.349-0.407
				c0.065-0.145,0.124-0.338,0.175-0.581c0.053-0.245,0.087-0.428,0.102-0.548h0.649v6.126c0,1.436-0.24,2.507-0.719,3.216
				C25.127,224.589,24.395,224.943,23.412,224.943z M23.007,221.916c0.869,0,1.514-0.17,1.934-0.507s0.631-0.942,0.631-1.815v-0.654
				h-5.075v0.331c0,0.868,0.207,1.525,0.616,1.974C21.523,221.691,22.154,221.916,23.007,221.916z"/>
			<path d="M14.674,238.214v-6.057h0.647c0.022,0.282,0.075,0.617,0.16,1.002c0.085,0.385,0.19,0.577,0.316,0.577
				c0.044,0,0.093-0.005,0.148-0.013c0.055-0.008,0.128-0.028,0.222-0.062l2.416-0.947v-3.854c-0.225-0.087-0.487-0.186-0.79-0.295
				c-0.3-0.108-0.57-0.202-0.804-0.278c-0.308-0.099-0.529-0.157-0.667-0.176c-0.138-0.02-0.232-0.028-0.287-0.028
				c-0.176,0-0.325,0.129-0.448,0.387c-0.123,0.259-0.212,0.685-0.267,1.28h-0.647v-4.556h0.647c0.011,0.175,0.04,0.37,0.086,0.586
				s0.11,0.385,0.193,0.505c0.131,0.22,0.294,0.403,0.484,0.551c0.192,0.147,0.419,0.271,0.682,0.369
				c1.54,0.603,3.083,1.207,4.627,1.813c1.545,0.608,3.248,1.281,5.11,2.021v1.56c-2.64,1.022-4.728,1.823-6.261,2.401
				c-1.533,0.577-2.805,1.068-3.813,1.474c-0.165,0.071-0.313,0.159-0.447,0.263c-0.134,0.104-0.261,0.252-0.382,0.443
				c-0.088,0.148-0.153,0.317-0.197,0.509s-0.071,0.367-0.082,0.525H14.674z M19.386,232.39l4.253-1.619l-4.253-1.603V232.39z"/>
			<path d="M18.402,250.446l-3.728-0.222v-10.21h0.647c0.016,0.187,0.042,0.401,0.077,0.646c0.037,0.244,0.071,0.405,0.104,0.481
				c0.077,0.192,0.184,0.324,0.32,0.396c0.138,0.071,0.312,0.107,0.525,0.107h8.207c0.196,0,0.358-0.029,0.487-0.087
				c0.128-0.058,0.245-0.196,0.348-0.416c0.077-0.159,0.139-0.353,0.184-0.581c0.048-0.228,0.082-0.41,0.102-0.547h0.649v6.083
				h-0.649c-0.015-0.163-0.038-0.358-0.068-0.585c-0.03-0.226-0.073-0.422-0.126-0.591c-0.072-0.202-0.182-0.337-0.333-0.405
				c-0.152-0.068-0.321-0.101-0.513-0.101h-7.651c-0.36,0-0.644,0.022-0.853,0.072c-0.208,0.049-0.361,0.14-0.46,0.272
				c-0.103,0.136-0.169,0.326-0.2,0.569s-0.045,0.577-0.045,1.004c0,0.415,0.026,0.82,0.078,1.214
				c0.052,0.393,0.165,0.675,0.34,0.845c0.278,0.268,0.668,0.541,1.173,0.82s0.966,0.5,1.387,0.663V250.446z"/>
			<path d="M14.674,264.402v-6.058h0.647c0.022,0.283,0.075,0.617,0.16,1.002c0.085,0.385,0.19,0.577,0.316,0.577
				c0.044,0,0.093-0.004,0.148-0.012c0.055-0.009,0.128-0.029,0.222-0.062l2.416-0.946v-3.856c-0.225-0.087-0.487-0.185-0.79-0.295
				c-0.3-0.108-0.57-0.202-0.804-0.277c-0.308-0.1-0.529-0.157-0.667-0.176c-0.138-0.021-0.232-0.029-0.287-0.029
				c-0.176,0-0.325,0.129-0.448,0.388c-0.123,0.258-0.212,0.684-0.267,1.279h-0.647v-4.556h0.647c0.011,0.175,0.04,0.37,0.086,0.587
				c0.046,0.216,0.11,0.385,0.193,0.505c0.131,0.218,0.294,0.401,0.484,0.55c0.192,0.148,0.419,0.271,0.682,0.369
				c1.54,0.602,3.083,1.207,4.627,1.814c1.545,0.607,3.248,1.28,5.11,2.02v1.56c-2.64,1.024-4.728,1.823-6.261,2.401
				c-1.533,0.577-2.805,1.069-3.813,1.474c-0.165,0.071-0.313,0.158-0.447,0.264c-0.134,0.103-0.261,0.251-0.382,0.442
				c-0.088,0.148-0.153,0.317-0.197,0.509c-0.044,0.192-0.071,0.367-0.082,0.526H14.674z M19.386,258.577l4.253-1.618l-4.253-1.604
				V258.577z"/>
			<path d="M14.364,271.061c0-0.818,0.138-1.583,0.414-2.293c0.275-0.71,0.678-1.33,1.203-1.856
				c0.513-0.517,1.149-0.923,1.907-1.223c0.758-0.299,1.591-0.447,2.5-0.447c0.903,0,1.739,0.15,2.507,0.452
				c0.769,0.302,1.436,0.726,1.998,1.269c0.553,0.533,0.981,1.174,1.285,1.921c0.304,0.747,0.456,1.546,0.456,2.397
				c0,0.62-0.078,1.185-0.233,1.693c-0.156,0.508-0.332,0.935-0.529,1.281l0.452,0.485v0.674l-4.246,0.077v-0.698
				c1.292-0.39,2.24-0.859,2.846-1.406c0.605-0.548,0.908-1.217,0.908-2.006c0-0.98-0.453-1.728-1.358-2.24
				c-0.907-0.512-2.177-0.769-3.814-0.769c-0.925,0-1.714,0.088-2.369,0.264c-0.654,0.176-1.18,0.402-1.58,0.683
				c-0.416,0.308-0.722,0.667-0.915,1.079c-0.195,0.41-0.292,0.865-0.292,1.364c0,0.736,0.21,1.388,0.63,1.96
				c0.42,0.569,1.055,1.091,1.907,1.563l-0.43,0.673c-0.483-0.225-0.916-0.482-1.297-0.771c-0.383-0.287-0.71-0.618-0.985-0.99
				c-0.303-0.418-0.539-0.875-0.709-1.371C14.449,272.328,14.364,271.74,14.364,271.061z"/>
			<path d="M23.346,288.866v-0.621c0.441-0.152,0.889-0.411,1.343-0.779c0.452-0.367,0.721-0.733,0.802-1.099
				c0.038-0.15,0.061-0.366,0.069-0.644c0.008-0.277,0.013-0.506,0.013-0.686v-1.607h-4.479v1.128c0,0.286,0.035,0.546,0.107,0.778
				c0.071,0.232,0.209,0.444,0.412,0.633c0.126,0.119,0.349,0.238,0.667,0.357c0.32,0.119,0.596,0.197,0.833,0.235v0.622h-4.868
				v-0.622c0.23-0.033,0.518-0.111,0.865-0.235c0.347-0.125,0.585-0.243,0.716-0.357c0.196-0.173,0.332-0.375,0.406-0.604
				c0.074-0.23,0.11-0.499,0.11-0.807v-1.128h-3.358c-0.35,0-0.628,0.023-0.833,0.072c-0.207,0.051-0.364,0.143-0.473,0.28
				c-0.104,0.13-0.173,0.31-0.205,0.537c-0.034,0.227-0.05,0.534-0.05,0.923c0,0.186,0.002,0.405,0.009,0.661
				c0.005,0.253,0.022,0.476,0.049,0.668c0.028,0.218,0.068,0.423,0.122,0.614c0.055,0.191,0.134,0.334,0.238,0.427
				c0.268,0.252,0.675,0.533,1.224,0.845c0.548,0.312,0.959,0.517,1.232,0.616v0.568l-3.625-0.213V279.03h0.647
				c0.011,0.147,0.033,0.347,0.065,0.597c0.032,0.25,0.072,0.427,0.115,0.531c0.087,0.203,0.198,0.337,0.332,0.403
				c0.134,0.065,0.305,0.1,0.513,0.1h8.207c0.196,0,0.358-0.029,0.487-0.088c0.128-0.057,0.245-0.196,0.348-0.415
				c0.066-0.132,0.126-0.322,0.181-0.569c0.055-0.246,0.09-0.433,0.105-0.559h0.649v9.836H23.346z"/>
			<path d="M14.674,314.54v-6.006h0.647c0.016,0.174,0.044,0.391,0.082,0.65c0.039,0.259,0.079,0.434,0.123,0.526
				c0.081,0.191,0.194,0.327,0.336,0.409c0.142,0.081,0.323,0.123,0.54,0.123H25.1l-10.244-3.805v-0.983
				c0.18-0.05,0.54-0.166,1.077-0.349c0.535-0.183,0.967-0.331,1.29-0.446l8.01-2.804h-7.08c-0.679,0-1.194,0.04-1.547,0.124
				c-0.352,0.084-0.61,0.219-0.774,0.406c-0.114,0.129-0.225,0.358-0.329,0.688c-0.104,0.33-0.165,0.563-0.18,0.697h-0.647v-4.737
				h0.647c0.016,0.131,0.053,0.344,0.11,0.637c0.058,0.293,0.158,0.535,0.3,0.728c0.153,0.208,0.412,0.348,0.774,0.419
				s0.882,0.106,1.554,0.106h5.763c0.35,0,0.642-0.041,0.873-0.124c0.232-0.082,0.417-0.208,0.555-0.377
				c0.169-0.21,0.278-0.424,0.328-0.644c0.049-0.22,0.082-0.442,0.097-0.667h0.649v5.122l-7.667,2.714l6.229,2.313
				c0.228,0.081,0.501,0.158,0.817,0.229c0.314,0.071,0.521,0.109,0.621,0.114v4.935h-0.649c-0.01-0.166-0.032-0.341-0.064-0.525
				c-0.033-0.183-0.077-0.358-0.13-0.523c-0.072-0.204-0.184-0.339-0.337-0.405c-0.153-0.066-0.322-0.099-0.508-0.099h-8.239
				c-0.196,0-0.363,0.032-0.496,0.097c-0.134,0.065-0.25,0.2-0.348,0.401c-0.05,0.104-0.096,0.273-0.14,0.512
				c-0.044,0.237-0.075,0.418-0.09,0.543H14.674z"/>
			<path d="M25.659,330.168c-0.016-0.148-0.053-0.366-0.11-0.653c-0.058-0.285-0.157-0.525-0.299-0.718
				c-0.138-0.198-0.382-0.339-0.737-0.421c-0.355-0.083-0.886-0.123-1.596-0.123h-4.321c-1.272,0-2.295-0.413-3.07-1.237
				c-0.775-0.824-1.162-1.916-1.162-3.274c0-1.577,0.374-2.799,1.12-3.665c0.748-0.866,1.79-1.298,3.128-1.298h5.942
				c0.19,0,0.354-0.037,0.491-0.108c0.137-0.071,0.26-0.206,0.369-0.403c0.07-0.139,0.128-0.306,0.172-0.503
				c0.043-0.198,0.073-0.36,0.088-0.486h0.649v5.798h-0.649c-0.009-0.164-0.03-0.333-0.061-0.505
				c-0.03-0.172-0.075-0.347-0.134-0.521c-0.065-0.203-0.175-0.337-0.328-0.403c-0.153-0.065-0.324-0.098-0.516-0.098h-5.861
				c-1.151,0-1.989,0.242-2.513,0.729c-0.524,0.487-0.786,1.19-0.786,2.116c0,0.912,0.29,1.628,0.868,2.147
				c0.579,0.519,1.429,0.779,2.554,0.779h3.937c0.698,0,1.221-0.047,1.568-0.141c0.347-0.093,0.596-0.231,0.748-0.417
				c0.121-0.137,0.23-0.373,0.329-0.709c0.098-0.335,0.157-0.569,0.179-0.7h0.665v4.814H25.659z"/>
			<path d="M23.346,354.814v-0.622c0.441-0.153,0.889-0.412,1.343-0.779c0.452-0.367,0.721-0.733,0.802-1.098
				c0.038-0.151,0.061-0.366,0.069-0.644c0.008-0.277,0.013-0.507,0.013-0.686v-1.607h-4.479v1.128c0,0.285,0.035,0.545,0.107,0.778
				c0.071,0.232,0.209,0.443,0.412,0.632c0.126,0.12,0.349,0.239,0.667,0.357c0.32,0.119,0.596,0.198,0.833,0.236v0.621h-4.868
				v-0.621c0.23-0.032,0.518-0.111,0.865-0.236c0.347-0.123,0.585-0.242,0.716-0.357c0.196-0.173,0.332-0.374,0.406-0.604
				c0.074-0.229,0.11-0.498,0.11-0.806v-1.128h-3.358c-0.35,0-0.628,0.024-0.833,0.073c-0.207,0.048-0.364,0.143-0.473,0.279
				c-0.104,0.131-0.173,0.31-0.205,0.537c-0.034,0.227-0.05,0.534-0.05,0.923c0,0.186,0.002,0.405,0.009,0.659
				c0.005,0.255,0.022,0.477,0.049,0.67c0.028,0.217,0.068,0.423,0.122,0.614c0.055,0.191,0.134,0.334,0.238,0.427
				c0.268,0.252,0.675,0.533,1.224,0.845c0.548,0.311,0.959,0.517,1.232,0.615v0.569l-3.625-0.213v-10.399h0.647
				c0.011,0.147,0.033,0.347,0.065,0.597c0.032,0.249,0.072,0.427,0.115,0.531c0.087,0.202,0.198,0.337,0.332,0.403
				c0.134,0.065,0.305,0.099,0.513,0.099h8.207c0.196,0,0.358-0.029,0.487-0.086c0.128-0.059,0.245-0.197,0.348-0.416
				c0.066-0.132,0.126-0.322,0.181-0.569c0.055-0.246,0.09-0.434,0.105-0.559h0.649v9.836H23.346z"/>
			<path d="M25.659,370.687c-0.016-0.147-0.053-0.365-0.11-0.652c-0.058-0.286-0.157-0.525-0.299-0.717
				c-0.138-0.199-0.382-0.339-0.737-0.422c-0.355-0.082-0.886-0.124-1.596-0.124h-4.321c-1.272,0-2.295-0.412-3.07-1.236
				c-0.775-0.825-1.162-1.916-1.162-3.275c0-1.577,0.374-2.798,1.12-3.664c0.748-0.866,1.79-1.298,3.128-1.298h5.942
				c0.19,0,0.354-0.037,0.491-0.108c0.137-0.071,0.26-0.205,0.369-0.403c0.07-0.138,0.128-0.306,0.172-0.504
				c0.043-0.197,0.073-0.36,0.088-0.487h0.649v5.8h-0.649c-0.009-0.164-0.03-0.333-0.061-0.505c-0.03-0.172-0.075-0.347-0.134-0.521
				c-0.065-0.204-0.175-0.337-0.328-0.402c-0.153-0.065-0.324-0.099-0.516-0.099h-5.861c-1.151,0-1.989,0.243-2.513,0.729
				c-0.524,0.486-0.786,1.191-0.786,2.115c0,0.913,0.29,1.629,0.868,2.148c0.579,0.52,1.429,0.779,2.554,0.779h3.937
				c0.698,0,1.221-0.046,1.568-0.14s0.596-0.232,0.748-0.418c0.121-0.137,0.23-0.373,0.329-0.709c0.098-0.336,0.157-0.569,0.179-0.7
				h0.665v4.813H25.659z"/>
			<path d="M14.674,388.189v-6.006h0.647c0.016,0.174,0.044,0.391,0.082,0.649c0.039,0.259,0.079,0.435,0.123,0.527
				c0.081,0.19,0.194,0.326,0.336,0.409c0.142,0.082,0.323,0.122,0.54,0.122H25.1l-10.244-3.804v-0.985
				c0.18-0.048,0.54-0.164,1.077-0.347c0.535-0.184,0.967-0.332,1.29-0.446l8.01-2.805h-7.08c-0.679,0-1.194,0.041-1.547,0.124
				c-0.352,0.084-0.61,0.22-0.774,0.407c-0.114,0.128-0.225,0.357-0.329,0.688c-0.104,0.329-0.165,0.562-0.18,0.695h-0.647v-4.736
				h0.647c0.016,0.13,0.053,0.343,0.11,0.636c0.058,0.293,0.158,0.536,0.3,0.728c0.153,0.207,0.412,0.348,0.774,0.42
				c0.363,0.07,0.882,0.106,1.554,0.106h5.763c0.35,0,0.642-0.042,0.873-0.124c0.232-0.083,0.417-0.209,0.555-0.379
				c0.169-0.209,0.278-0.423,0.328-0.643c0.049-0.22,0.082-0.442,0.097-0.667h0.649v5.123l-7.667,2.714l6.229,2.312
				c0.228,0.082,0.501,0.159,0.817,0.231c0.314,0.071,0.521,0.109,0.621,0.114v4.935h-0.649c-0.01-0.167-0.032-0.341-0.064-0.525
				c-0.033-0.184-0.077-0.358-0.13-0.525c-0.072-0.203-0.184-0.338-0.337-0.403c-0.153-0.067-0.322-0.1-0.508-0.1h-8.239
				c-0.196,0-0.363,0.031-0.496,0.098c-0.134,0.066-0.25,0.199-0.348,0.4c-0.05,0.104-0.096,0.274-0.14,0.512
				c-0.044,0.236-0.075,0.418-0.09,0.544H14.674z"/>
			<path d="M14.363,337.54c0-0.678,0.09-1.309,0.27-1.895c0.179-0.586,0.388-1.082,0.629-1.487l-0.573-0.539v-0.655l4.21-0.111
				v0.677c-0.399,0.148-0.821,0.343-1.264,0.577c-0.443,0.233-0.839,0.503-1.189,0.81c-0.368,0.316-0.665,0.672-0.895,1.064
				c-0.23,0.392-0.345,0.852-0.345,1.376c0,0.708,0.182,1.25,0.545,1.626c0.364,0.377,0.822,0.565,1.375,0.565
				c0.454,0,0.836-0.159,1.144-0.48c0.309-0.318,0.576-0.814,0.801-1.484c0.149-0.438,0.286-0.838,0.413-1.204
				c0.125-0.368,0.255-0.713,0.386-1.034c0.313-0.744,0.758-1.296,1.338-1.657c0.581-0.361,1.229-0.542,1.945-0.542
				c0.454,0,0.89,0.094,1.31,0.281c0.419,0.188,0.795,0.46,1.129,0.82c0.312,0.344,0.566,0.783,0.762,1.32
				c0.197,0.537,0.296,1.121,0.296,1.751c0,0.614-0.091,1.19-0.272,1.728c-0.183,0.536-0.364,0.959-0.543,1.266l0.491,0.478v0.675
				l-3.962,0.054v-0.674c0.427-0.156,0.863-0.34,1.31-0.551c0.445-0.21,0.816-0.434,1.112-0.667c0.318-0.255,0.57-0.549,0.759-0.882
				c0.188-0.333,0.284-0.723,0.284-1.17c0-0.562-0.167-1.021-0.501-1.378c-0.334-0.355-0.748-0.534-1.241-0.534
				c-0.466,0-0.846,0.155-1.142,0.466c-0.295,0.31-0.555,0.793-0.78,1.448c-0.138,0.387-0.275,0.779-0.411,1.18
				c-0.138,0.4-0.27,0.758-0.395,1.07c-0.307,0.756-0.73,1.329-1.27,1.723c-0.54,0.393-1.209,0.589-2.01,0.589
				c-0.504,0-0.991-0.11-1.462-0.334c-0.472-0.225-0.863-0.527-1.175-0.906c-0.345-0.417-0.611-0.897-0.798-1.445
				C14.457,338.905,14.363,338.268,14.363,337.54z"/>
		</g>
		<g>
			<g>
				<g>
					<path d="M58.781,108.548c-0.141-0.295-0.931-1.111-1.363-1.411c-0.072-0.074-0.216-0.15-0.361-0.153
						c-0.579-0.302-1.451-0.609-1.817-0.542c-0.073-0.001-0.146-0.003-0.219-0.004c-0.365-0.007-0.438-0.007-0.949-0.017
						c-0.584-0.01-0.229,0.653-0.229,0.653s0.567,0.887,0.93,1.112c0.072,0.001,0.144,0.076,0.216,0.15
						c0.211,0.369,0.42,1.029,0.851,1.475c0.213,0.296,0.718,0.598,1.153,0.824c0.361,0.152,0.653,0.229,1.017,0.31
						c0.871,0.234,0.375-0.577,0.531-1.086C58.767,109.351,58.85,108.84,58.781,108.548z"/>
					<path d="M66.215,105.245c-0.507-0.227-0.574-0.593-0.935-0.892c-0.36-0.298-0.729-0.086-1.088-0.457
						c-0.359-0.372-1.008-0.674-1.155-0.677c-0.219-0.004-0.732,0.132-1.611,0.264c-0.879,0.058-2.562,0.32-3.655,0.228
						c-0.146-0.002-0.365-0.007-0.656-0.011c-0.657-0.012-1.391,0.048-2.048,0.109c-0.511,0.064-0.952,0.13-1.17,0.125
						c-0.146-0.002-0.294-0.005-0.44,0.065c-0.44,0.065-0.951,0.13-1.535,0.192c-1.245,0.197-2.638,0.393-2.638,0.393
						s-0.218-0.004-0.512,0.064c-0.291-0.005-0.732,0.061-1.17,0.125c-0.805,0.059-1.755,0.189-3.077,0.53
						c-1.319,0.342-3.295,0.527-4.028,0.733c-0.659,0.135-0.74,0.572-0.74,0.572s-0.729-0.086-1.095-0.093
						c-0.436-0.007-0.223,0.288-0.23,0.726c-0.01,0.511,0.273,1.028,0.69,2.203c0.419,1.176,0.525,3.441,0.65,4.686
						c0.048,1.315,0.081,3.652-0.025,5.548c-0.104,1.898-0.117,6.717-0.119,6.863c-0.003,0.146-0.237,1.018-0.174,1.603
						c0.062,0.658,0.039,1.973,0.022,2.921s-0.179,1.823,0.237,3.072c0.417,1.249,1.206,1.993,1.646,1.928
						c0.441-0.14,0.459-1.162,0.459-1.162s1.311,0.243,2.187,0.258s1.391-0.122,2.047-0.184c0.514-0.063,1.32-0.269,2.201-0.545
						c0.295-0.068,0.66-0.135,0.952-0.203c0.514-0.063,1.318-0.195,2.196-0.253c0.512-0.064,1.024-0.129,1.534-0.12
						c0.513-0.063,1.098-0.126,1.611-0.19c0.218,0.003,0.439-0.066,0.585-0.063c0.292,0.005,0.877-0.058,1.462-0.122
						c1.389-0.049,3.07-0.166,3.729-0.154c0.948-0.055,1.904-0.403,2.202-0.691c0.369-0.213,0.155-0.507-0.639-1.107
						c-0.721-0.523-1.526-0.318-2.405-0.187c-0.807,0.131-1.978,0.258-2.854,0.388c-0.073-0.001-0.148,0.07-0.148,0.07
						c-0.878,0.13-1.534,0.046-1.534,0.046s0.006-0.365,0.308-0.944c0.23-0.58,0.83-1.446,1.438-2.823
						c0.608-1.376,1.206-2.169,1.206-2.169c0.643,0.814,1.641,2.292,2.218,2.595c0.654,0.23,2.603,1.651,2.603,1.651
						s0.361,0.152,0.352,0.664c-0.009,0.583-0.019,1.094,0.119,1.607c0.062,0.586-0.015,0.877-0.164,1.021
						c-0.149,0.216-0.225,0.215-0.307,0.725c-0.079,0.437-0.161,0.946,0.422,1.029c0.581,0.157,1.001,1.187,1.579,1.562
						c0.576,0.448,0.729,0.013,0.978-1.589c0.247-1.675,0.137-3.722,0.155-4.817c-0.054-1.023-0.176-2.413,0.052-2.919
						c0.155-0.509-0.128-1.026,0.026-1.534c0.084-0.583-0.187-1.828-0.172-2.705c-0.058-0.877,0.03-1.679-0.038-1.973
						c-0.067-0.366,0.081-0.509,0.021-1.168c-0.063-0.657,0.389-1.308,0.178-1.749c-0.213-0.443-0.115-1.829-0.03-2.484
						c0.159-0.727,0.094-1.167,0.171-1.383c0.075-0.219,0.08-0.509,0.021-1.168c-0.063-0.659-0.06-0.805-0.053-1.243
						c0.008-0.439,0.01-0.512,0.018-0.95c0.082-0.51,0.021-1.241-0.037-2.119c-0.059-0.804,0.253-1.967,0.253-1.967
						s-0.059-0.73,0.236-1.017C66.863,105.767,66.721,105.546,66.215,105.245z M55.726,124.632c0,0-0.545,1.889-1.079,3.267
						c-0.228,0.508-0.382,0.87-0.531,1.159c-0.455,0.869-0.606,1.231-0.76,1.667c-0.153,0.363-0.243,1.31-0.243,1.31l-0.146,0.071
						l-0.147,0.07c0,0-0.585,0.062-1.39,0.122c-1.024,0.129-2.34,0.252-3.146,0.31c-1.46,0.049-2.705,0.246-3.511,0.377
						c-0.808,0.132-1.097-0.019-1.612,0.41c-0.521,0.429-0.742,0.498-1.029,0.346c-0.216-0.223-0.067-0.365,0.011-0.657
						c0.004-0.22,0.155-0.508,0.091-1.093c-0.061-0.585-0.196-1.245-0.196-1.245s0.871,0.307,1.373,0.753
						c0.505,0.448,1.672,0.467,2.039,0.33c0.296-0.143,1.253-0.637,1.696-0.848c0.22-0.069,0.664-0.5,1.184-0.93
						c0.446-0.502,0.965-0.932,1.337-1.29c0.666-0.573,1.331-0.999,1.851-1.355c0.146-0.07,0.295-0.213,0.442-0.284
						c0.367-0.141,0.737-0.425,1.106-0.712c0.297-0.213,0.664-0.427,1.033-0.565c0.293-0.067,0.441-0.138,0.59-0.281
						c0.223-0.289,0.303-0.652,0.233-0.946c0.004-0.146-0.066-0.293-0.212-0.368c-0.361-0.226-0.945-0.236-1.46-0.026
						c-0.073-0.001-0.146-0.002-0.146,0.071c-0.59,0.281-1.189,1.22-1.557,1.36c-0.002,0.073-0.075,0.071-0.075,0.071
						c-0.439,0.065-2.066,1.205-2.878,1.703c-0.072-0.002-0.147,0.07-0.22,0.069c-0.812,0.496-1.625,1.066-2.141,1.275
						c-0.661,0.281-1.476,0.925-2.208,0.985c-0.658,0.135-1.024,0.2-1.537,0.191c-0.584-0.01-0.576-0.375-0.576-0.375
						s-0.023-2.921-0.078-3.871c0.015-0.876,0.017-0.949-0.052-1.316c0.007-0.364,0.087-0.728,0.091-0.946
						c0.074-0.145-0.005-1.563-0.112-1.975c-0.051-0.197-0.023-0.659,0.037-0.832c0.151-0.29-0.04-0.392-0.034-0.829
						c0.008-0.439,0.105-0.456,0.045-1.041c-0.063-0.659-0.051-1.243,0.03-1.752c0.082-0.51,0.095-1.24,0.095-1.24
						s0.026-1.606,0.049-2.847c0.096-1.24,0.328-2.039,0.197-2.917c-0.132-0.806-0.489-1.25-0.556-1.617
						c-0.068-0.292-0.499-0.666-0.499-0.666s0.078-0.364,0.442-0.357c0.367,0.006,1.527,0.392,2.189,0.184
						c0.733-0.207,1.17-0.125,1.682-0.189c0.442-0.139,1.757-0.262,2.05-0.329c0.295-0.068,0.072,0.147,0.432,0.446
						c0.289,0.15,0.574,0.594,0.785,1.036c0.141,0.295,0.282,0.662,0.278,0.808c0.137,0.515,0.353,0.737,0.353,0.737
						s0.715,0.89,0.854,1.329c0.137,0.44,0.135,0.66-0.383,0.943c-0.221,0.069-0.662,0.208-1.175,0.345
						c-0.879,0.276-1.98,0.55-2.495,0.759c-0.811,0.352-1.463,0.122-2.046,0.112c-0.583-0.011-0.949-0.091-1.167-0.095
						c-0.222,0.07-0.733,0.134-0.733,0.134s0.638,1.106,1.071,1.406c0.505,0.301,1.227,0.897,1.517,0.902
						c0.366-0.065,0.294,0.004,0.294,0.004s1.141,1.555,1.115,2.942c-0.025,1.46-0.502,3.714-0.88,4.439
						c-0.376,0.65-0.379,0.796-1.036,0.785c-0.731-0.013-0.726-0.305-1.021-0.091c-0.296,0.214-0.522,0.649-0.464,1.526
						c0.059,0.877,0.502,0.593,0.714,0.889c0.215,0.294,0.65,0.448,0.94,0.527c0.291,0.078,0.507,0.228,1.393-0.269
						c0.369-0.285,1.478-0.996,2.588-1.853c1.035-0.786,2.074-1.644,2.595-2.146c0.221-0.215,0.37-0.358,0.594-0.574
						c0.591-0.501,1.11-1.003,1.557-1.433c0.299-0.36,0.596-0.575,0.67-0.719c0.153-0.363,0.155-0.435,0.155-0.435
						s0.422,0.81,0.777,1.4c0.07,0.147,0.143,0.222,0.215,0.297c0.355,0.517,0.928,1.257,0.914,2.06
						C55.954,124.053,55.726,124.632,55.726,124.632z M47.399,116.309c-0.07-0.147-0.571-0.74-0.131-0.806
						c0.293-0.067,0.808-0.35,1.323-0.56c0.074,0.001,0.146,0.002,0.221-0.07c0.515-0.208,0.879-0.203,1.175-0.345
						c0.296-0.213,1.178-0.563,1.178-0.563l0.281,0.589c0,0,0.145,0.149,0.285,0.444c0.212,0.441,0.639,1.032,0.778,1.4
						c0.354,0.591,0.639,1.106,0.561,1.324c-0.003,0.219-0.294,0.069-0.51-0.009c-0.072-0.073-0.508-0.155-0.871-0.306
						c-0.217-0.078-0.437-0.155-0.58-0.23c-0.363-0.153-0.653-0.158-0.587,0.063c-0.005,0.292,0.782,1.255,0.846,1.84
						c-0.011,0.584,0.196,1.245,0.047,1.535c-0.079,0.291-0.739,0.425-1.258,0.854c-0.592,0.429-1.106,0.639-1.257,0.929
						c-0.075,0.071-0.297,0.213-0.444,0.284c-0.293,0.142-0.515,0.21-0.515,0.21s-0.295,0.286-0.294,0.141
						c0.004-0.219,0.315-1.309,0.761-1.74c0.002-0.072,0.002-0.072,0.073-0.071c0.303-0.434,0.232-0.653,0.32-1.456
						c0.158-0.8,0.31-1.163,0.392-1.599c0.081-0.511,0.016-0.95-0.198-1.244c-0.07-0.076-0.216-0.152-0.435-0.156
						c-0.437-0.079-1.022-0.017-1.021-0.163L47.399,116.309z M63.256,128.269c-0.291-0.005-1.366-1.192-2.086-1.862
						c-0.716-0.743-0.932-0.966-0.932-0.966s-0.568-0.885-1.215-1.481c-0.571-0.667-0.497-0.886-0.497-0.886
						s0.755-1.375,0.923-2.613c0.168-1.239,0.463-1.379,0.475-2.036c0.083-0.583-0.349-0.956-0.349-0.956s-0.794-0.597-1.737-0.979
						c-0.359-0.226-0.724-0.305-0.941-0.382c-0.292-0.078-0.438-0.08-0.438-0.08s-0.146,0.069-0.008,0.51
						c0.065,0.439,0.343,1.248,0.327,2.196c-0.017,0.949,0.11,1.974-0.179,1.823c-0.288-0.225-1.13-2.283-1.555-3.021
						c-0.07-0.148-0.14-0.295-0.21-0.444c-0.355-0.589-0.635-1.324-0.847-1.766c-0.283-0.443-0.062-0.659-0.272-1.026
						c-0.214-0.369-0.572-0.741-0.277-0.882c0.368-0.139,0.731-0.06,1.024-0.201c0.073,0.001,0.222-0.069,0.443-0.211
						c0.441-0.212,0.96-0.568,1.038-0.859c0.225-0.434-0.127-1.17-0.413-1.467c-0.144-0.149-0.362-0.227-0.58-0.302
						c-0.217-0.004-0.438-0.008-0.585,0.062c-0.513,0.064-0.726-0.231-1.026,0.201c-0.001,0.074-0.001,0.074-0.001,0.074
						c-0.372,0.432-0.881,0.277-0.881,0.277s-0.352-0.737-0.631-1.473c-0.14-0.368-0.28-0.735-0.35-0.956
						c-0.205-0.732-0.562-1.324-0.845-1.695c0,0-0.433-0.372,0.155-0.581c0.223-0.141,0.66-0.208,1.102-0.346
						c0.513-0.137,1.027-0.274,1.539-0.338c0.293-0.069,0.513-0.138,0.733-0.206c0.292,0.005,0.586-0.064,0.877-0.059
						c0.806-0.131,1.609-0.19,2.053-0.329l0.07,0.001c0.586-0.063,1.098-0.127,1.392-0.122c0.292-0.069,1.168-0.054,1.899-0.041
						c0.729,0.014,0.799,0.234,1.452,0.465c0.654,0.157,0.801,0.088,0.863,0.672c0.137,0.586,0.119,1.609,0.326,2.342
						c0.207,0.662,0.199,1.1,0.259,1.83c0.063,0.658-0.027,1.534,0.03,2.483c0.056,0.951,0.214,4.385,0.117,5.771
						s-0.071,4.089-0.097,5.548c0.048,1.462-0.242,1.383-0.187,2.334c0.059,0.876,0.058,0.951,0.124,1.244
						C63.334,127.906,63.475,128.273,63.256,128.269z"/>
				</g>
			</g>
			<g>
				<g>
					<path d="M44.346,154.945c0.454,0.303,1.747,0.836,2.354,0.912c0.455,0,0.607-0.076,0.985-0.152
						c0.154,0,0.306-0.075,0.457-0.152c0.683-0.152,2.05-0.248,2.43-0.323c0.381-0.152,0.908-0.097,1.4-0.375
						c0.255-0.12,0.804-0.138,0.804-0.138s0.229,0,1.216-0.152s3.875-0.987,4.559-1.063c0.683-0.076,0.683-0.076,0.987-0.532
						c0.227-0.531,0.075-0.987-0.686-1.823c-0.836-0.911-1.67-0.304-2.2-0.228c-0.381,0.152-2.889,1.139-3.268,1.063
						c-0.38-0.077-0.152-0.531-0.078-1.063c0.078-0.456,0.155-1.14,0.155-1.975c0.073-0.834,0.15-2.052,0.226-2.81
						c0.076-0.684-0.532-1.064-0.76-0.989c-0.303,0.077-0.682,0-0.835-0.076c-0.151,0-0.304-0.152-0.683-0.227
						c-0.304,0-0.457-0.077-0.685-0.38c-0.305-0.305-0.531-0.609-0.987-0.609c-0.457,0.078-0.835,0.304-1.217,0.684
						c-0.302,0.305-0.53,0.38-0.836,0.456c-0.074,0-0.151,0-0.227,0c-0.381,0.076-0.075,0.38-0.075,0.38s0.15,0.077,0.302,0.229
						c0.306,0.304,0.913,0.759,1.14,0.987c0.456,0.304,1.142,1.291,1.293,2.128c0.15,0.758,0.835,2.961,0.835,2.961
						s0,0.152,0.153,0.38c0.227,0.229,0,0.533-0.609,0.608c-0.607,0.075-0.911,0.227-1.443,0.227c-0.38,0-0.834,0.077-1.368,0.153
						c-0.453,0.076-0.91,0.152-1.291,0.303c-0.684,0.305-1.747,0.229-2.354,0.229c-0.608-0.076-0.381,0.456-0.381,0.761
						C43.66,154.64,43.812,154.64,44.346,154.945z"/>
					<path d="M68.502,166.644c-0.306-0.38-0.989-1.14-1.9-1.9c-0.91-0.835-1.975-0.759-2.279-0.683
						c-0.303,0.152-1.14,0.38-1.822,0.532c-0.684,0.076-2.129,0.381-2.887,0.381c-0.684,0.075-3.039,0.379-3.342,0.454
						c-0.229,0.077-1.064,0.456-1.064,0.229c-0.075-0.229,0.228-0.683,0.684-1.215c0.532-0.532,0.684-0.912,1.292-2.507
						c0.607-1.596,0.76-2.811,0.303-3.951c-0.455-1.214-1.595-1.291-1.897-1.291c-0.381,0.077-1.52,0.077-2.053,0
						c-0.455,0,0.152,0.608,0.152,0.608s1.14,1.368,1.14,1.747c0,0.304-0.227,1.291-0.303,2.278
						c-0.077,0.988-0.837,3.647-1.218,4.179c-0.302,0.531-0.227,0.531-1.593,0.835c-0.761,0.229-2.66,0.531-4.028,0.684
						c-0.53,0.077-0.985,0.077-1.291,0.077c-0.987,0-5.089,0.607-6.153,0.759c-1.063,0.228-3.873,0.684-4.253,0.684
						c-0.304,0,0,1.369,0.91,1.747c0.914,0.457,2.66,0.685,4.027,0.304c1.293-0.304,3.646-0.759,6.76-1.52
						c0.077,0,0.077-0.075,0.154-0.075c3.188-0.761,5.315-0.834,7.444-1.063c1.898-0.152,6.912-0.456,8.659-0.456
						c1.823,0.075,2.581,0.456,2.963,0.607c0.38,0.151,0.606-0.151,1.29-0.379C68.88,167.401,68.804,166.946,68.502,166.644z"/>
					<path d="M47.914,158.895c-0.074-0.076-0.151-0.227-0.229-0.304c-0.227-0.38-0.302-0.835-0.53-0.986
						c-0.304-0.305-0.607,0.227-0.607,0.227s-0.38,1.14-0.38,1.747c-0.075,0.607-0.457,1.899-0.38,3.57
						c0.15,1.216,1.14,2.051,1.897,2.431c0.306,0.152,0.534,0.304,0.686,0.304c0.303,0,1.215,0.381,1.215,0
						c0-0.456-0.075-1.367-0.607-1.975c-0.532-0.608-0.836-2.127-0.912-2.962C48.066,160.186,48.295,159.351,47.914,158.895z"/>
				</g>
			</g>
			<g>
				<g>
					<path d="M49.04,207.501c0.29-0.803,0.802-2.919,1.095-3.796c0-0.146,0.071-0.22,0.071-0.292c0.146-0.511,0.366-0.949,0-1.168
						c0-0.072-0.071-0.072-0.071-0.146c-0.364-0.293-0.876-0.95-1.461-1.534c-0.657-0.73-1.461-0.219-1.533-0.072
						c-0.146,0.219-0.219,0.656-0.439,1.021c-0.29,0.365-0.51,0.438-0.947,0.438c-0.365,0.072-0.804,0.22-0.951,0.292
						c-0.072,0-0.072,0-0.072,0s0-0.22,0.072-0.585c0-0.291,0-0.656,0.075-1.095c0.146-1.021,0.511-5.33,0.511-5.33
						s0-0.438,0.146-0.729s1.095-0.219,1.679-0.365c0.585-0.146,1.533-0.073,2.189-0.511c0.658-0.512,0.439-1.388-0.217-2.045
						c-0.585-0.656-1.752-0.365-2.264-0.219c-0.439,0.072-1.022,0.803-1.242,0.803c-0.219,0,0-0.365,0.074-0.803
						c0.073-0.512,0.146-3.285,0.363-4.674c0.22-1.313,0.22-2.993,0.074-3.432c-0.074-0.511,0.22-1.168,0.146-1.387
						c-0.146-0.146-0.948-0.438-1.459-0.583c-0.075,0-0.075,0-0.075,0c-0.51-0.146-0.437-0.293-0.803-0.293
						c-0.364-0.073-1.459-0.22-2.044-0.22c-0.656,0.074-0.583,0.366-0.583,0.366l0.364,0.657c0,0,0.146,0.364,0.73,0.803
						c0.585,0.511,0.73,3.285,0.874,4.965c0.074,1.68,0.148,4.818,0.074,5.258c0,0.438-2.555,1.168-3.285,1.387
						c-0.802,0.219-1.461-0.146-1.824-0.146c-0.366,0-0.438,0.365-0.366,0.73c0.073,0.365,0.583,0.292,0.583,0.292
						s0.221,0.292,0.44,0.875c0.145,0.512,0.949,1.243,1.679,1.389c0.73,0.072,0.512,0,0.73-0.22
						c0.218-0.219,0.292-0.364,0.583-0.512c0.293-0.218,0.949-0.729,1.242-0.657c0.292,0.074,0.292,1.096,0.218,2.191
						s-0.438,4.601-0.438,4.601s0,0-0.29,0.291c-0.294,0.22-0.951,0.731-1.17,0.803c-0.219,0.146-0.804-0.292-1.168-0.583
						c-0.293-0.292-2.41-1.168-2.41-1.168s-0.365,0.437-0.072,0.876c0.291,0.51,0.876,0.875,1.679,2.263
						c0.804,1.314,1.533,5.55,1.533,5.55s0,0.729,0.438,1.24c0.438,0.512,0.585,1.68,0.949,1.825
						c0.438,0.073,0.292-0.072,0.292-0.511c0-0.438,0.219-1.314,0.219-1.314s0.363-0.146,0.948-0.291
						c0.293,0,0.585-0.146,0.876-0.292c0.294-0.146,0.586-0.365,0.804-0.512c0.366-0.146,2.41-0.511,2.849-0.511
						c0.438-0.074,0.73-0.438,0.73-0.438s0.073-0.219-0.292-0.584C48.528,208.961,48.674,208.378,49.04,207.501z M46.922,206.845
						c0,1.241-0.072,1.533-0.072,1.533s-1.315,0.876-2.047,1.242c-0.072,0-0.145,0-0.218,0.072
						c-0.658,0.292-1.532,0.512-1.532,0.512s0,0.073-0.221-0.366c-0.218-0.365-0.51-1.972-0.51-3.066
						c0-1.168-0.146-1.752-0.146-1.752s1.898-0.657,2.482-0.804c0.072,0,0.072,0,0.145,0c0.513-0.146,1.097,0,1.534-0.219
						c0.364-0.218,0.876-0.512,1.023-0.292C47.504,203.924,46.85,205.676,46.922,206.845z"/>
					<path d="M52.033,194.798c0.803-0.584,1.24-1.68,1.24-1.68s0.657,0.292,1.242,0.584c0.584,0.293,1.168,0.585,1.896,0.657
						c0.439,0,0.805-0.072,1.244-0.146c0.364-0.073,0.729-0.146,1.312-0.219c1.097-0.221,2.118-0.512,3.213-0.658
						c1.168-0.219,1.462-0.146,1.971-0.657c0.514-0.511,0.146-1.095-0.438-1.605c-0.511-0.438-0.729-0.438-1.239-0.949
						c-0.512-0.438-0.805-0.074-1.095,0.292c-0.294,0.438-1.243,1.095-1.754,1.313c-0.438,0.146-0.584,0.146-1.022,0.294
						c-0.292,0.071-0.657,0.145-0.947,0.218c-0.295,0.072-0.585,0.072-0.659,0.146c-0.221,0.073-0.511,0.146-1.021,0.146
						s-2.41,0.146-2.41,0.146s0.072-0.146,0.439-0.949c0.365-0.73,1.46-2.992,1.751-3.942c0.294-0.876,0.804-2.409,1.169-4.38
						c0.365-1.972-0.438-2.922-1.825-4.09c-1.314-1.095-3.14-1.314-3.14-1.314c0,0.22,0.219,1.169,0.876,2.118
						c0.583,0.949,0.949,1.971,0.949,2.263c0,0.293,0.072,0.658,0,1.169c0,0.438-0.147,1.46-0.366,3.505
						c-0.072,0.437-0.512,2.336-0.656,3.066c-0.146,0.729-0.365,1.46-0.584,2.409c-0.293,1.168-0.804,1.825-0.948,2.264
						c-0.22,0.438-0.367,0.949-0.367,0.949S51.23,195.309,52.033,194.798z"/>
					<path d="M72.111,209.473c-1.46-0.072-3.433-0.512-7.593-2.481c-4.162-1.972-6.498-4.455-6.498-4.455
						c0.803-1.679,0.947-4.6,0.947-5.328c-0.071-0.512-0.512-1.097-1.312-1.461c-0.147-0.072-0.295-0.146-0.514-0.219
						c-1.093-0.293-1.752,0.146-1.752,0.146s0,0.29,0.512,0.583c0.51,0.292,0.51,0.657,0.584,1.679
						c0.145,1.096-0.22,2.629-0.22,2.848c0,0.147-1.896-1.971-2.044-2.263c-0.146-0.292-0.365-0.585-1.241-0.73
						c-0.876-0.219-1.461-0.438-1.971-0.219c-0.438,0.219,0,0.292,0,0.292s0.658,0.585,1.459,1.314
						c0.731,0.73,3.433,4.016,3.433,4.016c-0.438,1.825-1.096,2.992-2.629,5.111c-1.095,1.605-2.556,2.263-3.139,2.482
						c-0.22,0.072-0.293,0.146-0.293,0.146s0,0.218,0.293,0.218c0.071,0.074,0.146,0.074,0.291,0.074
						c0.585-0.074,1.898-0.73,3.505-1.898c1.607-1.168,3.286-4.308,3.286-4.308s0.145,0.072,0.439,0.364
						c0.144,0.146,0.436,0.438,0.729,0.732c0.803,0.947,3.724,3.941,5.038,5.035c1.313,1.169,2.848,1.097,4.6,0.731
						c1.825-0.365,3.942-1.46,4.454-1.898C72.914,209.473,72.111,209.473,72.111,209.473z"/>
				</g>
			</g>
			<g>
				<g>
					<path d="M62.617,245.293c-0.52-0.462-1.047-0.546-1.643-1.01c-0.597-0.463-1.116-0.925-1.726-0.634
						c-0.535,0.368-0.395,0.899-0.395,0.899s-2.348,0.486-4.167,0.908c-0.909,0.21-2.195,0.414-3.33,0.545
						c-1.134,0.057-2.115,0.114-2.644,0.104c-0.981-0.018-1.066,0.435-0.766,0.592c0.3,0.081,0.445,0.459,1.195,0.775
						c0.522,0.235,1.198,0.549,2.179,0.491c0.302,0.005,0.682-0.064,1.137-0.207c1.744-0.498,6.281-0.87,6.281-0.87
						s0.071,0.151-0.102,1.431c-0.174,1.28-0.529,4.369-0.529,4.369s-1.969,0.418-2.951,0.477c-0.53,0.067-2.349,0.412-3.938,0.687
						c-1.438,0.201-2.647,0.406-2.647,0.406s0.001-0.075-0.212-0.909c-0.137-0.833-0.771-3.485-1.052-4.623
						s-0.793-2.051-1.844-2.448c-1.048-0.47-2.098-0.791-2.248-0.944c-0.226-0.079-0.236,0.524-0.236,0.524s0.963,1.148,1.325,1.909
						c0.367,0.687,1.526,3.5,1.66,4.332c0.213,0.835,0.646,1.899,0.777,3.108c0.132,1.135,1.462,2.667,1.771,2.296
						c0.375-0.362,0.186-1.38,0.178-1.428c0.014,0.012,0.145,0.022,1.209-0.209c0.304,0.005,0.757-0.063,1.286-0.127
						c2.041-0.269,5.369-0.588,6.502-0.643c1.36-0.052,2.575-0.483,3.186-0.85c0.535-0.368-0.358-1.139-0.358-1.139
						s-0.222-0.156,0.176-1.433c0.323-1.201,1.431-4.125,1.743-4.648C62.748,246.428,63.21,245.831,62.617,245.293z"/>
					<path d="M40.681,230.645c-0.735-1.146-2.381-2.004-2.381-2.004c-0.229,0.222-0.088,0.679,0.198,1.664
						c0.359,0.987,0.068,4.681,0.055,5.437c0.061,0.83-0.795,2.4-0.805,2.928c-0.085,0.528,1.174,1.908,1.698,2.143
						c0.45,0.161,1.063-0.281,1.226-1.033c0.09-0.829,0.104-1.735,0.289-3.544c0.255-1.808,0.444-3.917,0.304-4.522
						C41.202,231.106,40.681,230.645,40.681,230.645z"/>
					<path d="M66.001,228.671c-0.969-0.697-2.395-1.099-2.698-1.104c-0.226-0.004-0.461,0.445-0.765,0.666
						c-0.385,0.295-1.591,0.199-3.935,0.459c-2.345,0.262-5.822,0.578-5.822,0.578s-0.228,0.071-0.301-0.156
						c-0.069-0.228-0.131-0.984-0.121-1.588c0.013-0.679-0.063-0.755,0.174-1.355c0.162-0.601,0.849-1.042,0.487-1.878
						c-0.364-0.837-0.581-1.293-1.185-1.38c-0.076-0.001-0.076-0.001-0.075-0.076c-0.602-0.087-0.829-0.09-0.829-0.09
						c-0.514-0.764-1.645-0.859-2.181-0.416c-0.463,0.521-1.43-0.251-1.513,0.125c-0.156,0.375,0.201,1.515,0.201,1.515
						s0.145,0.454,0.44,0.687c0.298,0.229,1.128,0.321,1.344,0.854c0.294,0.457,0.705,2.88,0.769,3.561
						c0.063,0.755-0.539,0.595-1.221,0.733c-0.682,0.063-2.954,0.552-3.557,0.54c-0.529,0.067-1.582-0.178-2.262-0.189
						c-0.603-0.011-0.239,0.826,0.205,1.212c0.521,0.387,1.484,1.536,2.091,1.319c0.683-0.214,1.215-0.432,2.958-0.854
						c1.669-0.5,2.654-0.71,2.654-0.71s-0.005,0.303,0.216,0.609c0.147,0.304,0.303,0.006,0.532-0.218l0.077-0.074
						c0.382-0.296,0.081-0.226,0.46-0.37c0.381-0.219,0.686-0.364,1.67-0.575c0.983-0.133,2.191-0.111,3.775-0.085
						c1.586,0.027,5.361-0.132,5.361-0.132s-0.011,0.604-0.335,1.882c-0.249,1.354-1.47,2.163-1.47,2.163s-0.005,0.225,0.297,0.156
						c0.304,0.005,0.309-0.297,1.676-0.801c1.29-0.432,2.737-1.16,3.738-2.276c0.308-0.295,0.463-0.596,0.468-0.821l0.005-0.227
						C67.341,229.751,66.672,229.135,66.001,228.671z"/>
					<path d="M51.44,241.248c-0.605,0.065-1.212,0.206-1.36,0.128c-0.148-0.154-0.366-0.761-0.358-1.215
						c0.01-0.527-0.038-2.113-0.026-2.717c-0.064-0.604,0.091-0.98-0.876-1.675c-1.044-0.774-3.071-1.415-3.377-1.192
						c-0.308,0.297-0.012,0.679-0.012,0.679c0.679,0.087,0.967,0.847,1.554,1.839c0.512,0.915,1.052,4.548,1.117,5.151
						c0.065,0.606,0.943,2.131,1.168,2.286c0.224,0.154,0.382-0.295,0.391-0.749c0.006-0.452,0.387-0.521,1.294-0.656
						c0.075,0.002,0.228-0.072,0.454-0.067c1.137-0.207,3.18-0.548,3.633-0.539c0.526,0.083,0.749,0.389,0.974,0.47
						c0.224,0.078,0.979,0.091,1.138-0.358c0.082-0.376,0.011-0.679,0.105-1.66c0.016-0.904,0.034-2.036,0.116-2.413
						c0.097-1.28,0.124-2.79,0.365-3.54c0.239-0.826-0.427-1.518-1.1-1.906c-0.672-0.39-2.335-0.268-2.869,0.025
						c-0.307,0.22-1.291,0.505-2.203,0.791c-0.606,0.217-1.214,0.357-1.442,0.503c-0.455,0.144-1.146,0.735-0.843,0.741
						c0.379-0.068,1.049,0.471,1.801,0.635c0.151,0.004,0.301,0.006,0.451,0.009c0.829,0.089,2.115-0.115,2.722-0.179
						c0.682-0.141,0.523,0.234,0.576,1.594c0.126,1.361,0.093,3.323,0.093,3.323s-1.441,0.352-2.197,0.489
						C52.425,241.039,51.895,241.182,51.44,241.248z"/>
				</g>
			</g>
			<g>
				<g>
					<path d="M60.615,270.243c0.293,0.22,0.659,0.51,0.95,0.876c0.292,0.219,0.585,0.438,0.804,0.584
						c0.583,0.365,0.876-0.073,0.876-0.511c-0.072-0.511,0-1.389,0-1.899c0.071-0.584-0.293-0.875-0.729-1.021
						c-0.439-0.146-0.294,0.073-0.95-0.146c0,0-0.073,0-0.073-0.072c-0.729-0.22-1.314-0.146-1.533,0.146
						c-0.146,0.293,0,0.804,0,0.804S60.105,269.878,60.615,270.243z"/>
					<path d="M48.787,279.516c0.221-0.292-0.291-0.876-0.803-1.313c-0.219-0.219-0.439-0.366-0.658-0.512
						c-0.51-0.365-1.093,0-1.531,0.293c-0.365,0.365-1.022,0.437-1.022,0.437c-0.146-0.364,0.219-2.044,0.219-2.992
						c-0.072-0.877-0.292-2.995-0.876-3.505c-0.583-0.512-3.066-0.949-3.286-0.657c-0.219,0.292,0.438,0.876,0.438,0.876
						s-0.147,0.219,0.585,1.606c0.73,1.387,0.876,5.768,0.876,5.768s-2.484,1.022-3.433,1.533c-0.948,0.584-1.168,1.022-1.022,1.315
						c0.146,0.219,1.242,0.145,2.41,0c1.169-0.221,2.045-0.585,2.045-0.585s0.146,1.095,0.072,2.701
						c-0.072,1.606-0.072,9.564,0.073,11.171c0.22,1.68,0.583,3.14,0.949,3.505s0.656-0.656,0.803-2.045
						c0.219-1.46-0.073-3.576,0-5.476c0.146-1.971,0.219-3.723,0.073-6.498c-0.073-2.701,0.22-4.089,0.22-4.089
						s0.582-0.219,1.605-0.511c0.511-0.146,1.021-0.292,1.46-0.438C48.35,279.954,48.714,279.734,48.787,279.516z"/>
					<path d="M67.406,286.524c-0.804-0.875-1.825-0.438-2.774,0c-0.656,0.22-2.116,0.512-3.066,0.658
						c-0.511,0.146-0.95,0.146-0.95,0.146s-0.145-0.146-0.217-0.512c0-0.365-0.731-0.876-1.024-0.949
						c-0.364-0.146-0.364-0.365-0.364-0.365s0.438,0,0.583,0c0.221,0,0.366,0.219,0.732,0.073c0.364-0.146,0.876-0.731,1.24-2.264
						c0.071-0.146,0.071-0.293,0.146-0.438c0.365-1.898,0.877-4.525,1.169-5.038c0.218-0.511,0.511-0.948,0-1.68
						c-0.219-0.364-0.804-0.656-1.314-0.729c-0.364-0.146-0.657-0.146-0.657-0.146s-0.219-0.513-0.657-0.293
						c-0.292,0.072-1.459,0.293-2.41,0.511c-0.876,0.219-1.68,0.366-1.68,0.366l-0.144-3.286c0,0-0.221,0.073,0.29-0.292
						c0.365-0.22,1.022-0.365,1.533-0.512c0.22-0.073,0.439-0.073,0.585-0.146c0.438-0.072,1.021-0.656,1.021-0.656
						c-0.219-1.241-0.729-1.533-1.313-1.826c-0.073,0-0.146,0-0.293,0c-0.729,0-1.751,0.512-1.751,0.512s0.071-0.146,0-0.657
						c-0.072-0.438-0.072-1.022,0-1.753c0.071-0.729-0.146-1.387-1.241-1.897c-0.364-0.22-0.731-0.293-1.169-0.293
						c-0.803,0-1.533,0.293-1.68,0.585c-0.218,0.365,0.294,0.876,0.949,1.68c0.439,0.584,0.657,1.679,0.73,2.48
						c0.073,0.439,0.073,0.731,0.073,0.731s0,0-0.073,0.073c-0.291,0.073-1.606,0.438-2.045,0.803
						c-0.585,0.512-2.19,0.657-2.7,0.803c-0.512,0.146,0.073,0.657,0.073,0.657s0.583,0.513,1.093,0.657
						c0.439,0.22,1.899,0.074,2.558-0.145c0.438-0.146,0.802-0.221,1.021-0.292c0.073,0,0.146,0,0.146,0s0,0.146,0.146,0.875
						c0.073,0.803,0.293,2.482,0.293,2.482s-0.22,0.073-0.585,0.22c-0.73,0.291-1.971,0.729-2.336,0.803
						c-0.511,0.072-0.073,0.364,0.218,0.364c0.366,0,1.242,0.073,1.754,0.147c0.145,0,0.291,0,0.364,0
						c0.365-0.074,0.585-0.147,0.585-0.147l0.292,2.482c0,0-0.072,0.292-0.219,0.292c-0.147,0-0.366,0.074-0.658,0.146
						c-0.438,0.219-1.021,0.438-1.17,0.438c-0.216,0-0.145-0.876-0.145-1.387c0-0.584-0.219-0.949-0.876-1.314
						c-0.656-0.438-1.389-0.949-1.752-1.021c-0.365,0-0.513,0.877,0,1.825c0.51,0.949,1.533,5.548,1.897,6.498
						c0.293,0.949,0.365,1.022,0.585,0.876c0.219-0.073,0.29-0.437,0.29-0.437s0.148-0.147,1.17-0.147c0.073,0,0.146,0,0.22,0
						c1.167-0.072,3.14-0.146,3.14-0.146s0.511,0.803,0.584,1.021c0.072,0.073,0.146,0.22,0.218,0.366
						c0.147,0.291,0.293,0.584,0.293,0.584s-0.073,0-0.293,0c-0.511,0.072-1.605,0.219-3.284,0.511
						c-0.292,0-0.585,0.072-0.877,0.146c-2.118,0.438-4.893,1.096-5.695,1.314c-0.145,0.072-0.219,0.072-0.219,0.072
						s-1.095,0.22-0.439,0.804c0.294,0.22,0.439,0.292,0.658,0.365c0.438,0.146,0.876,0.074,1.388,0.146
						c0.804,0,1.168,0,2.117-0.219c0.366-0.072,1.242-0.218,2.19-0.438c1.315-0.292,2.774-0.584,3.58-0.73
						c0.217-0.072,0.436-0.072,0.581-0.146c0.804-0.146,0.878-0.146,0.878-0.146c0.291,2.41,0.364,8.469,0.364,8.469
						s-0.657,0.073-1.242,0.22c-0.438,0.073-0.802,0.22-0.949,0.291c-0.438,0.22,0.147,1.17,0.878,1.607c0,0,0,0,0.071,0.072
						c0.585,0.512,0.585,2.19,0.657,2.336c0.146,0.146,0.949,0.366,1.022,0.512c0.106,0.082,0.182-0.037,0.657-0.803
						c0.588-0.947,0.949-3.65,0.949-6.206c0.074-2.555-0.438-6.134-0.438-6.498c0-0.292,0.365-0.366,0.876-0.366
						c0.292,0,0.585,0,0.95,0c1.096,0,3.649,0,4.599,0c0.95,0.074,1.315,0,1.68-0.291C69.158,288.716,68.211,287.4,67.406,286.524z
						 M54.774,284.699c0,0-0.51,0.146-1.095,0.293c-0.438,0.146-0.948,0.291-1.095,0.438c0,0,0.219-1.533,0.073-2.263
						c-0.148-0.658-0.073-1.169-0.073-1.169s0.511,0,1.095-0.073c0.365,0,0.658,0,0.949-0.146c0.146-0.072,0,1.021,0.073,1.46
						C54.849,283.751,54.774,284.699,54.774,284.699z M57.915,284.188c-0.074,0-0.074,0-0.074,0
						c-0.876,0.146-1.605,0.221-1.605,0.221s-0.291-2.702,0-2.922c0.292-0.147,0.949-0.219,1.605-0.438
						c0.147,0,0.366-0.146,0.512-0.219c0.292-0.22-0.219-0.512-0.512-0.803c-0.071-0.073-0.146-0.148-0.218-0.148
						c-0.22-0.29-0.438-0.218-0.877-0.145s-0.802,0.293-0.729,0.22c0.072-0.511,0-1.971,0.144-2.337c0,0,0.878-0.292,1.68-0.51
						c0.293-0.074,0.585-0.147,0.804-0.147c0.584-0.146,1.022,0.147,1.022,0.147s-0.22,0.948-0.22,1.971
						c-0.073,0.949,0.146,4.381-0.073,4.892C59.374,283.97,58.792,284.042,57.915,284.188z"/>
					<path d="M54.484,292.805c-0.22-0.074-0.513-0.146-0.805-0.293c-0.584-0.146-1.241-0.365-1.606-0.365
						c-0.584-0.072-0.364,0.438-0.364,0.438s0.511,1.169,0.876,1.825c0.219,0.365,0.657,0.876,1.095,1.315
						c0.365,0.291,0.73,0.583,0.949,0.729c0.512,0.219,0.73-0.074,0.877-0.438c0.219-0.365,0.146-1.168,0.073-1.752
						C55.506,293.606,55.066,293.023,54.484,292.805z"/>
				</g>
			</g>
			<g>
				<g>
					<path d="M49.979,324.125c0.373-0.446,0-0.819-0.298-1.19c0-0.074-0.073-0.074-0.073-0.148
						c-0.373-0.373-1.119-1.118-1.565-1.193c-0.446-0.073-0.446,0.521-0.895,0.82c-0.372,0.223-0.147-1.49-0.072-3.128
						c0.072-1.639,0.371-4.096,0.222-5.14c-0.074-1.117-0.372-1.414-1.265-1.936c-0.894-0.596-1.417-0.819-1.641-0.969
						c-0.222-0.073-1.414-0.446-1.786-0.521c-0.446,0,0.372,1.489,0.596,2.233c0.224,0.746,0.969,1.191,1.042,2.086
						c0.148,0.894,0.225,5.213,0.372,6.926c0.15,1.713-0.147,1.938-0.147,1.938s-0.148,0.073-0.595,0.222
						c-0.448,0.224-1.938,1.193-1.938,1.193s-0.075-0.224,0.075-1.342c0.074-1.116,0.743-1.713,0.967-2.085
						c0.149-0.447-0.075-1.639-0.743-1.937c-0.746-0.224-0.97-0.596-1.491-0.968c-0.521-0.372-1.713-0.969-1.862-0.67
						c-0.074,0.298,0,0.67,0,0.67s0.374,0.968,0.745,1.563c0.372,0.521,0.745,1.642,0.521,2.979
						c-0.149,1.267-0.818,2.013-1.117,2.682c-0.298,0.67,0,1.639,0.374,1.787c0.297,0.149,1.117,0.818,1.786,0.299
						c0.595-0.521,1.862-1.565,2.532-1.937c0.597-0.372,0.968-0.372,0.968-0.372c0.075,0.372,0.224,4.542,0.224,4.542
						s-0.446,0.596-1.266,1.266s-2.83,2.681-3.575,3.501c-0.744,0.819-1.713,0.671-2.011,0.521c-0.372-0.224-0.819,0-0.597,0.745
						c0.3,0.82,1.49,1.787,2.235,1.862c0.67,0,1.192-0.597,2.384-2.383c1.191-1.788,2.829-3.501,2.829-3.501s0,0.819,0.075,2.011
						c0.073,1.191,0,3.501-0.075,4.617c0,1.117-0.224,3.054-0.224,3.054s-0.893,0-1.191,0.149c-0.298,0.223,0,0.968,0.374,1.415
						c0.37,0.446,1.266,1.935,1.413,2.233c0.076,0.299,0.372,0.224,0.671,0c0.299-0.299,0.299-0.969,0.596-1.489
						c0.372-0.596,0.447-1.414,0.298-1.861c-0.225-0.521,0-0.895-0.075-2.607c-0.149-1.713-0.296-10.202-0.296-10.202l0.445-1.044
						l-0.445,0.076c0,0,0.146-3.203,0.371-3.798c0.149-0.671,0.446-0.373,1.116-0.523c0.446-0.073,1.117,0,1.641-0.147
						C49.755,324.349,49.904,324.275,49.979,324.125z"/>
					<path d="M68.522,324.796c-0.298-0.298-0.597-0.893-1.19-1.267c-0.597-0.372-1.192-0.298-1.788,0
						c-0.597,0.225-0.671,0.075-1.639,0.149c-1.044,0.149-4.394,0.075-5.213,0.225c-0.895,0.073-2.012,0.222-2.83,0.372
						c-0.82,0.148-1.861-0.372-1.861-0.372c0.297-0.448,2.308-4.32,2.755-5.438c0.371-1.116,0.299-1.713,0.446-2.458
						c0.225-0.745-0.224-1.191-0.597-1.489c-0.37-0.298-0.221-0.298-0.596-0.446c-0.446-0.148-0.595-0.225-1.488-0.671
						c-0.82-0.373-1.414-0.447-1.787-0.298c-0.299,0.073,0.224,0.446,0.224,0.446s0.371,0.448,0.743,1.342
						c0.448,0.818-0.222,3.053-0.669,4.617c-0.374,1.489-2.088,5.586-2.532,6.852c-0.224,0.596-0.596,1.34-0.893,1.861
						c-0.373,0.595-0.598,0.969-0.598,0.969s0.149,0.148,0.598-0.225c0.444-0.298,1.042-0.968,1.861-1.786
						c0.818-0.895,1.936-2.532,1.936-2.532s0.297,0.521,0.672,0.818c0.295,0.372,1.042,1.043,1.339,1.49
						c0.298,0.372-0.596,2.904-2.159,6.106c-1.489,3.203-2.683,5.139-2.83,5.362c-0.074,0.149-0.595,0.521-0.074,0.447
						c0.593,0,1.415-1.192,2.084-2.161c0.672-0.894,2.683-3.871,3.649-5.211c0.97-1.342,1.638-3.353,1.862-3.8
						c0.223-0.447-0.521-1.191-0.521-1.191s-0.225-0.148,0.072-0.298c0.224-0.148,1.862-0.298,1.862-0.298s0,0.298,0.15,1.639
						c0.149,1.414-1.117,3.872-1.564,4.989c-0.448,1.117-1.862,3.873-2.459,4.842c-0.669,0.967-1.711,2.979-2.009,3.276
						c-0.372,0.224-0.598,0.818-0.598,0.818s0.076,0.075,1.341-0.668c1.266-0.747,2.979-3.056,4.843-6.184
						c1.86-3.202,2.382-4.915,2.307-6.329c-0.072-1.341-1.639-2.309-1.639-2.309s0.82-0.15,2.31-0.15
						c1.564,0,3.501-0.148,3.501-0.148s0.148-0.147,0.222,0.819c0,0.968-0.371,3.723-1.042,5.66
						c-0.669,2.011-1.638,3.873-2.085,4.691c-0.447,0.746-1.043,2.012-1.639,2.012c-0.521,0-0.895-0.374-1.267-0.374
						c-0.445,0-0.146,0.746,0.076,1.119c0.296,0.37,0.147,1.415,0.222,2.01c0.074,0.596-0.074,0.819,0.969,0.521
						c1.116-0.297,2.607-2.309,4.172-5.214c1.637-2.904,3.351-9.682,3.725-10.724C69.342,325.095,68.745,325.02,68.522,324.796z"/>
				</g>
			</g>
			<g>
				<g>
					<path d="M56.542,367.344c-0.144,0.144-0.502,0.287-0.932,0.43c-0.713,0.216-1.574,0.43-1.716,0.501
						c-0.359,0.143-1.36-0.285-1.934-0.144c-0.572,0.144,0.072,1.002,0.072,1.002c0.358,0,0.788,0.717,1.001,1.145
						c0.215,0.501,0.787,0.286,0.93-0.144c0.217-0.5,0.789-0.571,1.361-0.929c0.07-0.072,0.143-0.072,0.285-0.144
						c0.501-0.215,1.002-0.215,1.574-0.357c0.644-0.144,1.574-0.573,1.861-0.359c0.286,0.216,0.501-1.001,0.286-1.215
						c-0.286-0.285-1.431-0.5-1.79-0.5C57.112,366.63,56.899,367.13,56.542,367.344z"/>
					<path d="M53.751,362.908c-0.644,0.142-2.146-0.072-2.146-0.072c0.429,0.788,0.787,1.646,1.503,1.718
						c0.5,0,1.502-0.357,2.503-0.787c0.357-0.143,0.788-0.286,1.146-0.43c1.288-0.429,5.151-0.858,5.151-0.858s0,0.645-0.214,1.788
						c-0.215,1.074-0.643,1.36-0.501,1.36c0.143,0,1.717-0.358,2.862-1.36c1.145-1.072,1.646-1.431,1.502-2.146
						c-0.071-0.786-0.786-0.571-1.073-0.714c-0.358-0.072-0.643-0.431-1.145-0.788c-0.573-0.286-1.359-0.644-1.504-0.215
						c-0.213,0.501-0.714,0.786-0.714,0.786c-1.072-0.142-4.723,1.003-4.723,1.003s-0.072-1.359,0-2.934
						c0.071-1.502,0.285-1.789,0.429-2.433c0.072-0.572-0.501-0.716-1.217-1.002c-0.215-0.071-0.356-0.143-0.501-0.215
						c-0.929-0.43-0.929-0.142-0.929-0.142s-0.43-0.215-0.787-0.145c-0.359,0.071-0.932-0.07-1.288-0.144
						c-0.358-0.071-0.145,0.43,0.286,0.931c0.43,0.429,0.143,0.931,0.643,1.288c0.501,0.286,0.646,0.858,0.646,0.858
						c0.142,0.501,0.857,4.151,0.857,4.151S54.322,362.766,53.751,362.908z"/>
					<path d="M47.668,367.703c0,0,0,0.213,0.145,0.5c0,0.142,0.144,0.357,0.286,0.644c0.428,0.645,1.43,1.646,1.43,1.646
						s0.143-0.071,0.431-0.643c0.284-0.502,0.428-0.859,0.572-1.646c0.071-0.787,0.071-1.646,0.142-3.148
						c0.144-1.503-0.786-1.86-1.215-2.219c-0.501-0.428-1.073-0.428-1.073-0.428s0,0.214,0.142,1.358
						c0.216,1.145-0.07,1.789-0.142,2.863c-0.072,0.786-0.429,1.001-0.572,1.073C47.668,367.773,47.668,367.703,47.668,367.703z"/>
					<path d="M73.571,382.155c0-1.073-0.502-1.717-0.502-1.717s-0.214,0.573-0.645,1.503c-0.356,0.931-1.002,2.361-3.791,3.077
						c-3.65,0.93-9.231,0.715-10.018,0.429c-0.859-0.287-1.002-1.001-1.002-2.076c0-1.071,1.788-4.578,2.075-5.509
						c0.359-0.857-0.215-1.932-0.715-2.004c-0.431-0.07-1.79-0.644-1.79-0.644s0-0.213,0.071-0.715
						c0.145-0.573-0.286-1.074-0.286-1.074s-0.143-0.142,0.359-0.357c0.499-0.143,1.932-0.715,2.36-0.857
						c0.359-0.144,0.43,0.213,0.43,0.428s0.645-0.357,0.932-0.644c0.284-0.285-0.217-0.858-0.788-1.287
						c-0.573-0.431-1.36-0.357-1.719,0.07c-0.357,0.43-2.146,1.073-2.861,1.289c-0.072,0.07-0.072,0.07-0.072,0.07
						c-0.929,0.359-4.078,1.789-4.651,2.074c-0.644,0.288-2.217-0.142-2.86-0.214c-0.644-0.071,0,0.646,0,0.859
						c0,0.145,0.286,0.501,0.714,1.216c0.358,0.645,1.503,0.859,1.646,0.716c0.144-0.071,0.214-0.43,1.073-0.858
						c0.787-0.429,3.506-1.933,4.078-2.219h0.072c0,0.286,0,0.645-0.072,1.002c-0.356,1.145-1.358,2.647-3.577,5.581
						c-1.574,2.075-3.147,3.578-4.221,4.508c-1.002,0.787-1.646,1.217-1.646,1.217s0.143,0.429,0.858-0.071
						c0.214-0.072,0.431-0.215,0.788-0.501c0.856-0.645,2.36-1.932,4.364-3.648c1.431-1.218,2.576-2.721,3.434-3.865
						c0.646-0.929,1.073-1.646,1.073-1.646s0.144,0.287,0.359,0.787c0.213,0.573,0,1.359-0.431,3.721
						c-0.429,2.361-0.429,3.507,0.287,5.08c0.715,1.646,8.228,2.219,11.448,2.004c3.292-0.215,4.722-1.789,5.009-2.433
						C73.929,384.303,73.571,383.301,73.571,382.155z"/>
					<path d="M47.238,373.856c0.286-0.216,0.43-0.501,0.574-0.858c0.144-0.645,0.144-1.504,0-2.577
						c-0.072-0.07-0.072-0.215-0.072-0.287c-0.357-1.931-1.503-4.651-1.86-5.15c-0.358-0.43-1.504-1.789-1.504-1.789
						c1.074-1.074,2.72-4.437,3.148-5.079c0.358-0.646,0.073-0.717-0.5-1.074c-0.501-0.358-0.716-0.572-1.145-0.931
						c-0.43-0.429-1.36-0.143-1.933,0.071c-0.572,0.144-0.714,0.931-0.714,0.931s-0.073,0.286-1.074,0.572
						c-1.072,0.286-1.933,0.431-2.074,0.501c-0.144,0-0.645,0.143-0.788,0.358c-0.144,0.214,0,0.715,0,0.715s1.431,1.145,1.79,1.288
						c0.356,0.143,0.284,0.071,0.856-0.501c0.574-0.572,0.645-0.501,1.718-1.002c1.075-0.5,0.286,0.572,0.43,0.787
						c-0.501,1.789-1.001,2.719-1.216,3.219c-0.216,0.431-0.287,0.646-0.43,1.289c-0.143,0.572,0.5,0.716,0.5,0.716
						s0.288-0.215,0.501-0.43c0.215-0.286,0.431,0,1.003,0.644c0.572,0.716,0.572,3.006,0.645,3.937
						c0.143,0.929-0.503,0.786-1.146,0.645c-0.644-0.144-2.36-0.645-2.36-0.645s0-0.144,0-0.788c0-0.572,0-2.719-0.071-4.006
						c0-1.217-0.286-1.361-0.717-1.789c-0.357-0.43-2.719-1.718-2.719-1.718s-0.501,0.215-0.07,1.216
						c0.429,1.074,1.002,2.291,1.501,5.511c0.502,3.291,0.502,8.3,0.431,10.59c0,2.36-0.358,7.655-0.358,8.657
						s0.858,2.29,1.36,2.146c0.5-0.143,0.786-0.857,0.786-1.716c0.071-0.788,0-3.006,0.071-5.797
						c0.071-2.719-0.214-10.59-0.214-10.59s-0.071-0.501,0.285-0.571c0.359-0.073,0.646,0.07,0.932,0.285
						c0.356,0.215,1.216,1.216,1.86,1.718C45.378,372.926,46.523,374.5,47.238,373.856z"/>
				</g>
			</g>
		</g>
	</g>
	<g>
		<circle fill="#7D0000" cx="40.301" cy="40.303" r="40.301"/>
		<g>
			<path fill="#FFFFFF" d="M26.484,14.643H14.646v11.846h11.838V14.643z M22.536,22.536h-3.948v-3.94h3.948V22.536z"/>
			<path fill="#FFFFFF" d="M54.12,14.643v11.846h11.839V14.643H54.12z M62.011,22.536h-3.944v-3.94h3.944V22.536z"/>
			<path fill="#FFFFFF" d="M54.12,65.963h11.839V54.119H54.12V65.963z M58.066,58.074h3.944v3.943h-3.944V58.074z"/>
			<path fill="#FFFFFF" d="M14.646,65.963h11.838V54.119H14.646V65.963z M18.588,58.074h3.948v3.943h-3.948V58.074z"/>
			<polygon fill="#FFFFFF" points="46.216,62.017 42.274,62.017 42.274,18.596 46.216,18.596 46.216,26.489 50.166,26.489 
				50.166,14.643 30.433,14.643 30.433,26.489 34.381,26.489 34.381,18.596 38.326,18.596 38.326,62.017 34.381,62.017 
				34.381,54.119 30.433,54.119 30.433,65.963 50.166,65.963 50.166,54.119 46.216,54.119 			"/>
			<polygon fill="#FFFFFF" points="34.381,30.435 14.646,30.435 14.646,42.273 26.484,42.273 26.484,38.329 18.592,38.329 
				18.592,34.387 30.433,34.387 30.433,46.227 14.646,46.227 14.646,50.175 34.381,50.175 			"/>
			<polygon fill="#FFFFFF" points="54.114,38.329 54.114,42.273 65.954,42.273 65.954,30.435 46.216,30.435 46.216,50.175 
				65.954,50.175 65.954,46.227 50.166,46.227 50.166,34.387 62.005,34.387 62.005,38.329 			"/>
		</g>
	</g>
</g>
</svg>
