<?xml version="1.0" encoding="utf-8"?>
<!-- Generator: Adobe Illustrator 16.0.0, SVG Export Plug-In . SVG Version: 6.00 Build 0)  -->
<!DOCTYPE svg PUBLIC "-//W3C//DTD SVG 1.1//EN" "http://www.w3.org/Graphics/SVG/1.1/DTD/svg11.dtd">
<svg version="1.1" id="圖層_1" xmlns="http://www.w3.org/2000/svg" xmlns:xlink="http://www.w3.org/1999/xlink" x="0px" y="0px"
	 width="462.131px" height="98.504px" viewBox="0 0 462.131 98.504" enable-background="new 0 0 462.131 98.504"
	 xml:space="preserve">
<g>
	<g>
		<path fill="#790000" d="M98.5,49.254c0,27.195-22.05,49.25-49.25,49.25S0,76.449,0,49.254C0,22.056,22.05,0,49.25,0
			S98.5,22.056,98.5,49.254z"/>
		<g>
			<path fill="#FFFFFF" d="M32.363,17.895H17.896v14.477h14.467V17.895z M27.54,27.541h-4.825v-4.815h4.825V27.541z"/>
			<path fill="#FFFFFF" d="M66.138,17.895v14.477h14.466V17.895H66.138z M75.78,27.541h-4.82v-4.815h4.82V27.541z"/>
			<path fill="#FFFFFF" d="M66.138,80.611h14.466V66.137H66.138V80.611z M70.96,70.969h4.82v4.819h-4.82V70.969z"/>
			<path fill="#FFFFFF" d="M17.896,80.611h14.467V66.137H17.896V80.611z M22.715,70.969h4.825v4.819h-4.825V70.969z"/>
			<polygon fill="#FFFFFF" points="56.478,75.788 51.66,75.788 51.66,22.726 56.478,22.726 56.478,32.371 61.305,32.371 
				61.305,17.895 37.19,17.895 37.19,32.371 42.016,32.371 42.016,22.726 46.836,22.726 46.836,75.788 42.016,75.788 42.016,66.137 
				37.19,66.137 37.19,80.611 61.305,80.611 61.305,66.137 56.478,66.137 			"/>
			<polygon fill="#FFFFFF" points="42.016,37.193 17.896,37.193 17.896,51.66 32.363,51.66 32.363,46.84 22.719,46.84 
				22.719,42.023 37.19,42.023 37.19,56.492 17.896,56.492 17.896,61.316 42.016,61.316 			"/>
			<polygon fill="#FFFFFF" points="66.129,46.84 66.129,51.66 80.598,51.66 80.598,37.193 56.478,37.193 56.478,61.316 
				80.598,61.316 80.598,56.492 61.305,56.492 61.305,42.023 75.772,42.023 75.772,46.84 			"/>
		</g>
	</g>
</g>
<g>
	<path d="M136,17.521c1.245,0.816,1.869,1.525,1.869,2.127c0,0.243-0.205,0.526-0.614,0.849c-0.358,0.486-0.741,1.092-1.149,1.819
		c-1.841,3.315-3.682,6.064-5.522,8.247c-1.482,1.779-3.17,3.316-5.061,4.609c-1.278,0.89-2.122,1.334-2.531,1.334
		c-0.215,0-0.322-0.054-0.322-0.161c0-0.151,0.164-0.339,0.493-0.566c1.751-1.662,3.503-3.663,5.255-6.006
		c1.587-2.114,3.038-4.531,4.352-7.251c0.821-1.662,1.232-3.21,1.232-4.646c0-0.58,0.193-0.87,0.58-0.87
		C134.925,17.005,135.397,17.177,136,17.521z M132.032,29.722c0.848,1.092,1.272,1.826,1.272,2.201c0,0.204-0.086,0.764-0.256,1.68
		c-0.205,1.222-0.307,4.3-0.307,9.236l-0.164,7.94c0,0.646-0.188,1.496-0.563,2.553c-0.239,0.781-0.512,1.174-0.818,1.174
		c-0.41,0-0.785-0.441-1.125-1.32c-0.58-1.321-0.87-2.252-0.87-2.793c0.046-0.328,0.208-1.068,0.489-2.22
		c0.65-2.247,0.976-7.042,0.976-14.386c0-1.628-0.258-3.239-0.773-4.835c0-0.339,0.237-0.509,0.712-0.509
		C130.811,28.443,131.285,28.87,132.032,29.722z M137,30.13c0,0,0.345,0.122,1.035,0.366c0.721,0.336,1.082,0.718,1.082,1.146
		c0,0.168-0.08,0.527-0.24,1.075c-0.223,0.675-0.334,1.412-0.334,2.213v7.083c0,0.806-0.141,1.457-0.42,1.952
		c-0.249,0.527-0.561,0.79-0.934,0.79c-0.312,0-0.607-0.342-0.887-1.026c-0.219-0.56-0.326-1.026-0.326-1.399
		c0-0.617,0.106-1.311,0.32-2.082c0.121-1.028,0.184-2.596,0.184-4.704c0-1.991-0.11-3.329-0.328-4.014
		c-0.22-0.591-0.345-0.887-0.375-0.887c0-0.342,0.156-0.514,0.47-0.514C136.749,30.13,137,30.13,137,30.13z M158.145,44.924
		c0.682,0.69,1.023,1.265,1.023,1.724c0,0.321-0.345,0.643-1.031,0.964c-0.765,0.417-1.413,0.803-1.948,1.156
		c-2.521,1.896-4.966,3.469-7.333,4.723c-2.559,1.283-4.756,2.104-6.588,2.457c-1.375,0.288-2.426,0.434-3.15,0.434
		c-0.925-0.037-1.387-0.166-1.387-0.387c2.68-0.955,4.804-1.811,6.373-2.568c2.105-1.087,4.344-2.453,6.717-4.099
		c1.838-1.251,3.234-2.419,4.192-3.506c0.344-0.395,0.611-0.806,0.804-1.235c0.15-0.387,0.378-0.58,0.682-0.58
		C156.801,44.005,157.35,44.312,158.145,44.924z M153.843,21.594c1.226,0.927,1.839,1.653,1.839,2.179c0,0.125-0.11,0.3-0.33,0.526
		c-0.293,0.372-0.66,0.826-1.1,1.363c-0.843,1.095-2.089,2.521-3.736,4.275c-2.053,1.983-4.195,3.563-6.43,4.739
		c-2.346,1.219-3.939,1.828-4.781,1.828c-0.258,0-0.387-0.075-0.387-0.226c0-0.063,0.134-0.17,0.401-0.319
		c2.032-1.085,4.351-2.853,6.957-5.302c1.993-1.789,3.603-3.651,4.829-5.589c0.536-0.766,0.805-1.693,0.805-2.779
		c0-0.773,0.235-1.16,0.707-1.16C152.869,21.13,153.277,21.285,153.843,21.594z M148.796,15.64c0.918,0.378,1.378,0.831,1.378,1.359
		c0,0.343-0.146,0.637-0.435,0.882c-0.621,0.539-1.283,1.371-1.986,2.498c-1.283,1.862-2.628,3.429-4.034,4.702
		c-0.91,0.98-1.696,1.617-2.358,1.91c-0.414,0.343-0.725,0.514-0.931,0.514c-0.302,0-0.451-0.097-0.451-0.29
		c1.173-1.326,2.26-2.771,3.26-4.334c1.348-1.942,2.326-3.718,2.936-5.329c0.217-0.426,0.326-1.137,0.326-2.131
		c0-0.193,0.172-0.29,0.516-0.29C147.246,15.13,147.839,15.3,148.796,15.64z M154.898,39.779c0.619,0.627,0.93,1.149,0.93,1.566
		c0,0.255-0.239,0.51-0.715,0.765c-0.53,0.332-0.979,0.638-1.351,0.918c-1.747,1.503-3.442,2.752-5.083,3.746
		c-1.773,1.02-3.297,1.67-4.566,1.95c-0.953,0.23-1.682,0.344-2.184,0.344c-0.841-0.034-1.26-0.151-1.26-0.352
		c1.794-0.773,3.217-1.468,4.268-2.082c1.409-0.88,2.909-1.988,4.498-3.322c1.23-1.014,2.166-1.96,2.807-2.842
		c0.23-0.32,0.41-0.653,0.539-1c0.137-0.352,0.344-0.527,0.619-0.527S154.175,39.222,154.898,39.779z M152.648,34.529
		c0.619,0.627,0.93,1.149,0.93,1.566c0,0.206-0.193,0.411-0.58,0.616c-0.43,0.267-0.795,0.514-1.096,0.739
		c-1.417,1.212-2.791,2.218-4.123,3.019c-1.438,0.822-2.673,1.346-3.703,1.571c-0.773,0.185-1.364,0.277-1.771,0.277
		c-0.841-0.034-1.26-0.151-1.26-0.352c1.404-0.648,2.52-1.229,3.342-1.744c1.104-0.737,2.279-1.665,3.524-2.783
		c0.963-0.85,1.695-1.643,2.198-2.38c0.18-0.269,0.32-0.548,0.422-0.839c0.137-0.352,0.344-0.527,0.619-0.527
		S151.925,33.972,152.648,34.529z M149.152,28.033c3.688,2.5,6.429,4.138,8.219,4.91c1.844,0.773,4.801,1.705,8.869,2.796
		c0.542,0.137,0.814,0.273,0.814,0.409c0,0.271-0.264,0.473-0.79,0.607c-3.001,0.709-5.081,1.063-6.239,1.063
		c-0.738,0-1.501-0.177-2.291-0.53c-0.79-0.397-3.106-2.298-6.95-5.703c-1.159-1.061-2.264-1.967-3.317-2.719
		c-1-0.708-1.975-1.216-2.922-1.526c-0.369-0.044-0.553-0.176-0.553-0.397c0-0.41,0.336-0.615,1.01-0.615
		C145.925,26.328,147.309,26.896,149.152,28.033z M158.783,19.556c0.764,0.362,1.146,0.684,1.146,0.965
		c0,0.451-0.716,0.827-2.147,1.127c-2.017,0.251-4.067,0.527-6.148,0.827c-1.041,0.151-2.05,0.226-3.024,0.226
		c-0.582,0-1.185-0.063-1.809-0.189c-0.623-0.125-0.934-0.272-0.934-0.44c0-0.21,0.375-0.398,1.125-0.566
		c4.635-0.968,7.457-1.572,8.465-1.814c1.276-0.29,1.982-0.436,2.117-0.436C157.701,19.255,158.104,19.356,158.783,19.556z"/>
	<path d="M208.271,29.3c0.951,0.775,1.428,1.464,1.428,2.066c0,0.228-0.324,0.531-0.972,0.91c-0.729,0.455-1.62,1.213-2.672,2.275
		c-4.373,4.55-8.421,8.229-12.146,11.034c-3.806,2.882-7.57,5.232-11.295,7.053c-3.806,1.744-6.68,2.617-8.623,2.617
		c-0.328,0-0.492-0.041-0.492-0.123c0-0.14,0.177-0.313,0.53-0.521c4.511-2.011,8.888-4.474,13.132-7.385
		c5.041-3.467,9.639-7.315,13.796-11.546c2.563-2.773,3.935-5.027,4.111-6.761c0-0.693,0.354-1.04,1.062-1.04
		C206.477,27.88,207.19,28.354,208.271,29.3z M176.619,40.25c0.216,0,0.574,0.041,1.075,0.123c0.681,0.082,1.11,0.123,1.29,0.123
		c0.613,0,1.732-0.081,3.355-0.242c7.236-1.129,12.303-2.017,15.198-2.663c0.745-0.161,1.271-0.242,1.579-0.242
		c0.875,0,1.313,0.219,1.313,0.656c0,0.394-0.588,0.723-1.762,0.985c-8.265,1.97-12.396,2.977-12.396,3.021
		c-1.74,0.438-3.307,0.898-4.698,1.379c-0.826,0.394-1.456,0.591-1.892,0.591c-0.545,0-1.29-0.402-2.234-1.208
		c-1.054-0.987-1.58-1.646-1.58-1.976C175.867,40.433,176.117,40.25,176.619,40.25z M186.496,23.149
		c0.617,0.314,0.926,0.66,0.926,1.037c0,0.251-0.046,0.518-0.139,0.801c-0.123,0.566-0.184,1.038-0.184,1.414l0.331,14.042h-2.224
		l-1.04-15.009c-0.03-0.436-0.183-0.903-0.455-1.402c-0.212-0.249-0.318-0.436-0.318-0.561c0-0.561,0.293-0.841,0.88-0.841
		C184.859,22.63,185.601,22.803,186.496,23.149z M201.091,21.098c0.626,0.356,0.938,0.737,0.938,1.143
		c0,0.254-0.102,0.609-0.305,1.066c-0.305,0.965-0.508,2.336-0.609,4.113l0.114,24.017c0,2.043-0.402,3.754-1.206,5.133
		c-0.615,1.123-1.229,1.686-1.844,1.686l-0.876-4.799c0.356,0,0.668-0.813,0.936-2.438c0.267-3.251,0.4-11.028,0.4-23.333
		c0-1.727-0.102-3.072-0.305-4.037c-0.052-0.305-0.229-0.457-0.533-0.457c-0.883,0-2.612,0.218-5.19,0.651
		c-2.715,0.521-4.648,0.781-5.802,0.781c-0.548,0-0.996-0.122-1.345-0.366c-0.398-0.244-0.598-0.439-0.598-0.586
		c0-0.192,0.532-0.352,1.598-0.479c3.821-0.512,7.268-1.246,10.338-2.206c1.19-0.384,1.942-0.576,2.256-0.576
		C199.371,20.413,200.048,20.641,201.091,21.098z M194.49,14.73c0.937,0.587,1.404,1.087,1.404,1.501
		c0,0.164-0.166,0.355-0.499,0.573c-0.522,0.273-1.259,0.901-2.208,1.884c-1.473,1.584-3.135,3.114-4.987,4.587
		c-1.234,0.82-1.971,1.229-2.208,1.229c-0.137,0-0.205-0.068-0.205-0.205c1.982-2.33,3.518-4.407,4.604-6.23
		c0.896-1.52,1.344-2.66,1.344-3.42c0-0.429,0.208-0.645,0.624-0.645S193.484,14.247,194.49,14.73z M197.679,26.991
		c0.833,0.296,1.251,0.549,1.251,0.76c0,0.339-0.506,0.613-1.515,0.824c-0.861,0.114-1.59,0.229-2.187,0.343
		c-0.53,0.114-1.889,0.399-4.074,0.855c-1.193,0.229-2.055,0.343-2.584,0.343c-0.645,0-1.182-0.064-1.611-0.193
		c-0.645-0.215-0.967-0.451-0.967-0.709c0-0.387,0.505-0.602,1.515-0.645c2.468-0.421,4.867-0.969,7.198-1.643
		c0.686-0.169,1.063-0.253,1.131-0.253C196.143,26.673,196.758,26.78,197.679,26.991z M197.679,32.241
		c0.833,0.296,1.251,0.549,1.251,0.76c0,0.339-0.506,0.613-1.515,0.824c-0.844,0.086-1.558,0.173-2.14,0.259
		c-0.52,0.086-1.849,0.302-3.988,0.647c-1.168,0.173-2.011,0.259-2.529,0.259c-0.645,0-1.182-0.064-1.611-0.193
		c-0.645-0.215-0.967-0.451-0.967-0.709c0-0.387,0.505-0.602,1.515-0.645c2.412-0.338,4.757-0.777,7.036-1.317
		c0.67-0.135,1.038-0.203,1.105-0.203C196.143,31.923,196.758,32.03,197.679,32.241z M194.133,52.96
		c1.775,0.331,2.832,0.497,3.171,0.497l0.876,4.799c-0.305,0-0.686-0.305-1.142-0.913c-1.295-1.471-2.437-2.637-3.427-3.498
		c-0.457-0.354-0.685-0.608-0.685-0.761c0-0.178,0.063-0.266,0.19-0.266C193.285,52.818,193.624,52.865,194.133,52.96z"/>
	<path d="M229.469,29.27c0.68,0.554,1.02,1.046,1.02,1.476c0,0.086-0.083,0.199-0.247,0.341c-0.185,0.17-0.411,0.455-0.677,0.853
		c-1.11,1.704-2.137,3.082-3.082,4.132c-0.965,1.08-1.92,1.961-2.865,2.642c-0.965,0.653-1.694,0.98-2.188,0.98
		c-0.234,0-0.352-0.029-0.352-0.088c0-0.057,0.037-0.13,0.111-0.217c0.947-0.837,1.868-1.862,2.762-3.075
		c1.06-1.444,2.026-3.046,2.9-4.809c0.539-1.155,0.827-2.094,0.864-2.816c0-0.288,0.074-0.433,0.224-0.433
		C228.187,28.255,228.696,28.594,229.469,29.27z M235.448,27.065c0.795,0.533,1.192,1.003,1.192,1.41
		c0,0.116-0.121,0.29-0.361,0.521c-0.301,0.348-0.557,1.004-0.767,1.97c-0.422,2.239-0.798,3.765-1.129,4.576
		c-0.512,1.196-1.174,2.007-1.985,2.432c-0.512,0.271-0.918,0.406-1.219,0.406l-0.164-3.164c0.272,0,0.511-0.126,0.716-0.379
		c0.511-0.506,0.97-1.443,1.379-2.81c0.306-1.063,0.46-1.975,0.46-2.734c0-0.615-0.367-0.923-1.102-0.923
		c-0.541,0-1.379,0.11-2.512,0.328c-1.288,0.262-2.576,0.612-3.865,1.05c-0.334,0.088-0.579,0.131-0.733,0.131
		c-0.436,0-0.919-0.175-1.447-0.526c-0.529-0.318-0.794-0.573-0.794-0.765c0.094-0.159,0.313-0.239,0.659-0.239
		c1.069-0.038,2.608-0.271,4.615-0.698c2.192-0.387,3.878-0.794,5.056-1.222c0.268-0.077,0.441-0.116,0.521-0.116
		C234.133,26.313,234.627,26.564,235.448,27.065z M254.416,18.208c1.134,0.711,1.701,1.253,1.701,1.625
		c-0.034,0.373-0.567,0.576-1.6,0.609c-3.85,0.086-8.249,0.365-13.199,0.837c-2.8,0.258-6.499,0.751-11.099,1.48
		c-0.9,0.172-1.45,0.258-1.65,0.258c-0.709,0-1.417-0.188-2.125-0.563c-0.844-0.341-1.265-0.664-1.265-0.971
		c0-0.136,0.317-0.272,0.952-0.409c9.223-1.004,16.794-1.948,22.712-2.832c2.072-0.362,3.379-0.543,3.922-0.543
		C252.938,17.7,253.487,17.869,254.416,18.208z M231.349,39.318c0.521,0,1.3,0.207,2.34,0.62c0.897,0.322,1.347,0.713,1.347,1.173
		c0,0.105-0.07,0.236-0.211,0.394c-0.234,0.263-0.352,0.735-0.352,1.417c0,2.011-0.285,3.825-0.854,5.442
		c-0.489,1.57-1.222,2.991-2.197,4.265c-0.896,1.178-1.994,2.133-3.296,2.869c-1.139,0.588-1.871,0.883-2.196,0.883
		c-0.211,0-0.316-0.082-0.316-0.246c0-0.049,0.116-0.172,0.35-0.367c1.398-1.176,2.505-2.398,3.32-3.67
		c0.932-1.371,1.572-2.888,1.923-4.552c0.35-1.517,0.524-3.059,0.524-4.625c0-0.992-0.17-1.686-0.51-2.082
		c-0.34-0.298-0.51-0.57-0.51-0.818C230.711,39.552,230.924,39.318,231.349,39.318z M231.016,35.216l0.164,3.164
		c-0.254,0-0.495-0.268-0.725-0.802c-0.438-0.85-1.048-1.778-1.83-2.784c0-0.109,0.039-0.164,0.117-0.164
		C229.906,35.021,230.664,35.216,231.016,35.216z M246.99,46.999c0.959,0.603,1.439,1.06,1.439,1.375
		c-0.029,0.315-0.48,0.487-1.354,0.516c-1.572,0.028-3.367,0.116-5.387,0.268c-1.144,0.083-2.654,0.241-4.531,0.474
		c-0.367,0.055-0.592,0.082-0.673,0.082c-0.599,0-1.199-0.158-1.798-0.476c-0.714-0.288-1.07-0.562-1.07-0.822
		c0-0.115,0.268-0.23,0.806-0.346c3.868-0.446,7.044-0.866,9.526-1.259c0.869-0.161,1.417-0.241,1.645-0.241
		C245.738,46.569,246.205,46.712,246.99,46.999z M246.428,41.936c0.959,0.603,1.439,1.06,1.439,1.375
		c-0.029,0.315-0.48,0.487-1.354,0.516c-1.461,0.034-3.129,0.144-5.006,0.328c-1.062,0.101-2.465,0.295-4.209,0.582
		c-0.342,0.067-0.551,0.101-0.626,0.101c-0.599,0-1.199-0.158-1.798-0.476c-0.714-0.288-1.07-0.562-1.07-0.822
		c0-0.115,0.268-0.23,0.806-0.346c3.608-0.502,6.57-0.974,8.887-1.417c0.81-0.18,1.321-0.271,1.534-0.271
		C245.176,41.506,245.643,41.65,246.428,41.936z M236.162,22.722c0.639,0.185,1.262,0.399,1.869,0.644
		c0.798,0.368,1.324,0.704,1.58,1.01c0.191,0.266,0.287,0.562,0.287,0.889c0,0.472-0.117,1.003-0.352,1.592
		c-0.273,0.433-0.625,0.649-1.055,0.649c-0.091,0-0.227-0.089-0.408-0.268c-0.303-0.255-0.68-0.792-1.133-1.611
		c-0.605-1.021-1.059-1.711-1.36-2.069c-0.241-0.255-0.362-0.447-0.362-0.575c0-0.234,0.088-0.352,0.264-0.352
		C235.619,22.63,235.843,22.661,236.162,22.722z M238.845,14.458c1.287,0.354,2.253,0.745,2.897,1.171
		c0.567,0.496,0.852,1.169,0.852,2.021c0,1.195-0.492,1.793-1.477,1.793c-0.325,0-0.671-0.169-1.036-0.508
		c-0.691-0.609-1.667-1.897-2.927-3.862c-0.163-0.204-0.244-0.356-0.244-0.458c0.067-0.281,0.22-0.422,0.457-0.422
		C237.821,14.193,238.314,14.282,238.845,14.458z M239.599,26.755c0,0,0.315,0.112,0.948,0.336c0.661,0.308,0.992,0.658,0.992,1.05
		c0,0.126-0.075,0.393-0.226,0.801c-0.211,0.502-0.316,1.052-0.316,1.648v5.276c0,0.738-0.129,1.335-0.386,1.789
		c-0.229,0.483-0.513,0.725-0.855,0.725c-0.285,0-0.556-0.313-0.812-0.94c-0.2-0.513-0.3-0.94-0.3-1.283
		c0-0.403,0.102-0.857,0.304-1.361c0.116-0.673,0.174-1.699,0.174-3.077c0-1.825-0.101-3.051-0.301-3.68
		c-0.201-0.541-0.315-0.813-0.344-0.813c0-0.313,0.144-0.471,0.432-0.471C239.369,26.755,239.599,26.755,239.599,26.755z
		 M244.541,22.46c0.748,0.47,1.123,0.87,1.123,1.201c0,0.088-0.092,0.189-0.276,0.306c-0.29,0.146-0.697,0.48-1.223,1.003
		c-0.816,0.844-1.737,1.658-2.763,2.443c-0.684,0.437-1.092,0.654-1.223,0.654c-0.109,0-0.164-0.054-0.164-0.164
		c0.773-1.33,1.372-2.515,1.797-3.556c0.349-0.867,0.523-1.519,0.523-1.952c0-0.344,0.166-0.516,0.5-0.516
		C243.168,21.88,243.736,22.074,244.541,22.46z M246.205,27.585c0.563,0.358,0.857,0.716,0.886,1.074
		c-0.015,0.145-0.042,0.326-0.085,0.543c-0.1,0.578-0.156,2.151-0.17,4.719c0,0.352,0.088,0.527,0.264,0.527
		c0.164,0,1.133-0.488,2.904-1.466c0.296-0.132,0.468-0.198,0.518-0.198c0.105,0,0.158,0.053,0.158,0.158
		c0,0.17-0.134,0.389-0.402,0.656c-1.991,1.994-3.273,3.318-3.848,3.974c-0.325,0.413-0.604,0.62-0.833,0.62
		c-0.334,0-0.611-0.193-0.833-0.58c-0.307-0.608-0.459-1.091-0.459-1.45c0-0.143,0.069-0.304,0.21-0.482
		c0.101-0.179,0.171-0.537,0.211-1.073c0.1-0.787,0.15-2.093,0.15-3.917c-0.029-1.033-0.174-1.815-0.435-2.345
		c-0.174-0.279-0.275-0.53-0.304-0.753c0-0.307,0.196-0.461,0.591-0.461C245.234,27.13,245.727,27.282,246.205,27.585z
		 M251.055,22.255c0.35,0,0.94,0.325,1.771,0.976c0.765,0.589,1.147,1.131,1.147,1.626c0,0.299-0.272,0.537-0.816,0.716
		c-0.99,0.268-2.104,0.671-3.342,1.207c-2.228,0.984-3.564,1.476-4.01,1.476c-0.164,0-0.246-0.089-0.246-0.269
		c0-0.119,0.059-0.193,0.176-0.224c1.063-0.697,1.985-1.456,2.767-2.275c0.639-0.638,1.313-1.579,2.022-2.823
		C250.664,22.392,250.842,22.255,251.055,22.255z M248.491,38.193c0,0,0.402,0.143,1.208,0.428c0.841,0.392,1.262,0.837,1.262,1.336
		c0,0.236-0.063,0.739-0.188,1.507c-0.176,0.946-0.263,1.98-0.263,3.103v9.928c0,0.939-0.163,1.697-0.49,2.277
		c-0.291,0.613-0.653,0.922-1.088,0.922c-0.363,0-0.709-0.4-1.035-1.197c-0.254-0.654-0.381-1.198-0.381-1.633
		c0-0.942,0.078-2,0.235-3.178c0.089-1.568,0.134-3.96,0.134-7.176c0-2.323-0.128-3.884-0.383-4.683
		c-0.255-0.689-0.4-1.034-0.438-1.034c0-0.399,0.183-0.599,0.549-0.599C248.198,38.193,248.491,38.193,248.491,38.193z
		 M250.616,26.682c2.237,2.96,3.974,4.888,5.209,5.783c1.041,0.951,2.759,1.982,5.151,3.098c0.385,0.201,0.578,0.348,0.578,0.438
		c0,0.168-0.331,0.335-0.992,0.502c-1.5,0.376-2.824,0.564-3.971,0.564c-0.722,0-1.209-0.13-1.461-0.391
		c-0.217-0.129-2.129-3.093-5.735-8.89c-0.144-0.223-0.216-0.445-0.216-0.669c0.089-0.492,0.355-0.738,0.8-0.738
		C250.211,26.38,250.423,26.481,250.616,26.682z"/>
	<path d="M276.18,20.193c0.326,0,0.674,0.427,1.041,1.279c0.245,0.772,0.368,1.463,0.368,2.072c0,0.709-0.315,1.677-0.944,2.905
		c-0.687,1.276-1.316,2.173-1.888,2.692c-0.459,0.284-0.859,0.426-1.202,0.426c-0.378,0-0.755-0.218-1.133-0.655
		c-0.21-0.357-0.314-0.773-0.314-1.25c0-0.507,0.145-0.922,0.433-1.245c0.809-0.922,1.82-2.79,3.033-5.603
		C275.689,20.401,275.891,20.193,276.18,20.193z M291.125,40.359c0.55,0.407,0.825,0.833,0.825,1.276c0,0.236-0.261,0.49-0.78,0.76
		c-0.446,0.372-0.818,0.744-1.115,1.115c-0.967,0.946-2.044,1.959-3.232,3.04c-1.785,1.352-3.605,2.517-5.464,3.497
		c-1.784,0.844-3.493,1.502-5.128,1.976c-1.487,0.405-2.379,0.608-2.676,0.608c-0.305,0-0.457-0.064-0.457-0.191
		c2.313-1.162,4.048-2.154,5.205-2.975c2.669-1.608,4.938-3.199,6.807-4.772c1.602-1.368,2.669-2.463,3.203-3.284
		c0.444-0.445,0.667-0.889,0.667-1.334c0-0.253,0.146-0.381,0.44-0.381C290.043,39.693,290.611,39.915,291.125,40.359z
		 M288.461,36.182c0.508,0.377,0.762,0.77,0.762,1.179c0,0.176-0.217,0.363-0.648,0.563c-0.371,0.275-0.68,0.55-0.927,0.825
		c-0.804,0.701-1.699,1.452-2.688,2.252c-1.482,1.001-2.997,1.864-4.541,2.59c-1.483,0.626-2.904,1.113-4.264,1.464
		c-1.236,0.3-1.978,0.45-2.225,0.45c-0.281,0-0.422-0.059-0.422-0.176c1.89-0.885,3.307-1.64,4.252-2.265
		c2.18-1.223,4.033-2.434,5.56-3.631c1.308-1.041,2.18-1.874,2.616-2.499c0.363-0.338,0.545-0.677,0.545-1.015
		c0-0.234,0.136-0.352,0.406-0.352C287.462,35.568,287.986,35.773,288.461,36.182z M288.164,29.91
		c0.592,0.439,0.889,0.897,0.889,1.375c0,0.153-0.203,0.316-0.61,0.491c-0.349,0.24-0.639,0.48-0.87,0.719
		c-0.756,0.611-1.598,1.265-2.526,1.962c-1.394,0.872-2.817,1.624-4.269,2.256c-1.395,0.545-2.73,0.971-4.008,1.275
		c-1.161,0.262-1.857,0.393-2.09,0.393c-0.328,0-0.492-0.068-0.492-0.205c1.699-0.806,2.974-1.493,3.823-2.063
		c1.961-1.114,3.627-2.216,4.999-3.308c1.177-0.948,1.961-1.707,2.354-2.276c0.327-0.308,0.49-0.616,0.49-0.925
		c0-0.273,0.157-0.41,0.474-0.41C286.998,29.193,287.61,29.432,288.164,29.91z M303.02,19.466c0,0,0.647,0.546,1.942,1.638
		c1.511,1.267,2.267,2.184,2.267,2.751c0,0.646-0.599,1.018-1.795,1.114c-1.771,0.258-3.898,0.792-6.379,1.599
		c-0.191,0-0.287-0.095-0.287-0.287c1.594-2.237,2.391-3.564,2.391-3.984c0-0.273-0.314-0.41-0.943-0.41
		c-4.814,0.092-11.561,0.845-20.235,2.26c-0.706,0.091-1.12,0.137-1.245,0.137c-1.004,0-1.738-0.217-2.204-0.652
		c-0.609-0.471-0.913-0.833-0.913-1.087s0.201-0.398,0.605-0.435h1.486c6.402-0.165,13.92-0.936,22.553-2.313
		c1.033-0.22,1.714-0.33,2.045-0.33C302.781,19.466,303.02,19.466,303.02,19.466z M295.197,26.891
		c0.571,0.249,0.857,0.559,0.857,0.931c0,0.24-0.307,0.429-0.918,0.565c-0.709,0.24-2.288,0.549-4.735,0.925
		c-3.706,0.515-6.122,0.771-7.249,0.771c-1.277,0-2.165-0.143-2.663-0.429c-0.498-0.35-0.747-0.652-0.747-0.907
		c0-0.201,0.448-0.317,1.346-0.351c2.113-0.201,4.437-0.535,6.968-1.004c1.762-0.3,3.187-0.618,4.276-0.953
		c0.385-0.133,0.642-0.201,0.77-0.201C293.642,26.24,294.34,26.458,295.197,26.891z M288.03,35.218
		c1.613,1.267,2.833,2.899,3.659,4.897c0.676,1.718,1.014,3.941,1.014,6.671c-0.056,2.021-0.372,3.974-0.951,5.857
		c-0.495,1.609-1.295,2.945-2.396,4.008c-0.469,0.445-0.922,0.668-1.363,0.668c-0.366,0-0.793-0.279-1.28-0.837
		c-0.763-0.894-2.013-2.175-3.75-3.849c0-0.127,0.114-0.189,0.343-0.189c1.78,0.432,2.861,0.646,3.24,0.646
		c0.982,0,1.713-0.818,2.191-2.453c0.664-2.054,0.996-4.264,0.996-6.631c0-2.433-0.539-4.497-1.616-6.192
		c-0.788-1.285-1.97-2.432-3.544-3.444c-0.664-0.382-0.995-0.669-0.995-0.861c0.032-0.127,0.146-0.19,0.343-0.19
		C285.57,33.741,286.941,34.374,288.03,35.218z M288.307,16.042c1.221,0.513,2.016,1.024,2.386,1.537
		c0.369,0.573,0.555,1.146,0.555,1.718c0,1.473-0.647,2.209-1.942,2.209c-0.652,0-1.516-0.812-2.591-2.436
		c-1.228-1.811-1.842-2.934-1.842-3.371c0-0.222,0.165-0.349,0.495-0.381C286.18,15.318,287.16,15.56,288.307,16.042z
		 M298.586,30.88c0.379,0,1.019,0.353,1.918,1.057c0.828,0.638,1.243,1.226,1.243,1.762c0,0.477-0.403,0.857-1.207,1.144
		c-1.463,0.429-3.108,1.072-4.937,1.93c-3.291,1.572-5.266,2.358-5.924,2.358c-0.178,0-0.267-0.097-0.267-0.291
		c0-0.129,0.063-0.21,0.19-0.242c1.796-0.978,3.354-2.041,4.671-3.189c1.078-0.892,2.216-2.21,3.413-3.954
		C297.927,31.072,298.227,30.88,298.586,30.88z M290.542,38.076c0,0,0.526,0.427,1.579,1.279c4.4,3.221,7.433,5.175,9.098,5.862
		c1.478,0.688,4.289,1.459,8.435,2.313c0.935,0.166,1.401,0.33,1.401,0.495c0,0.2-0.266,0.385-0.796,0.557l-2.978,1.027
		c-1.369,0.514-2.388,0.772-3.055,0.772c-0.72,0-1.541-0.305-2.465-0.916c-1.729-1.164-4.072-3.161-7.033-5.989
		c-1.335-1.386-2.909-2.786-4.723-4.201c-0.343-0.277-0.514-0.512-0.514-0.707c0-0.328,0.129-0.492,0.387-0.492
		C290.32,38.076,290.542,38.076,290.542,38.076z"/>
	<path d="M355.654,34.535c1.267,0.694,1.9,1.322,1.9,1.883c0,0.496-0.875,0.743-2.625,0.743c-2.54-0.063-5.277-0.094-8.212-0.094
		c-3.065,0-7.073,0.189-12.022,0.567c-3.548,0.189-7.337,0.733-11.367,1.632c-1.139,0.284-1.84,0.426-2.102,0.426
		c-0.568,0-1.42-0.247-2.556-0.741c-1.202-0.527-1.804-0.956-1.804-1.285c0-0.396,0.391-0.626,1.172-0.692
		c4.469-0.042,7.744-0.257,9.828-0.643c3.948-0.472,8.287-0.836,13.017-1.094c4.469-0.385,7.896-0.814,10.283-1.287
		c0.998-0.171,1.627-0.257,1.888-0.257C353.287,33.693,354.154,33.974,355.654,34.535z M326.7,25.708
		c1.38,0.605,2.415,1.271,3.105,1.995c0.608,0.847,0.913,1.995,0.913,3.446c0,1.195-0.492,1.793-1.477,1.793
		c-0.354,0-0.73-0.255-1.129-0.765c-0.753-0.918-1.815-2.855-3.188-5.813c-0.177-0.306-0.266-0.535-0.266-0.688
		c0.067-0.281,0.22-0.422,0.457-0.422C325.604,25.255,326.132,25.407,326.7,25.708z M345.563,17.325
		c0.619,0.269,0.929,0.605,0.929,1.008c0,0.259-0.375,0.461-1.125,0.608c-0.869,0.259-2.803,0.591-5.801,0.996
		c-4.539,0.554-7.498,0.83-8.88,0.83c-1.384,0-2.345-0.154-2.884-0.465c-0.541-0.379-0.811-0.706-0.811-0.982
		c0-0.216,0.547-0.342,1.643-0.378c2.579-0.216,5.413-0.576,8.502-1.081c2.149-0.324,3.889-0.666,5.218-1.026
		c0.469-0.144,0.782-0.216,0.938-0.216C343.877,16.619,344.635,16.854,345.563,17.325z M335.895,20.005c0,0,0.547,0.203,1.641,0.608
		c1.025,0.474,1.539,0.997,1.539,1.571c0,0.069-0.103,0.445-0.308,1.129c-0.274,1.301-0.428,2.704-0.462,4.21L338.1,45.8
		c-0.034,3.492-0.273,6.538-0.718,9.139c-0.41,1.711-0.77,2.566-1.077,2.566c-0.376,0-0.667-0.609-0.872-1.828
		c-0.069-2.063-0.103-4.789-0.103-8.178V25.068c0-1.431-0.137-2.607-0.41-3.528c-0.137-0.443-0.205-0.716-0.205-0.818
		c0-0.409,0.222-0.647,0.666-0.716C335.724,20.005,335.895,20.005,335.895,20.005z M346.955,22.443c0.361,0,1.038,0.339,2.031,1.018
		c1.083,0.859,1.625,1.446,1.625,1.763c0,0.467-0.216,0.855-0.648,1.166c-1.566,1.477-4.052,3.42-7.454,5.829
		c-0.325,0.234-0.622,0.35-0.892,0.35c-0.127,0-0.19-0.089-0.19-0.267c0-0.066,0.094-0.197,0.281-0.394
		c1.062-1.512,1.968-2.958,2.718-4.338c0.998-1.708,1.686-3.187,2.061-4.436C346.611,22.673,346.768,22.443,346.955,22.443z"/>
	<path d="M380.939,23.708c0.606,0,1.516,0.242,2.729,0.725c1.048,0.375,1.571,0.831,1.571,1.367c0,0.239-0.082,0.538-0.246,0.897
		c-0.273,0.598-0.41,1.674-0.41,3.229c0,3.469-0.613,6.598-1.841,9.39c-1.052,2.707-2.629,5.16-4.731,7.359
		c-1.929,2.03-4.295,3.68-7.1,4.948c-2.454,1.016-4.031,1.523-4.732,1.523c-0.246,0-0.369-0.096-0.369-0.287
		c0-0.086,0.297-0.298,0.89-0.638c3.56-2.039,6.378-4.162,8.454-6.37c2.373-2.378,4.006-5.012,4.896-7.899
		c0.89-2.633,1.335-5.309,1.335-8.026c0-1.845-0.198-3.137-0.595-3.875c-0.397-0.553-0.595-1.061-0.595-1.522
		C380.195,23.982,380.443,23.708,380.939,23.708z M396.653,31.182c1.31,0.82,1.964,1.446,1.964,1.875
		c-0.039,0.43-0.654,0.664-1.846,0.703c-3.597,0.095-7.707,0.4-12.332,0.918c-2.616,0.283-6.072,0.825-10.369,1.626
		c-0.841,0.189-1.355,0.283-1.542,0.283c-0.817,0-1.635-0.216-2.451-0.649c-0.974-0.393-1.46-0.766-1.46-1.121
		c0-0.157,0.366-0.314,1.099-0.472c8.669-1.116,15.785-2.165,21.349-3.147c1.947-0.401,3.176-0.603,3.686-0.603
		C394.947,30.596,395.583,30.792,396.653,31.182z M392.742,20.648c0.666,0.29,1,0.652,1,1.085c0,0.337-0.395,0.601-1.185,0.792
		c-0.915,0.337-2.951,0.769-6.109,1.297c-4.78,0.721-7.897,1.08-9.353,1.08c-1.49,0-2.525-0.167-3.106-0.501
		c-0.581-0.408-0.872-0.76-0.872-1.058c0-0.276,0.576-0.438,1.73-0.484c2.719-0.276,5.706-0.736,8.961-1.383
		c2.266-0.414,4.099-0.852,5.5-1.313c0.494-0.185,0.823-0.277,0.988-0.277C390.927,19.888,391.741,20.142,392.742,20.648z
		 M384.2,33.181c0,0,0.226,0.458,0.677,1.372c3.76,5.432,7.332,9.347,10.717,11.748c1.504,1.143,3.121,2.115,4.851,2.915l3.61,1.716
		c1.125,0.438,1.688,0.797,1.688,1.076c0,0.32-0.309,0.5-0.927,0.539c-1.441,0.398-3.638,0.6-6.589,0.6
		c-1.785,0-3.056-0.418-3.81-1.25c-1.235-1.387-2.506-3.023-3.81-4.91c-1.785-2.386-3.535-5.217-5.251-8.491
		c-0.961-1.887-1.682-3.136-2.162-3.747c-0.343-0.5-0.515-0.804-0.515-0.916c0.08-0.492,0.361-0.738,0.844-0.738
		C383.975,33.152,384.2,33.181,384.2,33.181z"/>
	<path d="M450.717,20.473c1.267,0.694,1.9,1.322,1.9,1.883c0,0.496-0.875,0.743-2.625,0.743c-2.47-0.063-5.131-0.094-7.983-0.094
		c-2.981,0-6.878,0.176-11.688,0.527c-3.45,0.176-7.133,0.681-11.05,1.515c-1.107,0.264-1.789,0.396-2.044,0.396
		c-0.568,0-1.42-0.247-2.556-0.741c-1.202-0.527-1.804-0.956-1.804-1.285c0-0.396,0.391-0.626,1.172-0.692
		c4.35-0.04,7.537-0.242,9.564-0.606c3.843-0.444,8.065-0.788,12.669-1.031c4.349-0.364,7.685-0.769,10.008-1.214
		c0.972-0.161,1.583-0.242,1.837-0.242C448.35,19.63,449.217,19.912,450.717,20.473z M432.875,23.046
		c0.915,0.403,1.373,0.927,1.373,1.57c-0.195,2.25-0.291,4.323-0.291,6.221c0,7.241-0.195,13.638-0.584,19.191
		c0,2.25-0.195,3.902-0.584,4.957c-0.393,0.93-0.745,1.395-1.059,1.395c-0.353,0-0.766-0.475-1.235-1.424
		c-0.55-1.305-0.823-2.293-0.823-2.965c0-0.289,0.132-1.012,0.396-2.167c0.527-2.792,0.856-5.585,0.989-8.379
		c0.131-3.466,0.197-7.463,0.197-11.99c0-2.338-0.218-4.062-0.652-5.171c-0.276-0.476-0.414-0.813-0.414-1.011
		c0-0.515,0.198-0.792,0.597-0.832C431.54,22.443,432.237,22.644,432.875,23.046z M441.646,34.513
		c1.051,0.305,1.927,0.813,2.627,1.523c0.508,0.785,0.806,1.549,0.891,2.292c0,0.785-0.47,1.177-1.408,1.177
		c-0.342,0-0.747-0.078-1.217-0.234c-1.432-0.747-2.769-1.563-4.013-2.451c-2.115-1.494-4.169-2.708-6.159-3.643
		c-0.281-0.122-0.422-0.286-0.422-0.491c0-0.204,0.141-0.306,0.422-0.306C436.16,32.99,439.254,33.701,441.646,34.513z"/>
</g>
<g>
	<path d="M191.145,75.856l1.705,0.431c-0.357,1.4-1.001,2.469-1.929,3.203c-0.93,0.736-2.064,1.104-3.406,1.104
		c-1.389,0-2.518-0.283-3.389-0.848c-0.869-0.566-1.532-1.385-1.986-2.457s-0.681-2.224-0.681-3.454
		c0-1.342,0.256-2.513,0.769-3.511c0.513-1,1.242-1.758,2.189-2.277c0.945-0.518,1.987-0.777,3.124-0.777
		c1.289,0,2.373,0.328,3.252,0.984s1.491,1.579,1.837,2.769l-1.679,0.396c-0.299-0.938-0.732-1.62-1.301-2.048
		s-1.283-0.642-2.145-0.642c-0.99,0-1.818,0.237-2.483,0.712s-1.132,1.112-1.401,1.911c-0.27,0.801-0.404,1.625-0.404,2.475
		c0,1.096,0.159,2.053,0.479,2.869c0.318,0.818,0.815,1.429,1.489,1.833s1.403,0.606,2.188,0.606c0.955,0,1.764-0.275,2.426-0.826
		S190.91,76.94,191.145,75.856z"/>
	<path d="M194.748,80.374V67.489h1.582v4.623c0.738-0.855,1.67-1.283,2.795-1.283c0.691,0,1.292,0.136,1.802,0.409
		c0.51,0.271,0.875,0.648,1.094,1.129c0.221,0.48,0.33,1.178,0.33,2.092v5.915h-1.582v-5.915c0-0.791-0.172-1.367-0.514-1.727
		c-0.344-0.361-0.828-0.541-1.455-0.541c-0.469,0-0.91,0.121-1.322,0.365c-0.414,0.242-0.708,0.572-0.884,0.988
		s-0.264,0.99-0.264,1.723v5.106H194.748z"/>
	<path d="M210.876,80.374v-1.371c-0.727,1.055-1.714,1.582-2.962,1.582c-0.551,0-1.065-0.105-1.542-0.316
		c-0.479-0.211-0.833-0.476-1.064-0.796c-0.231-0.318-0.394-0.71-0.487-1.173c-0.064-0.311-0.097-0.803-0.097-1.477V71.04h1.582
		v5.177c0,0.826,0.032,1.383,0.097,1.67c0.1,0.416,0.311,0.742,0.633,0.98c0.322,0.236,0.721,0.355,1.195,0.355
		s0.92-0.121,1.336-0.365c0.416-0.242,0.71-0.574,0.884-0.992c0.172-0.42,0.259-1.027,0.259-1.824V71.04h1.582v9.334H210.876z"/>
	<path d="M215.024,80.374V67.489h1.705v5.291h6.697v-5.291h1.705v12.885h-1.705v-6.073h-6.697v6.073H215.024z"/>
	<path d="M227.18,75.707c0-1.729,0.48-3.009,1.441-3.841c0.803-0.691,1.781-1.037,2.936-1.037c1.283,0,2.332,0.421,3.146,1.261
		c0.814,0.842,1.222,2.003,1.222,3.485c0,1.201-0.18,2.146-0.541,2.835c-0.359,0.688-0.885,1.223-1.572,1.604
		c-0.689,0.381-1.44,0.571-2.255,0.571c-1.307,0-2.363-0.419-3.169-1.257S227.18,77.283,227.18,75.707z M228.806,75.707
		c0,1.195,0.261,2.09,0.782,2.686c0.521,0.594,1.178,0.892,1.969,0.892c0.785,0,1.438-0.299,1.96-0.896s0.782-1.509,0.782-2.733
		c0-1.154-0.263-2.029-0.786-2.623c-0.525-0.596-1.177-0.893-1.956-0.893c-0.791,0-1.447,0.296-1.969,0.888
		S228.806,74.512,228.806,75.707z"/>
	<path d="M243.07,80.374V67.489h8.692v1.521h-6.987V73h6.047v1.521h-6.047v5.854H243.07z"/>
	<path d="M253.758,80.374V71.04h1.424v1.415c0.363-0.662,0.698-1.099,1.007-1.31c0.307-0.211,0.646-0.316,1.015-0.316
		c0.533,0,1.075,0.17,1.626,0.51l-0.545,1.468c-0.387-0.229-0.773-0.343-1.16-0.343c-0.346,0-0.656,0.104-0.932,0.312
		c-0.275,0.209-0.472,0.497-0.589,0.866c-0.176,0.563-0.264,1.178-0.264,1.846v4.887H253.758z"/>
	<path d="M259.181,75.707c0-1.729,0.48-3.009,1.441-3.841c0.803-0.691,1.781-1.037,2.936-1.037c1.283,0,2.332,0.421,3.146,1.261
		c0.814,0.842,1.222,2.003,1.222,3.485c0,1.201-0.181,2.146-0.54,2.835c-0.361,0.688-0.886,1.223-1.574,1.604
		s-1.439,0.571-2.254,0.571c-1.307,0-2.363-0.419-3.168-1.257C259.583,78.49,259.181,77.283,259.181,75.707z M260.807,75.707
		c0,1.195,0.261,2.09,0.782,2.686c0.521,0.594,1.178,0.892,1.969,0.892c0.785,0,1.438-0.299,1.96-0.896s0.782-1.509,0.782-2.733
		c0-1.154-0.263-2.029-0.787-2.623c-0.524-0.596-1.176-0.893-1.955-0.893c-0.791,0-1.447,0.296-1.969,0.888
		S260.807,74.512,260.807,75.707z"/>
	<path d="M269.78,80.374V71.04h1.415v1.31c0.293-0.457,0.683-0.824,1.169-1.104c0.486-0.277,1.04-0.417,1.661-0.417
		c0.691,0,1.258,0.144,1.7,0.431s0.755,0.688,0.937,1.204c0.738-1.09,1.699-1.635,2.883-1.635c0.926,0,1.638,0.257,2.136,0.769
		c0.498,0.514,0.747,1.303,0.747,2.369v6.407h-1.573v-5.88c0-0.633-0.052-1.088-0.154-1.367c-0.103-0.277-0.288-0.502-0.558-0.672
		s-0.586-0.255-0.949-0.255c-0.656,0-1.201,0.218-1.635,0.655c-0.434,0.436-0.65,1.135-0.65,2.096v5.423h-1.582V74.31
		c0-0.703-0.129-1.23-0.387-1.582s-0.68-0.527-1.266-0.527c-0.445,0-0.856,0.117-1.235,0.352c-0.377,0.234-0.651,0.577-0.821,1.028
		s-0.255,1.102-0.255,1.951v4.843H269.78z"/>
	<path d="M289.925,80.374V67.489h2.566l3.05,9.123c0.281,0.85,0.486,1.485,0.615,1.907c0.146-0.469,0.375-1.157,0.686-2.065
		l3.085-8.965h2.294v12.885h-1.644V69.59l-3.744,10.784h-1.538l-3.727-10.969v10.969H289.925z"/>
	<path d="M304.778,69.309v-1.819h1.582v1.819H304.778z M304.778,80.374V71.04h1.582v9.334H304.778z"/>
	<path d="M308.769,80.374V71.04h1.424v1.327c0.686-1.025,1.676-1.538,2.971-1.538c0.563,0,1.079,0.101,1.551,0.304
		c0.472,0.201,0.825,0.467,1.06,0.795s0.398,0.718,0.492,1.169c0.059,0.293,0.088,0.806,0.088,1.538v5.739h-1.582v-5.678
		c0-0.645-0.062-1.126-0.185-1.446c-0.123-0.318-0.342-0.574-0.654-0.764c-0.314-0.191-0.682-0.286-1.104-0.286
		c-0.674,0-1.256,0.214-1.744,0.642c-0.49,0.428-0.734,1.239-0.734,2.435v5.098H308.769z"/>
	<path d="M318.489,81.148l1.538,0.229c0.064,0.475,0.243,0.818,0.536,1.037c0.393,0.291,0.929,0.439,1.608,0.439
		c0.732,0,1.298-0.148,1.696-0.439c0.398-0.295,0.668-0.703,0.809-1.23c0.082-0.323,0.12-1,0.114-2.031
		c-0.691,0.814-1.553,1.222-2.584,1.222c-1.283,0-2.276-0.463-2.979-1.389s-1.055-2.036-1.055-3.331
		c0-0.891,0.161-1.713,0.483-2.465c0.322-0.754,0.789-1.335,1.401-1.745s1.332-0.615,2.158-0.615c1.102,0,2.01,0.445,2.725,1.336
		V71.04h1.459v8.068c0,1.453-0.148,2.483-0.443,3.089c-0.297,0.607-0.766,1.086-1.406,1.438c-0.643,0.352-1.432,0.527-2.369,0.527
		c-1.113,0-2.013-0.25-2.698-0.752C318.797,82.91,318.466,82.154,318.489,81.148z M319.799,75.54c0,1.225,0.243,2.118,0.729,2.681
		s1.096,0.844,1.828,0.844c0.727,0,1.336-0.279,1.828-0.84c0.492-0.559,0.738-1.437,0.738-2.632c0-1.143-0.254-2.004-0.76-2.584
		c-0.508-0.58-1.118-0.87-1.833-0.87c-0.703,0-1.301,0.285-1.793,0.857C320.045,73.566,319.799,74.415,319.799,75.54z"/>
	<path d="M333.993,80.374V67.489h4.438c1.002,0,1.767,0.062,2.294,0.185c0.738,0.17,1.368,0.478,1.89,0.923
		c0.68,0.574,1.188,1.308,1.524,2.202c0.337,0.893,0.506,1.914,0.506,3.063c0,0.979-0.114,1.846-0.343,2.602
		s-0.521,1.381-0.879,1.877c-0.357,0.494-0.749,0.885-1.173,1.168c-0.426,0.285-0.938,0.5-1.539,0.646s-1.29,0.22-2.069,0.22
		H333.993z M335.698,78.854h2.751c0.85,0,1.517-0.079,1.999-0.237c0.484-0.158,0.869-0.381,1.156-0.668
		c0.404-0.404,0.719-0.948,0.945-1.63c0.225-0.684,0.338-1.511,0.338-2.483c0-1.348-0.222-2.384-0.664-3.106
		c-0.442-0.725-0.979-1.209-1.612-1.455c-0.457-0.176-1.192-0.264-2.206-0.264h-2.707V78.854z"/>
	<path d="M346.72,83.969l-0.176-1.484c0.346,0.092,0.647,0.141,0.905,0.141c0.352,0,0.633-0.061,0.844-0.176
		c0.211-0.119,0.384-0.281,0.519-0.492c0.1-0.158,0.261-0.553,0.483-1.179c0.029-0.088,0.076-0.217,0.141-0.387l-3.542-9.352h1.705
		l1.942,5.405c0.252,0.686,0.478,1.406,0.677,2.162c0.182-0.727,0.398-1.436,0.65-2.127l1.995-5.44h1.582l-3.551,9.492
		c-0.381,1.024-0.677,1.731-0.888,2.118c-0.281,0.521-0.604,0.904-0.967,1.146c-0.363,0.244-0.797,0.365-1.301,0.365
		C347.435,84.162,347.095,84.098,346.72,83.969z"/>
	<path d="M355.79,80.374V71.04h1.424v1.327c0.686-1.025,1.676-1.538,2.971-1.538c0.563,0,1.079,0.101,1.551,0.304
		c0.472,0.201,0.825,0.467,1.06,0.795s0.398,0.718,0.492,1.169c0.059,0.293,0.088,0.806,0.088,1.538v5.739h-1.582v-5.678
		c0-0.645-0.062-1.126-0.185-1.446c-0.123-0.318-0.342-0.574-0.654-0.764c-0.314-0.191-0.682-0.286-1.104-0.286
		c-0.674,0-1.256,0.214-1.744,0.642c-0.49,0.428-0.734,1.239-0.734,2.435v5.098H355.79z"/>
	<path d="M371.892,79.223c-0.586,0.498-1.15,0.85-1.691,1.055c-0.543,0.205-1.124,0.308-1.745,0.308
		c-1.025,0-1.813-0.251-2.364-0.751c-0.551-0.502-0.826-1.142-0.826-1.921c0-0.457,0.104-0.874,0.313-1.253
		c0.207-0.377,0.479-0.681,0.816-0.909s0.717-0.401,1.139-0.519c0.311-0.082,0.779-0.161,1.406-0.237
		c1.277-0.152,2.218-0.334,2.821-0.545c0.006-0.217,0.009-0.354,0.009-0.413c0-0.645-0.149-1.099-0.448-1.362
		c-0.404-0.357-1.005-0.536-1.802-0.536c-0.744,0-1.294,0.131-1.648,0.391c-0.354,0.262-0.616,0.723-0.786,1.385l-1.547-0.211
		c0.141-0.662,0.372-1.197,0.694-1.604c0.322-0.408,0.788-0.721,1.397-0.941c0.609-0.219,1.315-0.329,2.118-0.329
		c0.797,0,1.444,0.094,1.942,0.281s0.864,0.423,1.099,0.708c0.234,0.283,0.398,0.643,0.492,1.076
		c0.053,0.27,0.079,0.756,0.079,1.459v2.109c0,1.471,0.033,2.4,0.101,2.791c0.067,0.389,0.201,0.763,0.4,1.12h-1.652
		C372.044,80.046,371.938,79.662,371.892,79.223z M371.76,75.689c-0.574,0.234-1.436,0.434-2.584,0.598
		c-0.65,0.094-1.11,0.199-1.38,0.316s-0.478,0.289-0.624,0.514c-0.146,0.227-0.22,0.477-0.22,0.752c0,0.422,0.159,0.773,0.479,1.055
		s0.787,0.422,1.402,0.422c0.609,0,1.151-0.133,1.626-0.4c0.475-0.266,0.823-0.631,1.046-1.094c0.17-0.357,0.255-0.885,0.255-1.582
		V75.689z"/>
	<path d="M375.179,77.588l1.564-0.246c0.088,0.627,0.332,1.107,0.734,1.441c0.4,0.334,0.962,0.501,1.683,0.501
		c0.727,0,1.266-0.147,1.617-0.444c0.352-0.295,0.527-0.643,0.527-1.041c0-0.357-0.155-0.639-0.466-0.844
		c-0.217-0.141-0.756-0.319-1.617-0.536c-1.16-0.293-1.965-0.546-2.412-0.761c-0.449-0.213-0.789-0.51-1.02-0.887
		c-0.232-0.379-0.348-0.796-0.348-1.253c0-0.416,0.095-0.802,0.285-1.155c0.19-0.355,0.45-0.649,0.778-0.884
		c0.246-0.182,0.581-0.335,1.007-0.462c0.424-0.125,0.88-0.188,1.366-0.188c0.732,0,1.376,0.105,1.929,0.316
		c0.555,0.211,0.963,0.497,1.227,0.856c0.264,0.361,0.445,0.843,0.545,1.446l-1.547,0.211c-0.07-0.48-0.274-0.855-0.611-1.125
		s-0.813-0.404-1.428-0.404c-0.727,0-1.245,0.12-1.556,0.36s-0.466,0.521-0.466,0.844c0,0.205,0.064,0.39,0.193,0.554
		c0.129,0.17,0.331,0.311,0.606,0.422c0.158,0.059,0.624,0.193,1.397,0.404c1.119,0.299,1.899,0.544,2.342,0.733
		c0.442,0.191,0.79,0.468,1.042,0.831s0.378,0.814,0.378,1.354c0,0.527-0.154,1.024-0.461,1.489
		c-0.309,0.467-0.752,0.826-1.332,1.082c-0.58,0.254-1.236,0.382-1.969,0.382c-1.213,0-2.138-0.252-2.773-0.756
		S375.354,78.578,375.179,77.588z"/>
	<path d="M388.266,78.959l0.229,1.397c-0.445,0.094-0.844,0.141-1.195,0.141c-0.574,0-1.02-0.091-1.336-0.272
		s-0.539-0.42-0.668-0.717c-0.129-0.295-0.193-0.918-0.193-1.867v-5.37h-1.16v-1.23h1.16v-2.312l1.573-0.949v3.261h1.591v1.23
		h-1.591v5.458c0,0.451,0.027,0.741,0.084,0.87c0.055,0.129,0.146,0.231,0.271,0.308s0.307,0.114,0.541,0.114
		C387.747,79.021,387.979,79,388.266,78.959z"/>
	<path d="M389.742,83.969l-0.176-1.484c0.346,0.092,0.647,0.141,0.905,0.141c0.352,0,0.633-0.061,0.844-0.176
		c0.211-0.119,0.384-0.281,0.519-0.492c0.1-0.158,0.261-0.553,0.483-1.179c0.029-0.088,0.076-0.217,0.141-0.387l-3.542-9.352h1.705
		l1.942,5.405c0.252,0.686,0.478,1.406,0.677,2.162c0.182-0.727,0.398-1.436,0.65-2.127l1.995-5.44h1.582l-3.551,9.492
		c-0.381,1.024-0.677,1.731-0.888,2.118c-0.281,0.521-0.604,0.904-0.967,1.146c-0.363,0.244-0.797,0.365-1.301,0.365
		C390.457,84.162,390.117,84.098,389.742,83.969z"/>
</g>
</svg>
